<svg width="874" height="82" viewBox="0 0 874 82" fill="none" xmlns="http://www.w3.org/2000/svg">
<path d="M201.24 43.5232V41.0832H210.76V43.5232H201.24ZM201.24 48.4832V46.0432H210.76V48.4832H201.24Z" fill="white"/>
<path d="M436.7 49.4032V40.1632H439.28V49.4032H436.7ZM433.24 46.0032V43.5632H442.76V46.0032H433.24Z" fill="white"/>
<path d="M664.7 49.4032V40.1632H667.28V49.4032H664.7ZM661.24 46.0032V43.5632H670.76V46.0032H661.24Z" fill="white"/>
<path d="M10.0067 25.2754V23.2121L15.3123 18.2012C15.7316 17.8213 16.0394 17.4807 16.2359 17.1794C16.4324 16.878 16.5634 16.6029 16.6289 16.354C16.7075 16.1051 16.7468 15.8759 16.7468 15.6663C16.7468 15.116 16.5569 14.6968 16.177 14.4086C15.8102 14.1073 15.2665 13.9567 14.546 13.9567C13.9696 13.9567 13.4324 14.068 12.9346 14.2907C12.4499 14.5134 12.0372 14.8606 11.6966 15.3322L9.37787 13.8388C9.90188 13.0527 10.6355 12.4305 11.5787 11.9719C12.522 11.5134 13.6093 11.2842 14.8407 11.2842C15.8626 11.2842 16.7534 11.4545 17.5132 11.7951C18.2861 12.1226 18.8822 12.5877 19.3014 13.1903C19.7337 13.7929 19.9499 14.5134 19.9499 15.3518C19.9499 15.7973 19.8909 16.2427 19.773 16.6881C19.6682 17.1204 19.4455 17.5789 19.1049 18.0636C18.7774 18.5483 18.2927 19.092 17.6508 19.6946L13.249 23.8409L12.6399 22.6815H20.4018V25.2754H10.0067ZM27.6105 25.5112C26.4839 25.5112 25.4752 25.2361 24.5843 24.6859C23.6935 24.1226 22.9926 23.3103 22.4817 22.2492C21.9708 21.1881 21.7154 19.9042 21.7154 18.3977C21.7154 16.8911 21.9708 15.6073 22.4817 14.5462C22.9926 13.485 23.6935 12.6794 24.5843 12.1292C25.4752 11.5658 26.4839 11.2842 27.6105 11.2842C28.7503 11.2842 29.759 11.5658 30.6367 12.1292C31.5275 12.6794 32.2284 13.485 32.7393 14.5462C33.2502 15.6073 33.5057 16.8911 33.5057 18.3977C33.5057 19.9042 33.2502 21.1881 32.7393 22.2492C32.2284 23.3103 31.5275 24.1226 30.6367 24.6859C29.759 25.2361 28.7503 25.5112 27.6105 25.5112ZM27.6105 22.8191C28.1476 22.8191 28.6127 22.6684 29.0057 22.3671C29.4118 22.0658 29.7262 21.5876 29.949 20.9326C30.1848 20.2776 30.3027 19.4326 30.3027 18.3977C30.3027 17.3628 30.1848 16.5178 29.949 15.8628C29.7262 15.2077 29.4118 14.7296 29.0057 14.4283C28.6127 14.127 28.1476 13.9763 27.6105 13.9763C27.0865 13.9763 26.6215 14.127 26.2153 14.4283C25.8223 14.7296 25.5079 15.2077 25.2721 15.8628C25.0494 16.5178 24.9381 17.3628 24.9381 18.3977C24.9381 19.4326 25.0494 20.2776 25.2721 20.9326C25.5079 21.5876 25.8223 22.0658 26.2153 22.3671C26.6215 22.6684 27.0865 22.8191 27.6105 22.8191Z" fill="#91CB00"/>
<path d="M16.2359 45.3736C15.3735 45.3736 14.5711 45.2317 13.8287 44.9479C13.0973 44.6531 12.4586 44.2437 11.9128 43.7197C11.3779 43.1848 10.9576 42.568 10.6519 41.8693C10.3571 41.1597 10.2097 40.3846 10.2097 39.544C10.2097 38.7034 10.3571 37.9337 10.6519 37.235C10.9576 36.5254 11.3779 35.9086 11.9128 35.3846C12.4586 34.8497 13.0973 34.4403 13.8287 34.1564C14.5602 33.8617 15.3626 33.7143 16.2359 33.7143C17.0984 33.7143 17.8953 33.8617 18.6267 34.1564C19.3582 34.4403 19.9914 34.8442 20.5263 35.3682C21.0721 35.8922 21.4924 36.509 21.7872 37.2187C22.0929 37.9283 22.2457 38.7034 22.2457 39.544C22.2457 40.3846 22.0929 41.1597 21.7872 41.8693C21.4924 42.5789 21.0721 43.1957 20.5263 43.7197C19.9914 44.2437 19.3582 44.6531 18.6267 44.9479C17.8953 45.2317 17.0984 45.3736 16.2359 45.3736ZM16.2359 44.2929C16.9237 44.2929 17.5569 44.1782 18.1355 43.949C18.725 43.7088 19.2326 43.3758 19.6584 42.9501C20.0951 42.5134 20.4335 42.0112 20.6737 41.4435C20.9138 40.8649 21.0339 40.2317 21.0339 39.544C21.0339 38.8562 20.9138 38.2285 20.6737 37.6608C20.4335 37.0822 20.0951 36.58 19.6584 36.1542C19.2326 35.7176 18.725 35.3846 18.1355 35.1553C17.5569 34.9152 16.9237 34.7951 16.2359 34.7951C15.5481 34.7951 14.9095 34.9152 14.32 35.1553C13.7305 35.3846 13.2174 35.7176 12.7807 36.1542C12.3549 36.58 12.0165 37.0822 11.7654 37.6608C11.5252 38.2285 11.4052 38.8562 11.4052 39.544C11.4052 40.2208 11.5252 40.8486 11.7654 41.4272C12.0165 42.0058 12.3549 42.5134 12.7807 42.9501C13.2174 43.3758 13.7305 43.7088 14.32 43.949C14.9095 44.1782 15.5481 44.2929 16.2359 44.2929ZM29.154 45.3573C28.4116 45.3573 27.7402 45.1881 27.1398 44.8496C26.5394 44.5003 26.059 44.0036 25.6988 43.3595C25.3494 42.7044 25.1748 41.9075 25.1748 40.9686C25.1748 40.0298 25.3494 39.2383 25.6988 38.5942C26.0481 37.9392 26.523 37.4425 27.1234 37.104C27.7239 36.7656 28.4007 36.5964 29.154 36.5964C29.9728 36.5964 30.7042 36.782 31.3483 37.1532C32.0033 37.5134 32.5164 38.0265 32.8876 38.6924C33.2588 39.3475 33.4444 40.1062 33.4444 40.9686C33.4444 41.842 33.2588 42.6062 32.8876 43.2612C32.5164 43.9162 32.0033 44.4293 31.3483 44.8005C30.7042 45.1717 29.9728 45.3573 29.154 45.3573ZM24.7162 48.4522V36.6783H25.8298V39.2656L25.7151 40.985L25.8789 42.7208V48.4522H24.7162ZM29.0721 44.3256C29.6835 44.3256 30.2293 44.1892 30.7097 43.9162C31.19 43.6324 31.5721 43.2394 31.856 42.7372C32.1398 42.2241 32.2817 41.6346 32.2817 40.9686C32.2817 40.3027 32.1398 39.7186 31.856 39.2165C31.5721 38.7143 31.19 38.3213 30.7097 38.0374C30.2293 37.7536 29.6835 37.6117 29.0721 37.6117C28.4608 37.6117 27.9095 37.7536 27.4182 38.0374C26.9378 38.3213 26.5558 38.7143 26.2719 39.2165C25.999 39.7186 25.8625 40.3027 25.8625 40.9686C25.8625 41.6346 25.999 42.2241 26.2719 42.7372C26.5558 43.2394 26.9378 43.6324 27.4182 43.9162C27.9095 44.1892 28.4608 44.3256 29.0721 44.3256ZM39.4662 45.3573C38.571 45.3573 37.785 45.1717 37.1081 44.8005C36.4313 44.4184 35.9018 43.8999 35.5197 43.2448C35.1376 42.5789 34.9466 41.8202 34.9466 40.9686C34.9466 40.1171 35.1267 39.3638 35.487 38.7088C35.8581 38.0538 36.3603 37.5407 36.9935 37.1695C37.6376 36.7874 38.3581 36.5964 39.1551 36.5964C39.9629 36.5964 40.678 36.782 41.3003 37.1532C41.9334 37.5134 42.4302 38.0265 42.7904 38.6924C43.1507 39.3475 43.3308 40.1062 43.3308 40.9686C43.3308 41.0232 43.3254 41.0833 43.3144 41.1488C43.3144 41.2034 43.3144 41.2634 43.3144 41.3289H35.8308V40.461H42.6922L42.2337 40.8049C42.2337 40.1826 42.0972 39.6313 41.8243 39.151C41.5623 38.6597 41.202 38.2776 40.7435 38.0047C40.285 37.7318 39.7555 37.5953 39.1551 37.5953C38.5655 37.5953 38.0361 37.7318 37.5666 38.0047C37.0972 38.2776 36.7315 38.6597 36.4695 39.151C36.2075 39.6422 36.0765 40.2044 36.0765 40.8376V41.0178C36.0765 41.6728 36.2184 42.2514 36.5022 42.7536C36.797 43.2448 37.2009 43.6324 37.714 43.9162C38.238 44.1892 38.833 44.3256 39.499 44.3256C40.023 44.3256 40.5088 44.2328 40.9564 44.0472C41.4149 43.8616 41.8079 43.5778 42.1354 43.1957L42.7904 43.949C42.4083 44.4075 41.928 44.7568 41.3494 44.997C40.7817 45.2372 40.154 45.3573 39.4662 45.3573ZM45.6973 45.2754V36.6783H46.8109V39.02L46.6962 38.6106C46.9364 37.9556 47.3403 37.4588 47.908 37.1204C48.4757 36.7711 49.1798 36.5964 50.0205 36.5964V37.7263C49.9768 37.7263 49.9331 37.7263 49.8894 37.7263C49.8458 37.7154 49.8021 37.7099 49.7584 37.7099C48.8523 37.7099 48.1427 37.9883 47.6296 38.5451C47.1165 39.0909 46.86 39.8715 46.86 40.8868V45.2754H45.6973ZM56.8898 45.2754V43.3758L56.8407 43.0647V39.8879C56.8407 39.1564 56.6333 38.5942 56.2184 38.2012C55.8145 37.8082 55.2086 37.6117 54.4008 37.6117C53.844 37.6117 53.3145 37.7045 52.8123 37.89C52.3102 38.0756 51.8844 38.3213 51.5351 38.6269L51.011 37.759C51.4477 37.3879 51.9717 37.104 52.5831 36.9075C53.1944 36.7001 53.8385 36.5964 54.5154 36.5964C55.6289 36.5964 56.4859 36.8748 57.0863 37.4315C57.6977 37.9774 58.0034 38.8125 58.0034 39.937V45.2754H56.8898ZM53.9259 45.3573C53.2818 45.3573 52.7196 45.2536 52.2392 45.0461C51.7698 44.8278 51.4095 44.533 51.1584 44.1619C50.9073 43.7798 50.7818 43.3431 50.7818 42.8518C50.7818 42.4042 50.8855 42.0003 51.0929 41.64C51.3113 41.2689 51.6606 40.9741 52.141 40.7558C52.6322 40.5265 53.2872 40.4119 54.106 40.4119H57.07V41.2798H54.1388C53.3091 41.2798 52.7305 41.4272 52.403 41.7219C52.0864 42.0167 51.9281 42.3824 51.9281 42.8191C51.9281 43.3103 52.1191 43.7033 52.5012 43.9981C52.8833 44.2929 53.4182 44.4402 54.106 44.4402C54.761 44.4402 55.3233 44.2929 55.7927 43.9981C56.273 43.6924 56.6224 43.2557 56.8407 42.6881L57.1027 43.4905C56.8844 44.0581 56.5023 44.5112 55.9564 44.8496C55.4215 45.1881 54.7447 45.3573 53.9259 45.3573ZM63.8796 45.3573C63.0718 45.3573 62.4495 45.1389 62.0128 44.7022C61.5761 44.2656 61.3578 43.6488 61.3578 42.8518V34.7787H62.5204V42.7863C62.5204 43.2885 62.646 43.6761 62.8971 43.949C63.1591 44.2219 63.5303 44.3584 64.0106 44.3584C64.5237 44.3584 64.9495 44.211 65.2879 43.9162L65.6973 44.7514C65.468 44.9588 65.1896 45.1116 64.8621 45.2099C64.5455 45.3081 64.218 45.3573 63.8796 45.3573ZM59.8185 37.6444V36.6783H65.1405V37.6444H59.8185ZM67.8138 45.2754V36.6783H68.9765V45.2754H67.8138ZM68.4033 34.7787C68.1632 34.7787 67.9612 34.6968 67.7974 34.5331C67.6337 34.3693 67.5518 34.1728 67.5518 33.9436C67.5518 33.7143 67.6337 33.5233 67.7974 33.3704C67.9612 33.2067 68.1632 33.1248 68.4033 33.1248C68.6435 33.1248 68.8455 33.2012 69.0092 33.354C69.173 33.5069 69.2549 33.6979 69.2549 33.9272C69.2549 34.1674 69.173 34.3693 69.0092 34.5331C68.8564 34.6968 68.6544 34.7787 68.4033 34.7787ZM75.7159 45.3573C74.8862 45.3573 74.1384 45.1717 73.4724 44.8005C72.8174 44.4184 72.2989 43.8999 71.9168 43.2448C71.5347 42.5789 71.3436 41.8202 71.3436 40.9686C71.3436 40.1062 71.5347 39.3475 71.9168 38.6924C72.2989 38.0374 72.8174 37.5243 73.4724 37.1532C74.1275 36.782 74.8753 36.5964 75.7159 36.5964C76.5674 36.5964 77.3207 36.782 77.9757 37.1532C78.6416 37.5243 79.1602 38.0374 79.5314 38.6924C79.9135 39.3475 80.1045 40.1062 80.1045 40.9686C80.1045 41.8202 79.9135 42.5789 79.5314 43.2448C79.1602 43.8999 78.6416 44.4184 77.9757 44.8005C77.3098 45.1717 76.5565 45.3573 75.7159 45.3573ZM75.7159 44.3256C76.3382 44.3256 76.8895 44.1892 77.3698 43.9162C77.8502 43.6324 78.2268 43.2394 78.4997 42.7372C78.7836 42.2241 78.9255 41.6346 78.9255 40.9686C78.9255 40.2918 78.7836 39.7023 78.4997 39.2001C78.2268 38.6979 77.8502 38.3104 77.3698 38.0374C76.8895 37.7536 76.3436 37.6117 75.7323 37.6117C75.1209 37.6117 74.5751 37.7536 74.0947 38.0374C73.6144 38.3104 73.2323 38.6979 72.9484 39.2001C72.6646 39.7023 72.5227 40.2918 72.5227 40.9686C72.5227 41.6346 72.6646 42.2241 72.9484 42.7372C73.2323 43.2394 73.6144 43.6324 74.0947 43.9162C74.5751 44.1892 75.1155 44.3256 75.7159 44.3256ZM86.8668 36.5964C87.5655 36.5964 88.1769 36.7328 88.7009 37.0058C89.2358 37.2678 89.6507 37.6717 89.9454 38.2176C90.2511 38.7634 90.4039 39.4512 90.4039 40.2809V45.2754H89.2413V40.3955C89.2413 39.4894 89.012 38.8071 88.5535 38.3486C88.1059 37.8791 87.4727 37.6444 86.6539 37.6444C86.0426 37.6444 85.5077 37.77 85.0491 38.0211C84.6015 38.2612 84.2522 38.616 84.0011 39.0855C83.7609 39.544 83.6408 40.1007 83.6408 40.7558V45.2754H82.4782V36.6783H83.5917V39.0363L83.4116 38.5942C83.6845 37.9719 84.1212 37.4861 84.7216 37.1368C85.3221 36.7765 86.0371 36.5964 86.8668 36.5964ZM98.932 45.2754V43.3758L98.8828 43.0647V39.8879C98.8828 39.1564 98.6754 38.5942 98.2606 38.2012C97.8566 37.8082 97.2508 37.6117 96.4429 37.6117C95.8861 37.6117 95.3567 37.7045 94.8545 37.89C94.3523 38.0756 93.9265 38.3213 93.5772 38.6269L93.0532 37.759C93.4899 37.3879 94.0139 37.104 94.6252 36.9075C95.2366 36.7001 95.8807 36.5964 96.5575 36.5964C97.6711 36.5964 98.528 36.8748 99.1285 37.4315C99.7398 37.9774 100.046 38.8125 100.046 39.937V45.2754H98.932ZM95.968 45.3573C95.3239 45.3573 94.7617 45.2536 94.2813 45.0461C93.8119 44.8278 93.4516 44.533 93.2006 44.1619C92.9495 43.7798 92.8239 43.3431 92.8239 42.8518C92.8239 42.4042 92.9276 42.0003 93.135 41.64C93.3534 41.2689 93.7027 40.9741 94.1831 40.7558C94.6743 40.5265 95.3294 40.4119 96.1481 40.4119H99.1121V41.2798H96.1809C95.3512 41.2798 94.7726 41.4272 94.4451 41.7219C94.1285 42.0167 93.9702 42.3824 93.9702 42.8191C93.9702 43.3103 94.1612 43.7033 94.5433 43.9981C94.9254 44.2929 95.4604 44.4402 96.1481 44.4402C96.8032 44.4402 97.3654 44.2929 97.8348 43.9981C98.3152 43.6924 98.6645 43.2557 98.8828 42.6881L99.1449 43.4905C98.9265 44.0581 98.5444 44.5112 97.9986 44.8496C97.4636 45.1881 96.7868 45.3573 95.968 45.3573ZM103.203 45.2754V33.1248H104.366V45.2754H103.203ZM11.225 65.2754V53.8126H12.2239L17.4641 62.7536H16.9401L22.1311 53.8126H23.13V65.2754H21.9673V55.6302H22.2457L17.4641 63.818H16.8909L12.0765 55.6302H12.3877V65.2754H11.225ZM26.6193 65.2754V56.6783H27.7819V65.2754H26.6193ZM27.2088 54.7787C26.9686 54.7787 26.7666 54.6968 26.6029 54.5331C26.4391 54.3693 26.3572 54.1728 26.3572 53.9436C26.3572 53.7143 26.4391 53.5233 26.6029 53.3704C26.7666 53.2067 26.9686 53.1248 27.2088 53.1248C27.4489 53.1248 27.6509 53.2012 27.8147 53.354C27.9784 53.5069 28.0603 53.6979 28.0603 53.9272C28.0603 54.1674 27.9784 54.3693 27.8147 54.5331C27.6618 54.6968 27.4599 54.7787 27.2088 54.7787ZM35.4056 56.5964C36.1043 56.5964 36.7156 56.7328 37.2396 57.0058C37.7746 57.2678 38.1894 57.6717 38.4842 58.2176C38.7899 58.7634 38.9427 59.4512 38.9427 60.2809V65.2754H37.78V60.3955C37.78 59.4894 37.5508 58.8071 37.0923 58.3486C36.6447 57.8791 36.0115 57.6444 35.1927 57.6444C34.5814 57.6444 34.0464 57.77 33.5879 58.0211C33.1403 58.2612 32.791 58.616 32.5399 59.0855C32.2997 59.544 32.1796 60.1007 32.1796 60.7558V65.2754H31.017V56.6783H32.1305V59.0363L31.9504 58.5942C32.2233 57.9719 32.66 57.4861 33.2604 57.1368C33.8608 56.7765 34.5759 56.5964 35.4056 56.5964ZM45.7349 65.3573C44.8397 65.3573 44.0537 65.1717 43.3769 64.8005C42.7 64.4184 42.1705 63.8999 41.7884 63.2448C41.4064 62.5789 41.2153 61.8202 41.2153 60.9686C41.2153 60.1171 41.3954 59.3638 41.7557 58.7088C42.1269 58.0538 42.6291 57.5407 43.2622 57.1695C43.9063 56.7874 44.6269 56.5964 45.4238 56.5964C46.2317 56.5964 46.9467 56.782 47.569 57.1532C48.2022 57.5134 48.6989 58.0265 49.0592 58.6924C49.4194 59.3475 49.5996 60.1062 49.5996 60.9686C49.5996 61.0232 49.5941 61.0833 49.5832 61.1488C49.5832 61.2034 49.5832 61.2634 49.5832 61.3289H42.0996V60.461H48.9609L48.5024 60.8049C48.5024 60.1826 48.3659 59.6313 48.093 59.151C47.831 58.6597 47.4707 58.2776 47.0122 58.0047C46.5537 57.7318 46.0242 57.5953 45.4238 57.5953C44.8343 57.5953 44.3048 57.7318 43.8354 58.0047C43.366 58.2776 43.0002 58.6597 42.7382 59.151C42.4762 59.6422 42.3452 60.2044 42.3452 60.8376V61.0178C42.3452 61.6728 42.4871 62.2514 42.771 62.7536C43.0657 63.2448 43.4697 63.6324 43.9828 63.9162C44.5068 64.1892 45.1018 64.3256 45.7677 64.3256C46.2917 64.3256 46.7775 64.2328 47.2251 64.0472C47.6836 63.8616 48.0766 63.5778 48.4041 63.1957L49.0592 63.949C48.6771 64.4075 48.1967 64.7568 47.6181 64.997C47.0504 65.2372 46.4227 65.3573 45.7349 65.3573ZM54.275 65.3573C53.5654 65.3573 52.894 65.259 52.2608 65.0625C51.6276 64.8551 51.1309 64.5985 50.7707 64.2929L51.2947 63.3758C51.644 63.6378 52.0916 63.8671 52.6375 64.0636C53.1833 64.2492 53.7564 64.342 54.3569 64.342C55.1757 64.342 55.7652 64.2164 56.1254 63.9654C56.4857 63.7033 56.6658 63.3595 56.6658 62.9337C56.6658 62.6171 56.5621 62.3715 56.3547 62.1968C56.1582 62.0112 55.8962 61.8747 55.5687 61.7874C55.2412 61.6892 54.8754 61.6073 54.4715 61.5418C54.0676 61.4763 53.6637 61.3999 53.2597 61.3125C52.8667 61.2252 52.5065 61.0996 52.1789 60.9359C51.8514 60.7612 51.584 60.5265 51.3765 60.2317C51.18 59.937 51.0818 59.544 51.0818 59.0527C51.0818 58.5833 51.2128 58.163 51.4748 57.7918C51.7368 57.4206 52.1189 57.1313 52.6211 56.9239C53.1342 56.7056 53.7564 56.5964 54.4879 56.5964C55.0447 56.5964 55.6014 56.6728 56.1582 56.8256C56.715 56.9676 57.1735 57.1586 57.5337 57.3988L57.0261 58.3322C56.644 58.0702 56.2346 57.8846 55.7979 57.7754C55.3612 57.6553 54.9246 57.5953 54.4879 57.5953C53.7128 57.5953 53.1396 57.7318 52.7685 58.0047C52.4082 58.2667 52.2281 58.6051 52.2281 59.02C52.2281 59.3475 52.3263 59.604 52.5228 59.7896C52.7303 59.9752 52.9977 60.1226 53.3252 60.2317C53.6637 60.33 54.0294 60.4119 54.4224 60.4774C54.8263 60.5429 55.2248 60.6248 55.6178 60.723C56.0217 60.8103 56.3874 60.9359 56.715 61.0996C57.0534 61.2525 57.3208 61.4763 57.5174 61.771C57.7248 62.0549 57.8285 62.4315 57.8285 62.9009C57.8285 63.4031 57.6866 63.8398 57.4027 64.211C57.1298 64.5712 56.7259 64.8551 56.1909 65.0625C55.6669 65.259 55.0283 65.3573 54.275 65.3573Z" fill="white"/>
<rect x="0.409387" y="0.409387" width="186.312" height="81.0586" stroke="white" stroke-width="0.818774"/>
<path d="M246.004 25.2754V12.699L247.38 14.0746H243.253V11.52H249.188V25.2754H246.004ZM257.728 25.5112C256.47 25.5112 255.376 25.2492 254.446 24.7252C253.529 24.2012 252.822 23.4348 252.324 22.4261C251.826 21.4173 251.577 20.1728 251.577 18.6924C251.577 17.1073 251.872 15.7645 252.461 14.6641C253.064 13.5636 253.889 12.7252 254.937 12.1488C255.998 11.5724 257.217 11.2842 258.592 11.2842C259.326 11.2842 260.027 11.3628 260.695 11.52C261.363 11.6772 261.939 11.913 262.424 12.2274L261.245 14.5658C260.865 14.3038 260.459 14.127 260.027 14.0353C259.594 13.9305 259.143 13.8781 258.671 13.8781C257.479 13.8781 256.536 14.2383 255.841 14.9588C255.147 15.6794 254.8 16.747 254.8 18.1619C254.8 18.3977 254.8 18.6597 254.8 18.9479C254.813 19.2361 254.852 19.5243 254.918 19.8125L254.033 18.9872C254.282 18.4763 254.603 18.0505 254.996 17.7099C255.389 17.3562 255.854 17.0942 256.391 16.9239C256.942 16.7405 257.544 16.6488 258.199 16.6488C259.09 16.6488 259.889 16.8256 260.597 17.1794C261.304 17.5331 261.867 18.0309 262.287 18.6728C262.719 19.3147 262.935 20.068 262.935 20.9326C262.935 21.8627 262.699 22.675 262.228 23.3693C261.769 24.0505 261.147 24.5811 260.361 24.961C259.588 25.3278 258.71 25.5112 257.728 25.5112ZM257.551 23.1335C257.996 23.1335 258.389 23.0549 258.73 22.8977C259.084 22.7274 259.359 22.485 259.555 22.1706C259.752 21.8562 259.85 21.4959 259.85 21.0898C259.85 20.461 259.634 19.9632 259.201 19.5964C258.782 19.2165 258.219 19.0265 257.512 19.0265C257.04 19.0265 256.627 19.1182 256.274 19.3016C255.92 19.4719 255.638 19.7143 255.429 20.0287C255.232 20.33 255.134 20.6837 255.134 21.0898C255.134 21.4828 255.232 21.8365 255.429 22.1509C255.625 22.4523 255.9 22.6946 256.254 22.878C256.608 23.0483 257.04 23.1335 257.551 23.1335Z" fill="#91CB00"/>
<path d="M250.01 45.3736C249.136 45.3736 248.328 45.2317 247.586 44.9479C246.855 44.6531 246.216 44.2437 245.67 43.7197C245.135 43.1957 244.715 42.5789 244.409 41.8693C244.114 41.1597 243.967 40.3846 243.967 39.544C243.967 38.7034 244.114 37.9283 244.409 37.2187C244.715 36.509 245.141 35.8922 245.686 35.3682C246.232 34.8442 246.871 34.4403 247.602 34.1564C248.345 33.8617 249.153 33.7143 250.026 33.7143C250.899 33.7143 251.696 33.8508 252.417 34.1237C253.148 34.3966 253.77 34.8115 254.284 35.3682L253.53 36.1379C253.05 35.6575 252.52 35.3136 251.942 35.1062C251.363 34.8988 250.741 34.7951 250.075 34.7951C249.365 34.7951 248.71 34.9152 248.11 35.1553C247.52 35.3846 247.002 35.7176 246.554 36.1542C246.118 36.58 245.774 37.0822 245.523 37.6608C245.283 38.2285 245.162 38.8562 245.162 39.544C245.162 40.2208 245.283 40.8486 245.523 41.4272C245.774 42.0058 246.118 42.5134 246.554 42.9501C247.002 43.3758 247.52 43.7088 248.11 43.949C248.71 44.1782 249.36 44.2929 250.059 44.2929C250.714 44.2929 251.331 44.1946 251.909 43.9981C252.499 43.8016 253.039 43.4686 253.53 42.9992L254.218 43.9162C253.672 44.3966 253.034 44.7623 252.302 45.0134C251.571 45.2536 250.806 45.3736 250.01 45.3736ZM253.055 43.7688V39.544H254.218V43.9162L253.055 43.7688ZM257.402 45.2754V36.6783H258.516V39.02L258.401 38.6106C258.641 37.9556 259.045 37.4588 259.613 37.1204C260.18 36.7711 260.885 36.5964 261.725 36.5964V37.7263C261.682 37.7263 261.638 37.7263 261.594 37.7263C261.551 37.7154 261.507 37.7099 261.463 37.7099C260.557 37.7099 259.847 37.9883 259.334 38.5451C258.821 39.0909 258.565 39.8715 258.565 40.8868V45.2754H257.402ZM268.595 45.2754V43.3758L268.545 43.0647V39.8879C268.545 39.1564 268.338 38.5942 267.923 38.2012C267.519 37.8082 266.913 37.6117 266.106 37.6117C265.549 37.6117 265.019 37.7045 264.517 37.89C264.015 38.0756 263.589 38.3213 263.24 38.6269L262.716 37.759C263.152 37.3879 263.676 37.104 264.288 36.9075C264.899 36.7001 265.543 36.5964 266.22 36.5964C267.334 36.5964 268.191 36.8748 268.791 37.4315C269.402 37.9774 269.708 38.8125 269.708 39.937V45.2754H268.595ZM265.631 45.3573C264.987 45.3573 264.424 45.2536 263.944 45.0461C263.475 44.8278 263.114 44.533 262.863 44.1619C262.612 43.7798 262.487 43.3431 262.487 42.8518C262.487 42.4042 262.59 42.0003 262.798 41.64C263.016 41.2689 263.365 40.9741 263.846 40.7558C264.337 40.5265 264.992 40.4119 265.811 40.4119H268.775V41.2798H265.843C265.014 41.2798 264.435 41.4272 264.108 41.7219C263.791 42.0167 263.633 42.3824 263.633 42.8191C263.633 43.3103 263.824 43.7033 264.206 43.9981C264.588 44.2929 265.123 44.4402 265.811 44.4402C266.466 44.4402 267.028 44.2929 267.497 43.9981C267.978 43.6924 268.327 43.2557 268.545 42.6881L268.807 43.4905C268.589 44.0581 268.207 44.5112 267.661 44.8496C267.126 45.1881 266.449 45.3573 265.631 45.3573ZM277.255 36.5964C277.953 36.5964 278.565 36.7328 279.089 37.0058C279.624 37.2678 280.038 37.6717 280.333 38.2176C280.639 38.7634 280.792 39.4512 280.792 40.2809V45.2754H279.629V40.3955C279.629 39.4894 279.4 38.8071 278.941 38.3486C278.494 37.8791 277.861 37.6444 277.042 37.6444C276.43 37.6444 275.895 37.77 275.437 38.0211C274.989 38.2612 274.64 38.616 274.389 39.0855C274.149 39.544 274.029 40.1007 274.029 40.7558V45.2754H272.866V36.6783H273.98V39.0363L273.799 38.5942C274.072 37.9719 274.509 37.4861 275.109 37.1368C275.71 36.7765 276.425 36.5964 277.255 36.5964ZM283.932 45.2754V36.6783H285.095V45.2754H283.932ZM284.522 34.7787C284.282 34.7787 284.08 34.6968 283.916 34.5331C283.752 34.3693 283.67 34.1728 283.67 33.9436C283.67 33.7143 283.752 33.5233 283.916 33.3704C284.08 33.2067 284.282 33.1248 284.522 33.1248C284.762 33.1248 284.964 33.2012 285.128 33.354C285.291 33.5069 285.373 33.6979 285.373 33.9272C285.373 34.1674 285.291 34.3693 285.128 34.5331C284.975 34.6968 284.773 34.7787 284.522 34.7787ZM291.048 45.3573C290.24 45.3573 289.618 45.1389 289.181 44.7022C288.745 44.2656 288.526 43.6488 288.526 42.8518V34.7787H289.689V42.7863C289.689 43.2885 289.815 43.6761 290.066 43.949C290.328 44.2219 290.699 44.3584 291.179 44.3584C291.692 44.3584 292.118 44.211 292.457 43.9162L292.866 44.7514C292.637 44.9588 292.358 45.1116 292.031 45.2099C291.714 45.3081 291.387 45.3573 291.048 45.3573ZM286.987 37.6444V36.6783H292.309V37.6444H286.987ZM298.33 45.3573C297.435 45.3573 296.649 45.1717 295.972 44.8005C295.295 44.4184 294.766 43.8999 294.384 43.2448C294.002 42.5789 293.811 41.8202 293.811 40.9686C293.811 40.1171 293.991 39.3638 294.351 38.7088C294.722 38.0538 295.225 37.5407 295.858 37.1695C296.502 36.7874 297.222 36.5964 298.019 36.5964C298.827 36.5964 299.542 36.782 300.164 37.1532C300.798 37.5134 301.294 38.0265 301.655 38.6924C302.015 39.3475 302.195 40.1062 302.195 40.9686C302.195 41.0232 302.19 41.0833 302.179 41.1488C302.179 41.2034 302.179 41.2634 302.179 41.3289H294.695V40.461H301.556L301.098 40.8049C301.098 40.1826 300.961 39.6313 300.688 39.151C300.426 38.6597 300.066 38.2776 299.608 38.0047C299.149 37.7318 298.62 37.5953 298.019 37.5953C297.43 37.5953 296.9 37.7318 296.431 38.0047C295.961 38.2776 295.596 38.6597 295.334 39.151C295.072 39.6422 294.941 40.2044 294.941 40.8376V41.0178C294.941 41.6728 295.083 42.2514 295.366 42.7536C295.661 43.2448 296.065 43.6324 296.578 43.9162C297.102 44.1892 297.697 44.3256 298.363 44.3256C298.887 44.3256 299.373 44.2328 299.821 44.0472C300.279 43.8616 300.672 43.5778 301 43.1957L301.655 43.949C301.273 44.4075 300.792 44.7568 300.214 44.997C299.646 45.2372 299.018 45.3573 298.33 45.3573ZM244.982 65.2754V53.8126H245.981L251.221 62.7536H250.697L255.888 53.8126H256.887V65.2754H255.725V55.6302H256.003L251.221 63.818H250.648L245.834 55.6302H246.145V65.2754H244.982ZM260.377 65.2754V56.6783H261.539V65.2754H260.377ZM260.966 54.7787C260.726 54.7787 260.524 54.6968 260.36 54.5331C260.196 54.3693 260.115 54.1728 260.115 53.9436C260.115 53.7143 260.196 53.5233 260.36 53.3704C260.524 53.2067 260.726 53.1248 260.966 53.1248C261.206 53.1248 261.408 53.2012 261.572 53.354C261.736 53.5069 261.818 53.6979 261.818 53.9272C261.818 54.1674 261.736 54.3693 261.572 54.5331C261.419 54.6968 261.217 54.7787 260.966 54.7787ZM269.163 56.5964C269.862 56.5964 270.473 56.7328 270.997 57.0058C271.532 57.2678 271.947 57.6717 272.241 58.2176C272.547 58.7634 272.7 59.4512 272.7 60.2809V65.2754H271.537V60.3955C271.537 59.4894 271.308 58.8071 270.85 58.3486C270.402 57.8791 269.769 57.6444 268.95 57.6444C268.339 57.6444 267.804 57.77 267.345 58.0211C266.898 58.2612 266.548 58.616 266.297 59.0855C266.057 59.544 265.937 60.1007 265.937 60.7558V65.2754H264.774V56.6783H265.888V59.0363L265.708 58.5942C265.981 57.9719 266.417 57.4861 267.018 57.1368C267.618 56.7765 268.333 56.5964 269.163 56.5964ZM279.492 65.3573C278.597 65.3573 277.811 65.1717 277.134 64.8005C276.457 64.4184 275.928 63.8999 275.546 63.2448C275.164 62.5789 274.973 61.8202 274.973 60.9686C274.973 60.1171 275.153 59.3638 275.513 58.7088C275.884 58.0538 276.386 57.5407 277.02 57.1695C277.664 56.7874 278.384 56.5964 279.181 56.5964C279.989 56.5964 280.704 56.782 281.326 57.1532C281.959 57.5134 282.456 58.0265 282.816 58.6924C283.177 59.3475 283.357 60.1062 283.357 60.9686C283.357 61.0232 283.351 61.0833 283.34 61.1488C283.34 61.2034 283.34 61.2634 283.34 61.3289H275.857V60.461H282.718L282.26 60.8049C282.26 60.1826 282.123 59.6313 281.85 59.151C281.588 58.6597 281.228 58.2776 280.769 58.0047C280.311 57.7318 279.782 57.5953 279.181 57.5953C278.592 57.5953 278.062 57.7318 277.593 58.0047C277.123 58.2776 276.757 58.6597 276.495 59.151C276.233 59.6422 276.102 60.2044 276.102 60.8376V61.0178C276.102 61.6728 276.244 62.2514 276.528 62.7536C276.823 63.2448 277.227 63.6324 277.74 63.9162C278.264 64.1892 278.859 64.3256 279.525 64.3256C280.049 64.3256 280.535 64.2328 280.982 64.0472C281.441 63.8616 281.834 63.5778 282.161 63.1957L282.816 63.949C282.434 64.4075 281.954 64.7568 281.375 64.997C280.808 65.2372 280.18 65.3573 279.492 65.3573ZM288.032 65.3573C287.323 65.3573 286.651 65.259 286.018 65.0625C285.385 64.8551 284.888 64.5985 284.528 64.2929L285.052 63.3758C285.401 63.6378 285.849 63.8671 286.395 64.0636C286.941 64.2492 287.514 64.342 288.114 64.342C288.933 64.342 289.522 64.2164 289.883 63.9654C290.243 63.7033 290.423 63.3595 290.423 62.9337C290.423 62.6171 290.319 62.3715 290.112 62.1968C289.915 62.0112 289.653 61.8747 289.326 61.7874C288.998 61.6892 288.633 61.6073 288.229 61.5418C287.825 61.4763 287.421 61.3999 287.017 61.3125C286.624 61.2252 286.264 61.0996 285.936 60.9359C285.609 60.7612 285.341 60.5265 285.134 60.2317C284.937 59.937 284.839 59.544 284.839 59.0527C284.839 58.5833 284.97 58.163 285.232 57.7918C285.494 57.4206 285.876 57.1313 286.378 56.9239C286.891 56.7056 287.514 56.5964 288.245 56.5964C288.802 56.5964 289.359 56.6728 289.915 56.8256C290.472 56.9676 290.931 57.1586 291.291 57.3988L290.783 58.3322C290.401 58.0702 289.992 57.8846 289.555 57.7754C289.119 57.6553 288.682 57.5953 288.245 57.5953C287.47 57.5953 286.897 57.7318 286.526 58.0047C286.165 58.2667 285.985 58.6051 285.985 59.02C285.985 59.3475 286.084 59.604 286.28 59.7896C286.488 59.9752 286.755 60.1226 287.082 60.2317C287.421 60.33 287.787 60.4119 288.18 60.4774C288.584 60.5429 288.982 60.6248 289.375 60.723C289.779 60.8103 290.145 60.9359 290.472 61.0996C290.811 61.2525 291.078 61.4763 291.275 61.771C291.482 62.0549 291.586 62.4315 291.586 62.9009C291.586 63.4031 291.444 63.8398 291.16 64.211C290.887 64.5712 290.483 64.8551 289.948 65.0625C289.424 65.259 288.786 65.3573 288.032 65.3573Z" fill="white"/>
<rect x="230.159" y="0.410364" width="186.31" height="81.0586" stroke="white" stroke-width="0.818774"/>
<rect x="458.718" y="0.409387" width="186.31" height="81.0586" stroke="white" stroke-width="0.818774"/>
<path d="M708.476 22.8203V10.2439L709.852 11.6195H705.725V9.06491H711.66V22.8203H708.476Z" fill="#91CB00"/>
<path d="M707.454 42.8203V31.3575H708.453L713.693 40.2985H713.169L718.36 31.3575H719.359V42.8203H718.197V33.1752H718.475L713.693 41.3629H713.12L708.306 33.1752H708.617V42.8203H707.454ZM728.236 42.8203V40.9208L728.187 40.6096V37.4328C728.187 36.7013 727.98 36.1391 727.565 35.7461C727.161 35.3531 726.555 35.1566 725.747 35.1566C725.19 35.1566 724.661 35.2494 724.159 35.435C723.656 35.6206 723.231 35.8662 722.881 36.1719L722.357 35.304C722.794 34.9328 723.318 34.6489 723.929 34.4524C724.541 34.245 725.185 34.1413 725.862 34.1413C726.975 34.1413 727.832 34.4197 728.433 34.9765C729.044 35.5223 729.35 36.3575 729.35 37.4819V42.8203H728.236ZM725.272 42.9022C724.628 42.9022 724.066 42.7985 723.585 42.5911C723.116 42.3727 722.756 42.078 722.505 41.7068C722.254 41.3247 722.128 40.888 722.128 40.3967C722.128 39.9491 722.232 39.5452 722.439 39.185C722.658 38.8138 723.007 38.519 723.487 38.3007C723.978 38.0714 724.633 37.9568 725.452 37.9568H728.416V38.8247H725.485C724.655 38.8247 724.077 38.9721 723.749 39.2668C723.433 39.5616 723.274 39.9273 723.274 40.364C723.274 40.8553 723.465 41.2483 723.847 41.543C724.23 41.8378 724.764 41.9852 725.452 41.9852C726.107 41.9852 726.67 41.8378 727.139 41.543C727.619 41.2373 727.969 40.8007 728.187 40.233L728.449 41.0354C728.231 41.6031 727.849 42.0561 727.303 42.3945C726.768 42.733 726.091 42.9022 725.272 42.9022ZM732.508 42.8203V34.2232H733.621V36.5649L733.506 36.1555C733.747 35.5005 734.151 35.0037 734.718 34.6653C735.286 34.316 735.99 34.1413 736.831 34.1413V35.2712C736.787 35.2712 736.743 35.2712 736.7 35.2712C736.656 35.2603 736.612 35.2548 736.569 35.2548C735.663 35.2548 734.953 35.5332 734.44 36.09C733.927 36.6358 733.67 37.4164 733.67 38.4317V42.8203H732.508ZM743.39 42.9022C742.637 42.9022 741.96 42.733 741.359 42.3945C740.759 42.0452 740.284 41.543 739.935 40.888C739.585 40.233 739.411 39.4415 739.411 38.5136C739.411 37.5747 739.585 36.7832 739.935 36.1391C740.295 35.4841 740.775 34.9874 741.376 34.6489C741.976 34.3105 742.648 34.1413 743.39 34.1413C744.209 34.1413 744.94 34.3269 745.584 34.6981C746.239 35.0583 746.752 35.566 747.124 36.221C747.495 36.876 747.68 37.6402 747.68 38.5136C747.68 39.376 747.495 40.1402 747.124 40.8061C746.752 41.4611 746.239 41.9742 745.584 42.3454C744.94 42.7166 744.209 42.9022 743.39 42.9022ZM738.952 42.8203V30.6697H740.115V36.7614L739.951 38.4972L740.066 40.233V42.8203H738.952ZM743.308 41.8705C743.919 41.8705 744.465 41.7341 744.946 41.4611C745.426 41.1773 745.808 40.7843 746.092 40.2821C746.376 39.769 746.518 39.1795 746.518 38.5136C746.518 37.8367 746.376 37.2472 746.092 36.745C745.808 36.2428 745.426 35.8553 744.946 35.5823C744.465 35.2985 743.919 35.1566 743.308 35.1566C742.697 35.1566 742.145 35.2985 741.654 35.5823C741.174 35.8553 740.792 36.2428 740.508 36.745C740.235 37.2472 740.098 37.8367 740.098 38.5136C740.098 39.1795 740.235 39.769 740.508 40.2821C740.792 40.7843 741.174 41.1773 741.654 41.4611C742.145 41.7341 742.697 41.8705 743.308 41.8705ZM750.05 42.8203V30.6697H751.213V42.8203H750.05ZM758.1 42.9022C757.205 42.9022 756.419 42.7166 755.742 42.3454C755.065 41.9633 754.535 41.4448 754.153 40.7898C753.771 40.1238 753.58 39.3651 753.58 38.5136C753.58 37.662 753.76 36.9088 754.121 36.2537C754.492 35.5987 754.994 35.0856 755.627 34.7144C756.271 34.3324 756.992 34.1413 757.789 34.1413C758.597 34.1413 759.312 34.3269 759.934 34.6981C760.567 35.0583 761.064 35.5714 761.424 36.2374C761.784 36.8924 761.964 37.6511 761.964 38.5136C761.964 38.5681 761.959 38.6282 761.948 38.6937C761.948 38.7483 761.948 38.8083 761.948 38.8738H754.464V38.0059H761.326L760.867 38.3498C760.867 37.7275 760.731 37.1762 760.458 36.6959C760.196 36.2046 759.836 35.8225 759.377 35.5496C758.919 35.2767 758.389 35.1402 757.789 35.1402C757.199 35.1402 756.67 35.2767 756.2 35.5496C755.731 35.8225 755.365 36.2046 755.103 36.6959C754.841 37.1871 754.71 37.7494 754.71 38.3826V38.5627C754.71 39.2177 754.852 39.7963 755.136 40.2985C755.431 40.7898 755.835 41.1773 756.348 41.4611C756.872 41.7341 757.467 41.8705 758.133 41.8705C758.657 41.8705 759.142 41.7777 759.59 41.5922C760.049 41.4066 760.442 41.1227 760.769 40.7406L761.424 41.4939C761.042 41.9524 760.562 42.3018 759.983 42.5419C759.415 42.7821 758.788 42.9022 758.1 42.9022ZM707.454 62.8203V51.3575H708.453L713.693 60.2985H713.169L718.36 51.3575H719.359V62.8203H718.197V53.1752H718.475L713.693 61.3629H713.12L708.306 53.1752H708.617V62.8203H707.454ZM722.849 62.8203V54.2232H724.011V62.8203H722.849ZM723.438 52.3236C723.198 52.3236 722.996 52.2418 722.832 52.078C722.668 51.9142 722.587 51.7177 722.587 51.4885C722.587 51.2592 722.668 51.0682 722.832 50.9153C722.996 50.7516 723.198 50.6697 723.438 50.6697C723.678 50.6697 723.88 50.7461 724.044 50.899C724.208 51.0518 724.29 51.2428 724.29 51.4721C724.29 51.7123 724.208 51.9142 724.044 52.078C723.891 52.2418 723.689 52.3236 723.438 52.3236ZM731.635 54.1413C732.334 54.1413 732.945 54.2778 733.469 54.5507C734.004 54.8127 734.419 55.2166 734.713 55.7625C735.019 56.3083 735.172 56.9961 735.172 57.8258V62.8203H734.009V57.9404C734.009 57.0343 733.78 56.352 733.322 55.8935C732.874 55.4241 732.241 55.1893 731.422 55.1893C730.811 55.1893 730.276 55.3149 729.817 55.566C729.37 55.8061 729.02 56.1609 728.769 56.6304C728.529 57.0889 728.409 57.6457 728.409 58.3007V62.8203H727.246V54.2232H728.36V56.5813L728.18 56.1391C728.453 55.5168 728.889 55.031 729.49 54.6817C730.09 54.3214 730.805 54.1413 731.635 54.1413ZM741.964 62.9022C741.069 62.9022 740.283 62.7166 739.606 62.3454C738.929 61.9633 738.4 61.4448 738.018 60.7898C737.636 60.1238 737.445 59.3651 737.445 58.5136C737.445 57.662 737.625 56.9088 737.985 56.2537C738.356 55.5987 738.858 55.0856 739.492 54.7144C740.136 54.3324 740.856 54.1413 741.653 54.1413C742.461 54.1413 743.176 54.3269 743.798 54.6981C744.431 55.0583 744.928 55.5714 745.288 56.2374C745.649 56.8924 745.829 57.6511 745.829 58.5136C745.829 58.5681 745.823 58.6282 745.812 58.6937C745.812 58.7483 745.812 58.8083 745.812 58.8738H738.329V58.0059H745.19L744.732 58.3498C744.732 57.7275 744.595 57.1762 744.322 56.6959C744.06 56.2046 743.7 55.8225 743.242 55.5496C742.783 55.2767 742.254 55.1402 741.653 55.1402C741.064 55.1402 740.534 55.2767 740.065 55.5496C739.595 55.8225 739.23 56.2046 738.968 56.6959C738.706 57.1871 738.575 57.7494 738.575 58.3826V58.5627C738.575 59.2177 738.716 59.7963 739 60.2985C739.295 60.7898 739.699 61.1773 740.212 61.4611C740.736 61.7341 741.331 61.8705 741.997 61.8705C742.521 61.8705 743.007 61.7777 743.454 61.5922C743.913 61.4066 744.306 61.1227 744.633 60.7406L745.288 61.4939C744.906 61.9524 744.426 62.3018 743.847 62.5419C743.28 62.7821 742.652 62.9022 741.964 62.9022ZM750.504 62.9022C749.795 62.9022 749.123 62.8039 748.49 62.6074C747.857 62.4 747.36 62.1435 747 61.8378L747.524 60.9208C747.873 61.1828 748.321 61.412 748.867 61.6085C749.413 61.7941 749.986 61.8869 750.586 61.8869C751.405 61.8869 751.994 61.7614 752.355 61.5103C752.715 61.2483 752.895 60.9044 752.895 60.4786C752.895 60.162 752.791 59.9164 752.584 59.7417C752.387 59.5561 752.125 59.4197 751.798 59.3323C751.47 59.2341 751.105 59.1522 750.701 59.0867C750.297 59.0212 749.893 58.9448 749.489 58.8574C749.096 58.7701 748.736 58.6446 748.408 58.4808C748.081 58.3061 747.813 58.0714 747.606 57.7767C747.409 57.4819 747.311 57.0889 747.311 56.5976C747.311 56.1282 747.442 55.7079 747.704 55.3367C747.966 54.9655 748.348 54.6762 748.85 54.4688C749.363 54.2505 749.986 54.1413 750.717 54.1413C751.274 54.1413 751.831 54.2177 752.387 54.3706C752.944 54.5125 753.403 54.7035 753.763 54.9437L753.255 55.8771C752.873 55.6151 752.464 55.4295 752.027 55.3203C751.591 55.2003 751.154 55.1402 750.717 55.1402C749.942 55.1402 749.369 55.2767 748.998 55.5496C748.638 55.8116 748.457 56.15 748.457 56.5649C748.457 56.8924 748.556 57.1489 748.752 57.3345C748.96 57.5201 749.227 57.6675 749.555 57.7767C749.893 57.8749 750.259 57.9568 750.652 58.0223C751.056 58.0878 751.454 58.1697 751.847 58.2679C752.251 58.3553 752.617 58.4808 752.944 58.6446C753.283 58.7974 753.55 59.0212 753.747 59.316C753.954 59.5998 754.058 59.9764 754.058 60.4459C754.058 60.948 753.916 61.3847 753.632 61.7559C753.359 62.1162 752.955 62.4 752.42 62.6074C751.896 62.8039 751.258 62.9022 750.504 62.9022Z" fill="white"/>
<rect x="687.28" y="0.410364" width="186.31" height="81.0586" stroke="white" stroke-width="0.818774"/>
<g clipPath="url(#clip0_256_533)">
<path d="M623.851 21.54C624.76 24.4057 625.66 27.2633 626.569 30.129C629.23 30.8741 631.899 31.611 634.56 32.356C634.143 28.9827 633.733 25.6093 633.316 22.2442C630.164 22.0067 627.003 21.7775 623.851 21.54Z" fill="white"/>
<path d="M601.527 51.3593C599.447 46.4303 597.367 41.5013 595.288 36.5723C597.613 36.6132 599.93 36.6623 602.255 36.7033C603.312 41.6077 604.368 46.5122 605.424 51.4085L601.527 51.3511V51.3593Z" fill="white"/>
<path d="M606.741 51.1795L603.384 36.2451C605.725 34.7795 608.067 33.3221 610.409 31.8564C610.409 38.292 610.4 44.7358 610.392 51.1713H606.741V51.1795Z" fill="white"/>
<path d="M600.168 27.459C598.596 30.0545 597.016 32.65 595.443 35.2537C597.761 35.3192 600.078 35.3929 602.395 35.4584C604.483 34.1484 606.571 32.8383 608.658 31.5283C605.826 30.1691 603.001 28.8181 600.168 27.459Z" fill="white"/>
<path d="M611.374 42.8356C611.407 45.6031 611.44 48.3624 611.472 51.1298L625.089 30.3739C624.253 27.6146 623.418 24.8553 622.591 22.0879C618.85 29.0065 615.116 35.917 611.374 42.8356Z" fill="white"/>
<path d="M613.03 51.1956C615.298 51.1793 617.557 51.1629 619.825 51.1383C624.542 45.3578 629.266 39.569 633.982 33.7885C631.427 32.9615 628.873 32.1346 626.318 31.3076C621.889 37.9397 617.459 44.5636 613.021 51.1956H613.03Z" fill="white"/>
<path d="M616.666 13.9252C614.857 15.5791 613.055 17.2331 611.246 18.887L604.778 16.1687L609.69 9.78223C612.016 11.166 614.341 12.5415 616.666 13.9252Z" fill="white"/>
<path d="M611.39 40.1425L611.963 20.1234C613.691 18.4613 615.426 16.7992 617.154 15.1289C617.047 20.1807 616.933 25.2326 616.826 30.2844C615.017 33.5677 613.207 36.8592 611.398 40.1425H611.39Z" fill="white"/>
<path d="M610.36 31.4307C608.404 30.4154 606.439 29.4002 604.482 28.3849C604.523 24.7659 604.564 21.1551 604.613 17.5361L610.426 20.2053C610.401 23.9471 610.385 27.6971 610.36 31.4389V31.4307Z" fill="white"/>
<path d="M633.237 53.1768H591.004V59.8416H633.237V53.1768Z" fill="white"/>
</g>
<g clipPath="url(#clip1_256_533)">
<path d="M825.637 17.6006C823.8 18.3644 822.129 18.508 821.001 18.5015V15.3875C821.001 12.5672 823.322 10.2822 826.187 10.2822H832.527C831.95 11.8556 830.67 14.3756 828.018 16.2753C826.923 17.0587 825.909 17.4961 825.637 17.6006Z" fill="white"/>
<path d="M828.282 21.9476C828.182 21.8758 828.162 21.7779 828.162 21.7061C828.162 21.6604 828.182 21.4972 828.348 21.4123C829.071 21.0402 829.761 20.5962 830.404 20.1001C830.842 19.7475 831.266 19.3689 831.657 18.9641C831.717 18.8989 831.803 18.8662 831.883 18.8662C831.909 18.8662 831.949 18.8662 831.976 18.8793C832.261 18.9707 832.466 19.1078 832.586 19.2775C832.917 19.7802 832.745 20.9488 831.598 21.7387C830.457 22.4242 829.157 22.5025 828.275 21.9476H828.282Z" fill="white"/>
<path d="M856.754 10.2819H850.719L854.751 12.4951C855.998 13.1805 856.608 14.7735 856.203 16.2881C855.832 17.6395 854.757 18.5143 853.55 18.5143C853.418 18.5143 853.285 18.5077 853.146 18.4882L841.991 16.6341C841.686 16.5819 841.368 16.6537 841.109 16.843L840.413 17.3196C839.637 17.8549 838.675 17.9267 837.846 17.5024L837.044 17.0976C835.989 16.5688 835.339 15.3741 835.392 14.0684L835.532 10.2819H834.073C833.529 11.9532 832.136 15.0999 828.886 17.4306C825.862 19.5849 822.778 19.9571 821.014 19.9571H821.001V25.8979L830.107 24.7881C831.559 24.6118 832.925 24.1614 834.185 23.4367L838.436 21.0016C839.756 20.2443 841.328 19.9309 842.86 20.1007L843.576 20.1855C845.387 20.401 847.157 21.0212 848.683 22.0005L849.054 22.2355C849.797 22.7055 850.646 22.9536 851.521 22.9667C853.71 22.9862 855.785 22.0984 857.185 20.512L861.482 15.6613L861.946 16.0465V15.3806C861.946 12.5603 859.625 10.2754 856.76 10.2754L856.754 10.2819ZM832.395 22.934C831.493 23.4759 830.538 23.7501 829.636 23.7501C828.86 23.7501 828.124 23.5477 827.5 23.1495C826.97 22.81 826.678 22.242 826.711 21.6349C826.744 21.0081 827.116 20.4402 827.686 20.1464C828.323 19.82 828.933 19.4283 829.497 18.9843C829.881 18.6775 830.259 18.3315 830.604 17.9789C831.068 17.4958 831.778 17.313 832.415 17.5219C833.018 17.7047 833.496 18.0442 833.794 18.4947C834.563 19.6372 834.245 21.6675 832.388 22.934H832.395ZM854.121 13.9835L847.847 10.5365L847.953 10.2819H836.964L836.825 14.1402C836.798 14.767 837.11 15.3349 837.614 15.5895L838.416 15.9943C838.814 16.1967 839.272 16.1575 839.65 15.9029L840.346 15.4263C840.89 15.0477 841.553 14.8975 842.19 15.002L853.345 16.8495C853.988 16.9474 854.612 16.5166 854.811 15.7919C855.009 15.0738 854.718 14.3034 854.114 13.977L854.121 13.9835ZM841.036 28.4832C841.036 28.4832 841.016 28.431 840.983 28.431L837.117 28.5158C835.565 28.555 834.026 28.9793 832.687 29.7432L829.908 31.3296C829.357 31.6429 828.813 31.989 828.283 32.348L827.295 33.0335L828.004 33.3142C829.351 33.8496 830.81 33.954 832.216 33.6276L834.921 33.0074C835.591 32.8507 836.281 32.7919 836.977 32.8376C838.131 32.9029 839.272 32.459 840.061 31.6103C840.85 30.7616 841.208 29.6257 841.036 28.4832ZM852.934 28.6595C852.887 28.5746 852.775 28.3722 852.489 28.3526L851.017 28.2612C850.175 28.2025 849.392 28.6007 848.941 29.3254C848.497 30.0435 848.497 30.9052 848.941 31.6234L849.326 32.2501C849.412 32.3937 849.565 32.4786 849.73 32.4916C849.896 32.5112 850.055 32.4394 850.168 32.3154L852.847 29.1883C853.033 28.9728 852.973 28.7443 852.934 28.6595ZM841.036 28.4832C841.036 28.4832 841.016 28.431 840.983 28.431L837.117 28.5158C835.565 28.555 834.026 28.9793 832.687 29.7432L829.908 31.3296C829.357 31.6429 828.813 31.989 828.283 32.348L827.295 33.0335L828.004 33.3142C829.351 33.8496 830.81 33.954 832.216 33.6276L834.921 33.0074C835.591 32.8507 836.281 32.7919 836.977 32.8376C838.131 32.9029 839.272 32.459 840.061 31.6103C840.85 30.7616 841.208 29.6257 841.036 28.4832ZM852.934 28.6595C852.887 28.5746 852.775 28.3722 852.489 28.3526L851.017 28.2612C850.175 28.2025 849.392 28.6007 848.941 29.3254C848.497 30.0435 848.497 30.9052 848.941 31.6234L849.326 32.2501C849.412 32.3937 849.565 32.4786 849.73 32.4916C849.896 32.5112 850.055 32.4394 850.168 32.3154L852.847 29.1883C853.033 28.9728 852.973 28.7443 852.934 28.6595ZM841.036 28.4832C841.036 28.4832 841.016 28.431 840.983 28.431L837.117 28.5158C835.565 28.555 834.026 28.9793 832.687 29.7432L829.908 31.3296C829.357 31.6429 828.813 31.989 828.283 32.348L827.295 33.0335L828.004 33.3142C829.351 33.8496 830.81 33.954 832.216 33.6276L834.921 33.0074C835.591 32.8507 836.281 32.7919 836.977 32.8376C838.131 32.9029 839.272 32.459 840.061 31.6103C840.85 30.7616 841.208 29.6257 841.036 28.4832ZM852.934 28.6595C852.887 28.5746 852.775 28.3722 852.489 28.3526L851.017 28.2612C850.175 28.2025 849.392 28.6007 848.941 29.3254C848.497 30.0435 848.497 30.9052 848.941 31.6234L849.326 32.2501C849.412 32.3937 849.565 32.4786 849.73 32.4916C849.896 32.5112 850.055 32.4394 850.168 32.3154L852.847 29.1883C853.033 28.9728 852.973 28.7443 852.934 28.6595ZM841.036 28.4832C841.036 28.4832 841.016 28.431 840.983 28.431L837.117 28.5158C835.565 28.555 834.026 28.9793 832.687 29.7432L829.908 31.3296C829.357 31.6429 828.813 31.989 828.283 32.348L827.295 33.0335L828.004 33.3142C829.351 33.8496 830.81 33.954 832.216 33.6276L834.921 33.0074C835.591 32.8507 836.281 32.7919 836.977 32.8376C838.131 32.9029 839.272 32.459 840.061 31.6103C840.85 30.7616 841.208 29.6257 841.036 28.4832ZM852.934 28.6595C852.887 28.5746 852.775 28.3722 852.489 28.3526L851.017 28.2612C850.175 28.2025 849.392 28.6007 848.941 29.3254C848.497 30.0435 848.497 30.9052 848.941 31.6234L849.326 32.2501C849.412 32.3937 849.565 32.4786 849.73 32.4916C849.896 32.5112 850.055 32.4394 850.168 32.3154L852.847 29.1883C853.033 28.9728 852.973 28.7443 852.934 28.6595ZM841.036 28.4832C841.036 28.4832 841.016 28.431 840.983 28.431L837.117 28.5158C835.565 28.555 834.026 28.9793 832.687 29.7432L829.908 31.3296C829.357 31.6429 828.813 31.989 828.283 32.348L827.295 33.0335L828.004 33.3142C829.351 33.8496 830.81 33.954 832.216 33.6276L834.921 33.0074C835.591 32.8507 836.281 32.7919 836.977 32.8376C838.131 32.9029 839.272 32.459 840.061 31.6103C840.85 30.7616 841.208 29.6257 841.036 28.4832ZM852.934 28.6595C852.887 28.5746 852.775 28.3722 852.489 28.3526L851.017 28.2612C850.175 28.2025 849.392 28.6007 848.941 29.3254C848.497 30.0435 848.497 30.9052 848.941 31.6234L849.326 32.2501C849.412 32.3937 849.565 32.4786 849.73 32.4916C849.896 32.5112 850.055 32.4394 850.168 32.3154L852.847 29.1883C853.033 28.9728 852.973 28.7443 852.934 28.6595ZM841.036 28.4832C841.036 28.4832 841.016 28.431 840.983 28.431L837.117 28.5158C835.565 28.555 834.026 28.9793 832.687 29.7432L829.908 31.3296C829.357 31.6429 828.813 31.989 828.283 32.348L827.295 33.0335L828.004 33.3142C829.351 33.8496 830.81 33.954 832.216 33.6276L834.921 33.0074C835.591 32.8507 836.281 32.7919 836.977 32.8376C838.131 32.9029 839.272 32.459 840.061 31.6103C840.85 30.7616 841.208 29.6257 841.036 28.4832ZM852.934 28.6595C852.887 28.5746 852.775 28.3722 852.489 28.3526L851.017 28.2612C850.175 28.2025 849.392 28.6007 848.941 29.3254C848.497 30.0435 848.497 30.9052 848.941 31.6234L849.326 32.2501C849.412 32.3937 849.565 32.4786 849.73 32.4916C849.896 32.5112 850.055 32.4394 850.168 32.3154L852.847 29.1883C853.033 28.9728 852.973 28.7443 852.934 28.6595ZM841.036 28.4832C841.036 28.4832 841.016 28.431 840.983 28.431L837.117 28.5158C835.565 28.555 834.026 28.9793 832.687 29.7432L829.908 31.3296C829.357 31.6429 828.813 31.989 828.283 32.348L827.295 33.0335L828.004 33.3142C829.351 33.8496 830.81 33.954 832.216 33.6276L834.921 33.0074C835.591 32.8507 836.281 32.7919 836.977 32.8376C838.131 32.9029 839.272 32.459 840.061 31.6103C840.85 30.7616 841.208 29.6257 841.036 28.4832ZM852.934 28.6595C852.887 28.5746 852.775 28.3722 852.489 28.3526L851.017 28.2612C850.175 28.2025 849.392 28.6007 848.941 29.3254C848.497 30.0435 848.497 30.9052 848.941 31.6234L849.326 32.2501C849.412 32.3937 849.565 32.4786 849.73 32.4916C849.896 32.5112 850.055 32.4394 850.168 32.3154L852.847 29.1883C853.033 28.9728 852.973 28.7443 852.934 28.6595ZM852.934 28.6595C852.887 28.5746 852.775 28.3722 852.489 28.3526L851.017 28.2612C850.175 28.2025 849.392 28.6007 848.941 29.3254C848.497 30.0435 848.497 30.9052 848.941 31.6234L849.326 32.2501C849.412 32.3937 849.565 32.4786 849.73 32.4916C849.896 32.5112 850.055 32.4394 850.168 32.3154L852.847 29.1883C853.033 28.9728 852.973 28.7443 852.934 28.6595ZM841.036 28.4832C841.036 28.4832 841.016 28.431 840.983 28.431L837.117 28.5158C835.565 28.555 834.026 28.9793 832.687 29.7432L829.908 31.3296C829.357 31.6429 828.813 31.989 828.283 32.348L827.295 33.0335L828.004 33.3142C829.351 33.8496 830.81 33.954 832.216 33.6276L834.921 33.0074C835.591 32.8507 836.281 32.7919 836.977 32.8376C838.131 32.9029 839.272 32.459 840.061 31.6103C840.85 30.7616 841.208 29.6257 841.036 28.4832ZM841.036 28.4832C841.036 28.4832 841.016 28.431 840.983 28.431L837.117 28.5158C835.565 28.555 834.026 28.9793 832.687 29.7432L829.908 31.3296C829.357 31.6429 828.813 31.989 828.283 32.348L827.295 33.0335L828.004 33.3142C829.351 33.8496 830.81 33.954 832.216 33.6276L834.921 33.0074C835.591 32.8507 836.281 32.7919 836.977 32.8376C838.131 32.9029 839.272 32.459 840.061 31.6103C840.85 30.7616 841.208 29.6257 841.036 28.4832ZM852.934 28.6595C852.887 28.5746 852.775 28.3722 852.489 28.3526L851.017 28.2612C850.175 28.2025 849.392 28.6007 848.941 29.3254C848.497 30.0435 848.497 30.9052 848.941 31.6234L849.326 32.2501C849.412 32.3937 849.565 32.4786 849.73 32.4916C849.896 32.5112 850.055 32.4394 850.168 32.3154L852.847 29.1883C853.033 28.9728 852.973 28.7443 852.934 28.6595ZM852.934 28.6595C852.887 28.5746 852.775 28.3722 852.489 28.3526L851.017 28.2612C850.175 28.2025 849.392 28.6007 848.941 29.3254C848.497 30.0435 848.497 30.9052 848.941 31.6234L849.326 32.2501C849.412 32.3937 849.565 32.4786 849.73 32.4916C849.896 32.5112 850.055 32.4394 850.168 32.3154L852.847 29.1883C853.033 28.9728 852.973 28.7443 852.934 28.6595ZM841.036 28.4832C841.036 28.4832 841.016 28.431 840.983 28.431L837.117 28.5158C835.565 28.555 834.026 28.9793 832.687 29.7432L829.908 31.3296C829.357 31.6429 828.813 31.989 828.283 32.348L827.295 33.0335L828.004 33.3142C829.351 33.8496 830.81 33.954 832.216 33.6276L834.921 33.0074C835.591 32.8507 836.281 32.7919 836.977 32.8376C838.131 32.9029 839.272 32.459 840.061 31.6103C840.85 30.7616 841.208 29.6257 841.036 28.4832ZM841.036 28.4832C841.036 28.4832 841.016 28.431 840.983 28.431L837.117 28.5158C835.565 28.555 834.026 28.9793 832.687 29.7432L829.908 31.3296C829.357 31.6429 828.813 31.989 828.283 32.348L827.295 33.0335L828.004 33.3142C829.351 33.8496 830.81 33.954 832.216 33.6276L834.921 33.0074C835.591 32.8507 836.281 32.7919 836.977 32.8376C838.131 32.9029 839.272 32.459 840.061 31.6103C840.85 30.7616 841.208 29.6257 841.036 28.4832ZM852.934 28.6595C852.887 28.5746 852.775 28.3722 852.489 28.3526L851.017 28.2612C850.175 28.2025 849.392 28.6007 848.941 29.3254C848.497 30.0435 848.497 30.9052 848.941 31.6234L849.326 32.2501C849.412 32.3937 849.565 32.4786 849.73 32.4916C849.896 32.5112 850.055 32.4394 850.168 32.3154L852.847 29.1883C853.033 28.9728 852.973 28.7443 852.934 28.6595ZM852.934 28.6595C852.887 28.5746 852.775 28.3722 852.489 28.3526L851.017 28.2612C850.175 28.2025 849.392 28.6007 848.941 29.3254C848.497 30.0435 848.497 30.9052 848.941 31.6234L849.326 32.2501C849.412 32.3937 849.565 32.4786 849.73 32.4916C849.896 32.5112 850.055 32.4394 850.168 32.3154L852.847 29.1883C853.033 28.9728 852.973 28.7443 852.934 28.6595ZM841.036 28.4832C841.036 28.4832 841.016 28.431 840.983 28.431L837.117 28.5158C835.565 28.555 834.026 28.9793 832.687 29.7432L829.908 31.3296C829.357 31.6429 828.813 31.989 828.283 32.348L827.295 33.0335L828.004 33.3142C829.351 33.8496 830.81 33.954 832.216 33.6276L834.921 33.0074C835.591 32.8507 836.281 32.7919 836.977 32.8376C838.131 32.9029 839.272 32.459 840.061 31.6103C840.85 30.7616 841.208 29.6257 841.036 28.4832ZM841.036 28.4832C841.036 28.4832 841.016 28.431 840.983 28.431L837.117 28.5158C835.565 28.555 834.026 28.9793 832.687 29.7432L829.908 31.3296C829.357 31.6429 828.813 31.989 828.283 32.348L827.295 33.0335L828.004 33.3142C829.351 33.8496 830.81 33.954 832.216 33.6276L834.921 33.0074C835.591 32.8507 836.281 32.7919 836.977 32.8376C838.131 32.9029 839.272 32.459 840.061 31.6103C840.85 30.7616 841.208 29.6257 841.036 28.4832ZM848.921 46.1622L848.066 44.8957C847.986 44.7716 847.854 44.6933 847.708 44.6737C847.681 44.6672 847.648 44.6672 847.622 44.6672C847.515 44.6672 847.403 44.6998 847.31 44.7716L843.735 47.4613C843.45 47.6768 843.39 48.075 843.596 48.3623C843.768 48.6038 844.054 48.7409 844.345 48.7409C844.451 48.7409 844.577 48.7213 844.684 48.6756L848.636 47.0762C848.875 46.9782 848.968 46.7824 849.001 46.6779C849.034 46.58 849.067 46.3711 848.921 46.1556V46.1622ZM852.934 28.6595C852.887 28.5746 852.775 28.3722 852.489 28.3526L851.017 28.2612C850.175 28.2025 849.392 28.6007 848.941 29.3254C848.497 30.0435 848.497 30.9052 848.941 31.6234L849.326 32.2501C849.412 32.3937 849.565 32.4786 849.73 32.4916C849.896 32.5112 850.055 32.4394 850.168 32.3154L852.847 29.1883C853.033 28.9728 852.973 28.7443 852.934 28.6595ZM852.934 28.6595C852.887 28.5746 852.775 28.3722 852.489 28.3526L851.017 28.2612C850.175 28.2025 849.392 28.6007 848.941 29.3254C848.497 30.0435 848.497 30.9052 848.941 31.6234L849.326 32.2501C849.412 32.3937 849.565 32.4786 849.73 32.4916C849.896 32.5112 850.055 32.4394 850.168 32.3154L852.847 29.1883C853.033 28.9728 852.973 28.7443 852.934 28.6595ZM848.921 46.1622L848.066 44.8957C847.986 44.7716 847.854 44.6933 847.708 44.6737C847.681 44.6672 847.648 44.6672 847.622 44.6672C847.515 44.6672 847.403 44.6998 847.31 44.7716L843.735 47.4613C843.45 47.6768 843.39 48.075 843.596 48.3623C843.768 48.6038 844.054 48.7409 844.345 48.7409C844.451 48.7409 844.577 48.7213 844.684 48.6756L848.636 47.0762C848.875 46.9782 848.968 46.7824 849.001 46.6779C849.034 46.58 849.067 46.3711 848.921 46.1556V46.1622ZM841.036 28.4832C841.036 28.4832 841.016 28.431 840.983 28.431L837.117 28.5158C835.565 28.555 834.026 28.9793 832.687 29.7432L829.908 31.3296C829.357 31.6429 828.813 31.989 828.283 32.348L827.295 33.0335L828.004 33.3142C829.351 33.8496 830.81 33.954 832.216 33.6276L834.921 33.0074C835.591 32.8507 836.281 32.7919 836.977 32.8376C838.131 32.9029 839.272 32.459 840.061 31.6103C840.85 30.7616 841.208 29.6257 841.036 28.4832ZM841.036 28.4832C841.036 28.4832 841.016 28.431 840.983 28.431L837.117 28.5158C835.565 28.555 834.026 28.9793 832.687 29.7432L829.908 31.3296C829.357 31.6429 828.813 31.989 828.283 32.348L827.295 33.0335L828.004 33.3142C829.351 33.8496 830.81 33.954 832.216 33.6276L834.921 33.0074C835.591 32.8507 836.281 32.7919 836.977 32.8376C838.131 32.9029 839.272 32.459 840.061 31.6103C840.85 30.7616 841.208 29.6257 841.036 28.4832ZM848.921 46.1622L848.066 44.8957C847.986 44.7716 847.854 44.6933 847.708 44.6737C847.681 44.6672 847.648 44.6672 847.622 44.6672C847.515 44.6672 847.403 44.6998 847.31 44.7716L843.735 47.4613C843.45 47.6768 843.39 48.075 843.596 48.3623C843.768 48.6038 844.054 48.7409 844.345 48.7409C844.451 48.7409 844.577 48.7213 844.684 48.6756L848.636 47.0762C848.875 46.9782 848.968 46.7824 849.001 46.6779C849.034 46.58 849.067 46.3711 848.921 46.1556V46.1622ZM852.934 28.6595C852.887 28.5746 852.775 28.3722 852.489 28.3526L851.017 28.2612C850.175 28.2025 849.392 28.6007 848.941 29.3254C848.497 30.0435 848.497 30.9052 848.941 31.6234L849.326 32.2501C849.412 32.3937 849.565 32.4786 849.73 32.4916C849.896 32.5112 850.055 32.4394 850.168 32.3154L852.847 29.1883C853.033 28.9728 852.973 28.7443 852.934 28.6595ZM852.934 28.6595C852.887 28.5746 852.775 28.3722 852.489 28.3526L851.017 28.2612C850.175 28.2025 849.392 28.6007 848.941 29.3254C848.497 30.0435 848.497 30.9052 848.941 31.6234L849.326 32.2501C849.412 32.3937 849.565 32.4786 849.73 32.4916C849.896 32.5112 850.055 32.4394 850.168 32.3154L852.847 29.1883C853.033 28.9728 852.973 28.7443 852.934 28.6595ZM848.921 46.1622L848.066 44.8957C847.986 44.7716 847.854 44.6933 847.708 44.6737C847.681 44.6672 847.648 44.6672 847.622 44.6672C847.515 44.6672 847.403 44.6998 847.31 44.7716L843.735 47.4613C843.45 47.6768 843.39 48.075 843.596 48.3623C843.768 48.6038 844.054 48.7409 844.345 48.7409C844.451 48.7409 844.577 48.7213 844.684 48.6756L848.636 47.0762C848.875 46.9782 848.968 46.7824 849.001 46.6779C849.034 46.58 849.067 46.3711 848.921 46.1556V46.1622ZM841.036 28.4832C841.036 28.4832 841.016 28.431 840.983 28.431L837.117 28.5158C835.565 28.555 834.026 28.9793 832.687 29.7432L829.908 31.3296C829.357 31.6429 828.813 31.989 828.283 32.348L827.295 33.0335L828.004 33.3142C829.351 33.8496 830.81 33.954 832.216 33.6276L834.921 33.0074C835.591 32.8507 836.281 32.7919 836.977 32.8376C838.131 32.9029 839.272 32.459 840.061 31.6103C840.85 30.7616 841.208 29.6257 841.036 28.4832ZM861.94 27.9217V17.3457L858.312 21.4455C856.634 23.3323 854.214 24.4094 851.654 24.4094H851.561C850.341 24.3964 849.213 24.0569 848.238 23.4367L847.86 23.2017C846.527 22.3465 844.982 21.7981 843.397 21.6153L842.681 21.5304C841.467 21.3868 840.227 21.6349 839.186 22.2355L834.941 24.6706C833.502 25.4932 831.944 26.0024 830.292 26.2048L821.001 27.3407V36.2455L827.255 38.093C829.006 38.6088 830.869 38.6937 832.653 38.3411L841.029 36.6829C842.727 36.3499 844.458 37.042 845.433 38.4521C846.116 39.4379 846.348 40.6587 846.063 41.8142C845.784 42.9763 845.022 43.9686 843.954 44.5497C840.877 46.2275 837.952 48.2186 835.273 50.4579C832.103 53.1084 829.251 56.105 826.784 59.4084H836.294C836.46 59.1603 836.632 58.9187 836.818 58.6707C837.156 58.2137 845.241 47.6376 861.946 47.2981V42.2451L860.036 43.0742C859.393 43.355 858.703 43.4986 858.02 43.4986C856.74 43.4986 855.494 43.0155 854.539 42.1015C853.484 41.0961 852.914 39.7447 852.934 38.3019C852.954 36.8592 853.557 35.5274 854.638 34.5481L861.94 27.9283V27.9217ZM841.129 32.5765C840.041 33.7451 838.496 34.3522 836.891 34.2608C836.341 34.2282 835.79 34.2739 835.26 34.3979L832.554 35.0247C831.917 35.1748 831.261 35.2466 830.617 35.2466C829.543 35.2466 828.475 35.0443 827.467 34.646L826.287 34.176C825.889 34.0193 825.61 33.6537 825.564 33.2359C825.511 32.8115 825.703 32.4002 826.055 32.1587L827.454 31.186C828.011 30.8008 828.595 30.4352 829.178 30.1022L831.95 28.5158C833.509 27.628 835.286 27.1383 837.083 27.0926L840.943 27.0078C841.699 26.9947 842.356 27.5366 842.469 28.2808C842.707 29.8476 842.217 31.4145 841.129 32.5765ZM850.394 47.1088C850.215 47.6964 849.77 48.1729 849.187 48.408L845.234 50.0074C844.942 50.1315 844.631 50.1837 844.325 50.1837C843.576 50.1837 842.86 49.8312 842.402 49.1914C841.752 48.2709 841.945 47.0109 842.853 46.3319L846.421 43.6422C846.859 43.3223 847.416 43.1852 847.946 43.2701C848.484 43.3549 848.961 43.6618 849.266 44.1057L850.122 45.3722C850.467 45.8815 850.573 46.5147 850.387 47.1088H850.394ZM853.955 30.1088L851.269 33.2359C850.898 33.6733 850.347 33.9214 849.77 33.9214H849.618C848.988 33.8691 848.424 33.5231 848.086 32.9943L847.701 32.3676C846.985 31.2055 846.985 29.7562 847.701 28.5811C848.417 27.4191 849.717 26.7597 851.11 26.8315L852.582 26.9229C853.332 26.9751 853.968 27.4256 854.267 28.098C854.558 28.777 854.439 29.5408 853.955 30.1022V30.1088ZM852.489 28.3526L851.017 28.2612C850.175 28.2025 849.392 28.6007 848.941 29.3254C848.497 30.0435 848.497 30.9052 848.941 31.6234L849.326 32.2501C849.412 32.3937 849.565 32.4786 849.73 32.4916C849.896 32.5112 850.055 32.4394 850.168 32.3154L852.847 29.1883C853.033 28.9728 852.973 28.7443 852.934 28.6595C852.887 28.5746 852.775 28.3722 852.489 28.3526ZM848.066 44.9022C847.986 44.7781 847.854 44.6998 847.708 44.6802C847.681 44.6737 847.648 44.6737 847.622 44.6737C847.515 44.6737 847.403 44.7063 847.31 44.7781L843.735 47.4679C843.45 47.6833 843.39 48.0815 843.596 48.3688C843.768 48.6103 844.054 48.7474 844.345 48.7474C844.451 48.7474 844.577 48.7278 844.684 48.6821L848.636 47.0827C848.875 46.9848 848.968 46.7889 849.001 46.6844C849.034 46.5865 849.067 46.3776 848.921 46.1622L848.066 44.8957V44.9022ZM840.983 28.431L837.117 28.5158C835.565 28.555 834.026 28.9793 832.687 29.7432L829.908 31.3296C829.357 31.6429 828.813 31.989 828.283 32.348L827.295 33.0335L828.004 33.3142C829.351 33.8496 830.81 33.954 832.216 33.6276L834.921 33.0074C835.591 32.8507 836.281 32.7919 836.977 32.8376C838.131 32.9029 839.272 32.459 840.061 31.6103C840.85 30.7616 841.208 29.6257 841.036 28.4832C841.036 28.4571 841.016 28.431 840.983 28.431ZM841.036 28.4832C841.036 28.4832 841.016 28.431 840.983 28.431L837.117 28.5158C835.565 28.555 834.026 28.9793 832.687 29.7432L829.908 31.3296C829.357 31.6429 828.813 31.989 828.283 32.348L827.295 33.0335L828.004 33.3142C829.351 33.8496 830.81 33.954 832.216 33.6276L834.921 33.0074C835.591 32.8507 836.281 32.7919 836.977 32.8376C838.131 32.9029 839.272 32.459 840.061 31.6103C840.85 30.7616 841.208 29.6257 841.036 28.4832ZM848.921 46.1622L848.066 44.8957C847.986 44.7716 847.854 44.6933 847.708 44.6737C847.681 44.6672 847.648 44.6672 847.622 44.6672C847.515 44.6672 847.403 44.6998 847.31 44.7716L843.735 47.4613C843.45 47.6768 843.39 48.075 843.596 48.3623C843.768 48.6038 844.054 48.7409 844.345 48.7409C844.451 48.7409 844.577 48.7213 844.684 48.6756L848.636 47.0762C848.875 46.9782 848.968 46.7824 849.001 46.6779C849.034 46.58 849.067 46.3711 848.921 46.1556V46.1622ZM852.934 28.6595C852.887 28.5746 852.775 28.3722 852.489 28.3526L851.017 28.2612C850.175 28.2025 849.392 28.6007 848.941 29.3254C848.497 30.0435 848.497 30.9052 848.941 31.6234L849.326 32.2501C849.412 32.3937 849.565 32.4786 849.73 32.4916C849.896 32.5112 850.055 32.4394 850.168 32.3154L852.847 29.1883C853.033 28.9728 852.973 28.7443 852.934 28.6595ZM852.934 28.6595C852.887 28.5746 852.775 28.3722 852.489 28.3526L851.017 28.2612C850.175 28.2025 849.392 28.6007 848.941 29.3254C848.497 30.0435 848.497 30.9052 848.941 31.6234L849.326 32.2501C849.412 32.3937 849.565 32.4786 849.73 32.4916C849.896 32.5112 850.055 32.4394 850.168 32.3154L852.847 29.1883C853.033 28.9728 852.973 28.7443 852.934 28.6595ZM848.921 46.1622L848.066 44.8957C847.986 44.7716 847.854 44.6933 847.708 44.6737C847.681 44.6672 847.648 44.6672 847.622 44.6672C847.515 44.6672 847.403 44.6998 847.31 44.7716L843.735 47.4613C843.45 47.6768 843.39 48.075 843.596 48.3623C843.768 48.6038 844.054 48.7409 844.345 48.7409C844.451 48.7409 844.577 48.7213 844.684 48.6756L848.636 47.0762C848.875 46.9782 848.968 46.7824 849.001 46.6779C849.034 46.58 849.067 46.3711 848.921 46.1556V46.1622ZM841.036 28.4832C841.036 28.4832 841.016 28.431 840.983 28.431L837.117 28.5158C835.565 28.555 834.026 28.9793 832.687 29.7432L829.908 31.3296C829.357 31.6429 828.813 31.989 828.283 32.348L827.295 33.0335L828.004 33.3142C829.351 33.8496 830.81 33.954 832.216 33.6276L834.921 33.0074C835.591 32.8507 836.281 32.7919 836.977 32.8376C838.131 32.9029 839.272 32.459 840.061 31.6103C840.85 30.7616 841.208 29.6257 841.036 28.4832ZM856.19 55.3477C854.2 56.5685 853.192 58.3116 852.728 59.4084H856.754C859.619 59.4084 861.94 57.1234 861.94 54.3031V54.1073C860.613 53.9637 858.372 54.0094 856.19 55.3412V55.3477ZM838.324 59.4084H850.937C851.415 58.0309 852.589 55.6153 855.301 53.9506C857.788 52.4229 860.335 52.3185 861.94 52.4556V48.9106C847.376 49.2175 839.57 57.8938 838.324 59.4018V59.4084ZM841.036 28.4832C841.036 28.4832 841.016 28.431 840.983 28.431L837.117 28.5158C835.565 28.555 834.026 28.9793 832.687 29.7432L829.908 31.3296C829.357 31.6429 828.813 31.989 828.283 32.348L827.295 33.0335L828.004 33.3142C829.351 33.8496 830.81 33.954 832.216 33.6276L834.921 33.0074C835.591 32.8507 836.281 32.7919 836.977 32.8376C838.131 32.9029 839.272 32.459 840.061 31.6103C840.85 30.7616 841.208 29.6257 841.036 28.4832ZM848.921 46.1622L848.066 44.8957C847.986 44.7716 847.854 44.6933 847.708 44.6737C847.681 44.6672 847.648 44.6672 847.622 44.6672C847.515 44.6672 847.403 44.6998 847.31 44.7716L843.735 47.4613C843.45 47.6768 843.39 48.075 843.596 48.3623C843.768 48.6038 844.054 48.7409 844.345 48.7409C844.451 48.7409 844.577 48.7213 844.684 48.6756L848.636 47.0762C848.875 46.9782 848.968 46.7824 849.001 46.6779C849.034 46.58 849.067 46.3711 848.921 46.1556V46.1622ZM852.934 28.6595C852.887 28.5746 852.775 28.3722 852.489 28.3526L851.017 28.2612C850.175 28.2025 849.392 28.6007 848.941 29.3254C848.497 30.0435 848.497 30.9052 848.941 31.6234L849.326 32.2501C849.412 32.3937 849.565 32.4786 849.73 32.4916C849.896 32.5112 850.055 32.4394 850.168 32.3154L852.847 29.1883C853.033 28.9728 852.973 28.7443 852.934 28.6595ZM852.934 28.6595C852.887 28.5746 852.775 28.3722 852.489 28.3526L851.017 28.2612C850.175 28.2025 849.392 28.6007 848.941 29.3254C848.497 30.0435 848.497 30.9052 848.941 31.6234L849.326 32.2501C849.412 32.3937 849.565 32.4786 849.73 32.4916C849.896 32.5112 850.055 32.4394 850.168 32.3154L852.847 29.1883C853.033 28.9728 852.973 28.7443 852.934 28.6595ZM848.921 46.1622L848.066 44.8957C847.986 44.7716 847.854 44.6933 847.708 44.6737C847.681 44.6672 847.648 44.6672 847.622 44.6672C847.515 44.6672 847.403 44.6998 847.31 44.7716L843.735 47.4613C843.45 47.6768 843.39 48.075 843.596 48.3623C843.768 48.6038 844.054 48.7409 844.345 48.7409C844.451 48.7409 844.577 48.7213 844.684 48.6756L848.636 47.0762C848.875 46.9782 848.968 46.7824 849.001 46.6779C849.034 46.58 849.067 46.3711 848.921 46.1556V46.1622ZM841.036 28.4832C841.036 28.4832 841.016 28.431 840.983 28.431L837.117 28.5158C835.565 28.555 834.026 28.9793 832.687 29.7432L829.908 31.3296C829.357 31.6429 828.813 31.989 828.283 32.348L827.295 33.0335L828.004 33.3142C829.351 33.8496 830.81 33.954 832.216 33.6276L834.921 33.0074C835.591 32.8507 836.281 32.7919 836.977 32.8376C838.131 32.9029 839.272 32.459 840.061 31.6103C840.85 30.7616 841.208 29.6257 841.036 28.4832ZM841.036 28.4832C841.036 28.4832 841.016 28.431 840.983 28.431L837.117 28.5158C835.565 28.555 834.026 28.9793 832.687 29.7432L829.908 31.3296C829.357 31.6429 828.813 31.989 828.283 32.348L827.295 33.0335L828.004 33.3142C829.351 33.8496 830.81 33.954 832.216 33.6276L834.921 33.0074C835.591 32.8507 836.281 32.7919 836.977 32.8376C838.131 32.9029 839.272 32.459 840.061 31.6103C840.85 30.7616 841.208 29.6257 841.036 28.4832ZM852.934 28.6595C852.887 28.5746 852.775 28.3722 852.489 28.3526L851.017 28.2612C850.175 28.2025 849.392 28.6007 848.941 29.3254C848.497 30.0435 848.497 30.9052 848.941 31.6234L849.326 32.2501C849.412 32.3937 849.565 32.4786 849.73 32.4916C849.896 32.5112 850.055 32.4394 850.168 32.3154L852.847 29.1883C853.033 28.9728 852.973 28.7443 852.934 28.6595ZM852.934 28.6595C852.887 28.5746 852.775 28.3722 852.489 28.3526L851.017 28.2612C850.175 28.2025 849.392 28.6007 848.941 29.3254C848.497 30.0435 848.497 30.9052 848.941 31.6234L849.326 32.2501C849.412 32.3937 849.565 32.4786 849.73 32.4916C849.896 32.5112 850.055 32.4394 850.168 32.3154L852.847 29.1883C853.033 28.9728 852.973 28.7443 852.934 28.6595ZM834.305 43.8838C834.225 43.6487 834.059 43.4594 833.834 43.355C833.608 43.2505 833.356 43.2309 833.124 43.3158L831.42 43.9295C831.015 44.0731 830.591 44.1841 830.173 44.2559L821.001 45.8096V54.2509L828.701 48.186C829.967 47.1871 831.334 46.2927 832.753 45.5354L833.867 44.9414C834.258 44.7324 834.437 44.282 834.305 43.8707V43.8838ZM844.213 39.2812C843.569 38.3542 842.435 37.8972 841.321 38.1191L832.952 39.7774C830.929 40.1691 828.807 40.0777 826.837 39.4966L821.008 37.7731V44.3342L829.928 42.8196C830.259 42.7674 830.591 42.676 830.916 42.565L832.62 41.9513C833.23 41.7294 833.9 41.7555 834.484 42.0427C835.074 42.3235 835.512 42.8131 835.717 43.4268C836.082 44.5105 835.605 45.6921 834.577 46.234L833.469 46.8281C832.123 47.5462 830.83 48.3949 829.623 49.335L821.432 55.7916L821.134 55.426C821.571 57.3454 823.11 58.86 825.06 59.2843C827.706 55.6088 830.83 52.2663 834.318 49.3546C837.083 47.0566 840.074 45.0132 843.238 43.2897C843.947 42.9045 844.445 42.2647 844.631 41.4878C844.81 40.7175 844.664 39.9341 844.219 39.2812H844.213ZM841.036 28.4832C841.036 28.4832 841.016 28.431 840.983 28.431L837.117 28.5158C835.565 28.555 834.026 28.9793 832.687 29.7432L829.908 31.3296C829.357 31.6429 828.813 31.989 828.283 32.348L827.295 33.0335L828.004 33.3142C829.351 33.8496 830.81 33.954 832.216 33.6276L834.921 33.0074C835.591 32.8507 836.281 32.7919 836.977 32.8376C838.131 32.9029 839.272 32.459 840.061 31.6103C840.85 30.7616 841.208 29.6257 841.036 28.4832ZM841.036 28.4832C841.036 28.4832 841.016 28.431 840.983 28.431L837.117 28.5158C835.565 28.555 834.026 28.9793 832.687 29.7432L829.908 31.3296C829.357 31.6429 828.813 31.989 828.283 32.348L827.295 33.0335L828.004 33.3142C829.351 33.8496 830.81 33.954 832.216 33.6276L834.921 33.0074C835.591 32.8507 836.281 32.7919 836.977 32.8376C838.131 32.9029 839.272 32.459 840.061 31.6103C840.85 30.7616 841.208 29.6257 841.036 28.4832ZM852.934 28.6595C852.887 28.5746 852.775 28.3722 852.489 28.3526L851.017 28.2612C850.175 28.2025 849.392 28.6007 848.941 29.3254C848.497 30.0435 848.497 30.9052 848.941 31.6234L849.326 32.2501C849.412 32.3937 849.565 32.4786 849.73 32.4916C849.896 32.5112 850.055 32.4394 850.168 32.3154L852.847 29.1883C853.033 28.9728 852.973 28.7443 852.934 28.6595ZM852.934 28.6595C852.887 28.5746 852.775 28.3722 852.489 28.3526L851.017 28.2612C850.175 28.2025 849.392 28.6007 848.941 29.3254C848.497 30.0435 848.497 30.9052 848.941 31.6234L849.326 32.2501C849.412 32.3937 849.565 32.4786 849.73 32.4916C849.896 32.5112 850.055 32.4394 850.168 32.3154L852.847 29.1883C853.033 28.9728 852.973 28.7443 852.934 28.6595ZM841.036 28.4832C841.036 28.4832 841.016 28.431 840.983 28.431L837.117 28.5158C835.565 28.555 834.026 28.9793 832.687 29.7432L829.908 31.3296C829.357 31.6429 828.813 31.989 828.283 32.348L827.295 33.0335L828.004 33.3142C829.351 33.8496 830.81 33.954 832.216 33.6276L834.921 33.0074C835.591 32.8507 836.281 32.7919 836.977 32.8376C838.131 32.9029 839.272 32.459 840.061 31.6103C840.85 30.7616 841.208 29.6257 841.036 28.4832ZM841.036 28.4832C841.036 28.4832 841.016 28.431 840.983 28.431L837.117 28.5158C835.565 28.555 834.026 28.9793 832.687 29.7432L829.908 31.3296C829.357 31.6429 828.813 31.989 828.283 32.348L827.295 33.0335L828.004 33.3142C829.351 33.8496 830.81 33.954 832.216 33.6276L834.921 33.0074C835.591 32.8507 836.281 32.7919 836.977 32.8376C838.131 32.9029 839.272 32.459 840.061 31.6103C840.85 30.7616 841.208 29.6257 841.036 28.4832ZM852.934 28.6595C852.887 28.5746 852.775 28.3722 852.489 28.3526L851.017 28.2612C850.175 28.2025 849.392 28.6007 848.941 29.3254C848.497 30.0435 848.497 30.9052 848.941 31.6234L849.326 32.2501C849.412 32.3937 849.565 32.4786 849.73 32.4916C849.896 32.5112 850.055 32.4394 850.168 32.3154L852.847 29.1883C853.033 28.9728 852.973 28.7443 852.934 28.6595ZM858.896 36.474C858.352 36.8396 858.611 37.3553 858.67 37.4532C858.73 37.5512 859.042 38.0343 859.645 37.7601L861.946 36.709V34.4045L858.902 36.474H858.896ZM858.067 35.2989L861.94 32.681V29.8607L855.613 35.5926C854.83 36.2977 854.393 37.2705 854.379 38.3215C854.366 39.3661 854.777 40.3453 855.54 41.07C856.581 42.0688 858.12 42.343 859.453 41.7685L861.94 40.6914V38.2824L860.242 39.0527C859.917 39.2029 859.599 39.2682 859.294 39.2682C858.471 39.2682 857.768 38.7916 857.41 38.1583C856.913 37.2966 856.979 36.0366 858.073 35.2923L858.067 35.2989ZM852.934 28.6595C852.887 28.5746 852.775 28.3722 852.489 28.3526L851.017 28.2612C850.175 28.2025 849.392 28.6007 848.941 29.3254C848.497 30.0435 848.497 30.9052 848.941 31.6234L849.326 32.2501C849.412 32.3937 849.565 32.4786 849.73 32.4916C849.896 32.5112 850.055 32.4394 850.168 32.3154L852.847 29.1883C853.033 28.9728 852.973 28.7443 852.934 28.6595ZM841.036 28.4832C841.036 28.4832 841.016 28.431 840.983 28.431L837.117 28.5158C835.565 28.555 834.026 28.9793 832.687 29.7432L829.908 31.3296C829.357 31.6429 828.813 31.989 828.283 32.348L827.295 33.0335L828.004 33.3142C829.351 33.8496 830.81 33.954 832.216 33.6276L834.921 33.0074C835.591 32.8507 836.281 32.7919 836.977 32.8376C838.131 32.9029 839.272 32.459 840.061 31.6103C840.85 30.7616 841.208 29.6257 841.036 28.4832ZM852.934 28.6595C852.887 28.5746 852.775 28.3722 852.489 28.3526L851.017 28.2612C850.175 28.2025 849.392 28.6007 848.941 29.3254C848.497 30.0435 848.497 30.9052 848.941 31.6234L849.326 32.2501C849.412 32.3937 849.565 32.4786 849.73 32.4916C849.896 32.5112 850.055 32.4394 850.168 32.3154L852.847 29.1883C853.033 28.9728 852.973 28.7443 852.934 28.6595ZM841.036 28.4832C841.036 28.4832 841.016 28.431 840.983 28.431L837.117 28.5158C835.565 28.555 834.026 28.9793 832.687 29.7432L829.908 31.3296C829.357 31.6429 828.813 31.989 828.283 32.348L827.295 33.0335L828.004 33.3142C829.351 33.8496 830.81 33.954 832.216 33.6276L834.921 33.0074C835.591 32.8507 836.281 32.7919 836.977 32.8376C838.131 32.9029 839.272 32.459 840.061 31.6103C840.85 30.7616 841.208 29.6257 841.036 28.4832ZM852.934 28.6595C852.887 28.5746 852.775 28.3722 852.489 28.3526L851.017 28.2612C850.175 28.2025 849.392 28.6007 848.941 29.3254C848.497 30.0435 848.497 30.9052 848.941 31.6234L849.326 32.2501C849.412 32.3937 849.565 32.4786 849.73 32.4916C849.896 32.5112 850.055 32.4394 850.168 32.3154L852.847 29.1883C853.033 28.9728 852.973 28.7443 852.934 28.6595ZM841.036 28.4832C841.036 28.4832 841.016 28.431 840.983 28.431L837.117 28.5158C835.565 28.555 834.026 28.9793 832.687 29.7432L829.908 31.3296C829.357 31.6429 828.813 31.989 828.283 32.348L827.295 33.0335L828.004 33.3142C829.351 33.8496 830.81 33.954 832.216 33.6276L834.921 33.0074C835.591 32.8507 836.281 32.7919 836.977 32.8376C838.131 32.9029 839.272 32.459 840.061 31.6103C840.85 30.7616 841.208 29.6257 841.036 28.4832ZM852.934 28.6595C852.887 28.5746 852.775 28.3722 852.489 28.3526L851.017 28.2612C850.175 28.2025 849.392 28.6007 848.941 29.3254C848.497 30.0435 848.497 30.9052 848.941 31.6234L849.326 32.2501C849.412 32.3937 849.565 32.4786 849.73 32.4916C849.896 32.5112 850.055 32.4394 850.168 32.3154L852.847 29.1883C853.033 28.9728 852.973 28.7443 852.934 28.6595ZM841.036 28.4832C841.036 28.4832 841.016 28.431 840.983 28.431L837.117 28.5158C835.565 28.555 834.026 28.9793 832.687 29.7432L829.908 31.3296C829.357 31.6429 828.813 31.989 828.283 32.348L827.295 33.0335L828.004 33.3142C829.351 33.8496 830.81 33.954 832.216 33.6276L834.921 33.0074C835.591 32.8507 836.281 32.7919 836.977 32.8376C838.131 32.9029 839.272 32.459 840.061 31.6103C840.85 30.7616 841.208 29.6257 841.036 28.4832ZM852.934 28.6595C852.887 28.5746 852.775 28.3722 852.489 28.3526L851.017 28.2612C850.175 28.2025 849.392 28.6007 848.941 29.3254C848.497 30.0435 848.497 30.9052 848.941 31.6234L849.326 32.2501C849.412 32.3937 849.565 32.4786 849.73 32.4916C849.896 32.5112 850.055 32.4394 850.168 32.3154L852.847 29.1883C853.033 28.9728 852.973 28.7443 852.934 28.6595ZM841.036 28.4832C841.036 28.4832 841.016 28.431 840.983 28.431L837.117 28.5158C835.565 28.555 834.026 28.9793 832.687 29.7432L829.908 31.3296C829.357 31.6429 828.813 31.989 828.283 32.348L827.295 33.0335L828.004 33.3142C829.351 33.8496 830.81 33.954 832.216 33.6276L834.921 33.0074C835.591 32.8507 836.281 32.7919 836.977 32.8376C838.131 32.9029 839.272 32.459 840.061 31.6103C840.85 30.7616 841.208 29.6257 841.036 28.4832ZM841.036 28.4832C841.036 28.4832 841.016 28.431 840.983 28.431L837.117 28.5158C835.565 28.555 834.026 28.9793 832.687 29.7432L829.908 31.3296C829.357 31.6429 828.813 31.989 828.283 32.348L827.295 33.0335L828.004 33.3142C829.351 33.8496 830.81 33.954 832.216 33.6276L834.921 33.0074C835.591 32.8507 836.281 32.7919 836.977 32.8376C838.131 32.9029 839.272 32.459 840.061 31.6103C840.85 30.7616 841.208 29.6257 841.036 28.4832ZM841.036 28.4832C841.036 28.4832 841.016 28.431 840.983 28.431L837.117 28.5158C835.565 28.555 834.026 28.9793 832.687 29.7432L829.908 31.3296C829.357 31.6429 828.813 31.989 828.283 32.348L827.295 33.0335L828.004 33.3142C829.351 33.8496 830.81 33.954 832.216 33.6276L834.921 33.0074C835.591 32.8507 836.281 32.7919 836.977 32.8376C838.131 32.9029 839.272 32.459 840.061 31.6103C840.85 30.7616 841.208 29.6257 841.036 28.4832Z" fill="white"/>
</g>
<path d="M469.168 24.6928C468.212 24.6928 467.262 24.5684 466.319 24.3195C465.376 24.0575 464.577 23.6907 463.922 23.219L465.16 20.7824C465.684 21.1623 466.293 21.4636 466.987 21.6863C467.682 21.909 468.382 22.0204 469.09 22.0204C469.889 22.0204 470.518 21.8632 470.976 21.5487C471.435 21.2343 471.664 20.802 471.664 20.2518C471.664 19.7278 471.461 19.3151 471.055 19.0138C470.649 18.7125 469.994 18.5619 469.09 18.5619H467.636V16.4592L471.468 12.1165L471.821 13.2562H464.61V10.7016H474.238V12.7649L470.426 17.1077L468.815 16.1841H469.738C471.428 16.1841 472.706 16.564 473.57 17.3239C474.435 18.0837 474.867 19.0597 474.867 20.2518C474.867 21.0247 474.664 21.7518 474.258 22.433C473.852 23.1011 473.23 23.6448 472.391 24.064C471.553 24.4832 470.478 24.6928 469.168 24.6928Z" fill="#91CB00"/>
<path d="M470.819 44.5553C469.957 44.5553 469.154 44.4134 468.412 44.1295C467.68 43.8348 467.042 43.4254 466.496 42.9014C465.961 42.3664 465.541 41.7496 465.235 41.0509C464.94 40.3413 464.793 39.5662 464.793 38.7256C464.793 37.885 464.94 37.1154 465.235 36.4167C465.541 35.7071 465.961 35.0903 466.496 34.5662C467.042 34.0313 467.68 33.6219 468.412 33.3381C469.143 33.0433 469.946 32.8959 470.819 32.8959C471.682 32.8959 472.478 33.0433 473.21 33.3381C473.941 33.6219 474.575 34.0258 475.109 34.5499C475.655 35.0739 476.076 35.6907 476.37 36.4003C476.676 37.1099 476.829 37.885 476.829 38.7256C476.829 39.5662 476.676 40.3413 476.37 41.0509C476.076 41.7605 475.655 42.3773 475.109 42.9014C474.575 43.4254 473.941 43.8348 473.21 44.1295C472.478 44.4134 471.682 44.5553 470.819 44.5553ZM474.569 46.7332C474.22 46.7332 473.881 46.6896 473.554 46.6022C473.226 46.5149 472.893 46.373 472.555 46.1765C472.227 45.9909 471.889 45.7452 471.54 45.4396C471.19 45.1339 470.808 44.7627 470.393 44.326L471.72 43.9985C472.058 44.4024 472.386 44.7354 472.702 44.9974C473.03 45.2594 473.346 45.4505 473.652 45.5706C473.969 45.7016 474.28 45.7671 474.585 45.7671C475.437 45.7671 476.163 45.4177 476.763 44.719L477.353 45.4232C476.632 46.2965 475.704 46.7332 474.569 46.7332ZM470.819 43.4745C471.507 43.4745 472.14 43.3599 472.719 43.1306C473.308 42.8904 473.816 42.552 474.242 42.1153C474.678 41.6787 475.017 41.1765 475.257 40.6088C475.497 40.0302 475.617 39.4025 475.617 38.7256C475.617 38.0378 475.497 37.4101 475.257 36.8424C475.017 36.2638 474.678 35.7617 474.242 35.3359C473.816 34.8992 473.308 34.5662 472.719 34.337C472.14 34.0968 471.507 33.9767 470.819 33.9767C470.131 33.9767 469.493 34.0968 468.903 34.337C468.314 34.5662 467.801 34.8992 467.364 35.3359C466.938 35.7617 466.6 36.2638 466.349 36.8424C466.108 37.4101 465.988 38.0378 465.988 38.7256C465.988 39.4025 466.108 40.0302 466.349 40.6088C466.6 41.1765 466.938 41.6787 467.364 42.1153C467.801 42.552 468.314 42.8904 468.903 43.1306C469.493 43.3599 470.131 43.4745 470.819 43.4745ZM482.853 44.5389C482.121 44.5389 481.483 44.4024 480.937 44.1295C480.391 43.8566 479.965 43.4472 479.66 42.9014C479.365 42.3555 479.218 41.6732 479.218 40.8544V35.8599H480.38V40.7234C480.38 41.6404 480.604 42.3337 481.052 42.8031C481.51 43.2616 482.149 43.4909 482.968 43.4909C483.568 43.4909 484.087 43.3708 484.523 43.1306C484.971 42.8795 485.309 42.5193 485.538 42.0498C485.779 41.5804 485.899 41.0182 485.899 40.3632V35.8599H487.061V44.457H485.948V42.099L486.128 42.5247C485.855 43.1579 485.429 43.6546 484.851 44.0149C484.283 44.3642 483.617 44.5389 482.853 44.5389ZM495.689 44.457V42.5575L495.64 42.2463V39.0695C495.64 38.3381 495.433 37.7758 495.018 37.3828C494.614 36.9898 494.008 36.7933 493.2 36.7933C492.643 36.7933 492.114 36.8861 491.612 37.0717C491.11 37.2573 490.684 37.5029 490.334 37.8086L489.81 36.9407C490.247 36.5695 490.771 36.2857 491.382 36.0892C491.994 35.8817 492.638 35.778 493.315 35.778C494.428 35.778 495.285 36.0564 495.886 36.6132C496.497 37.159 496.803 37.9942 496.803 39.1186V44.457H495.689ZM492.725 44.5389C492.081 44.5389 491.519 44.4352 491.039 44.2278C490.569 44.0094 490.209 43.7147 489.958 43.3435C489.707 42.9614 489.581 42.5247 489.581 42.0335C489.581 41.5859 489.685 41.1819 489.892 40.8217C490.111 40.4505 490.46 40.1557 490.94 39.9374C491.432 39.7081 492.087 39.5935 492.905 39.5935H495.869V40.4614H492.938C492.108 40.4614 491.53 40.6088 491.202 40.9036C490.886 41.1983 490.727 41.564 490.727 42.0007C490.727 42.492 490.919 42.885 491.301 43.1797C491.683 43.4745 492.218 43.6219 492.905 43.6219C493.56 43.6219 494.123 43.4745 494.592 43.1797C495.072 42.8741 495.422 42.4374 495.64 41.8697L495.902 42.6721C495.684 43.2398 495.302 43.6928 494.756 44.0313C494.221 44.3697 493.544 44.5389 492.725 44.5389ZM499.961 44.457V35.8599H501.074V38.2016L500.96 37.7922C501.2 37.1372 501.604 36.6405 502.171 36.302C502.739 35.9527 503.443 35.778 504.284 35.778V36.9079C504.24 36.9079 504.196 36.9079 504.153 36.9079C504.109 36.897 504.065 36.8916 504.022 36.8916C503.116 36.8916 502.406 37.1699 501.893 37.7267C501.38 38.2726 501.123 39.0531 501.123 40.0684V44.457H499.961ZM509.491 44.5389C508.684 44.5389 508.061 44.3206 507.625 43.8839C507.188 43.4472 506.97 42.8304 506.97 42.0335V33.9603H508.132V41.968C508.132 42.4701 508.258 42.8577 508.509 43.1306C508.771 43.4035 509.142 43.54 509.622 43.54C510.136 43.54 510.561 43.3926 510.9 43.0979L511.309 43.933C511.08 44.1404 510.802 44.2933 510.474 44.3915C510.157 44.4898 509.83 44.5389 509.491 44.5389ZM505.43 36.8261V35.8599H510.752V36.8261H505.43ZM512.492 44.457V43.6874L518.224 36.433L518.469 36.8261H512.591V35.8599H519.386V36.6132L513.671 43.8839L513.377 43.4909H519.501V44.457H512.492ZM465.808 64.457V52.9942H466.807L472.047 61.9352H471.523L476.714 52.9942H477.713V64.457H476.551V54.8119H476.829L472.047 62.9996H471.474L466.66 54.8119H466.971V64.457H465.808ZM481.202 64.457V55.8599H482.365V64.457H481.202ZM481.792 53.9603C481.552 53.9603 481.35 53.8785 481.186 53.7147C481.022 53.551 480.94 53.3545 480.94 53.1252C480.94 52.8959 481.022 52.7049 481.186 52.5521C481.35 52.3883 481.552 52.3064 481.792 52.3064C482.032 52.3064 482.234 52.3828 482.398 52.5357C482.562 52.6885 482.643 52.8796 482.643 53.1088C482.643 53.349 482.562 53.551 482.398 53.7147C482.245 53.8785 482.043 53.9603 481.792 53.9603ZM489.989 55.778C490.687 55.778 491.299 55.9145 491.823 56.1874C492.358 56.4494 492.773 56.8533 493.067 57.3992C493.373 57.945 493.526 58.6328 493.526 59.4625V64.457H492.363V59.5771C492.363 58.671 492.134 57.9887 491.675 57.5302C491.228 57.0608 490.595 56.8261 489.776 56.8261C489.165 56.8261 488.63 56.9516 488.171 57.2027C487.724 57.4429 487.374 57.7977 487.123 58.2671C486.883 58.7256 486.763 59.2824 486.763 59.9374V64.457H485.6V55.8599H486.714V58.218L486.534 57.7758C486.806 57.1536 487.243 56.6678 487.844 56.3184C488.444 55.9582 489.159 55.778 489.989 55.778ZM500.318 64.5389C499.423 64.5389 498.637 64.3533 497.96 63.9821C497.283 63.6 496.754 63.0815 496.372 62.4265C495.99 61.7605 495.798 61.0018 495.798 60.1503C495.798 59.2988 495.979 58.5455 496.339 57.8905C496.71 57.2354 497.212 56.7223 497.845 56.3512C498.49 55.9691 499.21 55.778 500.007 55.778C500.815 55.778 501.53 55.9636 502.152 56.3348C502.785 56.6951 503.282 57.2082 503.642 57.8741C504.003 58.5291 504.183 59.2878 504.183 60.1503C504.183 60.2049 504.177 60.2649 504.166 60.3304C504.166 60.385 504.166 60.445 504.166 60.5105H496.683V59.6426H503.544L503.086 59.9865C503.086 59.3643 502.949 58.8129 502.676 58.3326C502.414 57.8413 502.054 57.4592 501.595 57.1863C501.137 56.9134 500.607 56.7769 500.007 56.7769C499.417 56.7769 498.888 56.9134 498.419 57.1863C497.949 57.4592 497.583 57.8413 497.321 58.3326C497.059 58.8239 496.928 59.3861 496.928 60.0193V60.1994C496.928 60.8544 497.07 61.433 497.354 61.9352C497.649 62.4265 498.053 62.814 498.566 63.0979C499.09 63.3708 499.685 63.5073 500.351 63.5073C500.875 63.5073 501.361 63.4145 501.808 63.2289C502.267 63.0433 502.66 62.7594 502.987 62.3773L503.642 63.1306C503.26 63.5891 502.78 63.9385 502.201 64.1786C501.634 64.4188 501.006 64.5389 500.318 64.5389ZM508.858 64.5389C508.149 64.5389 507.477 64.4407 506.844 64.2441C506.211 64.0367 505.714 63.7802 505.354 63.4745L505.878 62.5575C506.227 62.8195 506.675 63.0487 507.221 63.2452C507.766 63.4308 508.34 63.5236 508.94 63.5236C509.759 63.5236 510.348 63.3981 510.709 63.147C511.069 62.885 511.249 62.5411 511.249 62.1153C511.249 61.7987 511.145 61.5531 510.938 61.3784C510.741 61.1929 510.479 61.0564 510.152 60.9691C509.824 60.8708 509.459 60.7889 509.055 60.7234C508.651 60.6579 508.247 60.5815 507.843 60.4942C507.45 60.4068 507.09 60.2813 506.762 60.1175C506.435 59.9429 506.167 59.7081 505.96 59.4134C505.763 59.1186 505.665 58.7256 505.665 58.2343C505.665 57.7649 505.796 57.3446 506.058 56.9734C506.32 56.6023 506.702 56.313 507.204 56.1055C507.717 55.8872 508.34 55.778 509.071 55.778C509.628 55.778 510.185 55.8544 510.741 56.0073C511.298 56.1492 511.757 56.3403 512.117 56.5804L511.609 57.5138C511.227 57.2518 510.818 57.0662 510.381 56.9571C509.944 56.837 509.508 56.7769 509.071 56.7769C508.296 56.7769 507.723 56.9134 507.352 57.1863C506.991 57.4483 506.811 57.7868 506.811 58.2016C506.811 58.5291 506.91 58.7857 507.106 58.9712C507.313 59.1568 507.581 59.3042 507.908 59.4134C508.247 59.5116 508.613 59.5935 509.006 59.659C509.41 59.7245 509.808 59.8064 510.201 59.9046C510.605 59.992 510.971 60.1175 511.298 60.2813C511.637 60.4341 511.904 60.6579 512.101 60.9527C512.308 61.2365 512.412 61.6132 512.412 62.0826C512.412 62.5848 512.27 63.0214 511.986 63.3926C511.713 63.7529 511.309 64.0367 510.774 64.2441C510.25 64.4407 509.611 64.5389 508.858 64.5389Z" fill="white"/>
<g clipPath="url(#clip2_256_533)">
<path d="M170.331 41.1068C170.482 40.6853 170.389 40.2734 170.399 39.8663C170.404 39.464 170.404 39.0617 170.375 38.6642C170.36 38.4774 170.292 38.2763 170.194 38.1182C169.275 36.6287 168.347 35.144 167.419 33.6593C167.179 33.2761 166.837 33.0894 166.378 33.0846C164.937 33.075 163.495 33.0654 162.049 33.0463C161.497 33.0367 161.121 33.2761 160.891 33.7599C160.534 34.4974 160.182 35.235 159.826 35.9726C159.713 36.2073 159.645 36.2408 159.381 36.1929C159.225 36.1641 159.068 36.145 158.917 36.1067C158.878 36.0971 158.839 36.0444 158.819 36.0013C158.805 35.963 158.819 35.9103 158.819 35.8624C158.819 33.8173 158.809 31.7723 158.824 29.7224C158.829 29.0758 158.389 28.64 157.739 28.6688C157.231 28.6927 156.723 28.6687 156.215 28.6735C155.629 28.6735 155.233 29.0471 155.228 29.6218C155.223 30.2014 155.228 30.7857 155.228 31.3652C155.228 33.597 155.228 35.8289 155.228 38.0607C155.228 38.1901 155.184 38.3337 155.121 38.4487C154.813 38.9611 154.5 39.4736 154.178 39.9765C153.963 40.3118 153.894 40.6566 154.036 41.035C154.041 41.0541 154.041 41.0733 154.046 41.102H147.669C148.075 40.8146 148.08 40.4315 148.085 40.034C148.104 38.5636 148.143 37.0981 148.173 35.6277C147.992 34.6268 148.104 33.6114 148.085 32.6056C148.065 31.5951 148.085 30.5797 148.08 29.5692C148.08 29.0088 147.694 28.6496 147.122 28.6496C146.56 28.6496 145.998 28.6496 145.437 28.6496C144.855 28.6496 144.484 29.0184 144.484 29.5883C144.484 30.6563 144.484 31.7292 144.484 32.7972C144.484 32.8595 144.484 32.9169 144.484 32.9888H143.893C144 31.7292 143.507 30.8 142.29 30.3259C141.533 30.0289 140.375 30.096 139.49 31.1544C139.06 30.6037 138.508 30.254 137.8 30.1678C137.272 30.1008 136.764 30.1966 136.3 30.4552C135.528 30.8814 134.809 31.8489 135.142 33.2091C135.088 33.2235 135.039 33.2378 134.985 33.257C134.028 33.5779 133.451 34.2244 133.285 35.2063C133.266 35.3116 133.231 35.3452 133.124 35.3452C132.811 35.3452 132.494 35.3452 132.181 35.3452C132.122 35.3452 132.068 35.3499 132.005 35.3547C132.005 35.417 131.995 35.4649 131.995 35.5176C131.995 36.303 131.99 37.0885 131.995 37.8787C132.005 38.9468 132.205 39.9813 132.645 40.9631C132.665 41.0062 132.679 41.0541 132.704 41.1212H132.528C131.414 41.1212 130.305 41.1212 129.191 41.1212C128.995 41.1212 128.99 41.1164 129.029 40.9296C129.709 37.7303 130.393 34.5358 131.072 31.3364C131.238 30.5653 131.404 29.7895 131.57 29.0184C131.663 28.5825 132 28.3095 132.45 28.3095C133.319 28.3095 134.189 28.3143 135.064 28.3191C135.63 28.3191 135.923 28.0892 136.041 27.5432C136.568 25.1581 137.101 22.773 137.629 20.3879C137.853 19.3869 138.073 18.3811 138.298 17.3802C138.396 16.9491 138.689 16.6953 139.134 16.6713C139.959 16.6234 140.79 16.5899 141.616 16.5516C142.373 16.5133 143.135 16.4845 143.893 16.4366C144.279 16.4127 144.528 16.1924 144.645 15.8332C145.134 14.3245 145.622 12.8111 146.111 11.3024C146.301 10.7133 146.492 10.129 146.678 9.53993C146.829 9.07536 147.147 8.84068 147.645 8.84068C150.64 8.81194 153.645 8.80715 156.65 8.7832C157.226 8.7832 157.554 9.06578 157.691 9.56387C158.326 11.8867 158.971 14.2096 159.611 16.5276C159.64 16.633 159.665 16.7384 159.704 16.839C159.831 17.179 160.163 17.4041 160.534 17.3802C161.248 17.3371 161.956 17.2796 162.665 17.2317C163.124 17.1982 163.583 17.1551 164.042 17.1311C164.458 17.1072 164.839 17.3945 164.927 17.8016C165.142 18.7978 165.347 19.7988 165.557 20.7998C165.709 21.523 165.855 22.2462 166.007 22.9694C166.104 23.4387 166.427 23.7022 166.92 23.6926C167.78 23.6686 168.64 23.6303 169.5 23.6016C170.047 23.5872 170.36 23.8363 170.477 24.3631C170.98 26.6093 171.479 28.8507 171.982 31.097C172.588 33.8078 173.194 36.5186 173.8 39.2294C173.858 39.488 173.912 39.7514 173.971 40.01C174.098 40.6135 173.746 41.1068 173.125 41.1212C172.222 41.1451 171.323 41.126 170.419 41.126C170.394 41.126 170.37 41.1164 170.331 41.1068ZM151.647 27.1026C154.29 27.1026 156.933 27.1026 159.577 27.1026C160.129 27.1026 160.412 26.8248 160.412 26.2884C160.412 25.9771 160.412 25.661 160.412 25.3497C160.412 24.6169 160.412 23.8794 160.412 23.1466C160.412 22.6006 160.124 22.3276 159.581 22.3276C154.29 22.3276 148.998 22.3276 143.707 22.3276C143.218 22.3276 142.915 22.615 142.91 23.0891C142.91 24.1811 142.91 25.2683 142.91 26.3603C142.91 26.5518 142.964 26.7243 143.096 26.8727C143.272 27.0643 143.497 27.1122 143.751 27.1122C146.384 27.1122 149.018 27.1122 151.652 27.1122L151.647 27.1026Z" fill="white"/>
<path d="M147.23 36.2357C147.23 36.2644 147.244 36.2884 147.239 36.3123C147.22 37.093 147.244 37.8784 147.176 38.6543C147.059 39.9953 146.502 41.1735 145.666 42.232C145.549 42.3805 145.432 42.4379 145.236 42.4427C144.068 42.4619 143.062 43.1994 142.681 44.2771C142.656 44.3393 142.588 44.4112 142.52 44.4351C140.912 44.9955 139.3 44.9907 137.682 44.4591C137.565 44.4207 137.497 44.3585 137.453 44.2387C137.047 43.1276 136.026 42.4284 134.819 42.4331C134.707 42.4331 134.638 42.3996 134.57 42.3134C133.769 41.3603 133.241 40.2875 133.036 39.071C132.963 38.6447 132.943 38.2041 132.923 37.7683C132.904 37.2989 132.919 36.8343 132.923 36.365C132.923 36.3171 132.967 36.2405 133.002 36.2357C133.08 36.2213 133.182 36.1926 133.221 36.3171C133.261 36.4368 133.285 36.6045 133.373 36.6571C133.48 36.7194 133.647 36.6811 133.788 36.6811C138.049 36.6811 142.305 36.6811 146.565 36.6811C146.726 36.6811 146.834 36.6476 146.873 36.4847C146.883 36.4464 146.912 36.4129 146.922 36.3698C146.966 36.1926 147.088 36.1878 147.239 36.2213L147.23 36.2357Z" fill="white"/>
<path d="M162.166 40.8915C159.85 40.8915 157.529 40.8915 155.213 40.8915C155.135 40.8915 155.052 40.8915 154.984 40.858C154.837 40.791 154.813 40.6377 154.915 40.4749C155.296 39.857 155.682 39.2344 156.063 38.6166C156.41 38.061 156.752 37.5007 157.099 36.9451C157.226 36.7439 157.29 36.7152 157.524 36.7583C158.135 36.8685 158.751 36.9786 159.362 37.0792C159.86 37.1606 160.348 36.9116 160.568 36.4614C160.94 35.7094 161.306 34.9527 161.663 34.1912C161.756 33.9852 161.878 33.9134 162.107 33.9182C163.51 33.9421 164.907 33.9565 166.309 33.9661C166.49 33.9661 166.598 34.0283 166.691 34.1768C167.594 35.6328 168.503 37.0888 169.402 38.5447C169.451 38.6262 169.485 38.7363 169.485 38.8321C169.5 39.3973 169.51 39.9624 169.519 40.5275C169.524 40.8341 169.451 40.9107 169.134 40.9107C166.813 40.9107 164.487 40.9107 162.166 40.9107V40.8963V40.8915Z" fill="white"/>
<path d="M147.723 45.5225C147.777 46.5809 146.868 47.7878 145.422 47.7831C144.112 47.7831 143.135 46.7485 143.13 45.5799C143.125 44.2581 144.151 43.2475 145.441 43.2619C146.717 43.2762 147.723 44.2772 147.718 45.5177L147.723 45.5225Z" fill="white"/>
<path d="M134.721 43.2139C136.002 43.2187 137.023 44.2197 137.018 45.4649C137.018 46.7197 135.982 47.7351 134.712 47.7303C133.441 47.7303 132.406 46.7054 132.41 45.4601C132.41 44.2197 133.451 43.2091 134.721 43.2139Z" fill="white"/>
<path d="M139.031 32.5005C139.036 33.262 138.474 33.923 137.712 34.0283C137.658 34.0379 137.575 34.0092 137.536 33.9661C137.174 33.5638 136.73 33.3051 136.197 33.1806C136.129 33.1662 136.051 33.0848 136.026 33.013C135.699 32.1174 136.314 31.1499 137.282 31.0254C138.21 30.9104 139.026 31.5905 139.031 32.4909V32.5005Z" fill="white"/>
<path d="M143.008 32.5865C143.008 33.2905 142.495 33.9084 141.792 34.052C141.743 34.0616 141.669 34.0329 141.635 33.9994C141.234 33.5635 140.746 33.2953 140.155 33.2043C140.101 33.1948 140.028 33.1421 140.008 33.0942C139.676 32.2369 140.218 31.2311 141.205 31.0731C142.148 30.9246 142.862 31.5759 142.984 32.2991C142.998 32.3949 143.003 32.4907 143.008 32.5913V32.5865Z" fill="white"/>
<path d="M144.142 35.7374C143.692 35.7374 143.243 35.7326 142.788 35.7374C142.651 35.7374 142.617 35.68 142.603 35.5698C142.51 34.6742 143.125 33.9223 144.044 33.8552C144.86 33.7929 145.539 34.3677 145.661 35.0957C145.691 35.2537 145.676 35.4213 145.676 35.5842C145.676 35.7087 145.608 35.7422 145.485 35.7422C145.036 35.7374 144.586 35.7422 144.132 35.7422L144.142 35.7374Z" fill="white"/>
<path d="M135.679 35.7378C135.225 35.7378 134.766 35.7378 134.311 35.7378C134.179 35.7378 134.14 35.6946 134.14 35.5701C134.13 34.7128 134.79 34.0184 135.669 34.004C136.603 33.9944 137.287 34.7703 137.243 35.6037C137.238 35.7186 137.179 35.733 137.081 35.733C136.617 35.733 136.148 35.733 135.684 35.733L135.679 35.7378Z" fill="white"/>
<path d="M139.798 35.738C139.339 35.738 138.875 35.738 138.415 35.738C138.288 35.738 138.239 35.6997 138.239 35.5752C138.239 34.7514 138.977 33.942 139.906 34.0474C140.565 34.1192 141.186 34.6077 141.313 35.2543C141.337 35.3788 141.337 35.5081 141.347 35.6327C141.352 35.738 141.278 35.738 141.2 35.738C140.736 35.738 140.267 35.738 139.803 35.738H139.798Z" fill="white"/>
</g>
<g clipPath="url(#clip3_256_533)">
<path d="M402 15.2065V17.7646L400.237 17.0145C392.038 13.2254 382.494 13.8088 373.801 15.3283C370.538 15.9246 367.147 16.9953 364 18.066V15.2065C364 14.4179 364.635 13.7832 365.423 13.7832H400.577C401.359 13.7832 402 14.4179 402 15.2065Z" fill="white"/>
<path d="M402 30.0357V36.7355C399.808 35.0173 397 33.844 393.949 33.2862C389.859 32.4335 385.891 32.6002 381.814 32.7605C377.814 32.8952 373.756 31.35 369.801 32.7285C367.744 33.3504 365.712 34.4467 364 35.8828V30.4268C367.083 28.9329 370.429 28.2662 373.801 27.734C380.66 26.7723 387.679 27.1249 394.532 28.0546C397.115 28.3944 399.737 28.8304 402 30.0357Z" fill="white"/>
<path d="M402 21.5603V26.3432C401.558 26.1316 401.096 25.9393 400.628 25.779C398.827 25.1571 396.929 24.8109 395.058 24.4583C386.058 22.8939 376.673 22.74 367.853 25.4264C366.519 25.8495 365.237 26.3624 364 26.9523V21.3231C364.41 21.2462 364.962 21.1244 365.237 21.0474C370.244 19.5151 375.378 18.5919 380.59 18.1688C383.692 17.8867 386.821 17.9059 389.923 18.1816C391.724 18.406 394.327 18.6752 396.013 19.31C397.359 19.7588 399.859 20.7333 402 21.5603Z" fill="white"/>
<path d="M402 40.0055V50.3662C402 50.783 401.821 51.1548 401.532 51.4113C401.224 48.3659 399.615 45.6154 397.301 43.5638C394.737 41.3391 391.282 40.1273 387.878 40.1273H388.205C386.109 39.8837 384 39.749 381.897 39.6657C379.571 39.5311 377.006 39.5888 374.75 40.512C370.122 42.2366 366.686 46.6028 366.353 51.4049L366.699 51.5651C369.122 46.513 374.442 42.6726 380.192 43.3586L381.75 43.4612C383.833 43.6151 385.923 43.7177 388.013 43.8331C393.474 43.5061 398.66 46.8336 401.077 51.6934C400.923 51.7511 400.75 51.7831 400.577 51.7831H392.353C391.795 50.3213 390.378 49.1288 389.109 48.5005C384.885 46.0642 374.904 45.6347 373.981 51.7831H365.423C364.635 51.7831 364 51.1484 364 50.3662V39.6529C365.699 37.9923 367.955 36.8383 370.212 36.1972C372.744 35.306 375.25 35.9856 377.827 36.3382C381.756 36.9473 385.673 36.1972 389.615 36.3703C394.423 36.4216 398.917 37.4025 402 40.0055Z" fill="white"/>
<path d="M389.346 51.7831H375.083C376.013 51.0138 377.135 50.5201 378.397 50.488C380.039 50.379 381.718 50.5521 383.378 50.7317C385.359 50.9753 387.474 51.0843 389.346 51.7831Z" fill="white"/>
</g>
<defs>
<clipPath id="clip0_256_533">
<rect width="43.5588" height="50.0598" fill="white" transform="translate(591 9.7832)"/>
</clipPath>
<clipPath id="clip1_256_533">
<rect width="40.9387" height="49.1264" fill="white" transform="translate(821 10.2822)"/>
</clipPath>
<clipPath id="clip2_256_533">
<rect width="45" height="39" fill="white" transform="translate(129 8.7832)"/>
</clipPath>
<clipPath id="clip3_256_533">
<rect width="38" height="38" fill="white" transform="translate(364 13.7832)"/>
</clipPath>
</defs>
</svg>
