<svg width="320" height="181" viewBox="0 0 320 181" fill="none" xmlns="http://www.w3.org/2000/svg">
<rect x="0.409387" y="0.420129" width="149.181" height="80.1812" stroke="white" stroke-width="0.818774"/>
<path d="M10.265 53.0107L14.495 43.4407L15.125 44.4907H9.47L10.55 43.3507V46.2007H8.39V42.5107H16.805V44.0857L12.905 53.0107H10.265ZM16.7853 50.8057V49.1707L21.7353 42.5107H24.2853L19.4403 49.1707L18.2553 48.8257H26.5203V50.8057H16.7853ZM22.4403 53.0107V50.8057L22.5153 48.8257V46.8607H24.8103V53.0107H22.4403Z" fill="#91CB00"/>
<path d="M9.98 65.7537H14.05V66.4467H9.98V65.7537ZM10.068 69.3067H14.699V70.0107H9.254V62.3107H14.534V63.0147H10.068V69.3067ZM15.4063 70.0107L17.8483 66.8427L17.8373 67.2277L15.5163 64.2357H16.3963L18.2993 66.7107L17.9693 66.6997L19.8723 64.2357H20.7303L18.3873 67.2607L18.3983 66.8427L20.8623 70.0107H19.9713L17.9583 67.3707L18.2663 67.4147L16.2863 70.0107H15.4063ZM24.3561 70.0657C23.7841 70.0657 23.2708 69.9411 22.8161 69.6917C22.3688 69.4351 22.0168 69.0867 21.7601 68.6467C21.5035 68.1994 21.3751 67.6897 21.3751 67.1177C21.3751 66.5384 21.5035 66.0287 21.7601 65.5887C22.0168 65.1487 22.3688 64.8041 22.8161 64.5547C23.2708 64.3054 23.7841 64.1807 24.3561 64.1807C24.8475 64.1807 25.2911 64.2761 25.6871 64.4667C26.0831 64.6574 26.3948 64.9434 26.6221 65.3247L26.0391 65.7207C25.8411 65.4274 25.5955 65.2111 25.3021 65.0717C25.0088 64.9324 24.6898 64.8627 24.3451 64.8627C23.9345 64.8627 23.5641 64.9581 23.2341 65.1487C22.9041 65.3321 22.6438 65.5924 22.4531 65.9297C22.2625 66.2671 22.1671 66.6631 22.1671 67.1177C22.1671 67.5724 22.2625 67.9684 22.4531 68.3057C22.6438 68.6431 22.9041 68.9071 23.2341 69.0977C23.5641 69.2811 23.9345 69.3727 24.3451 69.3727C24.6898 69.3727 25.0088 69.3031 25.3021 69.1637C25.5955 69.0244 25.8411 68.8117 26.0391 68.5257L26.6221 68.9217C26.3948 69.2957 26.0831 69.5817 25.6871 69.7797C25.2911 69.9704 24.8475 70.0657 24.3561 70.0657ZM31.7754 70.0107V68.7347L31.7424 68.5257V66.3917C31.7424 65.9004 31.603 65.5227 31.3244 65.2587C31.053 64.9947 30.646 64.8627 30.1034 64.8627C29.7294 64.8627 29.3737 64.9251 29.0364 65.0497C28.699 65.1744 28.413 65.3394 28.1784 65.5447L27.8264 64.9617C28.1197 64.7124 28.4717 64.5217 28.8824 64.3897C29.293 64.2504 29.7257 64.1807 30.1804 64.1807C30.9284 64.1807 31.504 64.3677 31.9074 64.7417C32.318 65.1084 32.5234 65.6694 32.5234 66.4247V70.0107H31.7754ZM29.7844 70.0657C29.3517 70.0657 28.974 69.9961 28.6514 69.8567C28.336 69.7101 28.094 69.5121 27.9254 69.2627C27.7567 69.0061 27.6724 68.7127 27.6724 68.3827C27.6724 68.0821 27.742 67.8107 27.8814 67.5687C28.028 67.3194 28.2627 67.1214 28.5854 66.9747C28.9154 66.8207 29.3554 66.7437 29.9054 66.7437H31.8964V67.3267H29.9274C29.37 67.3267 28.9814 67.4257 28.7614 67.6237C28.5487 67.8217 28.4424 68.0674 28.4424 68.3607C28.4424 68.6907 28.5707 68.9547 28.8274 69.1527C29.084 69.3507 29.4434 69.4497 29.9054 69.4497C30.3454 69.4497 30.723 69.3507 31.0384 69.1527C31.361 68.9474 31.5957 68.6541 31.7424 68.2727L31.9184 68.8117C31.7717 69.1931 31.515 69.4974 31.1484 69.7247C30.789 69.9521 30.3344 70.0657 29.7844 70.0657ZM36.0222 70.0107L33.4592 64.2357H34.2732L36.6272 69.5927H36.2422L38.6292 64.2357H39.3992L36.8252 70.0107H36.0222ZM43.9463 70.0107V68.7347L43.9133 68.5257V66.3917C43.9133 65.9004 43.7739 65.5227 43.4953 65.2587C43.2239 64.9947 42.8169 64.8627 42.2743 64.8627C41.9003 64.8627 41.5446 64.9251 41.2073 65.0497C40.8699 65.1744 40.5839 65.3394 40.3493 65.5447L39.9973 64.9617C40.2906 64.7124 40.6426 64.5217 41.0533 64.3897C41.4639 64.2504 41.8966 64.1807 42.3513 64.1807C43.0993 64.1807 43.6749 64.3677 44.0783 64.7417C44.4889 65.1084 44.6943 65.6694 44.6943 66.4247V70.0107H43.9463ZM41.9553 70.0657C41.5226 70.0657 41.1449 69.9961 40.8223 69.8567C40.5069 69.7101 40.2649 69.5121 40.0963 69.2627C39.9276 69.0061 39.8433 68.7127 39.8433 68.3827C39.8433 68.0821 39.9129 67.8107 40.0523 67.5687C40.1989 67.3194 40.4336 67.1214 40.7563 66.9747C41.0863 66.8207 41.5263 66.7437 42.0763 66.7437H44.0673V67.3267H42.0983C41.5409 67.3267 41.1523 67.4257 40.9323 67.6237C40.7196 67.8217 40.6133 68.0674 40.6133 68.3607C40.6133 68.6907 40.7416 68.9547 40.9983 69.1527C41.2549 69.3507 41.6143 69.4497 42.0763 69.4497C42.5163 69.4497 42.8939 69.3507 43.2093 69.1527C43.5319 68.9474 43.7666 68.6541 43.9133 68.2727L44.0893 68.8117C43.9426 69.1931 43.6859 69.4974 43.3193 69.7247C42.9599 69.9521 42.5053 70.0657 41.9553 70.0657ZM48.6416 70.0657C48.0989 70.0657 47.6809 69.9191 47.3876 69.6257C47.0942 69.3324 46.9476 68.9181 46.9476 68.3827V62.9597H47.7286V68.3387C47.7286 68.6761 47.8129 68.9364 47.9816 69.1197C48.1576 69.3031 48.4069 69.3947 48.7296 69.3947C49.0742 69.3947 49.3602 69.2957 49.5876 69.0977L49.8626 69.6587C49.7086 69.7981 49.5216 69.9007 49.3016 69.9667C49.0889 70.0327 48.8689 70.0657 48.6416 70.0657ZM45.9136 64.8847V64.2357H49.4886V64.8847H45.9136ZM53.4342 70.0657C52.8769 70.0657 52.3745 69.9411 51.9272 69.6917C51.4872 69.4351 51.1389 69.0867 50.8822 68.6467C50.6255 68.1994 50.4972 67.6897 50.4972 67.1177C50.4972 66.5384 50.6255 66.0287 50.8822 65.5887C51.1389 65.1487 51.4872 64.8041 51.9272 64.5547C52.3672 64.3054 52.8695 64.1807 53.4342 64.1807C54.0062 64.1807 54.5122 64.3054 54.9522 64.5547C55.3995 64.8041 55.7479 65.1487 55.9972 65.5887C56.2539 66.0287 56.3822 66.5384 56.3822 67.1177C56.3822 67.6897 56.2539 68.1994 55.9972 68.6467C55.7479 69.0867 55.3995 69.4351 54.9522 69.6917C54.5049 69.9411 53.9989 70.0657 53.4342 70.0657ZM53.4342 69.3727C53.8522 69.3727 54.2225 69.2811 54.5452 69.0977C54.8679 68.9071 55.1209 68.6431 55.3042 68.3057C55.4949 67.9611 55.5902 67.5651 55.5902 67.1177C55.5902 66.6631 55.4949 66.2671 55.3042 65.9297C55.1209 65.5924 54.8679 65.3321 54.5452 65.1487C54.2225 64.9581 53.8559 64.8627 53.4452 64.8627C53.0345 64.8627 52.6679 64.9581 52.3452 65.1487C52.0225 65.3321 51.7659 65.5924 51.5752 65.9297C51.3845 66.2671 51.2892 66.6631 51.2892 67.1177C51.2892 67.5651 51.3845 67.9611 51.5752 68.3057C51.7659 68.6431 52.0225 68.9071 52.3452 69.0977C52.6679 69.2811 53.0309 69.3727 53.4342 69.3727ZM57.9767 70.0107V64.2357H58.7247V65.8087L58.6477 65.5337C58.809 65.0937 59.0804 64.7601 59.4617 64.5327C59.843 64.2981 60.316 64.1807 60.8807 64.1807V64.9397C60.8514 64.9397 60.822 64.9397 60.7927 64.9397C60.7634 64.9324 60.734 64.9287 60.7047 64.9287C60.096 64.9287 59.6194 65.1157 59.2747 65.4897C58.93 65.8564 58.7577 66.3807 58.7577 67.0627V70.0107H57.9767ZM63.9213 70.0657C63.4446 70.0657 62.9936 69.9997 62.5683 69.8677C62.1429 69.7284 61.8093 69.5561 61.5673 69.3507L61.9193 68.7347C62.1539 68.9107 62.4546 69.0647 62.8213 69.1967C63.1879 69.3214 63.5729 69.3837 63.9763 69.3837C64.5263 69.3837 64.9223 69.2994 65.1643 69.1307C65.4063 68.9547 65.5273 68.7237 65.5273 68.4377C65.5273 68.2251 65.4576 68.0601 65.3183 67.9427C65.1863 67.8181 65.0103 67.7264 64.7903 67.6677C64.5703 67.6017 64.3246 67.5467 64.0533 67.5027C63.7819 67.4587 63.5106 67.4074 63.2393 67.3487C62.9753 67.2901 62.7333 67.2057 62.5133 67.0957C62.2933 66.9784 62.1136 66.8207 61.9743 66.6227C61.8423 66.4247 61.7763 66.1607 61.7763 65.8307C61.7763 65.5154 61.8643 65.2331 62.0403 64.9837C62.2163 64.7344 62.4729 64.5401 62.8103 64.4007C63.1549 64.2541 63.5729 64.1807 64.0643 64.1807C64.4383 64.1807 64.8123 64.2321 65.1863 64.3347C65.5603 64.4301 65.8683 64.5584 66.1103 64.7197L65.7693 65.3467C65.5126 65.1707 65.2376 65.0461 64.9443 64.9727C64.6509 64.8921 64.3576 64.8517 64.0643 64.8517C63.5436 64.8517 63.1586 64.9434 62.9093 65.1267C62.6673 65.3027 62.5463 65.5301 62.5463 65.8087C62.5463 66.0287 62.6123 66.2011 62.7443 66.3257C62.8836 66.4504 63.0633 66.5494 63.2833 66.6227C63.5106 66.6887 63.7563 66.7437 64.0203 66.7877C64.2916 66.8317 64.5593 66.8867 64.8233 66.9527C65.0946 67.0114 65.3403 67.0957 65.5603 67.2057C65.7876 67.3084 65.9673 67.4587 66.0993 67.6567C66.2386 67.8474 66.3083 68.1004 66.3083 68.4157C66.3083 68.7531 66.2129 69.0464 66.0223 69.2957C65.8389 69.5377 65.5676 69.7284 65.2083 69.8677C64.8563 69.9997 64.4273 70.0657 63.9213 70.0657Z" fill="white"/>
<g clipPath="url(#clip0_256_534)">
<path d="M137.685 25.0993C138.395 25.0746 139.106 25.05 139.817 25.0254C139.969 25.5958 140.24 26.9336 139.78 28.5382C139.32 30.1387 138.379 31.1277 137.948 31.5299C136.263 31.5791 134.579 31.6284 132.895 31.6776C134.493 29.4862 136.087 27.2907 137.685 25.0993Z" fill="white"/>
<path d="M128.3 33.8984H111.431C110.458 33.8984 109.57 34.2924 108.934 34.9326C108.293 35.5687 107.898 36.4551 107.898 37.4277C107.898 39.3811 109.48 40.961 111.431 40.961H128.3C129.273 40.961 130.161 40.5671 130.802 39.9269C131.442 39.2867 131.837 38.4044 131.837 37.4277C131.837 35.4784 130.251 33.8984 128.3 33.8984ZM112.611 38.6793C111.929 38.6793 111.378 38.1253 111.378 37.4441C111.378 36.7629 111.929 36.213 112.611 36.213C113.292 36.213 113.843 36.7629 113.843 37.4441C113.843 38.1253 113.292 38.6793 112.611 38.6793ZM117.614 38.6629C116.932 38.6629 116.382 38.113 116.382 37.4318C116.382 36.7506 116.932 36.2007 117.614 36.2007C118.296 36.2007 118.847 36.7506 118.847 37.4318C118.847 38.113 118.296 38.6629 117.614 38.6629ZM122.524 38.6917C121.842 38.6917 121.291 38.1417 121.291 37.4605C121.291 36.7793 121.842 36.2294 122.524 36.2294C123.206 36.2294 123.756 36.7793 123.756 37.4605C123.756 38.1417 123.206 38.6917 122.524 38.6917ZM127.564 38.6588C126.882 38.6588 126.332 38.1048 126.332 37.4236C126.332 36.7424 126.882 36.1925 127.564 36.1925C128.246 36.1925 128.797 36.7465 128.797 37.4236C128.797 38.1007 128.246 38.6588 127.564 38.6588Z" fill="white"/>
<path d="M127.955 31.4473H111.699V33.019H127.955V31.4473Z" fill="white"/>
<path d="M126.581 20.458C123.832 20.5278 121.08 20.5975 118.332 20.6673C118.118 22.1529 117.9 23.6425 117.682 25.1281L108.328 25.5139C108.369 27.5534 108.406 29.593 108.447 31.6326C115.283 31.5834 122.119 31.5341 128.955 31.489L129.342 26.2033L126.581 20.458ZM111.011 30.1717H110.033V27.4632H111.011V30.1717ZM113.155 30.1717H112.182V27.4632H113.155V30.1717ZM115.439 30.1717H114.466V27.4632H115.439V30.1717ZM122.222 25.994H119.371L119.474 23.4086L122.222 22.4771V25.994ZM123.857 29.5643C123.565 29.0554 123.27 28.5466 122.978 28.0377C122.974 26.1623 122.97 24.2909 122.97 22.4196L125.303 22.5304C125.932 23.7985 126.56 25.0666 127.185 26.3346C127.078 27.4385 126.971 28.5466 126.864 29.6505C125.862 29.6217 124.859 29.593 123.853 29.5643H123.857Z" fill="white"/>
<path d="M118.699 19.7931C119.43 18.4635 120.162 17.138 120.893 15.8083C121.345 14.9876 122.072 14.3515 122.947 14.015L132.938 10.1533L133.854 13.0793L129.138 15.4349C127.869 16.071 127.031 17.3349 126.944 18.7507L126.891 19.6413C124.163 19.6946 121.435 19.748 118.703 19.7972L118.699 19.7931Z" fill="white"/>
<path d="M137.882 8.82771C137.816 8.75794 136.9 7.85101 135.614 8.10544C134.689 8.29011 133.942 9.00007 133.695 9.93573C135.121 14.6961 136.546 19.4606 137.972 24.221L140.104 24.1471L137.882 8.82771ZM135.922 11.1094C135.511 11.1094 135.174 10.777 135.174 10.3625C135.174 9.94804 135.507 9.62384 135.922 9.62384C136.337 9.62384 136.67 9.95625 136.67 10.3625C136.67 10.7688 136.337 11.1094 135.922 11.1094Z" fill="white"/>
</g>
<rect x="0.409387" y="99.4201" width="149.181" height="80.1812" stroke="white" stroke-width="0.818774"/>
<path d="M10.265 152.011L14.495 142.441L15.125 143.491H9.47L10.55 142.351V145.201H8.39V141.511H16.805V143.086L12.905 152.011H10.265ZM22.0938 152.191C21.2338 152.191 20.4638 151.981 19.7838 151.561C19.1038 151.131 18.5688 150.511 18.1788 149.701C17.7888 148.891 17.5938 147.911 17.5938 146.761C17.5938 145.611 17.7888 144.631 18.1788 143.821C18.5688 143.011 19.1038 142.396 19.7838 141.976C20.4638 141.546 21.2338 141.331 22.0938 141.331C22.9638 141.331 23.7338 141.546 24.4038 141.976C25.0838 142.396 25.6188 143.011 26.0088 143.821C26.3988 144.631 26.5938 145.611 26.5938 146.761C26.5938 147.911 26.3988 148.891 26.0088 149.701C25.6188 150.511 25.0838 151.131 24.4038 151.561C23.7338 151.981 22.9638 152.191 22.0938 152.191ZM22.0938 150.136C22.5038 150.136 22.8588 150.021 23.1588 149.791C23.4688 149.561 23.7088 149.196 23.8788 148.696C24.0588 148.196 24.1488 147.551 24.1488 146.761C24.1488 145.971 24.0588 145.326 23.8788 144.826C23.7088 144.326 23.4688 143.961 23.1588 143.731C22.8588 143.501 22.5038 143.386 22.0938 143.386C21.6938 143.386 21.3388 143.501 21.0288 143.731C20.7288 143.961 20.4888 144.326 20.3088 144.826C20.1388 145.326 20.0538 145.971 20.0538 146.761C20.0538 147.551 20.1388 148.196 20.3088 148.696C20.4888 149.196 20.7288 149.561 21.0288 149.791C21.3388 150.021 21.6938 150.136 22.0938 150.136Z" fill="#91CB00"/>
<path d="M11.003 169.011L8.407 161.311H9.243L11.674 168.56H11.256L13.764 161.311H14.512L16.987 168.56H16.591L19.044 161.311H19.825L17.229 169.011H16.371L14.006 162.136H14.226L11.85 169.011H11.003ZM21.1203 169.011V163.236H21.9013V169.011H21.1203ZM21.5163 161.96C21.3549 161.96 21.2193 161.905 21.1093 161.795C20.9993 161.685 20.9443 161.553 20.9443 161.399C20.9443 161.245 20.9993 161.116 21.1093 161.014C21.2193 160.904 21.3549 160.849 21.5163 160.849C21.6776 160.849 21.8133 160.9 21.9233 161.003C22.0333 161.105 22.0883 161.234 22.0883 161.388C22.0883 161.549 22.0333 161.685 21.9233 161.795C21.8206 161.905 21.6849 161.96 21.5163 161.96ZM24.0744 169.011V163.236H24.8224V164.809L24.7454 164.534C24.9067 164.094 25.178 163.76 25.5594 163.533C25.9407 163.298 26.4137 163.181 26.9784 163.181V163.94C26.949 163.94 26.9197 163.94 26.8904 163.94C26.861 163.932 26.8317 163.929 26.8024 163.929C26.1937 163.929 25.717 164.116 25.3724 164.49C25.0277 164.856 24.8554 165.381 24.8554 166.063V169.011H24.0744ZM30.8027 169.066C30.2014 169.066 29.6734 168.941 29.2187 168.692C28.7641 168.435 28.4084 168.087 28.1517 167.647C27.8951 167.199 27.7667 166.69 27.7667 166.118C27.7667 165.546 27.8877 165.04 28.1297 164.6C28.3791 164.16 28.7164 163.815 29.1417 163.566C29.5744 163.309 30.0584 163.181 30.5937 163.181C31.1364 163.181 31.6167 163.305 32.0347 163.555C32.4601 163.797 32.7937 164.141 33.0357 164.589C33.2777 165.029 33.3987 165.538 33.3987 166.118C33.3987 166.154 33.3951 166.195 33.3877 166.239C33.3877 166.275 33.3877 166.316 33.3877 166.36H28.3607V165.777H32.9697L32.6617 166.008C32.6617 165.59 32.5701 165.219 32.3867 164.897C32.2107 164.567 31.9687 164.31 31.6607 164.127C31.3527 163.943 30.9971 163.852 30.5937 163.852C30.1977 163.852 29.8421 163.943 29.5267 164.127C29.2114 164.31 28.9657 164.567 28.7897 164.897C28.6137 165.227 28.5257 165.604 28.5257 166.03V166.151C28.5257 166.591 28.6211 166.979 28.8117 167.317C29.0097 167.647 29.2811 167.907 29.6257 168.098C29.9777 168.281 30.3774 168.373 30.8247 168.373C31.1767 168.373 31.5031 168.31 31.8037 168.186C32.1117 168.061 32.3757 167.87 32.5957 167.614L33.0357 168.12C32.7791 168.428 32.4564 168.662 32.0677 168.824C31.6864 168.985 31.2647 169.066 30.8027 169.066ZM40.1553 169.077C39.5833 169.077 39.0333 168.985 38.5053 168.802C37.9847 168.611 37.5813 168.369 37.2953 168.076L37.6143 167.449C37.8857 167.713 38.2487 167.936 38.7033 168.12C39.1653 168.296 39.6493 168.384 40.1553 168.384C40.6393 168.384 41.0317 168.325 41.3323 168.208C41.6403 168.083 41.864 167.918 42.0033 167.713C42.15 167.507 42.2233 167.28 42.2233 167.031C42.2233 166.73 42.1353 166.488 41.9593 166.305C41.7907 166.121 41.567 165.978 41.2883 165.876C41.0097 165.766 40.7017 165.67 40.3643 165.59C40.027 165.509 39.6897 165.425 39.3523 165.337C39.015 165.241 38.7033 165.117 38.4173 164.963C38.1387 164.809 37.9113 164.607 37.7353 164.358C37.5667 164.101 37.4823 163.767 37.4823 163.357C37.4823 162.975 37.5813 162.627 37.7793 162.312C37.9847 161.989 38.2963 161.732 38.7143 161.542C39.1323 161.344 39.6677 161.245 40.3203 161.245C40.753 161.245 41.182 161.307 41.6073 161.432C42.0327 161.549 42.3993 161.714 42.7073 161.927L42.4323 162.576C42.1023 162.356 41.7503 162.194 41.3763 162.092C41.0097 161.989 40.654 161.938 40.3093 161.938C39.8473 161.938 39.466 162 39.1653 162.125C38.8647 162.249 38.641 162.418 38.4943 162.631C38.355 162.836 38.2853 163.071 38.2853 163.335C38.2853 163.635 38.3697 163.877 38.5383 164.061C38.7143 164.244 38.9417 164.387 39.2203 164.49C39.5063 164.592 39.818 164.684 40.1553 164.765C40.4927 164.845 40.8263 164.933 41.1563 165.029C41.4937 165.124 41.8017 165.249 42.0803 165.403C42.3663 165.549 42.5937 165.747 42.7623 165.997C42.9383 166.246 43.0263 166.572 43.0263 166.976C43.0263 167.35 42.9237 167.698 42.7183 168.021C42.513 168.336 42.1977 168.593 41.7723 168.791C41.3543 168.981 40.8153 169.077 40.1553 169.077ZM48.2539 169.011V167.735L48.2209 167.526V165.392C48.2209 164.9 48.0816 164.523 47.8029 164.259C47.5316 163.995 47.1246 163.863 46.5819 163.863C46.2079 163.863 45.8522 163.925 45.5149 164.05C45.1776 164.174 44.8916 164.339 44.6569 164.545L44.3049 163.962C44.5982 163.712 44.9502 163.522 45.3609 163.39C45.7716 163.25 46.2042 163.181 46.6589 163.181C47.4069 163.181 47.9826 163.368 48.3859 163.742C48.7966 164.108 49.0019 164.669 49.0019 165.425V169.011H48.2539ZM46.2629 169.066C45.8302 169.066 45.4526 168.996 45.1299 168.857C44.8146 168.71 44.5726 168.512 44.4039 168.263C44.2352 168.006 44.1509 167.713 44.1509 167.383C44.1509 167.082 44.2206 166.811 44.3599 166.569C44.5066 166.319 44.7412 166.121 45.0639 165.975C45.3939 165.821 45.8339 165.744 46.3839 165.744H48.3749V166.327H46.4059C45.8486 166.327 45.4599 166.426 45.2399 166.624C45.0272 166.822 44.9209 167.067 44.9209 167.361C44.9209 167.691 45.0492 167.955 45.3059 168.153C45.5626 168.351 45.9219 168.45 46.3839 168.45C46.8239 168.45 47.2016 168.351 47.5169 168.153C47.8396 167.947 48.0742 167.654 48.2209 167.273L48.3969 167.812C48.2502 168.193 47.9936 168.497 47.6269 168.725C47.2676 168.952 46.8129 169.066 46.2629 169.066ZM52.1928 169.011L50.0148 163.236H50.7628L52.7428 168.593H52.4018L54.4368 163.236H55.1078L57.1208 168.593H56.7798L58.7928 163.236H59.5078L57.3188 169.011H56.5818L54.6458 163.973H54.8768L52.9298 169.011H52.1928ZM62.1703 169.066C61.6936 169.066 61.2426 169 60.8173 168.868C60.3919 168.728 60.0583 168.556 59.8163 168.351L60.1683 167.735C60.4029 167.911 60.7036 168.065 61.0703 168.197C61.4369 168.321 61.8219 168.384 62.2253 168.384C62.7753 168.384 63.1713 168.299 63.4133 168.131C63.6553 167.955 63.7763 167.724 63.7763 167.438C63.7763 167.225 63.7066 167.06 63.5673 166.943C63.4353 166.818 63.2593 166.726 63.0393 166.668C62.8193 166.602 62.5736 166.547 62.3023 166.503C62.0309 166.459 61.7596 166.407 61.4883 166.349C61.2243 166.29 60.9823 166.206 60.7623 166.096C60.5423 165.978 60.3626 165.821 60.2233 165.623C60.0913 165.425 60.0253 165.161 60.0253 164.831C60.0253 164.515 60.1133 164.233 60.2893 163.984C60.4653 163.734 60.7219 163.54 61.0593 163.401C61.4039 163.254 61.8219 163.181 62.3133 163.181C62.6873 163.181 63.0613 163.232 63.4353 163.335C63.8093 163.43 64.1173 163.558 64.3593 163.72L64.0183 164.347C63.7616 164.171 63.4866 164.046 63.1933 163.973C62.8999 163.892 62.6066 163.852 62.3133 163.852C61.7926 163.852 61.4076 163.943 61.1583 164.127C60.9163 164.303 60.7953 164.53 60.7953 164.809C60.7953 165.029 60.8613 165.201 60.9933 165.326C61.1326 165.45 61.3123 165.549 61.5323 165.623C61.7596 165.689 62.0053 165.744 62.2693 165.788C62.5406 165.832 62.8083 165.887 63.0723 165.953C63.3436 166.011 63.5893 166.096 63.8093 166.206C64.0366 166.308 64.2163 166.459 64.3483 166.657C64.4876 166.847 64.5573 167.1 64.5573 167.416C64.5573 167.753 64.4619 168.046 64.2713 168.296C64.0879 168.538 63.8166 168.728 63.4573 168.868C63.1053 169 62.6763 169.066 62.1703 169.066Z" fill="white"/>
<g clipPath="url(#clip1_256_534)">
<path d="M137.301 127.011C137.294 127.043 137.283 127.079 137.273 127.111L137.069 127.011L135.398 126.191C135.537 125.536 135.609 124.856 135.609 124.158C135.609 118.791 131.291 114.442 125.967 114.442C122.996 114.442 120.343 115.794 118.579 117.924L116.75 117.025C116.993 116.669 117.232 116.316 117.475 115.96C117.068 115.575 116.661 115.186 116.254 114.802C116.622 114.276 116.993 113.748 117.364 113.219C117.518 112.999 117.672 112.78 117.829 112.56C117.954 112.377 118.082 112.197 118.211 112.014C119.157 112.438 120.1 112.859 121.046 113.284C123.696 111.967 126.867 111.658 129.892 112.65C135.88 114.615 139.183 121.028 137.301 127.011Z" fill="white"/>
<path d="M125.921 115.055C123.075 115.055 120.533 116.35 118.844 118.389L134.956 126.307C135.088 125.681 135.156 125.03 135.156 124.361C135.156 119.22 131.021 115.055 125.921 115.055ZM130.414 120.562C130.2 120.857 129.985 121.152 129.771 121.447C129.589 121.699 129.235 121.756 128.982 121.577C128.296 121.087 127.614 120.602 126.932 120.112C126.675 119.929 126.614 119.566 126.8 119.307C127.014 119.005 127.228 118.706 127.443 118.404C127.628 118.148 127.985 118.087 128.243 118.274C128.925 118.767 129.603 119.26 130.285 119.756C130.542 119.943 130.599 120.303 130.414 120.562Z" fill="white"/>
<path d="M140 137.473H111.4C111.179 137.473 111 137.653 111 137.876V139.408C111 139.631 111.179 139.811 111.4 139.811H140C140.221 139.811 140.4 139.631 140.4 139.408V137.876C140.4 137.653 140.221 137.473 140 137.473Z" fill="white"/>
<path d="M139.721 134.526H111.914V137.07H139.721V134.526Z" fill="white"/>
<path d="M138.72 131.742H134.617V134.03H138.72V131.742Z" fill="white"/>
<path d="M133.213 129.666C132.646 130.497 131.267 132.26 128.832 133.256C128.443 133.414 127.332 133.824 125.979 133.929C120.669 134.353 116.023 130.36 115.605 125.015C115.494 123.608 115.687 122.252 116.13 121C117.89 121.892 119.647 122.788 121.404 123.673C121.236 124.158 121.161 124.684 121.204 125.23C121.368 127.328 123.19 128.889 125.268 128.727C125.8 128.684 126.236 128.522 126.386 128.461C127.321 128.072 127.864 127.4 128.093 127.069C129.803 127.936 131.506 128.799 133.213 129.666Z" fill="white"/>
<path d="M138.714 127.011V131.728H134.611V128.346C134.646 128.285 134.682 128.227 134.718 128.166L134.611 128.101V127.878C134.378 128.353 134.143 128.832 133.911 129.307C128.211 126.421 122.523 123.533 116.823 120.651C116.213 120.338 115.595 120.033 114.984 119.72L116.12 117.594C116.713 117.896 117.302 118.198 117.898 118.497C123.469 121.335 129.04 124.173 134.611 127.011H137.071L137.275 127.112C137.285 127.08 137.296 127.044 137.303 127.011H138.714Z" fill="white"/>
<path d="M117.43 112.043L116.922 112.676L116.155 113.637L111.584 110.845C111.13 110.572 110.98 109.986 111.241 109.522C111.241 109.518 111.248 109.511 111.252 109.507C111.52 109.029 112.123 108.867 112.594 109.148L117.387 112.018L117.43 112.043Z" fill="white"/>
</g>
<rect x="170.409" y="99.4201" width="149.181" height="80.1812" stroke="white" stroke-width="0.818774"/>
<path d="M181.99 152.191C181.26 152.191 180.535 152.096 179.815 151.906C179.095 151.706 178.485 151.426 177.985 151.066L178.93 149.206C179.33 149.496 179.795 149.726 180.325 149.896C180.855 150.066 181.39 150.151 181.93 150.151C182.54 150.151 183.02 150.031 183.37 149.791C183.72 149.551 183.895 149.221 183.895 148.801C183.895 148.401 183.74 148.086 183.43 147.856C183.12 147.626 182.62 147.511 181.93 147.511H180.82V145.906L183.745 142.591L184.015 143.461H178.51V141.511H185.86V143.086L182.95 146.401L181.72 145.696H182.425C183.715 145.696 184.69 145.986 185.35 146.566C186.01 147.146 186.34 147.891 186.34 148.801C186.34 149.391 186.185 149.946 185.875 150.466C185.565 150.976 185.09 151.391 184.45 151.711C183.81 152.031 182.99 152.191 181.99 152.191ZM190.885 152.191C190.155 152.191 189.43 152.096 188.71 151.906C188 151.706 187.39 151.426 186.88 151.066L187.84 149.206C188.24 149.496 188.7 149.726 189.22 149.896C189.75 150.066 190.285 150.151 190.825 150.151C191.435 150.151 191.915 150.031 192.265 149.791C192.615 149.551 192.79 149.216 192.79 148.786C192.79 148.516 192.72 148.276 192.58 148.066C192.44 147.856 192.19 147.696 191.83 147.586C191.48 147.476 190.985 147.421 190.345 147.421H187.66L188.2 141.511H194.605V143.461H189.07L190.33 142.351L189.955 146.566L188.695 145.456H190.915C191.955 145.456 192.79 145.601 193.42 145.891C194.06 146.171 194.525 146.556 194.815 147.046C195.105 147.536 195.25 148.091 195.25 148.711C195.25 149.331 195.095 149.906 194.785 150.436C194.475 150.956 193.995 151.381 193.345 151.711C192.705 152.031 191.885 152.191 190.885 152.191Z" fill="#91CB00"/>
<path d="M179.254 169.011V161.311H179.925L183.445 167.317H183.093L186.58 161.311H187.251V169.011H186.47V162.532H186.657L183.445 168.032H183.06L179.826 162.532H180.035V169.011H179.254ZM192.048 169.066C191.447 169.066 190.919 168.941 190.464 168.692C190.009 168.435 189.654 168.087 189.397 167.647C189.14 167.199 189.012 166.69 189.012 166.118C189.012 165.546 189.133 165.04 189.375 164.6C189.624 164.16 189.962 163.815 190.387 163.566C190.82 163.309 191.304 163.181 191.839 163.181C192.382 163.181 192.862 163.305 193.28 163.555C193.705 163.797 194.039 164.141 194.281 164.589C194.523 165.029 194.644 165.538 194.644 166.118C194.644 166.154 194.64 166.195 194.633 166.239C194.633 166.275 194.633 166.316 194.633 166.36H189.606V165.777H194.215L193.907 166.008C193.907 165.59 193.815 165.219 193.632 164.897C193.456 164.567 193.214 164.31 192.906 164.127C192.598 163.943 192.242 163.852 191.839 163.852C191.443 163.852 191.087 163.943 190.772 164.127C190.457 164.31 190.211 164.567 190.035 164.897C189.859 165.227 189.771 165.604 189.771 166.03V166.151C189.771 166.591 189.866 166.979 190.057 167.317C190.255 167.647 190.526 167.907 190.871 168.098C191.223 168.281 191.623 168.373 192.07 168.373C192.422 168.373 192.748 168.31 193.049 168.186C193.357 168.061 193.621 167.87 193.841 167.614L194.281 168.12C194.024 168.428 193.702 168.662 193.313 168.824C192.932 168.985 192.51 169.066 192.048 169.066ZM198.632 169.066C198.06 169.066 197.546 168.941 197.092 168.692C196.644 168.435 196.292 168.087 196.036 167.647C195.779 167.199 195.651 166.69 195.651 166.118C195.651 165.538 195.779 165.029 196.036 164.589C196.292 164.149 196.644 163.804 197.092 163.555C197.546 163.305 198.06 163.181 198.632 163.181C199.123 163.181 199.567 163.276 199.963 163.467C200.359 163.657 200.67 163.943 200.898 164.325L200.315 164.721C200.117 164.427 199.871 164.211 199.578 164.072C199.284 163.932 198.965 163.863 198.621 163.863C198.21 163.863 197.84 163.958 197.51 164.149C197.18 164.332 196.919 164.592 196.729 164.93C196.538 165.267 196.443 165.663 196.443 166.118C196.443 166.572 196.538 166.968 196.729 167.306C196.919 167.643 197.18 167.907 197.51 168.098C197.84 168.281 198.21 168.373 198.621 168.373C198.965 168.373 199.284 168.303 199.578 168.164C199.871 168.024 200.117 167.812 200.315 167.526L200.898 167.922C200.67 168.296 200.359 168.582 199.963 168.78C199.567 168.97 199.123 169.066 198.632 169.066ZM205.294 163.181C205.763 163.181 206.174 163.272 206.526 163.456C206.885 163.632 207.164 163.903 207.362 164.27C207.567 164.636 207.67 165.098 207.67 165.656V169.011H206.889V165.733C206.889 165.124 206.735 164.666 206.427 164.358C206.126 164.042 205.701 163.885 205.151 163.885C204.74 163.885 204.381 163.969 204.073 164.138C203.772 164.299 203.538 164.537 203.369 164.853C203.208 165.161 203.127 165.535 203.127 165.975V169.011H202.346V160.849H203.127V164.82L202.973 164.523C203.156 164.105 203.45 163.778 203.853 163.544C204.256 163.302 204.737 163.181 205.294 163.181ZM213.398 169.011V167.735L213.365 167.526V165.392C213.365 164.9 213.226 164.523 212.947 164.259C212.676 163.995 212.269 163.863 211.726 163.863C211.352 163.863 210.997 163.925 210.659 164.05C210.322 164.174 210.036 164.339 209.801 164.545L209.449 163.962C209.743 163.712 210.095 163.522 210.505 163.39C210.916 163.25 211.349 163.181 211.803 163.181C212.551 163.181 213.127 163.368 213.53 163.742C213.941 164.108 214.146 164.669 214.146 165.425V169.011H213.398ZM211.407 169.066C210.975 169.066 210.597 168.996 210.274 168.857C209.959 168.71 209.717 168.512 209.548 168.263C209.38 168.006 209.295 167.713 209.295 167.383C209.295 167.082 209.365 166.811 209.504 166.569C209.651 166.319 209.886 166.121 210.208 165.975C210.538 165.821 210.978 165.744 211.528 165.744H213.519V166.327H211.55C210.993 166.327 210.604 166.426 210.384 166.624C210.172 166.822 210.065 167.067 210.065 167.361C210.065 167.691 210.194 167.955 210.45 168.153C210.707 168.351 211.066 168.45 211.528 168.45C211.968 168.45 212.346 168.351 212.661 168.153C212.984 167.947 213.219 167.654 213.365 167.273L213.541 167.812C213.395 168.193 213.138 168.497 212.771 168.725C212.412 168.952 211.957 169.066 211.407 169.066ZM219.216 163.181C219.685 163.181 220.096 163.272 220.448 163.456C220.807 163.632 221.086 163.903 221.284 164.27C221.489 164.636 221.592 165.098 221.592 165.656V169.011H220.811V165.733C220.811 165.124 220.657 164.666 220.349 164.358C220.048 164.042 219.623 163.885 219.073 163.885C218.662 163.885 218.303 163.969 217.995 164.138C217.694 164.299 217.459 164.537 217.291 164.853C217.129 165.161 217.049 165.535 217.049 165.975V169.011H216.268V163.236H217.016V164.82L216.895 164.523C217.078 164.105 217.371 163.778 217.775 163.544C218.178 163.302 218.658 163.181 219.216 163.181ZM223.701 169.011V163.236H224.482V169.011H223.701ZM224.097 161.96C223.936 161.96 223.8 161.905 223.69 161.795C223.58 161.685 223.525 161.553 223.525 161.399C223.525 161.245 223.58 161.116 223.69 161.014C223.8 160.904 223.936 160.849 224.097 160.849C224.259 160.849 224.394 160.9 224.504 161.003C224.614 161.105 224.669 161.234 224.669 161.388C224.669 161.549 224.614 161.685 224.504 161.795C224.402 161.905 224.266 161.96 224.097 161.96ZM229.053 169.066C228.481 169.066 227.968 168.941 227.513 168.692C227.066 168.435 226.714 168.087 226.457 167.647C226.201 167.199 226.072 166.69 226.072 166.118C226.072 165.538 226.201 165.029 226.457 164.589C226.714 164.149 227.066 163.804 227.513 163.555C227.968 163.305 228.481 163.181 229.053 163.181C229.545 163.181 229.988 163.276 230.384 163.467C230.78 163.657 231.092 163.943 231.319 164.325L230.736 164.721C230.538 164.427 230.293 164.211 229.999 164.072C229.706 163.932 229.387 163.863 229.042 163.863C228.632 163.863 228.261 163.958 227.931 164.149C227.601 164.332 227.341 164.592 227.15 164.93C226.96 165.267 226.864 165.663 226.864 166.118C226.864 166.572 226.96 166.968 227.15 167.306C227.341 167.643 227.601 167.907 227.931 168.098C228.261 168.281 228.632 168.373 229.042 168.373C229.387 168.373 229.706 168.303 229.999 168.164C230.293 168.024 230.538 167.812 230.736 167.526L231.319 167.922C231.092 168.296 230.78 168.582 230.384 168.78C229.988 168.97 229.545 169.066 229.053 169.066ZM236.473 169.011V167.735L236.44 167.526V165.392C236.44 164.9 236.3 164.523 236.022 164.259C235.75 163.995 235.343 163.863 234.801 163.863C234.427 163.863 234.071 163.925 233.734 164.05C233.396 164.174 233.11 164.339 232.876 164.545L232.524 163.962C232.817 163.712 233.169 163.522 233.58 163.39C233.99 163.25 234.423 163.181 234.878 163.181C235.626 163.181 236.201 163.368 236.605 163.742C237.015 164.108 237.221 164.669 237.221 165.425V169.011H236.473ZM234.482 169.066C234.049 169.066 233.671 168.996 233.349 168.857C233.033 168.71 232.791 168.512 232.623 168.263C232.454 168.006 232.37 167.713 232.37 167.383C232.37 167.082 232.439 166.811 232.579 166.569C232.725 166.319 232.96 166.121 233.283 165.975C233.613 165.821 234.053 165.744 234.603 165.744H236.594V166.327H234.625C234.067 166.327 233.679 166.426 233.459 166.624C233.246 166.822 233.14 167.067 233.14 167.361C233.14 167.691 233.268 167.955 233.525 168.153C233.781 168.351 234.141 168.45 234.603 168.45C235.043 168.45 235.42 168.351 235.736 168.153C236.058 167.947 236.293 167.654 236.44 167.273L236.616 167.812C236.469 168.193 236.212 168.497 235.846 168.725C235.486 168.952 235.032 169.066 234.482 169.066ZM239.342 169.011V160.849H240.123V169.011H239.342ZM245.34 169.011V161.311H248.475C249.296 161.311 250.015 161.476 250.631 161.806C251.254 162.128 251.738 162.579 252.083 163.159C252.428 163.738 252.6 164.405 252.6 165.161C252.6 165.916 252.428 166.583 252.083 167.163C251.738 167.742 251.254 168.197 250.631 168.527C250.015 168.849 249.296 169.011 248.475 169.011H245.34ZM246.154 168.307H248.431C249.113 168.307 249.703 168.175 250.202 167.911C250.708 167.639 251.1 167.269 251.379 166.8C251.658 166.323 251.797 165.777 251.797 165.161C251.797 164.537 251.658 163.991 251.379 163.522C251.1 163.052 250.708 162.686 250.202 162.422C249.703 162.15 249.113 162.015 248.431 162.015H246.154V168.307ZM254.263 169.011V163.236H255.011V164.809L254.934 164.534C255.095 164.094 255.366 163.76 255.748 163.533C256.129 163.298 256.602 163.181 257.167 163.181V163.94C257.137 163.94 257.108 163.94 257.079 163.94C257.049 163.932 257.02 163.929 256.991 163.929C256.382 163.929 255.905 164.116 255.561 164.49C255.216 164.856 255.044 165.381 255.044 166.063V169.011H254.263ZM258.592 169.011V163.236H259.373V169.011H258.592ZM258.988 161.96C258.827 161.96 258.691 161.905 258.581 161.795C258.471 161.685 258.416 161.553 258.416 161.399C258.416 161.245 258.471 161.116 258.581 161.014C258.691 160.904 258.827 160.849 258.988 160.849C259.149 160.849 259.285 160.9 259.395 161.003C259.505 161.105 259.56 161.234 259.56 161.388C259.56 161.549 259.505 161.685 259.395 161.795C259.292 161.905 259.157 161.96 258.988 161.96ZM261.546 169.011V160.849H262.327V169.011H261.546ZM264.5 169.011V160.849H265.281V169.011H264.5ZM269.005 169.066C268.529 169.066 268.078 169 267.652 168.868C267.227 168.728 266.893 168.556 266.651 168.351L267.003 167.735C267.238 167.911 267.539 168.065 267.905 168.197C268.272 168.321 268.657 168.384 269.06 168.384C269.61 168.384 270.006 168.299 270.248 168.131C270.49 167.955 270.611 167.724 270.611 167.438C270.611 167.225 270.542 167.06 270.402 166.943C270.27 166.818 270.094 166.726 269.874 166.668C269.654 166.602 269.409 166.547 269.137 166.503C268.866 166.459 268.595 166.407 268.323 166.349C268.059 166.29 267.817 166.206 267.597 166.096C267.377 165.978 267.198 165.821 267.058 165.623C266.926 165.425 266.86 165.161 266.86 164.831C266.86 164.515 266.948 164.233 267.124 163.984C267.3 163.734 267.557 163.54 267.894 163.401C268.239 163.254 268.657 163.181 269.148 163.181C269.522 163.181 269.896 163.232 270.27 163.335C270.644 163.43 270.952 163.558 271.194 163.72L270.853 164.347C270.597 164.171 270.322 164.046 270.028 163.973C269.735 163.892 269.442 163.852 269.148 163.852C268.628 163.852 268.243 163.943 267.993 164.127C267.751 164.303 267.63 164.53 267.63 164.809C267.63 165.029 267.696 165.201 267.828 165.326C267.968 165.45 268.147 165.549 268.367 165.623C268.595 165.689 268.84 165.744 269.104 165.788C269.376 165.832 269.643 165.887 269.907 165.953C270.179 166.011 270.424 166.096 270.644 166.206C270.872 166.308 271.051 166.459 271.183 166.657C271.323 166.847 271.392 167.1 271.392 167.416C271.392 167.753 271.297 168.046 271.106 168.296C270.923 168.538 270.652 168.728 270.292 168.868C269.94 169 269.511 169.066 269.005 169.066Z" fill="white"/>
<g clipPath="url(#clip2_256_534)">
<path d="M311.301 109.664H310.578V134.87H311.301V109.664Z" fill="white"/>
<path d="M308.281 107.012V114.288H306.282V114.965H308.292V115.823C308.292 116.253 308.083 116.475 307.666 116.488C307.611 116.491 307.555 116.502 307.46 116.516V120.253C307.183 120.295 306.954 120.329 306.712 120.365C306.524 119.982 306.337 119.602 306.136 119.197C305.748 119.384 305.377 119.543 305.025 119.739C304.905 119.809 304.83 119.96 304.732 120.074C304.757 120.1 304.779 120.128 304.805 120.156C303.576 120.731 302.35 121.31 301.122 121.886C301.063 121.914 300.943 121.947 300.932 121.925C300.77 121.679 300.614 121.866 300.471 121.933C299.371 122.442 298.274 122.968 297.171 123.471C296.939 123.577 296.831 123.717 296.794 123.971C296.733 124.407 296.643 124.843 296.523 125.265C296.482 125.422 296.353 125.604 296.213 125.679C295.588 126.023 294.943 126.33 294.304 126.649C294.214 126.694 294.117 126.722 293.972 126.778C293.972 126.35 293.994 125.97 293.963 125.595C293.944 125.341 293.91 125.061 293.787 124.846C293.38 124.131 292.933 123.44 292.495 122.744C292.26 122.372 291.914 122.179 291.481 122.177C290.275 122.168 289.072 122.168 287.868 122.174C287.391 122.177 287.139 122.425 287.128 122.906C287.114 123.502 287.125 124.1 287.123 124.695C287.123 124.821 287.109 124.947 287.103 125.061H283.328C283.328 124.463 283.328 123.893 283.331 123.32C283.331 123.113 283.278 122.996 283.002 123.099V125.07H282.647C282.647 124.363 282.619 123.672 282.658 122.987C282.689 122.428 282.477 122.042 282.016 121.768C281.997 121.76 281.971 121.763 281.932 121.757C281.888 121.827 281.837 121.903 281.79 121.975C282.142 122.294 282.318 122.696 282.318 123.18V125.098H280.673C280.684 125.285 280.69 125.43 280.698 125.609H287.089C287.187 125.984 286.93 125.906 286.762 125.906C284.534 125.908 282.304 125.908 280.076 125.908H279.668V129.5H280.989V130.258H296.071C295.937 129.892 296.308 129.456 295.775 129.193C296.604 128.665 297.434 128.153 298.241 127.608C298.458 127.46 298.872 127.446 298.788 127.001C298.782 126.982 298.852 126.943 298.894 126.918C299.706 126.398 300.519 125.88 301.404 125.316C301.599 125.632 301.834 125.911 301.954 126.233C302.085 126.593 302.138 126.993 302.183 127.382C302.297 128.379 302.948 128.888 303.936 128.718C304.079 128.695 304.215 128.639 304.355 128.631C304.475 128.625 304.617 128.637 304.715 128.695C305.508 129.157 306.237 129.081 306.896 128.441C307.39 127.966 307.683 127.37 307.898 126.73C308.021 126.37 308.119 126.001 308.228 125.634C308.239 125.637 308.25 125.64 308.258 125.643V134.138C308.113 134.16 307.999 134.177 307.867 134.197V134.851H309.73V108.334H309.746V107.012H308.281ZM290.038 124.536H288.214V122.621H290.038V124.536ZM291.213 126.87C291.048 126.89 290.881 126.878 290.716 126.878C290.562 126.878 290.406 126.89 290.253 126.87C290.199 126.862 290.119 126.769 290.119 126.716C290.119 126.663 290.202 126.565 290.255 126.562C290.574 126.549 290.895 126.549 291.216 126.562C291.266 126.565 291.35 126.663 291.35 126.719C291.35 126.775 291.269 126.864 291.213 126.87ZM290.593 125.973V122.621C290.934 122.621 291.283 122.576 291.615 122.638C291.81 122.674 292.028 122.842 292.143 123.012C292.581 123.666 293.005 124.332 293.38 125.019C293.525 125.282 293.522 125.62 293.597 125.973H290.593ZM305.768 119.901C305.891 119.926 306.05 120.074 306.075 120.195C306.094 120.287 305.933 120.418 305.79 120.62C305.648 120.421 305.497 120.301 305.497 120.181C305.497 120.08 305.692 119.887 305.768 119.901ZM298.16 124.069C299.092 123.683 299.997 123.225 300.907 122.789C301.041 122.724 301.256 122.71 301.178 122.456C301.172 122.428 301.264 122.355 301.323 122.328C302.56 121.746 303.797 121.165 305.073 120.566C305.17 120.768 305.254 120.935 305.343 121.123C302.758 122.417 300.201 123.697 297.612 124.991C297.621 124.536 297.724 124.251 298.16 124.069ZM304.129 122.887C303.894 123.225 303.523 123.373 303.196 123.58C303.163 123.602 303.051 123.502 302.917 123.423C303.325 123.216 303.651 123.052 303.981 122.887C304.02 122.867 304.065 122.861 304.129 122.887ZM299.064 126.221C298.838 126.353 298.651 126.719 298.282 126.467C298.246 126.445 298.12 126.549 298.042 126.599C296.808 127.387 295.574 128.175 294.337 128.961C294.24 129.022 294.139 129.081 293.972 129.179C293.972 128.757 293.96 128.413 293.98 128.072C293.985 127.98 294.075 127.854 294.161 127.809C296.105 126.828 298.045 125.844 300.005 124.899C300.223 124.796 300.561 124.938 300.845 124.966C300.845 125.005 300.854 125.047 300.857 125.087C300.262 125.467 299.676 125.866 299.064 126.221ZM301.264 124.793C301.127 124.866 300.859 124.684 300.577 124.595C301.267 124.248 301.873 123.932 302.493 123.641C302.579 123.599 302.719 123.672 302.833 123.692C302.839 123.734 302.847 123.776 302.853 123.817C302.325 124.15 301.814 124.511 301.264 124.793ZM302.521 127.393C302.392 126.227 302.342 126.093 301.672 125.148C302.13 124.855 302.585 124.564 303.124 124.217C303.219 124.72 303.342 125.173 303.386 125.632C303.476 126.579 303.629 127.496 304.255 128.262C303.414 128.701 302.621 128.293 302.521 127.393ZM306.67 128.217C306.128 128.754 305.497 128.824 304.958 128.413C306.159 127.815 307.088 126.934 307.8 125.808C307.605 126.699 307.334 127.555 306.67 128.217ZM304.643 128.195C304.107 127.633 303.886 126.968 303.777 126.249C303.668 125.523 303.562 124.793 303.448 124.016C303.699 123.854 304 123.644 304.319 123.462C304.525 123.345 304.648 123.208 304.617 122.956C304.581 122.655 304.732 122.492 305.006 122.364C305.695 122.045 306.371 121.69 307.055 121.352C307.167 121.299 307.292 121.265 307.474 121.201V124.863C307.602 124.877 307.703 124.888 307.848 124.905C307.175 126.414 306.128 127.505 304.643 128.195Z" fill="white"/>
<path d="M288.512 121.888V121.449H290.338V121.888H288.512Z" fill="white"/>
<path d="M286.125 135.684C286.106 135.555 286.089 135.441 286.072 135.309C285.961 135.304 285.857 135.298 285.729 135.293C285.712 135.418 285.695 135.533 285.676 135.678H285.299C285.288 135.561 285.274 135.446 285.263 135.315H284.919C284.897 135.438 284.875 135.561 284.85 135.695H284.506C284.492 135.575 284.478 135.46 284.459 135.315C284.347 135.307 284.235 135.301 284.098 135.29C284.079 135.421 284.062 135.536 284.043 135.69C283.939 135.695 283.83 135.701 283.702 135.706C283.68 135.569 283.663 135.455 283.638 135.312C283.526 135.307 283.414 135.301 283.283 135.295C283.269 135.435 283.258 135.55 283.244 135.69C283.121 135.695 283.01 135.701 282.878 135.706C282.859 135.569 282.845 135.455 282.825 135.318H282.476C282.46 135.438 282.44 135.553 282.42 135.687H282.063C282.052 135.561 282.041 135.446 282.027 135.315H281.653C281.639 135.438 281.628 135.553 281.614 135.687H281.259C281.239 135.558 281.223 135.441 281.203 135.309C281.091 135.304 280.988 135.298 280.862 135.293C280.846 135.421 280.829 135.533 280.809 135.678H280.433C280.421 135.558 280.41 135.444 280.396 135.312H280.05C280.028 135.435 280.008 135.558 279.983 135.692H279.64C279.623 135.572 279.609 135.458 279.589 135.312C279.48 135.304 279.369 135.298 279.235 135.29C279.21 135.432 279.187 135.555 279.162 135.704C279.037 135.69 278.922 135.678 278.791 135.664V135.228C278.604 135.293 278.447 135.346 278.288 135.399C278.294 135.432 278.299 135.466 278.302 135.499C278.199 135.449 278.096 135.402 278.059 135.382C278.001 135.186 277.992 135.027 277.911 134.929C277.869 134.879 277.699 134.932 277.534 134.943C277.501 134.901 277.426 134.812 277.392 134.767C277.442 134.56 277.484 134.398 277.537 134.18C277.333 134.205 277.233 134.219 277.11 134.233C277.077 134.113 277.049 134.001 277.015 133.881C277.197 133.783 277.504 133.797 277.345 133.439C277.252 133.423 277.141 133.403 276.984 133.375C276.998 133.252 277.015 133.132 277.032 132.984C277.152 132.992 277.255 132.998 277.353 133.003C277.504 132.78 277.495 132.603 277.185 132.531C277.269 132.391 277.331 132.293 277.347 132.262C277.534 132.232 277.696 132.251 277.758 132.181C277.828 132.1 277.811 131.944 277.758 131.79C277.853 131.723 277.948 131.656 277.964 131.642C278.171 131.692 278.316 131.773 278.419 131.737C278.5 131.709 278.528 131.533 278.612 131.351C278.634 131.346 278.743 131.315 278.866 131.278C278.981 131.441 278.925 131.81 279.319 131.62C279.33 131.53 279.346 131.415 279.363 131.281C279.483 131.276 279.598 131.27 279.735 131.265C279.748 131.399 279.76 131.513 279.774 131.645H280.139C280.156 131.524 280.17 131.421 280.187 131.284C280.293 131.278 280.402 131.273 280.539 131.265C280.553 131.399 280.564 131.511 280.581 131.645H280.957C280.969 131.524 280.977 131.41 280.991 131.284H281.362C281.376 131.401 281.39 131.505 281.407 131.647C281.519 131.653 281.628 131.659 281.753 131.664C281.77 131.533 281.784 131.429 281.801 131.292C281.907 131.284 282.021 131.273 282.161 131.262C282.178 131.388 282.194 131.502 282.214 131.65C282.317 131.656 282.429 131.664 282.563 131.67C282.585 131.536 282.602 131.421 282.624 131.287H282.976C282.987 131.401 282.998 131.505 283.015 131.645C283.124 131.653 283.239 131.664 283.375 131.675C283.392 131.544 283.409 131.429 283.428 131.287C283.534 131.281 283.649 131.276 283.78 131.267C283.805 131.399 283.825 131.511 283.85 131.65C283.948 131.656 284.051 131.664 284.177 131.67C284.199 131.541 284.216 131.429 284.241 131.29C284.35 131.281 284.464 131.273 284.598 131.265C284.615 131.396 284.632 131.511 284.648 131.647H285.006C285.023 131.527 285.039 131.415 285.059 131.287H285.402C285.416 131.396 285.433 131.508 285.453 131.65C285.567 131.656 285.679 131.661 285.816 131.67C285.832 131.533 285.843 131.421 285.86 131.29H286.226C286.243 131.407 286.259 131.522 286.279 131.653H286.617C286.634 131.533 286.65 131.421 286.667 131.29H287.041C287.052 131.407 287.064 131.519 287.075 131.647H287.443C287.46 131.524 287.471 131.421 287.488 131.284C287.594 131.278 287.706 131.276 287.84 131.267C287.854 131.401 287.868 131.513 287.882 131.647H288.259C288.27 131.524 288.278 131.41 288.289 131.287H288.663C288.677 131.407 288.689 131.511 288.702 131.642H289.051C289.065 131.533 289.079 131.429 289.096 131.295C289.202 131.287 289.317 131.276 289.456 131.265C289.473 131.39 289.49 131.505 289.509 131.653C289.613 131.659 289.727 131.667 289.861 131.673C289.884 131.538 289.9 131.424 289.923 131.29H290.274C290.286 131.401 290.3 131.505 290.313 131.645C290.42 131.653 290.534 131.664 290.671 131.675C290.688 131.544 290.704 131.429 290.724 131.287C290.83 131.281 290.942 131.273 291.076 131.267C291.101 131.399 291.12 131.511 291.146 131.65C291.24 131.656 291.344 131.664 291.469 131.673C291.492 131.544 291.511 131.432 291.536 131.292C291.642 131.284 291.757 131.276 291.891 131.267C291.908 131.399 291.922 131.513 291.941 131.65H292.301C292.318 131.533 292.335 131.421 292.354 131.29C292.461 131.284 292.564 131.278 292.692 131.273C292.712 131.396 292.729 131.508 292.751 131.653C292.86 131.661 292.971 131.667 293.108 131.675C293.125 131.538 293.139 131.427 293.156 131.292H293.519C293.535 131.407 293.555 131.522 293.575 131.653H293.912C293.929 131.538 293.946 131.427 293.968 131.29C294.086 131.284 294.2 131.278 294.337 131.273C294.351 131.407 294.359 131.522 294.373 131.653H294.744C294.758 131.527 294.772 131.413 294.786 131.287H295.138C295.152 131.401 295.163 131.516 295.18 131.65H295.554C295.565 131.533 295.574 131.421 295.585 131.29H295.956C295.973 131.413 295.99 131.527 296.006 131.656H296.344C296.361 131.533 296.378 131.421 296.397 131.292H296.769C296.78 131.415 296.788 131.53 296.799 131.653H297.173C297.187 131.53 297.201 131.427 297.215 131.298H297.573C297.584 131.41 297.598 131.522 297.606 131.622C297.919 131.779 297.997 131.586 298.047 131.323C298.187 131.365 298.307 131.401 298.438 131.438C298.41 131.552 298.385 131.642 298.36 131.743C298.547 131.829 298.723 132.022 298.843 131.656C298.974 131.765 299.064 131.838 299.167 131.921C299.108 132.014 299.058 132.089 298.96 132.243C299.145 132.307 299.304 132.363 299.46 132.416C299.471 132.394 299.482 132.371 299.496 132.349C299.55 132.453 299.6 132.556 299.617 132.587C299.505 132.78 299.424 132.925 299.301 133.143H299.784C299.792 133.28 299.801 133.397 299.809 133.534C299.684 133.554 299.572 133.571 299.455 133.587C299.34 133.859 299.463 133.987 299.748 134.01C299.7 134.158 299.661 134.27 299.619 134.401C299.513 134.373 299.415 134.351 299.312 134.323C299.256 134.423 299.206 134.516 299.131 134.652C299.212 134.697 299.293 134.742 299.388 134.795C299.273 134.924 299.195 135.01 299.103 135.114C299.019 135.055 298.944 135.002 298.86 134.94C298.773 134.999 298.684 135.058 298.586 135.125C298.62 135.217 298.653 135.304 298.692 135.41C298.578 135.463 298.463 135.519 298.413 135.541C298.229 135.418 298.089 135.326 297.883 135.189C297.863 135.427 297.852 135.539 297.841 135.681C297.724 135.692 297.609 135.701 297.475 135.715C297.455 135.581 297.436 135.466 297.416 135.323H297.07C297.053 135.438 297.037 135.553 297.02 135.687H296.657C296.646 135.567 296.635 135.449 296.623 135.318H296.252C296.238 135.435 296.221 135.55 296.205 135.687H295.856C295.839 135.558 295.822 135.444 295.805 135.312C295.691 135.307 295.585 135.298 295.462 135.293C295.44 135.43 295.42 135.553 295.398 135.692H295.035C295.021 135.564 295.01 135.449 294.993 135.318H294.65C294.63 135.438 294.608 135.561 294.585 135.698H294.239C294.225 135.581 294.208 135.466 294.192 135.321C294.086 135.312 293.971 135.304 293.837 135.295C293.812 135.435 293.792 135.558 293.767 135.695H293.432C293.413 135.575 293.396 135.463 293.374 135.321C293.265 135.315 293.153 135.307 293.019 135.298C293.005 135.435 292.994 135.55 292.98 135.692C292.863 135.701 292.748 135.706 292.617 135.715C292.597 135.581 292.581 135.466 292.561 135.326H292.215C292.198 135.444 292.181 135.555 292.162 135.692H291.799C291.788 135.569 291.777 135.455 291.765 135.321H291.394C291.38 135.438 291.366 135.553 291.347 135.69H290.998C290.981 135.564 290.964 135.449 290.944 135.318C290.83 135.312 290.727 135.304 290.604 135.298C290.582 135.435 290.559 135.558 290.537 135.695H290.171C290.157 135.564 290.146 135.449 290.132 135.318H289.789C289.766 135.438 289.747 135.561 289.722 135.698H289.378C289.361 135.581 289.347 135.466 289.328 135.321C289.222 135.312 289.107 135.304 288.973 135.295C288.948 135.435 288.929 135.558 288.904 135.695H288.568C288.549 135.575 288.532 135.46 288.51 135.318C288.398 135.312 288.286 135.307 288.152 135.298C288.139 135.435 288.127 135.55 288.113 135.692C287.993 135.698 287.882 135.706 287.748 135.712C287.728 135.575 287.711 135.46 287.692 135.323H287.343C287.326 135.441 287.309 135.555 287.29 135.69H286.93C286.918 135.567 286.907 135.452 286.896 135.318H286.522C286.508 135.438 286.494 135.553 286.477 135.69H286.125V135.684ZM298.6 133.473C298.595 133.009 298.288 132.631 297.83 132.522C297.405 132.422 296.95 132.62 296.757 133.04C296.66 133.252 296.542 133.302 296.328 133.302C291.037 133.297 285.746 133.297 280.455 133.302C280.259 133.302 280.142 133.269 280.05 133.062C279.852 132.62 279.394 132.419 278.958 132.528C278.506 132.64 278.196 133.031 278.196 133.487C278.196 133.934 278.492 134.32 278.925 134.434C279.391 134.557 279.852 134.367 280.053 133.912C280.153 133.685 280.285 133.66 280.491 133.66C285.771 133.663 291.048 133.666 296.328 133.66C296.542 133.66 296.66 133.708 296.755 133.923C296.947 134.356 297.405 134.549 297.858 134.44C298.307 134.331 298.611 133.94 298.606 133.476L298.6 133.473Z" fill="white"/>
<path d="M279.158 133.701C279.28 133.701 279.379 133.603 279.379 133.481C279.379 133.359 279.28 133.26 279.158 133.26C279.036 133.26 278.938 133.359 278.938 133.481C278.938 133.603 279.036 133.701 279.158 133.701Z" fill="white"/>
<path d="M297.603 133.699C297.725 133.699 297.824 133.601 297.824 133.479C297.824 133.357 297.725 133.258 297.603 133.258C297.482 133.258 297.383 133.357 297.383 133.479C297.383 133.601 297.482 133.699 297.603 133.699Z" fill="white"/>
</g>
<rect x="170.409" y="0.420129" width="149.181" height="80.1812" stroke="white" stroke-width="0.818774"/>
<path d="M178.465 50.8057V49.1707L183.415 42.5107H185.965L181.12 49.1707L179.935 48.8257H188.2V50.8057H178.465ZM184.12 53.0107V50.8057L184.195 48.8257V46.8607H186.49V53.0107H184.12ZM192.244 53.1907C191.514 53.1907 190.789 53.0957 190.069 52.9057C189.349 52.7057 188.739 52.4257 188.239 52.0657L189.184 50.2057C189.584 50.4957 190.049 50.7257 190.579 50.8957C191.109 51.0657 191.644 51.1507 192.184 51.1507C192.794 51.1507 193.274 51.0307 193.624 50.7907C193.974 50.5507 194.149 50.2207 194.149 49.8007C194.149 49.4007 193.994 49.0857 193.684 48.8557C193.374 48.6257 192.874 48.5107 192.184 48.5107H191.074V46.9057L193.999 43.5907L194.269 44.4607H188.764V42.5107H196.114V44.0857L193.204 47.4007L191.974 46.6957H192.679C193.969 46.6957 194.944 46.9857 195.604 47.5657C196.264 48.1457 196.594 48.8907 196.594 49.8007C196.594 50.3907 196.439 50.9457 196.129 51.4657C195.819 51.9757 195.344 52.3907 194.704 52.7107C194.064 53.0307 193.244 53.1907 192.244 53.1907Z" fill="#91CB00"/>
<path d="M180.75 70.0107V63.0147H178.044V62.3107H184.27V63.0147H181.564V70.0107H180.75ZM185.405 70.0107V64.2357H186.186V70.0107H185.405ZM185.801 62.9597C185.64 62.9597 185.504 62.9047 185.394 62.7947C185.284 62.6847 185.229 62.5527 185.229 62.3987C185.229 62.2447 185.284 62.1164 185.394 62.0137C185.504 61.9037 185.64 61.8487 185.801 61.8487C185.963 61.8487 186.098 61.9001 186.208 62.0027C186.318 62.1054 186.373 62.2337 186.373 62.3877C186.373 62.5491 186.318 62.6847 186.208 62.7947C186.106 62.9047 185.97 62.9597 185.801 62.9597ZM191.341 70.0657C190.842 70.0657 190.391 69.9521 189.988 69.7247C189.584 69.4901 189.262 69.1564 189.02 68.7237C188.785 68.2837 188.668 67.7484 188.668 67.1177C188.668 66.4871 188.785 65.9554 189.02 65.5227C189.254 65.0827 189.573 64.7491 189.977 64.5217C190.38 64.2944 190.835 64.1807 191.341 64.1807C191.891 64.1807 192.382 64.3054 192.815 64.5547C193.255 64.7967 193.599 65.1414 193.849 65.5887C194.098 66.0287 194.223 66.5384 194.223 67.1177C194.223 67.7044 194.098 68.2177 193.849 68.6577C193.599 69.0977 193.255 69.4424 192.815 69.6917C192.382 69.9411 191.891 70.0657 191.341 70.0657ZM188.36 72.1447V64.2357H189.108V65.9737L189.031 67.1287L189.141 68.2947V72.1447H188.36ZM191.286 69.3727C191.696 69.3727 192.063 69.2811 192.386 69.0977C192.708 68.9071 192.965 68.6431 193.156 68.3057C193.346 67.9611 193.442 67.5651 193.442 67.1177C193.442 66.6704 193.346 66.2781 193.156 65.9407C192.965 65.6034 192.708 65.3394 192.386 65.1487C192.063 64.9581 191.696 64.8627 191.286 64.8627C190.875 64.8627 190.505 64.9581 190.175 65.1487C189.852 65.3394 189.595 65.6034 189.405 65.9407C189.221 66.2781 189.13 66.6704 189.13 67.1177C189.13 67.5651 189.221 67.9611 189.405 68.3057C189.595 68.6431 189.852 68.9071 190.175 69.0977C190.505 69.2811 190.875 69.3727 191.286 69.3727ZM198.796 70.0657C198.297 70.0657 197.846 69.9521 197.443 69.7247C197.039 69.4901 196.717 69.1564 196.475 68.7237C196.24 68.2837 196.123 67.7484 196.123 67.1177C196.123 66.4871 196.24 65.9554 196.475 65.5227C196.709 65.0827 197.028 64.7491 197.432 64.5217C197.835 64.2944 198.29 64.1807 198.796 64.1807C199.346 64.1807 199.837 64.3054 200.27 64.5547C200.71 64.7967 201.054 65.1414 201.304 65.5887C201.553 66.0287 201.678 66.5384 201.678 67.1177C201.678 67.7044 201.553 68.2177 201.304 68.6577C201.054 69.0977 200.71 69.4424 200.27 69.6917C199.837 69.9411 199.346 70.0657 198.796 70.0657ZM195.815 72.1447V64.2357H196.563V65.9737L196.486 67.1287L196.596 68.2947V72.1447H195.815ZM198.741 69.3727C199.151 69.3727 199.518 69.2811 199.841 69.0977C200.163 68.9071 200.42 68.6431 200.611 68.3057C200.801 67.9611 200.897 67.5651 200.897 67.1177C200.897 66.6704 200.801 66.2781 200.611 65.9407C200.42 65.6034 200.163 65.3394 199.841 65.1487C199.518 64.9581 199.151 64.8627 198.741 64.8627C198.33 64.8627 197.96 64.9581 197.63 65.1487C197.307 65.3394 197.05 65.6034 196.86 65.9407C196.676 66.2781 196.585 66.6704 196.585 67.1177C196.585 67.5651 196.676 67.9611 196.86 68.3057C197.05 68.6431 197.307 68.9071 197.63 69.0977C197.96 69.2811 198.33 69.3727 198.741 69.3727ZM205.723 70.0657C205.121 70.0657 204.593 69.9411 204.139 69.6917C203.684 69.4351 203.328 69.0867 203.072 68.6467C202.815 68.1994 202.687 67.6897 202.687 67.1177C202.687 66.5457 202.808 66.0397 203.05 65.5997C203.299 65.1597 203.636 64.8151 204.062 64.5657C204.494 64.3091 204.978 64.1807 205.514 64.1807C206.056 64.1807 206.537 64.3054 206.955 64.5547C207.38 64.7967 207.714 65.1414 207.956 65.5887C208.198 66.0287 208.319 66.5384 208.319 67.1177C208.319 67.1544 208.315 67.1947 208.308 67.2387C208.308 67.2754 208.308 67.3157 208.308 67.3597H203.281V66.7767H207.89L207.582 67.0077C207.582 66.5897 207.49 66.2194 207.307 65.8967C207.131 65.5667 206.889 65.3101 206.581 65.1267C206.273 64.9434 205.917 64.8517 205.514 64.8517C205.118 64.8517 204.762 64.9434 204.447 65.1267C204.131 65.3101 203.886 65.5667 203.71 65.8967C203.534 66.2267 203.446 66.6044 203.446 67.0297V67.1507C203.446 67.5907 203.541 67.9794 203.732 68.3167C203.93 68.6467 204.201 68.9071 204.546 69.0977C204.898 69.2811 205.297 69.3727 205.745 69.3727C206.097 69.3727 206.423 69.3104 206.724 69.1857C207.032 69.0611 207.296 68.8704 207.516 68.6137L207.956 69.1197C207.699 69.4277 207.376 69.6624 206.988 69.8237C206.606 69.9851 206.185 70.0657 205.723 70.0657ZM209.908 70.0107V64.2357H210.656V65.8087L210.579 65.5337C210.741 65.0937 211.012 64.7601 211.393 64.5327C211.775 64.2981 212.248 64.1807 212.812 64.1807V64.9397C212.783 64.9397 212.754 64.9397 212.724 64.9397C212.695 64.9324 212.666 64.9287 212.636 64.9287C212.028 64.9287 211.551 65.1157 211.206 65.4897C210.862 65.8564 210.689 66.3807 210.689 67.0627V70.0107H209.908ZM218.863 70.0107V63.0147H216.157V62.3107H222.383V63.0147H219.677V70.0107H218.863ZM223.368 70.0107V64.2357H224.116V65.8087L224.039 65.5337C224.201 65.0937 224.472 64.7601 224.853 64.5327C225.235 64.2981 225.708 64.1807 226.272 64.1807V64.9397C226.243 64.9397 226.214 64.9397 226.184 64.9397C226.155 64.9324 226.126 64.9287 226.096 64.9287C225.488 64.9287 225.011 65.1157 224.666 65.4897C224.322 65.8564 224.149 66.3807 224.149 67.0627V70.0107H223.368ZM230.17 70.0657C229.679 70.0657 229.25 69.9741 228.883 69.7907C228.517 69.6074 228.231 69.3324 228.025 68.9657C227.827 68.5991 227.728 68.1407 227.728 67.5907V64.2357H228.509V67.5027C228.509 68.1187 228.66 68.5844 228.96 68.8997C229.268 69.2077 229.697 69.3617 230.247 69.3617C230.651 69.3617 230.999 69.2811 231.292 69.1197C231.593 68.9511 231.82 68.7091 231.974 68.3937C232.136 68.0784 232.216 67.7007 232.216 67.2607V64.2357H232.997V70.0107H232.249V68.4267L232.37 68.7127C232.187 69.1381 231.901 69.4717 231.512 69.7137C231.131 69.9484 230.684 70.0657 230.17 70.0657ZM237.572 70.0657C237 70.0657 236.487 69.9411 236.032 69.6917C235.585 69.4351 235.233 69.0867 234.976 68.6467C234.719 68.1994 234.591 67.6897 234.591 67.1177C234.591 66.5384 234.719 66.0287 234.976 65.5887C235.233 65.1487 235.585 64.8041 236.032 64.5547C236.487 64.3054 237 64.1807 237.572 64.1807C238.063 64.1807 238.507 64.2761 238.903 64.4667C239.299 64.6574 239.611 64.9434 239.838 65.3247L239.255 65.7207C239.057 65.4274 238.811 65.2111 238.518 65.0717C238.225 64.9324 237.906 64.8627 237.561 64.8627C237.15 64.8627 236.78 64.9581 236.45 65.1487C236.12 65.3321 235.86 65.5924 235.669 65.9297C235.478 66.2671 235.383 66.6631 235.383 67.1177C235.383 67.5724 235.478 67.9684 235.669 68.3057C235.86 68.6431 236.12 68.9071 236.45 69.0977C236.78 69.2811 237.15 69.3727 237.561 69.3727C237.906 69.3727 238.225 69.3031 238.518 69.1637C238.811 69.0244 239.057 68.8117 239.255 68.5257L239.838 68.9217C239.611 69.2957 239.299 69.5817 238.903 69.7797C238.507 69.9704 238.063 70.0657 237.572 70.0657ZM241.902 68.5147L241.924 67.5137L245.521 64.2357H246.478L243.937 66.6667L243.497 67.0407L241.902 68.5147ZM241.286 70.0107V61.8487H242.067V70.0107H241.286ZM245.763 70.0107L243.354 67.0077L243.86 66.4027L246.72 70.0107H245.763ZM249.272 70.0657C248.795 70.0657 248.344 69.9997 247.919 69.8677C247.494 69.7284 247.16 69.5561 246.918 69.3507L247.27 68.7347C247.505 68.9107 247.805 69.0647 248.172 69.1967C248.539 69.3214 248.924 69.3837 249.327 69.3837C249.877 69.3837 250.273 69.2994 250.515 69.1307C250.757 68.9547 250.878 68.7237 250.878 68.4377C250.878 68.2251 250.808 68.0601 250.669 67.9427C250.537 67.8181 250.361 67.7264 250.141 67.6677C249.921 67.6017 249.675 67.5467 249.404 67.5027C249.133 67.4587 248.861 67.4074 248.59 67.3487C248.326 67.2901 248.084 67.2057 247.864 67.0957C247.644 66.9784 247.464 66.8207 247.325 66.6227C247.193 66.4247 247.127 66.1607 247.127 65.8307C247.127 65.5154 247.215 65.2331 247.391 64.9837C247.567 64.7344 247.824 64.5401 248.161 64.4007C248.506 64.2541 248.924 64.1807 249.415 64.1807C249.789 64.1807 250.163 64.2321 250.537 64.3347C250.911 64.4301 251.219 64.5584 251.461 64.7197L251.12 65.3467C250.863 65.1707 250.588 65.0461 250.295 64.9727C250.002 64.8921 249.708 64.8517 249.415 64.8517C248.894 64.8517 248.509 64.9434 248.26 65.1267C248.018 65.3027 247.897 65.5301 247.897 65.8087C247.897 66.0287 247.963 66.2011 248.095 66.3257C248.234 66.4504 248.414 66.5494 248.634 66.6227C248.861 66.6887 249.107 66.7437 249.371 66.7877C249.642 66.8317 249.91 66.8867 250.174 66.9527C250.445 67.0114 250.691 67.0957 250.911 67.2057C251.138 67.3084 251.318 67.4587 251.45 67.6567C251.589 67.8474 251.659 68.1004 251.659 68.4157C251.659 68.7531 251.564 69.0464 251.373 69.2957C251.19 69.5377 250.918 69.7284 250.559 69.8677C250.207 69.9997 249.778 70.0657 249.272 70.0657Z" fill="white"/>
<g clipPath="url(#clip3_256_534)">
<path d="M273.027 28.4893L273.018 28.8392L272.949 32.2229C274.009 32.2143 275.068 32.2058 276.127 32.1973C276.638 30.8617 277.948 29.9059 279.478 29.9059C281.009 29.9059 282.289 30.8361 282.808 32.1503C283.53 32.1461 284.248 32.1375 284.97 32.1333C284.983 31.1007 284.992 30.0681 285.005 29.0354V27.5804H285.022C285.056 24.4485 285.091 21.3165 285.126 18.1846L279.924 18.2955L277.71 22.827L273.114 24.2479L273.062 26.727L273.053 27.047M279.971 23.3519C280.408 22.2552 280.841 21.1629 281.273 20.0706C282.12 20.0663 282.968 20.062 283.811 20.0578L283.889 23.3689L279.971 23.3519Z" fill="white"/>
<path d="M282.029 32.372C281.623 31.3394 280.602 30.6055 279.409 30.6055C278.215 30.6055 277.173 31.3565 276.771 32.4104C276.659 32.7133 276.594 33.0419 276.594 33.3833C276.594 34.9194 277.856 36.161 279.409 36.161C280.961 36.161 282.224 34.9194 282.224 33.3833C282.224 33.0291 282.154 32.6835 282.029 32.372ZM279.409 34.5481C278.76 34.5481 278.233 34.0276 278.233 33.3833C278.233 32.9651 278.457 32.6024 278.79 32.3976C278.972 32.2867 279.184 32.2226 279.409 32.2226C279.634 32.2226 279.837 32.2824 280.014 32.3891C280.36 32.5896 280.589 32.9651 280.589 33.3875C280.589 34.0318 280.062 34.5524 279.409 34.5524V34.5481Z" fill="white"/>
<path d="M300.826 32.372C300.419 31.3394 299.399 30.6055 298.206 30.6055C297.012 30.6055 295.97 31.3565 295.568 32.4104C295.455 32.7133 295.391 33.0419 295.391 33.3833C295.391 34.9194 296.653 36.161 298.206 36.161C299.758 36.161 301.02 34.9194 301.02 33.3833C301.02 33.0291 300.951 32.6835 300.826 32.372ZM298.206 34.5481C297.557 34.5481 297.029 34.0276 297.029 33.3833C297.029 32.9651 297.254 32.6024 297.587 32.3976C297.769 32.2867 297.981 32.2226 298.206 32.2226C298.43 32.2226 298.634 32.2824 298.811 32.3891C299.157 32.5896 299.386 32.9651 299.386 33.3875C299.386 34.0318 298.858 34.5524 298.206 34.5524V34.5481Z" fill="white"/>
<path d="M307.458 27.5801V32.15H301.569C301.05 30.8358 299.757 29.9056 298.239 29.9056C296.721 29.9056 295.429 30.8358 294.91 32.15C291.597 32.1457 288.281 32.1372 284.969 32.1329C284.982 31.1003 284.99 30.0677 285.003 29.0351C285.008 28.5487 285.012 28.0665 285.021 27.5801H307.458Z" fill="white"/>
<path d="M285.025 27.5801C285.016 28.0665 285.012 28.5487 285.008 29.0351V27.5801H285.025Z" fill="white"/>
<path d="M296.099 25.7246H293.859V27.0474H296.099V25.7246Z" fill="white"/>
<path d="M299.443 25.7246H297.203V27.0474H299.443V25.7246Z" fill="white"/>
<path d="M302.787 25.7246H300.547V27.0474H302.787V25.7246Z" fill="white"/>
<path d="M308.939 15.0698L296.478 13.7385C295.686 13.6531 294.956 13.2904 294.415 12.7144C293.222 11.43 292.024 10.1457 290.826 8.86133C288.357 9.82139 288.258 9.8598 285.793 10.8241V10.8967L287.622 11.1996V25.2763H310.051V16.2901C310.051 15.6629 309.571 15.138 308.939 15.0698ZM292.538 23.0703H291.648V16.1621H292.538V23.0703ZM295.993 23.0703H295.103V16.1621H295.993V23.0703ZM299.66 23.0703H298.769V16.1621H299.66V23.0703ZM303.085 23.0703H302.198V16.1621H303.085V23.0703Z" fill="white"/>
</g>
<defs>
<clipPath id="clip0_256_534">
<rect width="32.2" height="32.9" fill="white" transform="translate(107.898 8.06055)"/>
</clipPath>
<clipPath id="clip1_256_534">
<rect width="29.4" height="30.8" fill="white" transform="translate(111 109.011)"/>
</clipPath>
<clipPath id="clip2_256_534">
<rect width="34.3" height="28.7" fill="white" transform="translate(277 107.011)"/>
</clipPath>
<clipPath id="clip3_256_534">
<rect width="37.1" height="27.3" fill="white" transform="translate(272.949 8.86133)"/>
</clipPath>
</defs>
</svg>
