<svg width="874" height="83" viewBox="0 0 874 83" fill="none" xmlns="http://www.w3.org/2000/svg">
<g clipPath="url(#clip0_256_483)">
<path d="M682.574 32.7154C682.564 32.7617 682.548 32.8131 682.533 32.8593L682.242 32.7154L679.855 31.5438C680.054 30.6085 680.156 29.6372 680.156 28.6402C680.156 20.9729 673.988 14.7598 666.382 14.7598C662.138 14.7598 658.347 16.6921 655.827 19.7344L653.215 18.4496C653.562 17.9409 653.904 17.4372 654.251 16.9285C653.669 16.3786 653.088 15.8236 652.506 15.2737C653.032 14.5234 653.562 13.768 654.093 13.0126C654.312 12.6991 654.531 12.3856 654.756 12.0721C654.934 11.8101 655.118 11.5531 655.302 11.291C656.654 11.8974 658 12.4987 659.352 13.1051C663.137 11.2242 667.668 10.7823 671.988 12.2006C680.544 15.0065 685.262 24.1693 682.574 32.7154Z" fill="white"/>
<path d="M666.316 15.6338C662.25 15.6338 658.618 17.4838 656.205 20.3976L679.223 31.7085C679.411 30.8144 679.508 29.8842 679.508 28.9283C679.508 21.5847 673.601 15.6338 666.316 15.6338ZM672.734 23.5016C672.428 23.923 672.122 24.3444 671.815 24.7658C671.555 25.1255 671.05 25.2077 670.688 24.9508C669.709 24.2519 668.734 23.5581 667.76 22.8592C667.392 22.5971 667.306 22.0781 667.571 21.7081C667.877 21.2764 668.183 20.8499 668.489 20.4182C668.755 20.0533 669.265 19.966 669.632 20.2332C670.606 20.9372 671.576 21.6413 672.55 22.3504C672.917 22.6177 672.999 23.1316 672.734 23.5016Z" fill="white"/>
<path d="M686.43 47.6592H645.572C645.257 47.6592 645.001 47.9169 645.001 48.2347V50.424C645.001 50.7418 645.257 50.9995 645.572 50.9995H686.43C686.745 50.9995 687.001 50.7418 687.001 50.424V48.2347C687.001 47.9169 686.745 47.6592 686.43 47.6592Z" fill="white"/>
<path d="M686.028 43.4512H646.303V47.0844H686.028V43.4512Z" fill="white"/>
<path d="M684.599 39.4727H678.738V42.7411H684.599V39.4727Z" fill="white"/>
<path d="M676.735 36.5077C675.924 37.6949 673.954 40.213 670.475 41.6365C669.919 41.8626 668.333 42.4484 666.399 42.5974C658.813 43.2038 652.176 37.4996 651.58 29.863C651.421 27.8537 651.697 25.9163 652.33 24.1279C654.845 25.4024 657.354 26.682 659.864 27.9462C659.625 28.64 659.517 29.3903 659.579 30.1714C659.813 33.1674 662.415 35.3977 665.384 35.1665C666.144 35.1048 666.767 34.8735 666.981 34.7862C668.317 34.2312 669.093 33.2702 669.419 32.7974C671.863 34.0359 674.296 35.2692 676.735 36.5077Z" fill="white"/>
<path d="M684.589 32.7156V39.4528H678.728V34.6221C678.779 34.5348 678.83 34.4526 678.881 34.3652L678.728 34.2727V33.9541C678.396 34.6324 678.06 35.3159 677.728 35.9943C669.586 31.8728 661.46 27.7462 653.318 23.6299C652.445 23.1828 651.563 22.746 650.69 22.2989L652.313 19.2617C653.16 19.6934 654.001 20.1251 654.853 20.5516C662.811 24.6063 670.77 28.6609 678.728 32.7156H682.243L682.534 32.8595C682.549 32.8132 682.564 32.7618 682.574 32.7156H684.589Z" fill="white"/>
<path d="M654.188 11.3317L653.464 12.2362L652.367 13.6083L645.837 9.62045C645.19 9.22989 644.975 8.39223 645.348 7.72931C645.348 7.72417 645.358 7.71389 645.363 7.70875C645.746 7.02526 646.608 6.79401 647.281 7.19485L654.127 11.2958L654.188 11.3317Z" fill="white"/>
</g>
<g clipPath="url(#clip1_256_483)">
<path d="M454.111 36.0403L454.099 36.5402L454 41.374C455.513 41.3619 457.027 41.3497 458.54 41.3375C459.269 39.4295 461.141 38.0641 463.327 38.0641C465.514 38.0641 467.343 39.393 468.084 41.2704C469.115 41.2643 470.141 41.2521 471.172 41.246C471.191 39.7709 471.203 38.2957 471.222 36.8206V34.742H471.246C471.296 30.2678 471.345 25.7935 471.395 21.3193L463.964 21.4778L460.801 27.9514L454.235 29.9813L454.16 33.5228L454.148 33.98M464.032 28.7012C464.655 27.1346 465.273 25.5741 465.891 24.0136C467.102 24.0075 468.312 24.0014 469.517 23.9953L469.628 28.7256L464.032 28.7012Z" fill="white"/>
<path d="M466.973 41.5871C466.392 40.1119 464.934 39.0635 463.229 39.0635C461.525 39.0635 460.036 40.1363 459.461 41.6419C459.301 42.0747 459.208 42.5441 459.208 43.0317C459.208 45.2262 461.012 47 463.229 47C465.447 47 467.251 45.2262 467.251 43.0317C467.251 42.5258 467.152 42.0321 466.973 41.5871ZM463.229 44.6959C462.303 44.6959 461.549 43.9522 461.549 43.0317C461.549 42.4344 461.87 41.9162 462.346 41.6237C462.606 41.4652 462.908 41.3737 463.229 41.3737C463.551 41.3737 463.841 41.4591 464.094 41.6115C464.588 41.898 464.916 42.4344 464.916 43.0378C464.916 43.9583 464.162 44.702 463.229 44.702V44.6959Z" fill="white"/>
<path d="M493.824 41.5871C493.243 40.1119 491.785 39.0635 490.08 39.0635C488.375 39.0635 486.887 40.1363 486.312 41.6419C486.151 42.0747 486.059 42.5441 486.059 43.0317C486.059 45.2262 487.863 47 490.08 47C492.298 47 494.101 45.2262 494.101 43.0317C494.101 42.5258 494.003 42.0321 493.824 41.5871ZM490.08 44.6959C489.154 44.6959 488.4 43.9522 488.4 43.0317C488.4 42.4344 488.721 41.9162 489.197 41.6237C489.456 41.4652 489.759 41.3737 490.08 41.3737C490.401 41.3737 490.692 41.4591 490.945 41.6115C491.439 41.898 491.767 42.4344 491.767 43.0378C491.767 43.9583 491.013 44.702 490.08 44.702V44.6959Z" fill="white"/>
<path d="M503.3 34.7412V41.2697H494.887C494.145 39.3922 492.298 38.0633 490.13 38.0633C487.962 38.0633 486.115 39.3922 485.374 41.2697C480.642 41.2636 475.904 41.2514 471.172 41.2453C471.191 39.7701 471.203 38.295 471.222 36.8198C471.228 36.1249 471.234 35.4361 471.247 34.7412H503.3Z" fill="white"/>
<path d="M471.247 34.7412C471.235 35.4361 471.228 36.1249 471.222 36.8198V34.7412H471.247Z" fill="white"/>
<path d="M487.072 32.0908H483.872V33.9805H487.072V32.0908Z" fill="white"/>
<path d="M491.847 32.0908H488.647V33.9805H491.847V32.0908Z" fill="white"/>
<path d="M496.622 32.0908H493.422V33.9805H496.622V32.0908Z" fill="white"/>
<path d="M505.414 16.8692L487.611 14.9673C486.481 14.8454 485.437 14.3273 484.665 13.5044C482.96 11.6696 481.249 9.83479 479.538 8C476.011 9.37152 475.869 9.42638 472.348 10.804V10.9076L474.961 11.3404V31.45H507.002V18.6125C507.002 17.7165 506.316 16.9667 505.414 16.8692ZM481.984 28.2985H480.712V18.4297H481.984V28.2985ZM486.92 28.2985H485.647V18.4297H486.92V28.2985ZM492.158 28.2985H490.885V18.4297H492.158V28.2985ZM497.05 28.2985H495.784V18.4297H497.05V28.2985Z" fill="white"/>
</g>
<path d="M1 82.4209V1.3623H140.833L155.748 39.2888L140.833 82.4209H1Z" stroke="white" stroke-width="0.818774"/>
<path d="M21.7957 28.0983C20.9332 28.0983 20.1308 27.9563 19.3885 27.6725C18.657 27.3777 18.0184 26.9683 17.4725 26.4443C16.9376 25.9094 16.5173 25.2926 16.2116 24.5939C15.9169 23.8843 15.7695 23.1092 15.7695 22.2686C15.7695 21.428 15.9169 20.6583 16.2116 19.9596C16.5173 19.25 16.9376 18.6332 17.4725 18.1092C18.0184 17.5743 18.657 17.1649 19.3885 16.881C20.1199 16.5863 20.9223 16.4389 21.7957 16.4389C22.6581 16.4389 23.4551 16.5863 24.1865 16.881C24.9179 17.1649 25.5511 17.5688 26.086 18.0928C26.6319 18.6168 27.0522 19.2337 27.347 19.9433C27.6526 20.6529 27.8055 21.428 27.8055 22.2686C27.8055 23.1092 27.6526 23.8843 27.347 24.5939C27.0522 25.3035 26.6319 25.9203 26.086 26.4443C25.5511 26.9683 24.9179 27.3777 24.1865 27.6725C23.4551 27.9563 22.6581 28.0983 21.7957 28.0983ZM21.7957 27.0175C22.4834 27.0175 23.1166 26.9028 23.6952 26.6736C24.2847 26.4334 24.7924 26.1004 25.2181 25.6747C25.6548 25.238 25.9933 24.7358 26.2334 24.1681C26.4736 23.5895 26.5937 22.9564 26.5937 22.2686C26.5937 21.5808 26.4736 20.9531 26.2334 20.3854C25.9933 19.8068 25.6548 19.3046 25.2181 18.8789C24.7924 18.4422 24.2847 18.1092 23.6952 17.88C23.1166 17.6398 22.4834 17.5197 21.7957 17.5197C21.1079 17.5197 20.4693 17.6398 19.8797 17.88C19.2902 18.1092 18.7771 18.4422 18.3404 18.8789C17.9147 19.3046 17.5763 19.8068 17.3252 20.3854C17.085 20.9531 16.9649 21.5808 16.9649 22.2686C16.9649 22.9454 17.085 23.5732 17.3252 24.1518C17.5763 24.7304 17.9147 25.238 18.3404 25.6747C18.7771 26.1004 19.2902 26.4334 19.8797 26.6736C20.4693 26.9028 21.1079 27.0175 21.7957 27.0175ZM34.7138 28.0819C33.9714 28.0819 33.3 27.9127 32.6996 27.5742C32.0991 27.2249 31.6188 26.7282 31.2585 26.0841C30.9092 25.429 30.7345 24.6321 30.7345 23.6932C30.7345 22.7544 30.9092 21.9629 31.2585 21.3188C31.6079 20.6638 32.0828 20.1671 32.6832 19.8286C33.2836 19.4902 33.9605 19.321 34.7138 19.321C35.5325 19.321 36.264 19.5066 36.9081 19.8778C37.5631 20.238 38.0762 20.7511 38.4474 21.4171C38.8185 22.0721 39.0041 22.8308 39.0041 23.6932C39.0041 24.5666 38.8185 25.3308 38.4474 25.9858C38.0762 26.6408 37.5631 27.1539 36.9081 27.5251C36.264 27.8963 35.5325 28.0819 34.7138 28.0819ZM30.276 31.1768V19.4029H31.3895V21.9902L31.2749 23.7096L31.4387 25.4454V31.1768H30.276ZM34.6319 27.0502C35.2432 27.0502 35.7891 26.9138 36.2694 26.6408C36.7498 26.357 37.1319 25.964 37.4157 25.4618C37.6995 24.9487 37.8415 24.3592 37.8415 23.6932C37.8415 23.0273 37.6995 22.4433 37.4157 21.9411C37.1319 21.4389 36.7498 21.0459 36.2694 20.762C35.7891 20.4782 35.2432 20.3363 34.6319 20.3363C34.0205 20.3363 33.4692 20.4782 32.9779 20.762C32.4976 21.0459 32.1155 21.4389 31.8317 21.9411C31.5587 22.4433 31.4223 23.0273 31.4223 23.6932C31.4223 24.3592 31.5587 24.9487 31.8317 25.4618C32.1155 25.964 32.4976 26.357 32.9779 26.6408C33.4692 26.9138 34.0205 27.0502 34.6319 27.0502ZM45.026 28.0819C44.1308 28.0819 43.3447 27.8963 42.6679 27.5251C41.991 27.143 41.4616 26.6245 41.0795 25.9694C40.6974 25.3035 40.5063 24.5448 40.5063 23.6932C40.5063 22.8417 40.6865 22.0885 41.0467 21.4334C41.4179 20.7784 41.9201 20.2653 42.5533 19.8941C43.1974 19.512 43.9179 19.321 44.7148 19.321C45.5227 19.321 46.2377 19.5066 46.86 19.8778C47.4932 20.238 47.9899 20.7511 48.3502 21.4171C48.7104 22.0721 48.8906 22.8308 48.8906 23.6932C48.8906 23.7478 48.8851 23.8079 48.8742 23.8734C48.8742 23.928 48.8742 23.988 48.8742 24.0535H41.3906V23.1856H48.2519L47.7934 23.5295C47.7934 22.9072 47.6569 22.3559 47.384 21.8756C47.122 21.3843 46.7618 21.0022 46.3032 20.7293C45.8447 20.4564 45.3153 20.3199 44.7148 20.3199C44.1253 20.3199 43.5958 20.4564 43.1264 20.7293C42.657 21.0022 42.2912 21.3843 42.0292 21.8756C41.7672 22.3668 41.6362 22.9291 41.6362 23.5622V23.7424C41.6362 24.3974 41.7781 24.976 42.062 25.4782C42.3567 25.9694 42.7607 26.357 43.2738 26.6408C43.7978 26.9138 44.3928 27.0502 45.0587 27.0502C45.5827 27.0502 46.0685 26.9574 46.5161 26.7718C46.9746 26.5863 47.3676 26.3024 47.6952 25.9203L48.3502 26.6736C47.9681 27.1321 47.4877 27.4814 46.9091 27.7216C46.3414 27.9618 45.7137 28.0819 45.026 28.0819ZM51.2571 28V19.4029H52.3706V21.7446L52.256 21.3352C52.4962 20.6802 52.9001 20.1834 53.4678 19.845C54.0355 19.4957 54.7396 19.321 55.5802 19.321V20.4509C55.5365 20.4509 55.4929 20.4509 55.4492 20.4509C55.4055 20.44 55.3619 20.4345 55.3182 20.4345C54.4121 20.4345 53.7025 20.7129 53.1894 21.2697C52.6763 21.8155 52.4197 22.5961 52.4197 23.6114V28H51.2571ZM62.4496 28V26.1004L62.4005 25.7893V22.6125C62.4005 21.881 62.193 21.3188 61.7782 20.9258C61.3743 20.5328 60.7684 20.3363 59.9605 20.3363C59.4038 20.3363 58.8743 20.4291 58.3721 20.6147C57.8699 20.8002 57.4442 21.0459 57.0948 21.3516L56.5708 20.4837C57.0075 20.1125 57.5315 19.8286 58.1428 19.6321C58.7542 19.4247 59.3983 19.321 60.0751 19.321C61.1887 19.321 62.0457 19.5994 62.6461 20.1561C63.2575 20.702 63.5631 21.5371 63.5631 22.6616V28H62.4496ZM59.4856 28.0819C58.8415 28.0819 58.2793 27.9782 57.799 27.7707C57.3295 27.5524 56.9693 27.2576 56.7182 26.8865C56.4671 26.5044 56.3415 26.0677 56.3415 25.5764C56.3415 25.1288 56.4453 24.7249 56.6527 24.3646C56.871 23.9935 57.2204 23.6987 57.7007 23.4804C58.192 23.2511 58.847 23.1365 59.6658 23.1365H62.6297V24.0044H59.6985C58.8688 24.0044 58.2902 24.1518 57.9627 24.4465C57.6461 24.7413 57.4878 25.107 57.4878 25.5437C57.4878 26.0349 57.6789 26.428 58.061 26.7227C58.4431 27.0175 58.978 27.1649 59.6658 27.1649C60.3208 27.1649 60.883 27.0175 61.3524 26.7227C61.8328 26.417 62.1821 25.9804 62.4005 25.4127L62.6625 26.2151C62.4441 26.7828 62.062 27.2358 61.5162 27.5742C60.9813 27.9127 60.3044 28.0819 59.4856 28.0819ZM69.4394 28.0819C68.6315 28.0819 68.0092 27.8635 67.5726 27.4269C67.1359 26.9902 66.9175 26.3734 66.9175 25.5764V17.5033H68.0802V25.5109C68.0802 26.0131 68.2057 26.4007 68.4568 26.6736C68.7188 26.9465 69.09 27.083 69.5704 27.083C70.0835 27.083 70.5092 26.9356 70.8477 26.6408L71.257 27.476C71.0278 27.6834 70.7494 27.8362 70.4219 27.9345C70.1053 28.0328 69.7778 28.0819 69.4394 28.0819ZM65.3782 20.369V19.4029H70.7003V20.369H65.3782ZM73.3736 28V19.4029H74.5362V28H73.3736ZM73.9631 17.5033C73.7229 17.5033 73.521 17.4214 73.3572 17.2577C73.1934 17.0939 73.1116 16.8974 73.1116 16.6682C73.1116 16.4389 73.1934 16.2479 73.3572 16.095C73.521 15.9313 73.7229 15.8494 73.9631 15.8494C74.2033 15.8494 74.4052 15.9258 74.569 16.0786C74.7327 16.2315 74.8146 16.4225 74.8146 16.6518C74.8146 16.892 74.7327 17.0939 74.569 17.2577C74.4161 17.4214 74.2142 17.5033 73.9631 17.5033ZM82.1599 19.321C82.8586 19.321 83.47 19.4575 83.994 19.7304C84.5289 19.9924 84.9437 20.3963 85.2385 20.9422C85.5442 21.488 85.697 22.1758 85.697 23.0055V28H84.5344V23.1201C84.5344 22.214 84.3051 21.5317 83.8466 21.0732C83.399 20.6037 82.7658 20.369 81.947 20.369C81.3357 20.369 80.8007 20.4946 80.3422 20.7457C79.8946 20.9858 79.5453 21.3406 79.2942 21.8101C79.054 22.2686 78.9339 22.8253 78.9339 23.4804V28H77.7713V19.4029H78.8848V21.7609L78.7047 21.3188C78.9776 20.6965 79.4143 20.2107 80.0147 19.8614C80.6152 19.5011 81.3302 19.321 82.1599 19.321ZM92.5056 31.2587C91.7196 31.2587 90.9663 31.1441 90.2458 30.9148C89.5253 30.6856 88.9412 30.3581 88.4936 29.9323L89.0832 29.048C89.4871 29.4083 89.9838 29.6921 90.5733 29.8996C91.1738 30.1179 91.8069 30.2271 92.4729 30.2271C93.5646 30.2271 94.367 29.9705 94.8801 29.4574C95.3932 28.9552 95.6497 28.1692 95.6497 27.0993V24.9542L95.8135 23.4804L95.6989 22.0066V19.4029H96.8124V26.952C96.8124 28.4367 96.4467 29.5229 95.7152 30.2107C94.9947 30.9094 93.9248 31.2587 92.5056 31.2587ZM92.2928 27.6725C91.474 27.6725 90.7371 27.4978 90.0821 27.1485C89.427 26.7882 88.9085 26.2915 88.5264 25.6583C88.1552 25.0251 87.9696 24.2991 87.9696 23.4804C87.9696 22.6616 88.1552 21.9411 88.5264 21.3188C88.9085 20.6856 89.427 20.1944 90.0821 19.845C90.7371 19.4957 91.474 19.321 92.2928 19.321C93.0569 19.321 93.7447 19.4793 94.3561 19.7959C94.9674 20.1125 95.4532 20.5819 95.8135 21.2042C96.1737 21.8264 96.3539 22.5852 96.3539 23.4804C96.3539 24.3756 96.1737 25.1343 95.8135 25.7566C95.4532 26.3788 94.9674 26.8537 94.3561 27.1812C93.7447 27.5087 93.0569 27.6725 92.2928 27.6725ZM92.4074 26.6408C93.0406 26.6408 93.6028 26.5098 94.0941 26.2478C94.5853 25.9749 94.9729 25.6037 95.2567 25.1343C95.5406 24.6539 95.6825 24.1026 95.6825 23.4804C95.6825 22.8581 95.5406 22.3122 95.2567 21.8428C94.9729 21.3734 94.5853 21.0077 94.0941 20.7457C93.6028 20.4727 93.0406 20.3363 92.4074 20.3363C91.7851 20.3363 91.2229 20.4727 90.7207 20.7457C90.2294 21.0077 89.8419 21.3734 89.558 21.8428C89.2851 22.3122 89.1487 22.8581 89.1487 23.4804C89.1487 24.1026 89.2851 24.6539 89.558 25.1343C89.8419 25.6037 90.2294 25.9749 90.7207 26.2478C91.2229 26.5098 91.7851 26.6408 92.4074 26.6408ZM27.2815 39.321C27.9801 39.321 28.586 39.4575 29.0991 39.7304C29.6232 39.9924 30.0271 40.3963 30.3109 40.9422C30.6057 41.488 30.7531 42.1758 30.7531 43.0055V48H29.5904V43.1201C29.5904 42.214 29.3721 41.5317 28.9354 41.0732C28.5096 40.6037 27.9037 40.369 27.1177 40.369C26.5282 40.369 26.0151 40.4946 25.5784 40.7457C25.1526 40.9858 24.8197 41.3406 24.5795 41.8101C24.3502 42.2686 24.2356 42.8253 24.2356 43.4804V48H23.073V43.1201C23.073 42.214 22.8546 41.5317 22.4179 41.0732C21.9813 40.6037 21.3699 40.369 20.5839 40.369C20.0053 40.369 19.4976 40.4946 19.061 40.7457C18.6243 40.9858 18.2859 41.3406 18.0457 41.8101C17.8164 42.2686 17.7018 42.8253 17.7018 43.4804V48H16.5391V39.4029H17.6527V41.7282L17.4725 41.3188C17.7346 40.6965 18.1549 40.2107 18.7335 39.8614C19.323 39.5011 20.0162 39.321 20.8131 39.321C21.6537 39.321 22.3688 39.5339 22.9583 39.9596C23.5478 40.3745 23.9299 41.0022 24.1046 41.8428L23.6461 41.6627C23.8972 40.964 24.3393 40.4018 24.9725 39.976C25.6166 39.5393 26.3863 39.321 27.2815 39.321ZM37.4105 48.0819C36.5808 48.0819 35.833 47.8963 35.167 47.5251C34.512 47.143 33.9934 46.6245 33.6113 45.9694C33.2293 45.3035 33.0382 44.5448 33.0382 43.6932C33.0382 42.8308 33.2293 42.0721 33.6113 41.4171C33.9934 40.762 34.512 40.2489 35.167 39.8778C35.822 39.5066 36.5699 39.321 37.4105 39.321C38.262 39.321 39.0153 39.5066 39.6703 39.8778C40.3362 40.2489 40.8548 40.762 41.2259 41.4171C41.608 42.0721 41.7991 42.8308 41.7991 43.6932C41.7991 44.5448 41.608 45.3035 41.2259 45.9694C40.8548 46.6245 40.3362 47.143 39.6703 47.5251C39.0043 47.8963 38.2511 48.0819 37.4105 48.0819ZM37.4105 47.0502C38.0327 47.0502 38.584 46.9138 39.0644 46.6408C39.5447 46.357 39.9214 45.964 40.1943 45.4618C40.4781 44.9487 40.6201 44.3592 40.6201 43.6932C40.6201 43.0164 40.4781 42.4269 40.1943 41.9247C39.9214 41.4225 39.5447 41.035 39.0644 40.762C38.584 40.4782 38.0382 40.3363 37.4268 40.3363C36.8155 40.3363 36.2696 40.4782 35.7893 40.762C35.3089 41.035 34.9268 41.4225 34.643 41.9247C34.3592 42.4269 34.2172 43.0164 34.2172 43.6932C34.2172 44.3592 34.3592 44.9487 34.643 45.4618C34.9268 45.964 35.3089 46.357 35.7893 46.6408C36.2696 46.9138 36.81 47.0502 37.4105 47.0502ZM47.5952 48.0819C46.7765 48.0819 46.0396 47.8963 45.3846 47.5251C44.7404 47.1539 44.2328 46.6408 43.8616 45.9858C43.4905 45.3199 43.3049 44.5557 43.3049 43.6932C43.3049 42.8199 43.4905 42.0557 43.8616 41.4007C44.2328 40.7457 44.7404 40.238 45.3846 39.8778C46.0396 39.5066 46.7765 39.321 47.5952 39.321C48.3485 39.321 49.0199 39.4902 49.6094 39.8286C50.2099 40.1671 50.6847 40.6638 51.0341 41.3188C51.3944 41.9629 51.5745 42.7544 51.5745 43.6932C51.5745 44.6212 51.3998 45.4127 51.0505 46.0677C50.7011 46.7227 50.2262 47.2249 49.6258 47.5742C49.0363 47.9127 48.3594 48.0819 47.5952 48.0819ZM47.6771 47.0502C48.2885 47.0502 48.8343 46.9138 49.3147 46.6408C49.8059 46.357 50.188 45.964 50.4609 45.4618C50.7448 44.9487 50.8867 44.3592 50.8867 43.6932C50.8867 43.0164 50.7448 42.4269 50.4609 41.9247C50.188 41.4225 49.8059 41.035 49.3147 40.762C48.8343 40.4782 48.2885 40.3363 47.6771 40.3363C47.0767 40.3363 46.5363 40.4782 46.0559 40.762C45.5756 41.035 45.1935 41.4225 44.9097 41.9247C44.6258 42.4269 44.4839 43.0164 44.4839 43.6932C44.4839 44.3592 44.6258 44.9487 44.9097 45.4618C45.1935 45.964 45.5756 46.357 46.0559 46.6408C46.5363 46.9138 47.0767 47.0502 47.6771 47.0502ZM50.9195 48V45.4127L51.0341 43.6769L50.8703 41.9411V35.8494H52.033V48H50.9195ZM58.9227 48.0819C58.0275 48.0819 57.2415 47.8963 56.5647 47.5251C55.8878 47.143 55.3583 46.6245 54.9762 45.9694C54.5941 45.3035 54.4031 44.5448 54.4031 43.6932C54.4031 42.8417 54.5832 42.0885 54.9435 41.4334C55.3147 40.7784 55.8168 40.2653 56.45 39.8941C57.0941 39.512 57.8146 39.321 58.6116 39.321C59.4194 39.321 60.1345 39.5066 60.7568 39.8778C61.39 40.238 61.8867 40.7511 62.2469 41.4171C62.6072 42.0721 62.7873 42.8308 62.7873 43.6932C62.7873 43.7478 62.7819 43.8079 62.771 43.8734C62.771 43.928 62.771 43.988 62.771 44.0535H55.2874V43.1856H62.1487L61.6902 43.5295C61.6902 42.9072 61.5537 42.3559 61.2808 41.8756C61.0188 41.3843 60.6585 41.0022 60.2 40.7293C59.7415 40.4564 59.212 40.3199 58.6116 40.3199C58.0221 40.3199 57.4926 40.4564 57.0232 40.7293C56.5537 41.0022 56.188 41.3843 55.926 41.8756C55.664 42.3668 55.533 42.9291 55.533 43.5622V43.7424C55.533 44.3974 55.6749 44.976 55.9588 45.4782C56.2535 45.9694 56.6574 46.357 57.1705 46.6408C57.6946 46.9138 58.2895 47.0502 58.9555 47.0502C59.4795 47.0502 59.9653 46.9574 60.4129 46.7718C60.8714 46.5863 61.2644 46.3024 61.5919 45.9203L62.2469 46.6736C61.8649 47.1321 61.3845 47.4814 60.8059 47.7216C60.2382 47.9618 59.6105 48.0819 58.9227 48.0819ZM65.1538 48V39.4029H66.2674V41.7446L66.1528 41.3352C66.3929 40.6802 66.7969 40.1834 67.3645 39.845C67.9322 39.4957 68.6364 39.321 69.477 39.321V40.4509C69.4333 40.4509 69.3896 40.4509 69.346 40.4509C69.3023 40.44 69.2586 40.4345 69.215 40.4345C68.3089 40.4345 67.5993 40.7129 67.0862 41.2697C66.5731 41.8155 66.3165 42.5961 66.3165 43.6114V48H65.1538ZM75.9871 39.321C76.6858 39.321 77.2972 39.4575 77.8212 39.7304C78.3561 39.9924 78.771 40.3963 79.0657 40.9422C79.3714 41.488 79.5242 42.1758 79.5242 43.0055V48H78.3616V43.1201C78.3616 42.214 78.1323 41.5317 77.6738 41.0732C77.2262 40.6037 76.593 40.369 75.7742 40.369C75.1629 40.369 74.628 40.4946 74.1694 40.7457C73.7219 40.9858 73.3725 41.3406 73.1214 41.8101C72.8812 42.2686 72.7612 42.8253 72.7612 43.4804V48H71.5985V39.4029H72.712V41.7609L72.5319 41.3188C72.8048 40.6965 73.2415 40.2107 73.8419 39.8614C74.4424 39.5011 75.1574 39.321 75.9871 39.321ZM20.1909 68.0819C19.2957 68.0819 18.5097 67.8963 17.8328 67.5251C17.156 67.143 16.6265 66.6245 16.2444 65.9694C15.8623 65.3035 15.6712 64.5448 15.6712 63.6932C15.6712 62.8417 15.8514 62.0885 16.2116 61.4334C16.5828 60.7784 17.085 60.2653 17.7182 59.8941C18.3623 59.512 19.0828 59.321 19.8797 59.321C20.6876 59.321 21.4027 59.5066 22.0249 59.8778C22.6581 60.238 23.1548 60.7511 23.5151 61.4171C23.8754 62.0721 24.0555 62.8308 24.0555 63.6932C24.0555 63.7478 24.05 63.8079 24.0391 63.8734C24.0391 63.928 24.0391 63.988 24.0391 64.0535H16.5555V63.1856H23.4168L22.9583 63.5295C22.9583 62.9072 22.8219 62.3559 22.5489 61.8756C22.2869 61.3843 21.9267 61.0022 21.4682 60.7293C21.0096 60.4564 20.4802 60.3199 19.8797 60.3199C19.2902 60.3199 18.7607 60.4564 18.2913 60.7293C17.8219 61.0022 17.4562 61.3843 17.1942 61.8756C16.9322 62.3668 16.8011 62.9291 16.8011 63.5622V63.7424C16.8011 64.3974 16.9431 64.976 17.2269 65.4782C17.5217 65.9694 17.9256 66.357 18.4387 66.6408C18.9627 66.9138 19.5577 67.0502 20.2236 67.0502C20.7476 67.0502 21.2334 66.9574 21.681 66.7718C22.1396 66.5863 22.5326 66.3024 22.8601 65.9203L23.5151 66.6736C23.133 67.1321 22.6527 67.4814 22.0741 67.7216C21.5064 67.9618 20.8786 68.0819 20.1909 68.0819ZM29.8445 68.0819C29.0257 68.0819 28.2888 67.8963 27.6338 67.5251C26.9897 67.1539 26.482 66.6408 26.1109 65.9858C25.7397 65.3308 25.5541 64.5666 25.5541 63.6932C25.5541 62.8308 25.7397 62.0721 26.1109 61.4171C26.482 60.7511 26.9897 60.238 27.6338 59.8778C28.2888 59.5066 29.0257 59.321 29.8445 59.321C30.6087 59.321 31.2855 59.4902 31.875 59.8286C32.4755 60.1671 32.9504 60.6638 33.2997 61.3188C33.649 61.9629 33.8237 62.7544 33.8237 63.6932C33.8237 64.6321 33.6436 65.429 33.2833 66.0841C32.934 66.7282 32.4591 67.2249 31.8587 67.5742C31.2691 67.9127 30.5977 68.0819 29.8445 68.0819ZM29.9264 67.0502C30.5377 67.0502 31.0836 66.9138 31.5639 66.6408C32.0552 66.357 32.4373 65.964 32.7102 65.4618C32.994 64.9487 33.1359 64.3592 33.1359 63.6932C33.1359 63.0273 32.994 62.4433 32.7102 61.9411C32.4373 61.4389 32.0552 61.0459 31.5639 60.762C31.0836 60.4782 30.5377 60.3363 29.9264 60.3363C29.3259 60.3363 28.7855 60.4782 28.3052 60.762C27.8248 61.0459 27.4427 61.4389 27.1589 61.9411C26.8751 62.4433 26.7331 63.0273 26.7331 63.6932C26.7331 64.3592 26.8751 64.9487 27.1589 65.4618C27.4427 65.964 27.8248 66.357 28.3052 66.6408C28.7855 66.9138 29.3259 67.0502 29.9264 67.0502ZM33.1196 71.1768V65.4454L33.2833 63.7096L33.1687 61.9902V59.4029H34.2822V71.1768H33.1196ZM41.0737 68.0819C40.3423 68.0819 39.7036 67.9454 39.1578 67.6725C38.6119 67.3996 38.1862 66.9902 37.8805 66.4443C37.5857 65.8985 37.4383 65.2162 37.4383 64.3974V59.4029H38.601V64.2664C38.601 65.1834 38.8248 65.8766 39.2724 66.3461C39.7309 66.8046 40.3696 67.0338 41.1883 67.0338C41.7888 67.0338 42.3073 66.9138 42.744 66.6736C43.1916 66.4225 43.53 66.0622 43.7593 65.5928C43.9995 65.1234 44.1195 64.5611 44.1195 63.9061V59.4029H45.2822V68H44.1687V65.6419L44.3488 66.0677C44.0759 66.7009 43.6501 67.1976 43.0715 67.5579C42.5038 67.9072 41.8379 68.0819 41.0737 68.0819ZM48.5225 68V59.4029H49.6852V68H48.5225ZM49.112 57.5033C48.8718 57.5033 48.6699 57.4214 48.5061 57.2577C48.3424 57.0939 48.2605 56.8974 48.2605 56.6682C48.2605 56.4389 48.3424 56.2479 48.5061 56.095C48.6699 55.9313 48.8718 55.8494 49.112 55.8494C49.3522 55.8494 49.5542 55.9258 49.7179 56.0786C49.8817 56.2315 49.9635 56.4225 49.9635 56.6518C49.9635 56.892 49.8817 57.0939 49.7179 57.2577C49.5651 57.4214 49.3631 57.5033 49.112 57.5033ZM57.358 68.0819C56.6156 68.0819 55.9442 67.9127 55.3438 67.5742C54.7434 67.2249 54.263 66.7282 53.9027 66.0841C53.5534 65.429 53.3787 64.6321 53.3787 63.6932C53.3787 62.7544 53.5534 61.9629 53.9027 61.3188C54.2521 60.6638 54.727 60.1671 55.3274 59.8286C55.9278 59.4902 56.6047 59.321 57.358 59.321C58.1767 59.321 58.9082 59.5066 59.5523 59.8778C60.2073 60.238 60.7204 60.7511 61.0916 61.4171C61.4628 62.0721 61.6483 62.8308 61.6483 63.6932C61.6483 64.5666 61.4628 65.3308 61.0916 65.9858C60.7204 66.6408 60.2073 67.1539 59.5523 67.5251C58.9082 67.8963 58.1767 68.0819 57.358 68.0819ZM52.9202 71.1768V59.4029H54.0337V61.9902L53.9191 63.7096L54.0829 65.4454V71.1768H52.9202ZM57.2761 67.0502C57.8874 67.0502 58.4333 66.9138 58.9136 66.6408C59.394 66.357 59.7761 65.964 60.0599 65.4618C60.3438 64.9487 60.4857 64.3592 60.4857 63.6932C60.4857 63.0273 60.3438 62.4433 60.0599 61.9411C59.7761 61.4389 59.394 61.0459 58.9136 60.762C58.4333 60.4782 57.8874 60.3363 57.2761 60.3363C56.6647 60.3363 56.1134 60.4782 55.6222 60.762C55.1418 61.0459 54.7597 61.4389 54.4759 61.9411C54.203 62.4433 54.0665 63.0273 54.0665 63.6932C54.0665 64.3592 54.203 64.9487 54.4759 65.4618C54.7597 65.964 55.1418 66.357 55.6222 66.6408C56.1134 66.9138 56.6647 67.0502 57.2761 67.0502ZM74.7608 59.321C75.4594 59.321 76.0653 59.4575 76.5784 59.7304C77.1025 59.9924 77.5064 60.3963 77.7902 60.9422C78.085 61.488 78.2324 62.1758 78.2324 63.0055V68H77.0697V63.1201C77.0697 62.214 76.8514 61.5317 76.4147 61.0732C75.9889 60.6037 75.383 60.369 74.597 60.369C74.0075 60.369 73.4944 60.4946 73.0577 60.7457C72.6319 60.9858 72.299 61.3406 72.0588 61.8101C71.8295 62.2686 71.7149 62.8253 71.7149 63.4804V68H70.5523V63.1201C70.5523 62.214 70.3339 61.5317 69.8972 61.0732C69.4606 60.6037 68.8492 60.369 68.0632 60.369C67.4846 60.369 66.9769 60.4946 66.5403 60.7457C66.1036 60.9858 65.7652 61.3406 65.525 61.8101C65.2957 62.2686 65.1811 62.8253 65.1811 63.4804V68H64.0184V59.4029H65.132V61.7282L64.9518 61.3188C65.2139 60.6965 65.6342 60.2107 66.2128 59.8614C66.8023 59.5011 67.4955 59.321 68.2924 59.321C69.1331 59.321 69.8481 59.5339 70.4376 59.9596C71.0271 60.3745 71.4092 61.0022 71.5839 61.8428L71.1254 61.6627C71.3765 60.964 71.8186 60.4018 72.4518 59.976C73.0959 59.5393 73.8656 59.321 74.7608 59.321ZM85.0371 68.0819C84.1419 68.0819 83.3559 67.8963 82.6791 67.5251C82.0022 67.143 81.4727 66.6245 81.0907 65.9694C80.7086 65.3035 80.5175 64.5448 80.5175 63.6932C80.5175 62.8417 80.6976 62.0885 81.0579 61.4334C81.4291 60.7784 81.9313 60.2653 82.5644 59.8941C83.2085 59.512 83.9291 59.321 84.726 59.321C85.5339 59.321 86.2489 59.5066 86.8712 59.8778C87.5044 60.238 88.0011 60.7511 88.3614 61.4171C88.7216 62.0721 88.9018 62.8308 88.9018 63.6932C88.9018 63.7478 88.8963 63.8079 88.8854 63.8734C88.8854 63.928 88.8854 63.988 88.8854 64.0535H81.4018V63.1856H88.2631L87.8046 63.5295C87.8046 62.9072 87.6681 62.3559 87.3952 61.8756C87.1332 61.3843 86.7729 61.0022 86.3144 60.7293C85.8559 60.4564 85.3264 60.3199 84.726 60.3199C84.1365 60.3199 83.607 60.4564 83.1376 60.7293C82.6682 61.0022 82.3024 61.3843 82.0404 61.8756C81.7784 62.3668 81.6474 62.9291 81.6474 63.5622V63.7424C81.6474 64.3974 81.7893 64.976 82.0732 65.4782C82.3679 65.9694 82.7719 66.357 83.285 66.6408C83.809 66.9138 84.404 67.0502 85.0699 67.0502C85.5939 67.0502 86.0797 66.9574 86.5273 66.7718C86.9858 66.5863 87.3788 66.3024 87.7063 65.9203L88.3614 66.6736C87.9793 67.1321 87.4989 67.4814 86.9203 67.7216C86.3526 67.9618 85.7249 68.0819 85.0371 68.0819ZM95.6569 59.321C96.3556 59.321 96.9669 59.4575 97.491 59.7304C98.0259 59.9924 98.4407 60.3963 98.7355 60.9422C99.0412 61.488 99.194 62.1758 99.194 63.0055V68H98.0313V63.1201C98.0313 62.214 97.8021 61.5317 97.3436 61.0732C96.896 60.6037 96.2628 60.369 95.444 60.369C94.8327 60.369 94.2977 60.4946 93.8392 60.7457C93.3916 60.9858 93.0423 61.3406 92.7912 61.8101C92.551 62.2686 92.4309 62.8253 92.4309 63.4804V68H91.2683V59.4029H92.3818V61.7609L92.2017 61.3188C92.4746 60.6965 92.9113 60.2107 93.5117 59.8614C94.1121 59.5011 94.8272 59.321 95.6569 59.321ZM105.053 68.0819C104.245 68.0819 103.623 67.8635 103.186 67.4269C102.749 66.9902 102.531 66.3734 102.531 65.5764V57.5033H103.694V65.5109C103.694 66.0131 103.819 66.4007 104.07 66.6736C104.332 66.9465 104.703 67.083 105.184 67.083C105.697 67.083 106.123 66.9356 106.461 66.6408L106.871 67.476C106.641 67.6834 106.363 67.8362 106.035 67.9345C105.719 68.0328 105.391 68.0819 105.053 68.0819ZM100.992 60.369V59.4029H106.314V60.369H100.992Z" fill="white"/>
<path d="M175.132 47.9258L180.754 35.2055L181.592 36.6011H174.075L175.511 35.0858V38.874H172.639V33.9693H183.825V36.0628L178.641 47.9258H175.132ZM183.798 44.9949V42.8217L190.378 33.9693H193.767L187.327 42.8217L185.752 42.3631H196.738V44.9949H183.798ZM191.315 47.9258V44.9949L191.415 42.3631V39.7513H194.465V47.9258H191.315Z" fill="#91CB00"/>
<path d="M174.992 65.753H180.894V66.7579H174.992V65.753ZM175.12 70.905H181.835V71.9258H173.939V60.7606H181.596V61.7814H175.12V70.905ZM182.86 71.9258L186.401 67.3321L186.385 67.8904L183.02 63.5519H184.296L187.055 67.1407L186.577 67.1248L189.336 63.5519H190.58L187.183 67.9382L187.199 67.3321L190.772 71.9258H189.48L186.561 68.0977L187.007 68.1615L184.136 71.9258H182.86ZM195.838 72.0055C195.008 72.0055 194.264 71.8248 193.605 71.4632C192.956 71.0911 192.446 70.586 192.074 69.948C191.701 69.2993 191.515 68.5603 191.515 67.7309C191.515 66.8908 191.701 66.1518 192.074 65.5138C192.446 64.8758 192.956 64.376 193.605 64.0145C194.264 63.6529 195.008 63.4722 195.838 63.4722C196.55 63.4722 197.194 63.6104 197.768 63.8869C198.342 64.1633 198.794 64.578 199.124 65.131L198.278 65.7052C197.991 65.2798 197.635 64.9662 197.21 64.7641C196.784 64.5621 196.322 64.4611 195.822 64.4611C195.226 64.4611 194.689 64.5993 194.211 64.8758C193.732 65.1416 193.355 65.5191 193.078 66.0082C192.802 66.4974 192.664 67.0716 192.664 67.7309C192.664 68.3901 192.802 68.9644 193.078 69.4535C193.355 69.9426 193.732 70.3254 194.211 70.6019C194.689 70.8677 195.226 71.0007 195.822 71.0007C196.322 71.0007 196.784 70.8996 197.21 70.6976C197.635 70.4956 197.991 70.1872 198.278 69.7725L199.124 70.3467C198.794 70.889 198.342 71.3037 197.768 71.5908C197.194 71.8673 196.55 72.0055 195.838 72.0055ZM206.596 71.9258V70.0756L206.548 69.7725V66.6782C206.548 65.9657 206.346 65.4181 205.942 65.0353C205.549 64.6525 204.958 64.4611 204.171 64.4611C203.629 64.4611 203.113 64.5515 202.624 64.7322C202.135 64.913 201.72 65.1522 201.38 65.45L200.87 64.6046C201.295 64.2431 201.806 63.9666 202.401 63.7752C202.996 63.5732 203.624 63.4722 204.283 63.4722C205.368 63.4722 206.202 63.7433 206.787 64.2856C207.383 64.8173 207.681 65.6308 207.681 66.726V71.9258H206.596ZM203.709 72.0055C203.082 72.0055 202.534 71.9045 202.066 71.7025C201.609 71.4898 201.258 71.2027 201.013 70.8412C200.769 70.469 200.646 70.0437 200.646 69.5651C200.646 69.1292 200.747 68.7357 200.95 68.3848C201.162 68.0233 201.502 67.7362 201.97 67.5235C202.449 67.3002 203.087 67.1886 203.884 67.1886H206.771V68.0339H203.916C203.108 68.0339 202.545 68.1775 202.226 68.4646C201.917 68.7517 201.763 69.1079 201.763 69.5332C201.763 70.0118 201.949 70.3946 202.321 70.6817C202.693 70.9688 203.214 71.1123 203.884 71.1123C204.522 71.1123 205.07 70.9688 205.527 70.6817C205.995 70.3839 206.335 69.9586 206.548 69.4056L206.803 70.1872C206.591 70.7401 206.218 71.1814 205.687 71.5111C205.166 71.8407 204.506 72.0055 203.709 72.0055ZM212.754 71.9258L209.038 63.5519H210.218L213.631 71.3197H213.073L216.534 63.5519H217.651L213.918 71.9258H212.754ZM224.244 71.9258V70.0756L224.196 69.7725V66.6782C224.196 65.9657 223.994 65.4181 223.59 65.0353C223.197 64.6525 222.606 64.4611 221.82 64.4611C221.277 64.4611 220.762 64.5515 220.272 64.7322C219.783 64.913 219.369 65.1522 219.028 65.45L218.518 64.6046C218.943 64.2431 219.454 63.9666 220.049 63.7752C220.645 63.5732 221.272 63.4722 221.931 63.4722C223.016 63.4722 223.851 63.7433 224.435 64.2856C225.031 64.8173 225.329 65.6308 225.329 66.726V71.9258H224.244ZM221.357 72.0055C220.73 72.0055 220.182 71.9045 219.714 71.7025C219.257 71.4898 218.906 71.2027 218.661 70.8412C218.417 70.469 218.295 70.0437 218.295 69.5651C218.295 69.1292 218.396 68.7357 218.598 68.3848C218.81 68.0233 219.151 67.7362 219.618 67.5235C220.097 67.3002 220.735 67.1886 221.532 67.1886H224.419V68.0339H221.564C220.756 68.0339 220.193 68.1775 219.874 68.4646C219.565 68.7517 219.411 69.1079 219.411 69.5332C219.411 70.0118 219.597 70.3946 219.969 70.6817C220.341 70.9688 220.863 71.1123 221.532 71.1123C222.17 71.1123 222.718 70.9688 223.175 70.6817C223.643 70.3839 223.983 69.9586 224.196 69.4056L224.451 70.1872C224.239 70.7401 223.867 71.1814 223.335 71.5111C222.814 71.8407 222.155 72.0055 221.357 72.0055ZM231.052 72.0055C230.265 72.0055 229.659 71.7929 229.234 71.3675C228.809 70.9422 228.596 70.3414 228.596 69.5651V61.7017H229.728V69.5013C229.728 69.9905 229.851 70.368 230.095 70.6338C230.35 70.8996 230.712 71.0326 231.18 71.0326C231.68 71.0326 232.094 70.889 232.424 70.6019L232.823 71.4154C232.599 71.6174 232.328 71.7663 232.009 71.862C231.701 71.9577 231.382 72.0055 231.052 72.0055ZM227.097 64.493V63.5519H232.28V64.493H227.097ZM238.002 72.0055C237.194 72.0055 236.465 71.8248 235.817 71.4632C235.179 71.0911 234.673 70.586 234.301 69.948C233.929 69.2993 233.743 68.5603 233.743 67.7309C233.743 66.8908 233.929 66.1518 234.301 65.5138C234.673 64.8758 235.179 64.376 235.817 64.0145C236.455 63.6529 237.183 63.4722 238.002 63.4722C238.831 63.4722 239.565 63.6529 240.203 64.0145C240.851 64.376 241.357 64.8758 241.718 65.5138C242.09 66.1518 242.276 66.8908 242.276 67.7309C242.276 68.5603 242.09 69.2993 241.718 69.948C241.357 70.586 240.851 71.0911 240.203 71.4632C239.554 71.8248 238.82 72.0055 238.002 72.0055ZM238.002 71.0007C238.608 71.0007 239.145 70.8677 239.613 70.6019C240.081 70.3254 240.447 69.9426 240.713 69.4535C240.99 68.9537 241.128 68.3795 241.128 67.7309C241.128 67.0716 240.99 66.4974 240.713 66.0082C240.447 65.5191 240.081 65.1416 239.613 64.8758C239.145 64.5993 238.613 64.4611 238.018 64.4611C237.422 64.4611 236.89 64.5993 236.423 64.8758C235.955 65.1416 235.583 65.5191 235.306 66.0082C235.03 66.4974 234.891 67.0716 234.891 67.7309C234.891 68.3795 235.03 68.9537 235.306 69.4535C235.583 69.9426 235.955 70.3254 236.423 70.6019C236.89 70.8677 237.417 71.0007 238.002 71.0007ZM244.588 71.9258V63.5519H245.673V65.8328L245.561 65.434C245.795 64.796 246.189 64.3122 246.742 63.9826C247.295 63.6423 247.98 63.4722 248.799 63.4722V64.5727C248.757 64.5727 248.714 64.5727 248.672 64.5727C248.629 64.5621 248.587 64.5568 248.544 64.5568C247.661 64.5568 246.97 64.8279 246.471 65.3702C245.971 65.9019 245.721 66.6622 245.721 67.6511V71.9258H244.588ZM253.208 72.0055C252.517 72.0055 251.863 71.9098 251.246 71.7184C250.63 71.5164 250.146 71.2665 249.795 70.9688L250.305 70.0756C250.645 70.3308 251.081 70.5541 251.613 70.7455C252.145 70.9262 252.703 71.0166 253.288 71.0166C254.085 71.0166 254.66 70.8943 255.011 70.6498C255.361 70.3946 255.537 70.0596 255.537 69.6449C255.537 69.3365 255.436 69.0973 255.234 68.9271C255.042 68.7464 254.787 68.6134 254.468 68.5284C254.149 68.4327 253.793 68.3529 253.4 68.2891C253.006 68.2253 252.613 68.1509 252.219 68.0658C251.836 67.9808 251.486 67.8585 251.167 67.699C250.847 67.5288 250.587 67.3002 250.385 67.0131C250.194 66.726 250.098 66.3432 250.098 65.8647C250.098 65.4074 250.225 64.9981 250.481 64.6365C250.736 64.275 251.108 63.9932 251.597 63.7912C252.097 63.5785 252.703 63.4722 253.415 63.4722C253.958 63.4722 254.5 63.5466 255.042 63.6955C255.585 63.8337 256.031 64.0198 256.382 64.2537L255.888 65.1629C255.516 64.9077 255.117 64.7269 254.692 64.6206C254.266 64.5036 253.841 64.4451 253.415 64.4451C252.661 64.4451 252.102 64.578 251.741 64.8439C251.39 65.0991 251.214 65.4287 251.214 65.8328C251.214 66.1518 251.31 66.4017 251.501 66.5825C251.703 66.7632 251.964 66.9068 252.283 67.0131C252.613 67.1088 252.969 67.1886 253.352 67.2524C253.745 67.3162 254.133 67.3959 254.516 67.4916C254.909 67.5767 255.266 67.699 255.585 67.8585C255.914 68.0073 256.175 68.2253 256.366 68.5124C256.568 68.7889 256.669 69.1558 256.669 69.613C256.669 70.1021 256.531 70.5275 256.255 70.889C255.989 71.2399 255.595 71.5164 255.074 71.7184C254.564 71.9098 253.942 72.0055 253.208 72.0055Z" fill="white"/>
<path d="M352.872 44.9949V42.8217L359.451 33.9693H362.841L356.401 42.8217L354.826 42.3631H365.812V44.9949H352.872ZM360.389 47.9258V44.9949L360.488 42.3631V39.7513H363.539V47.9258H360.389ZM371.187 48.165C370.216 48.165 369.253 48.0388 368.296 47.7862C367.339 47.5204 366.528 47.1482 365.863 46.6697L367.119 44.1974C367.651 44.5829 368.269 44.8886 368.974 45.1146C369.678 45.3405 370.389 45.4535 371.107 45.4535C371.918 45.4535 372.556 45.294 373.021 44.975C373.486 44.656 373.719 44.2174 373.719 43.6591C373.719 43.1274 373.513 42.7087 373.101 42.403C372.689 42.0973 372.024 41.9444 371.107 41.9444H369.632V39.8111L373.519 35.4048L373.878 36.5612H366.561V33.9693H376.331V36.0628L372.463 40.469L370.828 39.532H371.765C373.48 39.532 374.776 39.9174 375.653 40.6884C376.53 41.4593 376.969 42.4495 376.969 43.6591C376.969 44.4433 376.763 45.181 376.351 45.8722C375.939 46.5501 375.307 47.1017 374.457 47.527C373.606 47.9524 372.516 48.165 371.187 48.165Z" fill="#91CB00"/>
<path d="M356.241 71.9258V61.7814H352.318V60.7606H361.346V61.7814H357.422V71.9258H356.241ZM362.992 71.9258V63.5519H364.124V71.9258H362.992ZM363.566 61.7017C363.332 61.7017 363.135 61.6219 362.976 61.4624C362.816 61.3029 362.737 61.1115 362.737 60.8882C362.737 60.6649 362.816 60.4788 362.976 60.33C363.135 60.1705 363.332 60.0907 363.566 60.0907C363.8 60.0907 363.997 60.1651 364.156 60.314C364.316 60.4629 364.396 60.649 364.396 60.8723C364.396 61.1062 364.316 61.3029 364.156 61.4624C364.007 61.6219 363.811 61.7017 363.566 61.7017ZM371.598 72.0055C370.875 72.0055 370.221 71.8407 369.636 71.5111C369.051 71.1708 368.583 70.687 368.232 70.0596C367.892 69.4216 367.722 68.6453 367.722 67.7309C367.722 66.8164 367.892 66.0455 368.232 65.4181C368.573 64.7801 369.035 64.2962 369.62 63.9666C370.205 63.637 370.864 63.4722 371.598 63.4722C372.395 63.4722 373.108 63.6529 373.735 64.0145C374.373 64.3654 374.873 64.8651 375.235 65.5138C375.596 66.1518 375.777 66.8908 375.777 67.7309C375.777 68.5815 375.596 69.3259 375.235 69.9639C374.873 70.6019 374.373 71.1017 373.735 71.4632C373.108 71.8248 372.395 72.0055 371.598 72.0055ZM367.275 75.0201V63.5519H368.36V66.072L368.248 67.7468L368.408 69.4375V75.0201H367.275ZM371.518 71.0007C372.114 71.0007 372.645 70.8677 373.113 70.6019C373.581 70.3254 373.953 69.9426 374.23 69.4535C374.506 68.9537 374.644 68.3795 374.644 67.7309C374.644 67.0822 374.506 66.5133 374.23 66.0242C373.953 65.5351 373.581 65.1522 373.113 64.8758C372.645 64.5993 372.114 64.4611 371.518 64.4611C370.923 64.4611 370.386 64.5993 369.907 64.8758C369.439 65.1522 369.067 65.5351 368.791 66.0242C368.525 66.5133 368.392 67.0822 368.392 67.7309C368.392 68.3795 368.525 68.9537 368.791 69.4535C369.067 69.9426 369.439 70.3254 369.907 70.6019C370.386 70.8677 370.923 71.0007 371.518 71.0007ZM382.408 72.0055C381.685 72.0055 381.031 71.8407 380.446 71.5111C379.861 71.1708 379.393 70.687 379.042 70.0596C378.702 69.4216 378.532 68.6453 378.532 67.7309C378.532 66.8164 378.702 66.0455 379.042 65.4181C379.383 64.7801 379.845 64.2962 380.43 63.9666C381.015 63.637 381.674 63.4722 382.408 63.4722C383.205 63.4722 383.918 63.6529 384.545 64.0145C385.183 64.3654 385.683 64.8651 386.045 65.5138C386.406 66.1518 386.587 66.8908 386.587 67.7309C386.587 68.5815 386.406 69.3259 386.045 69.9639C385.683 70.6019 385.183 71.1017 384.545 71.4632C383.918 71.8248 383.205 72.0055 382.408 72.0055ZM378.085 75.0201V63.5519H379.17V66.072L379.058 67.7468L379.218 69.4375V75.0201H378.085ZM382.328 71.0007C382.924 71.0007 383.455 70.8677 383.923 70.6019C384.391 70.3254 384.763 69.9426 385.04 69.4535C385.316 68.9537 385.454 68.3795 385.454 67.7309C385.454 67.0822 385.316 66.5133 385.04 66.0242C384.763 65.5351 384.391 65.1522 383.923 64.8758C383.455 64.5993 382.924 64.4611 382.328 64.4611C381.733 64.4611 381.196 64.5993 380.717 64.8758C380.249 65.1522 379.877 65.5351 379.601 66.0242C379.335 66.5133 379.202 67.0822 379.202 67.7309C379.202 68.3795 379.335 68.9537 379.601 69.4535C379.877 69.9426 380.249 70.3254 380.717 70.6019C381.196 70.8677 381.733 71.0007 382.328 71.0007ZM392.452 72.0055C391.58 72.0055 390.815 71.8248 390.156 71.4632C389.496 71.0911 388.981 70.586 388.608 69.948C388.236 69.2993 388.05 68.5603 388.05 67.7309C388.05 66.9015 388.226 66.1677 388.576 65.5297C388.938 64.8917 389.427 64.392 390.044 64.0304C390.671 63.6582 391.373 63.4722 392.149 63.4722C392.936 63.4722 393.633 63.6529 394.239 64.0145C394.856 64.3654 395.339 64.8651 395.69 65.5138C396.041 66.1518 396.217 66.8908 396.217 67.7309C396.217 67.784 396.211 67.8425 396.201 67.9063C396.201 67.9595 396.201 68.018 396.201 68.0818H388.911V67.2364H395.595L395.148 67.5714C395.148 66.9653 395.015 66.4283 394.749 65.9604C394.494 65.4819 394.143 65.1097 393.696 64.8439C393.25 64.578 392.734 64.4451 392.149 64.4451C391.575 64.4451 391.059 64.578 390.602 64.8439C390.145 65.1097 389.789 65.4819 389.533 65.9604C389.278 66.4389 389.151 66.9865 389.151 67.6033V67.7787C389.151 68.4167 389.289 68.9803 389.565 69.4694C389.852 69.948 390.246 70.3254 390.746 70.6019C391.256 70.8677 391.836 71.0007 392.484 71.0007C392.995 71.0007 393.468 70.9103 393.904 70.7295C394.35 70.5487 394.733 70.2723 395.052 69.9001L395.69 70.6338C395.318 71.0804 394.85 71.4207 394.287 71.6546C393.734 71.8886 393.122 72.0055 392.452 72.0055ZM398.522 71.9258V63.5519H399.606V65.8328L399.495 65.434C399.729 64.796 400.122 64.3122 400.675 63.9826C401.228 63.6423 401.914 63.4722 402.733 63.4722V64.5727C402.69 64.5727 402.647 64.5727 402.605 64.5727C402.562 64.5621 402.52 64.5568 402.477 64.5568C401.595 64.5568 400.904 64.8279 400.404 65.3702C399.904 65.9019 399.654 66.6622 399.654 67.6511V71.9258H398.522ZM411.507 71.9258V61.7814H407.583V60.7606H416.611V61.7814H412.687V71.9258H411.507ZM418.039 71.9258V63.5519H419.124V65.8328L419.012 65.434C419.246 64.796 419.639 64.3122 420.192 63.9826C420.745 63.6423 421.431 63.4722 422.25 63.4722V64.5727C422.207 64.5727 422.165 64.5727 422.122 64.5727C422.08 64.5621 422.037 64.5568 421.995 64.5568C421.112 64.5568 420.421 64.8279 419.921 65.3702C419.421 65.9019 419.171 66.6622 419.171 67.6511V71.9258H418.039ZM427.902 72.0055C427.19 72.0055 426.568 71.8726 426.036 71.6068C425.504 71.3409 425.089 70.9422 424.792 70.4105C424.505 69.8788 424.361 69.2142 424.361 68.4167V63.5519H425.494V68.2891C425.494 69.1823 425.712 69.8576 426.148 70.3148C426.594 70.7614 427.216 70.9847 428.014 70.9847C428.599 70.9847 429.104 70.8677 429.529 70.6338C429.965 70.3892 430.295 70.0383 430.518 69.5811C430.752 69.1239 430.869 68.5762 430.869 67.9382V63.5519H432.001V71.9258H430.917V69.6289L431.092 70.0437C430.826 70.6604 430.412 71.1442 429.848 71.4951C429.295 71.8354 428.646 72.0055 427.902 72.0055ZM438.635 72.0055C437.805 72.0055 437.061 71.8248 436.402 71.4632C435.753 71.0911 435.242 70.586 434.87 69.948C434.498 69.2993 434.312 68.5603 434.312 67.7309C434.312 66.8908 434.498 66.1518 434.87 65.5138C435.242 64.8758 435.753 64.376 436.402 64.0145C437.061 63.6529 437.805 63.4722 438.635 63.4722C439.347 63.4722 439.99 63.6104 440.565 63.8869C441.139 64.1633 441.591 64.578 441.92 65.131L441.075 65.7052C440.788 65.2798 440.432 64.9662 440.006 64.7641C439.581 64.5621 439.118 64.4611 438.619 64.4611C438.023 64.4611 437.486 64.5993 437.008 64.8758C436.529 65.1416 436.152 65.5191 435.875 66.0082C435.599 66.4974 435.46 67.0716 435.46 67.7309C435.46 68.3901 435.599 68.9644 435.875 69.4535C436.152 69.9426 436.529 70.3254 437.008 70.6019C437.486 70.8677 438.023 71.0007 438.619 71.0007C439.118 71.0007 439.581 70.8996 440.006 70.6976C440.432 70.4956 440.788 70.1872 441.075 69.7725L441.92 70.3467C441.591 70.889 441.139 71.3037 440.565 71.5908C439.99 71.8673 439.347 72.0055 438.635 72.0055ZM444.914 69.7565L444.945 68.3051L450.161 63.5519H451.549L447.864 67.0769L447.226 67.6192L444.914 69.7565ZM444.02 71.9258V60.0907H445.153V71.9258H444.02ZM450.512 71.9258L447.019 67.5714L447.753 66.6941L451.9 71.9258H450.512ZM455.6 72.0055C454.908 72.0055 454.254 71.9098 453.638 71.7184C453.021 71.5164 452.537 71.2665 452.186 70.9688L452.697 70.0756C453.037 70.3308 453.473 70.5541 454.005 70.7455C454.536 70.9262 455.095 71.0166 455.679 71.0166C456.477 71.0166 457.051 70.8943 457.402 70.6498C457.753 70.3946 457.928 70.0596 457.928 69.6449C457.928 69.3365 457.827 69.0973 457.625 68.9271C457.434 68.7464 457.179 68.6134 456.86 68.5284C456.541 68.4327 456.184 68.3529 455.791 68.2891C455.398 68.2253 455.004 68.1509 454.611 68.0658C454.228 67.9808 453.877 67.8585 453.558 67.699C453.239 67.5288 452.978 67.3002 452.776 67.0131C452.585 66.726 452.489 66.3432 452.489 65.8647C452.489 65.4074 452.617 64.9981 452.872 64.6365C453.127 64.275 453.5 63.9932 453.989 63.7912C454.488 63.5785 455.095 63.4722 455.807 63.4722C456.349 63.4722 456.892 63.5466 457.434 63.6955C457.976 63.8337 458.423 64.0198 458.774 64.2537L458.279 65.1629C457.907 64.9077 457.508 64.7269 457.083 64.6206C456.658 64.5036 456.232 64.4451 455.807 64.4451C455.052 64.4451 454.494 64.578 454.132 64.8439C453.781 65.0991 453.606 65.4287 453.606 65.8328C453.606 66.1518 453.702 66.4017 453.893 66.5825C454.095 66.7632 454.356 66.9068 454.675 67.0131C455.004 67.1088 455.36 67.1886 455.743 67.2524C456.137 67.3162 456.525 67.3959 456.908 67.4916C457.301 67.5767 457.657 67.699 457.976 67.8585C458.306 68.0073 458.566 68.2253 458.758 68.5124C458.96 68.7889 459.061 69.1558 459.061 69.613C459.061 70.1021 458.923 70.5275 458.646 70.889C458.38 71.2399 457.987 71.5164 457.466 71.7184C456.955 71.9098 456.333 72.0055 455.6 72.0055Z" fill="white"/>
<path d="M535.397 47.9258L541.02 35.2055L541.857 36.6011H534.341L535.776 35.0858V38.874H532.905V33.9693H544.09V36.0628L538.906 47.9258H535.397ZM551.12 48.165C549.977 48.165 548.953 47.8859 548.05 47.3276C547.146 46.7561 546.435 45.932 545.916 44.8554C545.398 43.7787 545.139 42.4761 545.139 40.9476C545.139 39.419 545.398 38.1164 545.916 37.0397C546.435 35.9631 547.146 35.1456 548.05 34.5874C548.953 34.0158 549.977 33.7301 551.12 33.7301C552.276 33.7301 553.3 34.0158 554.19 34.5874C555.094 35.1456 555.805 35.9631 556.324 37.0397C556.842 38.1164 557.101 39.419 557.101 40.9476C557.101 42.4761 556.842 43.7787 556.324 44.8554C555.805 45.932 555.094 46.7561 554.19 47.3276C553.3 47.8859 552.276 48.165 551.12 48.165ZM551.12 45.4336C551.665 45.4336 552.137 45.2807 552.536 44.975C552.948 44.6693 553.267 44.1841 553.493 43.5195C553.732 42.8549 553.851 41.9976 553.851 40.9476C553.851 39.8975 553.732 39.0402 553.493 38.3756C553.267 37.711 552.948 37.2258 552.536 36.9201C552.137 36.6144 551.665 36.4615 551.12 36.4615C550.588 36.4615 550.116 36.6144 549.704 36.9201C549.306 37.2258 548.987 37.711 548.747 38.3756C548.521 39.0402 548.408 39.8975 548.408 40.9476C548.408 41.9976 548.521 42.8549 548.747 43.5195C548.987 44.1841 549.306 44.6693 549.704 44.975C550.116 45.2807 550.588 45.4336 551.12 45.4336Z" fill="#91CB00"/>
<path d="M536.741 71.9258L532.977 60.7606H534.189L537.714 71.2718H537.108L540.745 60.7606H541.829L545.418 71.2718H544.844L548.401 60.7606H549.533L545.769 71.9258H544.525L541.096 61.9569H541.415L537.969 71.9258H536.741ZM551.411 71.9258V63.5519H552.544V71.9258H551.411ZM551.986 61.7017C551.752 61.7017 551.555 61.6219 551.395 61.4624C551.236 61.3029 551.156 61.1115 551.156 60.8882C551.156 60.6649 551.236 60.4788 551.395 60.33C551.555 60.1705 551.752 60.0907 551.986 60.0907C552.22 60.0907 552.416 60.1651 552.576 60.314C552.735 60.4629 552.815 60.649 552.815 60.8723C552.815 61.1062 552.735 61.3029 552.576 61.4624C552.427 61.6219 552.23 61.7017 551.986 61.7017ZM555.695 71.9258V63.5519H556.779V65.8328L556.668 65.434C556.902 64.796 557.295 64.3122 557.848 63.9826C558.401 63.6423 559.087 63.4722 559.906 63.4722V64.5727C559.863 64.5727 559.821 64.5727 559.778 64.5727C559.736 64.5621 559.693 64.5568 559.651 64.5568C558.768 64.5568 558.077 64.8279 557.577 65.3702C557.077 65.9019 556.827 66.6622 556.827 67.6511V71.9258H555.695ZM565.451 72.0055C564.579 72.0055 563.814 71.8248 563.154 71.4632C562.495 71.0911 561.979 70.586 561.607 69.948C561.235 69.2993 561.049 68.5603 561.049 67.7309C561.049 66.9015 561.224 66.1677 561.575 65.5297C561.937 64.8917 562.426 64.392 563.043 64.0304C563.67 63.6582 564.372 63.4722 565.148 63.4722C565.935 63.4722 566.632 63.6529 567.238 64.0145C567.854 64.3654 568.338 64.8651 568.689 65.5138C569.04 66.1518 569.215 66.8908 569.215 67.7309C569.215 67.784 569.21 67.8425 569.2 67.9063C569.2 67.9595 569.2 68.018 569.2 68.0818H561.91V67.2364H568.593L568.147 67.5714C568.147 66.9653 568.014 66.4283 567.748 65.9604C567.493 65.4819 567.142 65.1097 566.695 64.8439C566.249 64.578 565.733 64.4451 565.148 64.4451C564.574 64.4451 564.058 64.578 563.601 64.8439C563.144 65.1097 562.788 65.4819 562.532 65.9604C562.277 66.4389 562.149 66.9865 562.149 67.6033V67.7787C562.149 68.4167 562.288 68.9803 562.564 69.4694C562.851 69.948 563.245 70.3254 563.745 70.6019C564.255 70.8677 564.834 71.0007 565.483 71.0007C565.994 71.0007 566.467 70.9103 566.903 70.7295C567.349 70.5487 567.732 70.2723 568.051 69.9001L568.689 70.6338C568.317 71.0804 567.849 71.4207 567.285 71.6546C566.733 71.8886 566.121 72.0055 565.451 72.0055ZM579.013 72.0215C578.183 72.0215 577.386 71.8886 576.62 71.6227C575.865 71.3463 575.28 70.9954 574.866 70.57L575.328 69.6608C575.722 70.0437 576.248 70.368 576.907 70.6338C577.577 70.889 578.279 71.0166 579.013 71.0166C579.714 71.0166 580.283 70.9315 580.719 70.7614C581.166 70.5806 581.49 70.3414 581.692 70.0437C581.905 69.7459 582.011 69.4163 582.011 69.0547C582.011 68.6188 581.884 68.2679 581.628 68.002C581.384 67.7362 581.06 67.5288 580.656 67.38C580.251 67.2205 579.805 67.0822 579.316 66.9653C578.827 66.8483 578.337 66.726 577.848 66.5984C577.359 66.4602 576.907 66.2794 576.492 66.0561C576.088 65.8328 575.759 65.5404 575.504 65.1788C575.259 64.8067 575.137 64.3228 575.137 63.7274C575.137 63.1744 575.28 62.6693 575.567 62.2121C575.865 61.7442 576.317 61.372 576.923 61.0956C577.529 60.8085 578.306 60.6649 579.252 60.6649C579.879 60.6649 580.501 60.7553 581.118 60.9361C581.735 61.1062 582.266 61.3455 582.713 61.6538L582.314 62.5949C581.836 62.2759 581.325 62.0419 580.783 61.8931C580.251 61.7442 579.736 61.6698 579.236 61.6698C578.566 61.6698 578.013 61.7602 577.577 61.9409C577.141 62.1217 576.817 62.3663 576.604 62.6746C576.402 62.9724 576.301 63.3127 576.301 63.6955C576.301 64.1314 576.423 64.4823 576.668 64.7482C576.923 65.014 577.253 65.2214 577.657 65.3702C578.072 65.5191 578.523 65.652 579.013 65.769C579.502 65.886 579.986 66.0136 580.464 66.1518C580.953 66.29 581.4 66.4708 581.804 66.6941C582.219 66.9068 582.548 67.1939 582.793 67.5554C583.048 67.917 583.176 68.3901 583.176 68.975C583.176 69.5173 583.027 70.0224 582.729 70.4903C582.431 70.9475 581.974 71.3197 581.357 71.6068C580.751 71.8832 579.97 72.0215 579.013 72.0215ZM590.756 71.9258V70.0756L590.708 69.7725V66.6782C590.708 65.9657 590.506 65.4181 590.102 65.0353C589.708 64.6525 589.118 64.4611 588.331 64.4611C587.789 64.4611 587.273 64.5515 586.784 64.7322C586.295 64.913 585.88 65.1522 585.54 65.45L585.03 64.6046C585.455 64.2431 585.965 63.9666 586.561 63.7752C587.156 63.5732 587.784 63.4722 588.443 63.4722C589.528 63.4722 590.362 63.7433 590.947 64.2856C591.543 64.8173 591.84 65.6308 591.84 66.726V71.9258H590.756ZM587.869 72.0055C587.241 72.0055 586.694 71.9045 586.226 71.7025C585.769 71.4898 585.418 71.2027 585.173 70.8412C584.929 70.469 584.806 70.0437 584.806 69.5651C584.806 69.1292 584.907 68.7357 585.109 68.3848C585.322 68.0233 585.662 67.7362 586.13 67.5235C586.609 67.3002 587.247 67.1886 588.044 67.1886H590.931V68.0339H588.076C587.268 68.0339 586.704 68.1775 586.385 68.4646C586.077 68.7517 585.923 69.1079 585.923 69.5332C585.923 70.0118 586.109 70.3946 586.481 70.6817C586.853 70.9688 587.374 71.1123 588.044 71.1123C588.682 71.1123 589.23 70.9688 589.687 70.6817C590.155 70.3839 590.495 69.9586 590.708 69.4056L590.963 70.1872C590.75 70.7401 590.378 71.1814 589.847 71.5111C589.326 71.8407 588.666 72.0055 587.869 72.0055ZM596.467 71.9258L593.309 63.5519H594.394L597.265 71.3197H596.77L599.721 63.5519H600.694L603.613 71.3197H603.118L606.037 63.5519H607.074L603.9 71.9258H602.831L600.024 64.6206H600.359L597.536 71.9258H596.467Z" fill="white"/>
<path d="M717.819 48.165C716.849 48.165 715.885 48.0388 714.928 47.7862C713.971 47.5204 713.16 47.1482 712.496 46.6697L713.752 44.1974C714.283 44.5829 714.902 44.8886 715.606 45.1146C716.31 45.3405 717.022 45.4535 717.739 45.4535C718.55 45.4535 719.188 45.294 719.653 44.975C720.119 44.656 720.351 44.2174 720.351 43.6591C720.351 43.1274 720.145 42.7087 719.733 42.403C719.321 42.0973 718.656 41.9444 717.739 41.9444H716.264V39.8111L720.152 35.4048L720.511 36.5612H713.194V33.9693H722.963V36.0628L719.095 40.469L717.46 39.532H718.397C720.112 39.532 721.408 39.9174 722.285 40.6884C723.162 41.4593 723.601 42.4495 723.601 43.6591C723.601 44.4433 723.395 45.181 722.983 45.8722C722.571 46.5501 721.94 47.1017 721.089 47.527C720.238 47.9524 719.148 48.165 717.819 48.165ZM729.643 48.165C728.673 48.165 727.709 48.0388 726.752 47.7862C725.808 47.5204 724.997 47.1482 724.319 46.6697L725.595 44.1974C726.127 44.5829 726.739 44.8886 727.43 45.1146C728.134 45.3405 728.845 45.4535 729.563 45.4535C730.374 45.4535 731.012 45.294 731.477 44.975C731.942 44.656 732.175 44.2107 732.175 43.6392C732.175 43.2803 732.082 42.9613 731.896 42.6821C731.71 42.403 731.377 42.1903 730.899 42.0441C730.434 41.8979 729.776 41.8248 728.925 41.8248H725.356L726.074 33.9693H734.587V36.5612H727.23L728.905 35.0858L728.407 40.6884L726.732 39.213H729.683C731.065 39.213 732.175 39.4057 733.012 39.7912C733.863 40.1633 734.481 40.6751 734.867 41.3264C735.252 41.9777 735.445 42.7154 735.445 43.5395C735.445 44.3636 735.239 45.1278 734.827 45.8323C734.415 46.5235 733.777 47.0884 732.913 47.527C732.062 47.9524 730.972 48.165 729.643 48.165Z" fill="#91CB00"/>
<path d="M714.334 71.9258V60.7606H715.307L720.411 69.4694H719.901L724.957 60.7606H725.93V71.9258H724.797V62.5311H725.068L720.411 70.5062H719.853L715.163 62.5311H715.466V71.9258H714.334ZM732.885 72.0055C732.013 72.0055 731.248 71.8248 730.588 71.4632C729.929 71.0911 729.413 70.586 729.041 69.948C728.669 69.2993 728.483 68.5603 728.483 67.7309C728.483 66.9015 728.659 66.1677 729.009 65.5297C729.371 64.8917 729.86 64.392 730.477 64.0304C731.104 63.6582 731.806 63.4722 732.582 63.4722C733.369 63.4722 734.066 63.6529 734.672 64.0145C735.288 64.3654 735.772 64.8651 736.123 65.5138C736.474 66.1518 736.65 66.8908 736.65 67.7309C736.65 67.784 736.644 67.8425 736.634 67.9063C736.634 67.9595 736.634 68.018 736.634 68.0818H729.344V67.2364H736.028L735.581 67.5714C735.581 66.9653 735.448 66.4283 735.182 65.9604C734.927 65.4819 734.576 65.1097 734.129 64.8439C733.683 64.578 733.167 64.4451 732.582 64.4451C732.008 64.4451 731.492 64.578 731.035 64.8439C730.578 65.1097 730.222 65.4819 729.966 65.9604C729.711 66.4389 729.584 66.9865 729.584 67.6033V67.7787C729.584 68.4167 729.722 68.9803 729.998 69.4694C730.285 69.948 730.679 70.3254 731.179 70.6019C731.689 70.8677 732.269 71.0007 732.917 71.0007C733.428 71.0007 733.901 70.9103 734.337 70.7295C734.783 70.5487 735.166 70.2723 735.485 69.9001L736.123 70.6338C735.751 71.0804 735.283 71.4207 734.72 71.6546C734.167 71.8886 733.555 72.0055 732.885 72.0055ZM742.432 72.0055C741.602 72.0055 740.858 71.8248 740.199 71.4632C739.55 71.0911 739.04 70.586 738.668 69.948C738.295 69.2993 738.109 68.5603 738.109 67.7309C738.109 66.8908 738.295 66.1518 738.668 65.5138C739.04 64.8758 739.55 64.376 740.199 64.0145C740.858 63.6529 741.602 63.4722 742.432 63.4722C743.144 63.4722 743.788 63.6104 744.362 63.8869C744.936 64.1633 745.388 64.578 745.718 65.131L744.872 65.7052C744.585 65.2798 744.229 64.9662 743.804 64.7641C743.378 64.5621 742.916 64.4611 742.416 64.4611C741.82 64.4611 741.283 64.5993 740.805 64.8758C740.326 65.1416 739.949 65.5191 739.672 66.0082C739.396 66.4974 739.258 67.0716 739.258 67.7309C739.258 68.3901 739.396 68.9644 739.672 69.4535C739.949 69.9426 740.326 70.3254 740.805 70.6019C741.283 70.8677 741.82 71.0007 742.416 71.0007C742.916 71.0007 743.378 70.8996 743.804 70.6976C744.229 70.4956 744.585 70.1872 744.872 69.7725L745.718 70.3467C745.388 70.889 744.936 71.3037 744.362 71.5908C743.788 71.8673 743.144 72.0055 742.432 72.0055ZM752.092 63.4722C752.773 63.4722 753.368 63.6051 753.879 63.8709C754.4 64.1261 754.804 64.5196 755.091 65.0512C755.389 65.5829 755.538 66.2528 755.538 67.061V71.9258H754.405V67.1726C754.405 66.29 754.182 65.6254 753.735 65.1788C753.299 64.7216 752.682 64.493 751.885 64.493C751.289 64.493 750.768 64.6153 750.322 64.8598C749.886 65.0938 749.546 65.4393 749.301 65.8966C749.067 66.3432 748.95 66.8855 748.95 67.5235V71.9258H747.818V60.0907H748.95V65.8487L748.727 65.4181C748.993 64.812 749.418 64.3388 750.003 63.9985C750.588 63.6476 751.284 63.4722 752.092 63.4722ZM763.844 71.9258V70.0756L763.796 69.7725V66.6782C763.796 65.9657 763.594 65.4181 763.19 65.0353C762.797 64.6525 762.207 64.4611 761.42 64.4611C760.877 64.4611 760.362 64.5515 759.873 64.7322C759.383 64.913 758.969 65.1522 758.628 65.45L758.118 64.6046C758.543 64.2431 759.054 63.9666 759.649 63.7752C760.245 63.5732 760.872 63.4722 761.531 63.4722C762.616 63.4722 763.451 63.7433 764.036 64.2856C764.631 64.8173 764.929 65.6308 764.929 66.726V71.9258H763.844ZM760.957 72.0055C760.33 72.0055 759.782 71.9045 759.314 71.7025C758.857 71.4898 758.506 71.2027 758.262 70.8412C758.017 70.469 757.895 70.0437 757.895 69.5651C757.895 69.1292 757.996 68.7357 758.198 68.3848C758.41 68.0233 758.751 67.7362 759.219 67.5235C759.697 67.3002 760.335 67.1886 761.133 67.1886H764.02V68.0339H761.164C760.356 68.0339 759.793 68.1775 759.474 68.4646C759.165 68.7517 759.011 69.1079 759.011 69.5332C759.011 70.0118 759.197 70.3946 759.569 70.6817C759.942 70.9688 760.463 71.1123 761.133 71.1123C761.771 71.1123 762.318 70.9688 762.775 70.6817C763.243 70.3839 763.584 69.9586 763.796 69.4056L764.051 70.1872C763.839 70.7401 763.467 71.1814 762.935 71.5111C762.414 71.8407 761.755 72.0055 760.957 72.0055ZM772.279 63.4722C772.96 63.4722 773.555 63.6051 774.066 63.8709C774.587 64.1261 774.991 64.5196 775.278 65.0512C775.576 65.5829 775.725 66.2528 775.725 67.061V71.9258H774.592V67.1726C774.592 66.29 774.369 65.6254 773.922 65.1788C773.486 64.7216 772.869 64.493 772.072 64.493C771.476 64.493 770.955 64.6153 770.509 64.8598C770.073 65.0938 769.733 65.4393 769.488 65.8966C769.254 66.3432 769.137 66.8855 769.137 67.5235V71.9258H768.005V63.5519H769.089V65.8487L768.914 65.4181C769.18 64.812 769.605 64.3388 770.19 63.9985C770.775 63.6476 771.471 63.4722 772.279 63.4722ZM778.784 71.9258V63.5519H779.916V71.9258H778.784ZM779.358 61.7017C779.124 61.7017 778.927 61.6219 778.768 61.4624C778.608 61.3029 778.528 61.1115 778.528 60.8882C778.528 60.6649 778.608 60.4788 778.768 60.33C778.927 60.1705 779.124 60.0907 779.358 60.0907C779.592 60.0907 779.788 60.1651 779.948 60.314C780.107 60.4629 780.187 60.649 780.187 60.8723C780.187 61.1062 780.107 61.3029 779.948 61.4624C779.799 61.6219 779.602 61.7017 779.358 61.7017ZM786.544 72.0055C785.715 72.0055 784.97 71.8248 784.311 71.4632C783.663 71.0911 783.152 70.586 782.78 69.948C782.408 69.2993 782.222 68.5603 782.222 67.7309C782.222 66.8908 782.408 66.1518 782.78 65.5138C783.152 64.8758 783.663 64.376 784.311 64.0145C784.97 63.6529 785.715 63.4722 786.544 63.4722C787.257 63.4722 787.9 63.6104 788.474 63.8869C789.048 64.1633 789.5 64.578 789.83 65.131L788.985 65.7052C788.697 65.2798 788.341 64.9662 787.916 64.7641C787.491 64.5621 787.028 64.4611 786.528 64.4611C785.933 64.4611 785.396 64.5993 784.917 64.8758C784.439 65.1416 784.061 65.5191 783.785 66.0082C783.508 66.4974 783.37 67.0716 783.37 67.7309C783.37 68.3901 783.508 68.9644 783.785 69.4535C784.061 69.9426 784.439 70.3254 784.917 70.6019C785.396 70.8677 785.933 71.0007 786.528 71.0007C787.028 71.0007 787.491 70.8996 787.916 70.6976C788.341 70.4956 788.697 70.1872 788.985 69.7725L789.83 70.3467C789.5 70.889 789.048 71.3037 788.474 71.5908C787.9 71.8673 787.257 72.0055 786.544 72.0055ZM797.302 71.9258V70.0756L797.254 69.7725V66.6782C797.254 65.9657 797.052 65.4181 796.648 65.0353C796.255 64.6525 795.665 64.4611 794.878 64.4611C794.335 64.4611 793.82 64.5515 793.331 64.7322C792.841 64.913 792.427 65.1522 792.087 65.45L791.576 64.6046C792.001 64.2431 792.512 63.9666 793.107 63.7752C793.703 63.5732 794.33 63.4722 794.989 63.4722C796.074 63.4722 796.909 63.7433 797.494 64.2856C798.089 64.8173 798.387 65.6308 798.387 66.726V71.9258H797.302ZM794.415 72.0055C793.788 72.0055 793.24 71.9045 792.772 71.7025C792.315 71.4898 791.964 71.2027 791.72 70.8412C791.475 70.469 791.353 70.0437 791.353 69.5651C791.353 69.1292 791.454 68.7357 791.656 68.3848C791.869 68.0233 792.209 67.7362 792.677 67.5235C793.155 67.3002 793.793 67.1886 794.591 67.1886H797.478V68.0339H794.623C793.814 68.0339 793.251 68.1775 792.932 68.4646C792.624 68.7517 792.469 69.1079 792.469 69.5332C792.469 70.0118 792.655 70.3946 793.028 70.6817C793.4 70.9688 793.921 71.1123 794.591 71.1123C795.229 71.1123 795.776 70.9688 796.234 70.6817C796.701 70.3839 797.042 69.9586 797.254 69.4056L797.51 70.1872C797.297 70.7401 796.925 71.1814 796.393 71.5111C795.872 71.8407 795.213 72.0055 794.415 72.0055ZM801.463 71.9258V60.0907H802.595V71.9258H801.463ZM810.16 71.9258V60.7606H814.706C815.897 60.7606 816.939 60.9999 817.832 61.4784C818.736 61.9462 819.438 62.6002 819.938 63.4403C820.437 64.2803 820.687 65.2479 820.687 66.3432C820.687 67.4384 820.437 68.4061 819.938 69.2461C819.438 70.0862 818.736 70.7455 817.832 71.224C816.939 71.6918 815.897 71.9258 814.706 71.9258H810.16ZM811.34 70.905H814.642C815.631 70.905 816.487 70.7136 817.21 70.3308C817.944 69.9373 818.513 69.4003 818.917 68.7198C819.321 68.0286 819.523 67.2364 819.523 66.3432C819.523 65.4393 819.321 64.6472 818.917 63.9666C818.513 63.2861 817.944 62.7544 817.21 62.3716C816.487 61.9781 815.631 61.7814 814.642 61.7814H811.34V70.905ZM823.098 71.9258V63.5519H824.183V65.8328L824.071 65.434C824.305 64.796 824.699 64.3122 825.252 63.9826C825.805 63.6423 826.49 63.4722 827.309 63.4722V64.5727C827.267 64.5727 827.224 64.5727 827.182 64.5727C827.139 64.5621 827.097 64.5568 827.054 64.5568C826.171 64.5568 825.48 64.8279 824.981 65.3702C824.481 65.9019 824.231 66.6622 824.231 67.6511V71.9258H823.098ZM829.376 71.9258V63.5519H830.508V71.9258H829.376ZM829.95 61.7017C829.716 61.7017 829.519 61.6219 829.36 61.4624C829.2 61.3029 829.12 61.1115 829.12 60.8882C829.12 60.6649 829.2 60.4788 829.36 60.33C829.519 60.1705 829.716 60.0907 829.95 60.0907C830.184 60.0907 830.381 60.1651 830.54 60.314C830.7 60.4629 830.779 60.649 830.779 60.8723C830.779 61.1062 830.7 61.3029 830.54 61.4624C830.391 61.6219 830.194 61.7017 829.95 61.7017ZM833.659 71.9258V60.0907H834.792V71.9258H833.659ZM837.943 71.9258V60.0907H839.075V71.9258H837.943Z" fill="white"/>
<rect x="162.706" y="1.77169" width="173.58" height="80.2399" stroke="white" stroke-width="0.818774"/>
<rect x="342.409" y="1.40939" width="173.181" height="80.1812" stroke="white" stroke-width="0.818774"/>
<rect x="522.148" y="1.77169" width="173.58" height="80.2399" stroke="white" stroke-width="0.818774"/>
<rect x="700.409" y="1.40939" width="173.181" height="80.1812" stroke="white" stroke-width="0.818774"/>
<g clipPath="url(#clip2_256_483)">
<path d="M323.55 32.3409C324.566 32.3057 325.581 32.2705 326.596 32.2354C326.813 33.0502 327.201 34.9614 326.543 37.2537C325.886 39.5401 324.542 40.953 323.926 41.5275C321.52 41.5978 319.113 41.6682 316.707 41.7385C318.99 38.6079 321.267 35.4715 323.55 32.3409Z" fill="white"/>
<path d="M310.146 44.9102H286.048C284.658 44.9102 283.39 45.473 282.48 46.3875C281.565 47.2962 281.001 48.5625 281.001 49.9519C281.001 52.7425 283.261 54.9996 286.048 54.9996H310.146C311.537 54.9996 312.804 54.4368 313.72 53.5222C314.636 52.6077 315.199 51.3472 315.199 49.9519C315.199 47.1672 312.934 44.9102 310.146 44.9102ZM287.733 51.74C286.759 51.74 285.972 50.9486 285.972 49.9754C285.972 49.0022 286.759 48.2166 287.733 48.2166C288.707 48.2166 289.493 49.0022 289.493 49.9754C289.493 50.9486 288.707 51.74 287.733 51.74ZM294.881 51.7166C293.907 51.7166 293.12 50.931 293.12 49.9578C293.12 48.9846 293.907 48.199 294.881 48.199C295.855 48.199 296.642 48.9846 296.642 49.9578C296.642 50.931 295.855 51.7166 294.881 51.7166ZM301.894 51.7576C300.92 51.7576 300.134 50.972 300.134 49.9988C300.134 49.0257 300.92 48.2401 301.894 48.2401C302.869 48.2401 303.655 49.0257 303.655 49.9988C303.655 50.972 302.869 51.7576 301.894 51.7576ZM309.095 51.7107C308.121 51.7107 307.335 50.9193 307.335 49.9461C307.335 48.9729 308.121 48.1873 309.095 48.1873C310.07 48.1873 310.856 48.9788 310.856 49.9461C310.856 50.9134 310.07 51.7107 309.095 51.7107Z" fill="white"/>
<path d="M309.652 41.4102H286.429V43.6555H309.652V41.4102Z" fill="white"/>
<path d="M307.688 25.7109C303.761 25.8106 299.829 25.9103 295.903 26.0099C295.598 28.1322 295.287 30.2603 294.976 32.3825L281.612 32.9336C281.671 35.8473 281.724 38.761 281.783 41.6746C291.548 41.6043 301.314 41.5339 311.08 41.4695L311.631 33.9185L307.688 25.7109ZM285.445 39.5876H284.048V35.7183H285.445V39.5876ZM288.508 39.5876H287.117V35.7183H288.508V39.5876ZM291.771 39.5876H290.38V35.7183H291.771V39.5876ZM301.461 33.6195H297.388L297.534 29.9261L301.461 28.5953V33.6195ZM303.797 38.7199C303.38 37.993 302.957 37.266 302.541 36.5391C302.535 33.8599 302.529 31.1866 302.529 28.5132L305.862 28.6715C306.76 30.483 307.658 32.2946 308.55 34.1061C308.398 35.6831 308.245 37.266 308.093 38.843C306.661 38.802 305.229 38.761 303.791 38.7199H303.797Z" fill="white"/>
<path d="M296.429 24.7604C297.473 22.8609 298.518 20.9673 299.563 19.0678C300.208 17.8953 301.247 16.9866 302.497 16.5059L316.77 10.9893L318.079 15.1693L311.342 18.5343C309.528 19.443 308.331 21.2487 308.208 23.2713L308.131 24.5435C304.234 24.6197 300.337 24.6959 296.435 24.7662L296.429 24.7604Z" fill="white"/>
<path d="M323.827 9.09594C323.733 8.99628 322.424 7.70066 320.587 8.06414C319.267 8.32795 318.198 9.34217 317.846 10.6788C319.883 17.4794 321.919 24.2858 323.956 31.0863L327.002 30.9808L323.827 9.09594ZM321.027 12.3555C320.44 12.3555 319.959 11.8807 319.959 11.2885C319.959 10.6964 320.434 10.2333 321.027 10.2333C321.62 10.2333 322.095 10.7081 322.095 11.2885C322.095 11.8689 321.62 12.3555 321.027 12.3555Z" fill="white"/>
</g>
<g clipPath="url(#clip3_256_483)">
<path d="M866 10.79H864.967V46.7983H866V10.79Z" fill="white"/>
<path d="M861.696 7V17.3948H858.84V18.3612H861.712V19.5871C861.712 20.2021 861.414 20.5189 860.819 20.5375C860.739 20.5415 860.659 20.5575 860.524 20.5775V25.9166C860.129 25.9765 859.802 26.0244 859.455 26.0764C859.187 25.5293 858.92 24.9862 858.633 24.4071C858.079 24.6747 857.548 24.9023 857.046 25.1818C856.874 25.2817 856.766 25.4973 856.627 25.661C856.663 25.697 856.695 25.7369 856.73 25.7769C854.975 26.5995 853.224 27.4261 851.469 28.2488C851.386 28.2887 851.214 28.3366 851.198 28.3047C850.967 27.9532 850.744 28.2208 850.54 28.3166C848.969 29.0434 847.401 29.7942 845.826 30.513C845.495 30.6648 845.339 30.8644 845.287 31.2278C845.199 31.8508 845.072 32.4738 844.9 33.0768C844.84 33.3004 844.657 33.5599 844.458 33.6678C843.564 34.159 842.643 34.5982 841.729 35.0535C841.602 35.1174 841.462 35.1573 841.255 35.2372C841.255 34.6262 841.287 34.0831 841.243 33.548C841.215 33.1846 841.167 32.7852 840.991 32.4777C840.409 31.4554 839.771 30.4691 839.145 29.4747C838.81 28.9436 838.315 28.6681 837.697 28.6641C835.974 28.6521 834.255 28.6521 832.536 28.6601C831.854 28.6641 831.495 29.0195 831.479 29.7063C831.459 30.5569 831.475 31.4115 831.471 32.2621C831.471 32.4418 831.451 32.6215 831.443 32.7852H826.05C826.05 31.9307 826.05 31.116 826.054 30.2974C826.054 30.0019 825.978 29.8341 825.583 29.9819V32.7972H825.077C825.077 31.7869 825.037 30.8005 825.093 29.8221C825.137 29.0235 824.834 28.4724 824.175 28.081C824.148 28.0691 824.112 28.073 824.056 28.0651C823.992 28.1649 823.92 28.2727 823.852 28.3765C824.355 28.8318 824.606 29.4055 824.606 30.0977V32.8371H822.257C822.273 33.1047 822.281 33.3124 822.293 33.5679H831.423C831.562 34.103 831.195 33.9912 830.956 33.9912C827.773 33.9952 824.586 33.9952 821.403 33.9952H820.821V39.1267H822.708V40.2089H844.254C844.063 39.6858 844.593 39.0628 843.831 38.6874C845.016 37.9327 846.201 37.2019 847.353 36.4232C847.664 36.2116 848.255 36.1916 848.135 35.5566C848.127 35.5287 848.227 35.4728 848.287 35.4368C849.447 34.6941 850.608 33.9553 851.872 33.1486C852.152 33.5999 852.487 33.9992 852.658 34.4585C852.846 34.9736 852.921 35.5447 852.985 36.0997C853.149 37.5254 854.078 38.2522 855.49 38.0086C855.693 37.9766 855.889 37.8968 856.088 37.8848C856.26 37.8768 856.463 37.8928 856.603 37.9766C857.736 38.6355 858.777 38.5277 859.718 37.6132C860.424 36.9344 860.843 36.0838 861.15 35.1693C861.325 34.6541 861.465 34.127 861.62 33.6039C861.636 33.6079 861.652 33.6119 861.664 33.6159V45.7517C861.457 45.7837 861.293 45.8076 861.106 45.8356V46.77H863.766V8.88887H863.79V7H861.696ZM835.635 32.0345H833.03V29.299H835.635V32.0345ZM837.314 35.3689C837.079 35.3969 836.839 35.3809 836.604 35.3809C836.385 35.3809 836.161 35.3969 835.942 35.3689C835.866 35.357 835.75 35.2252 835.75 35.1493C835.75 35.0734 835.87 34.9337 835.946 34.9297C836.401 34.9097 836.859 34.9097 837.318 34.9297C837.39 34.9337 837.509 35.0734 837.509 35.1533C837.509 35.2332 837.394 35.361 837.314 35.3689ZM836.428 34.0871V29.299C836.915 29.299 837.414 29.2351 837.888 29.323C838.167 29.3749 838.479 29.6145 838.642 29.8581C839.268 30.7925 839.875 31.743 840.409 32.7253C840.616 33.1007 840.612 33.5839 840.72 34.0871H836.428ZM858.107 25.4135C858.282 25.4494 858.509 25.661 858.545 25.8328C858.573 25.9645 858.342 26.1522 858.138 26.4398C857.935 26.1562 857.72 25.9845 857.72 25.8128C857.72 25.669 857.999 25.3935 858.107 25.4135ZM847.238 31.3676C848.57 30.8165 849.862 30.1616 851.162 29.5386C851.354 29.4468 851.661 29.4268 851.549 29.0634C851.541 29.0235 851.673 28.9196 851.757 28.8797C853.524 28.0491 855.291 27.2185 857.113 26.3639C857.253 26.6514 857.373 26.891 857.5 27.1586C853.807 29.0075 850.153 30.8365 846.456 32.6854C846.468 32.0345 846.615 31.6272 847.238 31.3676ZM855.765 29.6784C855.43 30.1616 854.9 30.3732 854.433 30.6687C854.385 30.7007 854.226 30.5569 854.034 30.4451C854.616 30.1496 855.083 29.914 855.554 29.6784C855.61 29.6504 855.673 29.6424 855.765 29.6784ZM848.53 34.4425C848.207 34.6302 847.94 35.1533 847.413 34.7939C847.361 34.762 847.182 34.9097 847.07 34.9816C845.307 36.1077 843.544 37.2339 841.777 38.356C841.638 38.4438 841.494 38.5277 841.255 38.6675C841.255 38.0645 841.239 37.5733 841.267 37.0861C841.275 36.9543 841.402 36.7746 841.526 36.7107C844.302 35.309 847.074 33.9034 849.874 32.5536C850.185 32.4059 850.668 32.6095 851.075 32.6495C851.075 32.7054 851.087 32.7653 851.091 32.8212C850.241 33.3643 849.403 33.9353 848.53 34.4425ZM851.673 32.4019C851.477 32.5057 851.095 32.2461 850.692 32.1183C851.677 31.6232 852.542 31.1719 853.428 30.7566C853.552 30.6967 853.751 30.8005 853.914 30.8285C853.922 30.8884 853.934 30.9483 853.942 31.0082C853.189 31.4834 852.459 31.9985 851.673 32.4019ZM853.468 36.1157C853.284 34.4505 853.212 34.2588 852.255 32.909C852.909 32.4897 853.56 32.0744 854.329 31.5792C854.465 32.298 854.64 32.945 854.704 33.5999C854.832 34.9536 855.051 36.2635 855.945 37.3576C854.744 37.9846 853.611 37.4016 853.468 36.1157ZM859.395 37.2938C858.621 38.0605 857.72 38.1603 856.95 37.5733C858.665 36.7187 859.993 35.4608 861.01 33.8515C860.731 35.1254 860.344 36.3473 859.395 37.2938ZM856.499 37.2618C855.733 36.4591 855.418 35.5087 855.263 34.4824C855.107 33.4441 854.956 32.4019 854.792 31.2917C855.151 31.0601 855.582 30.7606 856.036 30.501C856.332 30.3333 856.507 30.1376 856.463 29.7782C856.411 29.3469 856.627 29.1153 857.018 28.9316C858.003 28.4764 858.968 27.9692 859.945 27.486C860.105 27.4101 860.284 27.3622 860.544 27.2704V32.5017C860.727 32.5217 860.871 32.5376 861.078 32.5616C860.117 34.718 858.621 36.2754 856.499 37.2618Z" fill="white"/>
<path d="M833.457 28.2529V27.626H836.066V28.2529H833.457Z" fill="white"/>
<path d="M830.047 47.9601C830.019 47.7764 829.995 47.6127 829.971 47.425C829.811 47.417 829.664 47.409 829.48 47.401C829.456 47.5807 829.432 47.7445 829.405 47.9521H828.866C828.85 47.7844 828.83 47.6207 828.814 47.433H828.324C828.292 47.6087 828.26 47.7844 828.224 47.9761H827.733C827.713 47.8044 827.693 47.6406 827.666 47.433C827.506 47.421 827.346 47.413 827.151 47.397C827.123 47.5847 827.099 47.7485 827.071 47.9681C826.924 47.9761 826.768 47.9841 826.585 47.992C826.553 47.7964 826.529 47.6326 826.493 47.429C826.333 47.421 826.174 47.413 825.986 47.405C825.966 47.6047 825.95 47.7684 825.93 47.9681C825.755 47.9761 825.595 47.9841 825.408 47.992C825.38 47.7964 825.36 47.6326 825.332 47.437H824.834C824.81 47.6087 824.782 47.7724 824.754 47.9641H824.243C824.227 47.7844 824.211 47.6207 824.191 47.433H823.657C823.637 47.6087 823.621 47.7724 823.601 47.9641H823.095C823.067 47.7804 823.043 47.6127 823.015 47.425C822.855 47.417 822.708 47.409 822.528 47.401C822.504 47.5847 822.48 47.7445 822.452 47.9521H821.914C821.898 47.7804 821.882 47.6167 821.862 47.429H821.368C821.336 47.6047 821.308 47.7804 821.272 47.9721H820.781C820.757 47.8004 820.737 47.6366 820.709 47.429C820.554 47.417 820.394 47.409 820.203 47.397C820.167 47.6007 820.135 47.7764 820.099 47.9881C819.92 47.9681 819.756 47.9521 819.569 47.9321V47.3092C819.301 47.401 819.078 47.4769 818.851 47.5528C818.859 47.6007 818.867 47.6486 818.871 47.6965C818.723 47.6247 818.576 47.5568 818.524 47.5288C818.44 47.2493 818.428 47.0217 818.312 46.8819C818.252 46.81 818.009 46.8859 817.774 46.9019C817.726 46.842 817.618 46.7142 817.57 46.6503C817.642 46.3548 817.702 46.1231 817.778 45.8117C817.487 45.8476 817.343 45.8676 817.168 45.8875C817.12 45.7158 817.08 45.5561 817.032 45.3844C817.291 45.2446 817.73 45.2646 817.503 44.7534C817.371 44.7295 817.211 44.7015 816.988 44.6616C817.008 44.4859 817.032 44.3141 817.056 44.1025C817.227 44.1145 817.375 44.1225 817.515 44.1305C817.73 43.811 817.718 43.5594 817.275 43.4556C817.395 43.2559 817.483 43.1161 817.507 43.0722C817.774 43.0283 818.005 43.0562 818.093 42.9564C818.193 42.8406 818.169 42.617 818.093 42.3973C818.228 42.3015 818.364 42.2056 818.388 42.1857C818.683 42.2576 818.891 42.3734 819.038 42.3215C819.154 42.2815 819.194 42.0299 819.313 41.7704C819.345 41.7624 819.501 41.7185 819.676 41.6665C819.84 41.8982 819.76 42.4253 820.323 42.1537C820.338 42.0259 820.362 41.8622 820.386 41.6705C820.558 41.6625 820.721 41.6546 820.917 41.6466C820.937 41.8383 820.953 42.002 820.973 42.1897H821.495C821.519 42.018 821.539 41.8702 821.563 41.6745C821.715 41.6665 821.87 41.6586 822.066 41.6466C822.085 41.8383 822.101 41.998 822.125 42.1897H822.664C822.68 42.018 822.692 41.8542 822.712 41.6745H823.242C823.262 41.8422 823.282 41.99 823.306 42.1937C823.466 42.2016 823.621 42.2096 823.801 42.2176C823.825 42.0299 823.844 41.8822 823.868 41.6865C824.02 41.6745 824.183 41.6586 824.383 41.6426C824.407 41.8223 824.431 41.986 824.459 42.1977C824.606 42.2056 824.766 42.2176 824.957 42.2256C824.989 42.0339 825.013 41.8702 825.045 41.6785H825.548C825.564 41.8422 825.579 41.99 825.603 42.1897C825.759 42.2017 825.923 42.2176 826.118 42.2336C826.142 42.0459 826.166 41.8822 826.194 41.6785C826.345 41.6705 826.509 41.6625 826.696 41.6506C826.732 41.8383 826.76 41.998 826.796 42.1977C826.936 42.2056 827.083 42.2176 827.263 42.2256C827.295 42.0419 827.319 41.8822 827.354 41.6825C827.51 41.6705 827.674 41.6586 827.865 41.6466C827.889 41.8343 827.913 41.998 827.937 42.1937H828.447C828.471 42.0219 828.495 41.8622 828.523 41.6785H829.014C829.034 41.8343 829.058 41.994 829.085 42.1977C829.249 42.2056 829.409 42.2136 829.604 42.2256C829.628 42.0299 829.644 41.8702 829.668 41.6825H830.19C830.214 41.8502 830.238 42.014 830.266 42.2017H830.749C830.773 42.0299 830.797 41.8702 830.821 41.6825H831.355C831.371 41.8502 831.387 42.01 831.403 42.1937H831.929C831.953 42.018 831.969 41.8702 831.993 41.6745C832.145 41.6665 832.304 41.6625 832.496 41.6506C832.516 41.8422 832.536 42.002 832.556 42.1937H833.094C833.11 42.018 833.122 41.8542 833.138 41.6785H833.672C833.692 41.8502 833.708 41.998 833.728 42.1857H834.227C834.247 42.0299 834.267 41.8822 834.291 41.6905C834.442 41.6785 834.606 41.6625 834.805 41.6466C834.829 41.8263 834.853 41.99 834.881 42.2017C835.028 42.2096 835.192 42.2216 835.383 42.2296C835.415 42.0379 835.439 41.8742 835.471 41.6825H835.974C835.99 41.8422 836.01 41.99 836.03 42.1897C836.181 42.2017 836.345 42.2176 836.54 42.2336C836.564 42.0459 836.588 41.8822 836.616 41.6785C836.768 41.6705 836.927 41.6586 837.119 41.6506C837.154 41.8383 837.182 41.998 837.218 42.1977C837.354 42.2056 837.501 42.2176 837.681 42.2296C837.713 42.0459 837.741 41.8862 837.777 41.6865C837.928 41.6745 838.092 41.6625 838.283 41.6506C838.307 41.8383 838.327 42.002 838.355 42.1977H838.87C838.893 42.0299 838.917 41.8702 838.945 41.6825C839.097 41.6745 839.244 41.6665 839.428 41.6586C839.456 41.8343 839.48 41.994 839.512 42.2017C839.667 42.2136 839.827 42.2216 840.022 42.2336C840.046 42.0379 840.066 41.8782 840.09 41.6865H840.609C840.632 41.8502 840.66 42.014 840.688 42.2017H841.171C841.195 42.0379 841.219 41.8782 841.251 41.6825C841.418 41.6745 841.582 41.6665 841.777 41.6586C841.797 41.8502 841.809 42.014 841.829 42.2017H842.36C842.379 42.0219 842.399 41.8582 842.419 41.6785H842.922C842.942 41.8422 842.958 42.006 842.982 42.1977H843.516C843.532 42.0299 843.544 41.8702 843.56 41.6825H844.091C844.115 41.8582 844.138 42.022 844.162 42.2056H844.645C844.669 42.0299 844.693 41.8702 844.721 41.6865H845.251C845.267 41.8622 845.279 42.0259 845.295 42.2017H845.83C845.85 42.0259 845.87 41.8782 845.889 41.6945H846.4C846.416 41.8542 846.436 42.014 846.448 42.1577C846.895 42.3814 847.006 42.1058 847.078 41.7304C847.277 41.7903 847.449 41.8422 847.636 41.8942C847.597 42.0579 847.561 42.1857 847.525 42.3294C847.792 42.4532 848.043 42.7288 848.215 42.2056C848.402 42.3614 848.53 42.4652 848.677 42.585C848.594 42.7168 848.522 42.8246 848.382 43.0443C848.646 43.1361 848.873 43.216 849.096 43.2918C849.112 43.2599 849.128 43.2279 849.148 43.196C849.224 43.3438 849.296 43.4915 849.32 43.5354C849.16 43.811 849.044 44.0186 848.869 44.3301H849.559C849.571 44.5258 849.583 44.6935 849.595 44.8892C849.415 44.9171 849.256 44.9411 849.088 44.9651C848.925 45.3524 849.1 45.5361 849.507 45.5681C849.439 45.7797 849.383 45.9395 849.324 46.1271C849.172 46.0872 849.032 46.0553 848.885 46.0153C848.805 46.1591 848.733 46.2909 848.626 46.4865C848.741 46.5504 848.857 46.6143 848.993 46.6902C848.829 46.8739 848.717 46.9977 848.586 47.1455C848.466 47.0616 848.358 46.9857 848.239 46.8979C848.115 46.9817 847.987 47.0656 847.848 47.1614C847.896 47.2932 847.944 47.417 847.999 47.5687C847.836 47.6446 847.672 47.7245 847.601 47.7564C847.337 47.5807 847.138 47.4489 846.843 47.2533C846.815 47.5927 846.799 47.7524 846.783 47.9561C846.615 47.9721 846.452 47.9841 846.26 48.004C846.232 47.8123 846.205 47.6486 846.177 47.445H845.682C845.658 47.6087 845.634 47.7724 845.61 47.9641H845.092C845.076 47.7924 845.06 47.6247 845.044 47.437H844.513C844.493 47.6047 844.47 47.7684 844.446 47.9641H843.947C843.923 47.7804 843.899 47.6167 843.875 47.429C843.712 47.421 843.56 47.409 843.385 47.401C843.353 47.5967 843.325 47.7724 843.293 47.9721H842.774C842.754 47.7884 842.738 47.6247 842.715 47.437H842.224C842.196 47.6087 842.164 47.7844 842.132 47.9801H841.638C841.618 47.8123 841.594 47.6486 841.57 47.441C841.418 47.429 841.255 47.417 841.063 47.405C841.027 47.6047 840.999 47.7804 840.964 47.9761H840.485C840.457 47.8044 840.433 47.6446 840.401 47.441C840.246 47.433 840.086 47.421 839.895 47.409C839.875 47.6047 839.859 47.7684 839.839 47.9721C839.671 47.9841 839.508 47.992 839.32 48.004C839.292 47.8123 839.268 47.6486 839.24 47.4489H838.746C838.722 47.6167 838.698 47.7764 838.67 47.9721H838.152C838.136 47.7964 838.12 47.6326 838.104 47.441H837.573C837.553 47.6087 837.533 47.7724 837.505 47.9681H837.007C836.983 47.7884 836.959 47.6247 836.931 47.437C836.768 47.429 836.62 47.417 836.444 47.409C836.413 47.6047 836.381 47.7804 836.349 47.9761H835.826C835.806 47.7884 835.79 47.6247 835.77 47.437H835.28C835.248 47.6087 835.22 47.7844 835.184 47.9801H834.693C834.67 47.8123 834.65 47.6486 834.622 47.441C834.47 47.429 834.307 47.417 834.115 47.405C834.079 47.6047 834.051 47.7804 834.015 47.9761H833.537C833.509 47.8044 833.485 47.6406 833.453 47.437C833.293 47.429 833.134 47.421 832.942 47.409C832.923 47.6047 832.907 47.7684 832.887 47.9721C832.715 47.9801 832.556 47.992 832.364 48C832.336 47.8044 832.312 47.6406 832.284 47.445H831.786C831.762 47.6127 831.738 47.7764 831.71 47.9681H831.195C831.179 47.7924 831.164 47.6287 831.148 47.437H830.613C830.593 47.6087 830.573 47.7724 830.549 47.9681H830.047V47.9601ZM847.868 44.8013C847.86 44.1384 847.421 43.5993 846.767 43.4436C846.161 43.2998 845.511 43.5834 845.235 44.1824C845.096 44.4859 844.928 44.5577 844.621 44.5577C837.063 44.5498 829.504 44.5498 821.946 44.5577C821.667 44.5577 821.499 44.5098 821.368 44.2143C821.084 43.5834 820.43 43.2958 819.808 43.4516C819.162 43.6113 818.719 44.1704 818.719 44.8213C818.719 45.4602 819.142 46.0113 819.76 46.1751C820.426 46.3508 821.084 46.0792 821.372 45.4283C821.515 45.1048 821.703 45.0689 821.998 45.0689C829.54 45.0729 837.079 45.0769 844.621 45.0689C844.928 45.0689 845.096 45.1368 845.231 45.4443C845.507 46.0632 846.161 46.3388 846.807 46.183C847.449 46.0273 847.884 45.4682 847.876 44.8053L847.868 44.8013Z" fill="white"/>
<path d="M820.091 45.129C820.265 45.129 820.406 44.9878 820.406 44.8135C820.406 44.6393 820.265 44.498 820.091 44.498C819.917 44.498 819.776 44.6393 819.776 44.8135C819.776 44.9878 819.917 45.129 820.091 45.129Z" fill="white"/>
<path d="M846.44 45.1251C846.614 45.1251 846.755 44.9839 846.755 44.8096C846.755 44.6354 846.614 44.4941 846.44 44.4941C846.266 44.4941 846.125 44.6354 846.125 44.8096C846.125 44.9839 846.266 45.1251 846.44 45.1251Z" fill="white"/>
</g>
<defs>
<clipPath id="clip0_256_483">
<rect width="42" height="44" fill="white" transform="translate(645 7)"/>
</clipPath>
<clipPath id="clip1_256_483">
<rect width="53" height="39" fill="white" transform="translate(454 8)"/>
</clipPath>
<clipPath id="clip2_256_483">
<rect width="46" height="47" fill="white" transform="translate(281 8)"/>
</clipPath>
<clipPath id="clip3_256_483">
<rect width="49" height="41" fill="white" transform="translate(817 7)"/>
</clipPath>
</defs>
</svg>
