<svg width="321" height="47" viewBox="0 0 321 47" fill="none" xmlns="http://www.w3.org/2000/svg">
<rect x="1.29611" y="0.420129" width="90.1812" height="45.1812" stroke="white" stroke-width="0.818774"/>
<path d="M5.99172 13.5107H10.5217V24.0107H8.09172V15.4607H5.99172V13.5107ZM17.4007 17.4257C19.4257 17.4257 21.0157 18.7157 21.0157 20.6957C21.0157 22.8407 19.2607 24.1907 17.0407 24.1907C14.1457 24.1907 12.3457 22.3757 12.3457 18.9857C12.3457 15.3557 14.5357 13.3307 17.7007 13.3307C18.8107 13.3307 19.8907 13.5857 20.6257 14.0507L19.7257 15.8357C19.1407 15.4457 18.4657 15.3107 17.7607 15.3107C16.0057 15.3107 14.8807 16.3457 14.8057 18.3557C15.4207 17.7407 16.3057 17.4257 17.4007 17.4257ZM16.9057 22.3757C17.9407 22.3757 18.6607 21.7757 18.6607 20.8157C18.6607 19.8557 17.9557 19.2407 16.8757 19.2407C15.8107 19.2407 15.0607 19.9007 15.0607 20.8157C15.0607 21.7157 15.7357 22.3757 16.9057 22.3757Z" fill="#91CB00"/>
<path d="M10.5177 38.0767C9.93105 38.0767 9.38839 37.9814 8.88972 37.7907C8.39839 37.5927 7.96939 37.3177 7.60272 36.9657C7.24339 36.6137 6.96105 36.1994 6.75572 35.7227C6.55772 35.2461 6.45872 34.7254 6.45872 34.1607C6.45872 33.5961 6.55772 33.0754 6.75572 32.5987C6.96105 32.1221 7.24705 31.7077 7.61372 31.3557C7.98039 31.0037 8.40939 30.7324 8.90072 30.5417C9.39939 30.3437 9.94205 30.2447 10.5287 30.2447C11.1154 30.2447 11.6507 30.3364 12.1347 30.5197C12.6261 30.7031 13.0441 30.9817 13.3887 31.3557L12.8827 31.8727C12.5601 31.5501 12.2044 31.3191 11.8157 31.1797C11.4271 31.0404 11.0091 30.9707 10.5617 30.9707C10.0851 30.9707 9.64505 31.0514 9.24172 31.2127C8.84572 31.3667 8.49739 31.5904 8.19672 31.8837C7.90339 32.1697 7.67239 32.5071 7.50372 32.8957C7.34239 33.2771 7.26172 33.6987 7.26172 34.1607C7.26172 34.6154 7.34239 35.0371 7.50372 35.4257C7.67239 35.8144 7.90339 36.1554 8.19672 36.4487C8.49739 36.7347 8.84572 36.9584 9.24172 37.1197C9.64505 37.2737 10.0814 37.3507 10.5507 37.3507C10.9907 37.3507 11.4051 37.2847 11.7937 37.1527C12.1897 37.0207 12.5527 36.7971 12.8827 36.4817L13.3447 37.0977C12.9781 37.4204 12.5491 37.6661 12.0577 37.8347C11.5664 37.9961 11.0531 38.0767 10.5177 38.0767ZM12.5637 36.9987V34.1607H13.3447V37.0977L12.5637 36.9987ZM15.4835 38.0107V32.2357H16.2315V33.8087L16.1545 33.5337C16.3159 33.0937 16.5872 32.7601 16.9685 32.5327C17.3499 32.2981 17.8229 32.1807 18.3875 32.1807V32.9397C18.3582 32.9397 18.3289 32.9397 18.2995 32.9397C18.2702 32.9324 18.2409 32.9287 18.2115 32.9287C17.6029 32.9287 17.1262 33.1157 16.7815 33.4897C16.4369 33.8564 16.2645 34.3807 16.2645 35.0627V38.0107H15.4835ZM23.0019 38.0107V36.7347L22.9689 36.5257V34.3917C22.9689 33.9004 22.8296 33.5227 22.5509 33.2587C22.2796 32.9947 21.8726 32.8627 21.3299 32.8627C20.9559 32.8627 20.6003 32.9251 20.2629 33.0497C19.9256 33.1744 19.6396 33.3394 19.4049 33.5447L19.0529 32.9617C19.3463 32.7124 19.6983 32.5217 20.1089 32.3897C20.5196 32.2504 20.9523 32.1807 21.4069 32.1807C22.1549 32.1807 22.7306 32.3677 23.1339 32.7417C23.5446 33.1084 23.7499 33.6694 23.7499 34.4247V38.0107H23.0019ZM21.0109 38.0657C20.5783 38.0657 20.2006 37.9961 19.8779 37.8567C19.5626 37.7101 19.3206 37.5121 19.1519 37.2627C18.9833 37.0061 18.8989 36.7127 18.8989 36.3827C18.8989 36.0821 18.9686 35.8107 19.1079 35.5687C19.2546 35.3194 19.4893 35.1214 19.8119 34.9747C20.1419 34.8207 20.5819 34.7437 21.1319 34.7437H23.1229V35.3267H21.1539C20.5966 35.3267 20.2079 35.4257 19.9879 35.6237C19.7753 35.8217 19.6689 36.0674 19.6689 36.3607C19.6689 36.6907 19.7973 36.9547 20.0539 37.1527C20.3106 37.3507 20.6699 37.4497 21.1319 37.4497C21.5719 37.4497 21.9496 37.3507 22.2649 37.1527C22.5876 36.9474 22.8223 36.6541 22.9689 36.2727L23.1449 36.8117C22.9983 37.1931 22.7416 37.4974 22.3749 37.7247C22.0156 37.9521 21.5609 38.0657 21.0109 38.0657ZM28.8192 32.1807C29.2886 32.1807 29.6992 32.2724 30.0512 32.4557C30.4106 32.6317 30.6892 32.9031 30.8872 33.2697C31.0926 33.6364 31.1952 34.0984 31.1952 34.6557V38.0107H30.4142V34.7327C30.4142 34.1241 30.2602 33.6657 29.9522 33.3577C29.6516 33.0424 29.2262 32.8847 28.6762 32.8847C28.2656 32.8847 27.9062 32.9691 27.5982 33.1377C27.2976 33.2991 27.0629 33.5374 26.8942 33.8527C26.7329 34.1607 26.6522 34.5347 26.6522 34.9747V38.0107H25.8712V32.2357H26.6192V33.8197L26.4982 33.5227C26.6816 33.1047 26.9749 32.7784 27.3782 32.5437C27.7816 32.3017 28.2619 32.1807 28.8192 32.1807ZM33.3048 38.0107V32.2357H34.0858V38.0107H33.3048ZM33.7008 30.9597C33.5395 30.9597 33.4038 30.9047 33.2938 30.7947C33.1838 30.6847 33.1288 30.5527 33.1288 30.3987C33.1288 30.2447 33.1838 30.1164 33.2938 30.0137C33.4038 29.9037 33.5395 29.8487 33.7008 29.8487C33.8622 29.8487 33.9978 29.9001 34.1078 30.0027C34.2178 30.1054 34.2728 30.2337 34.2728 30.3877C34.2728 30.5491 34.2178 30.6847 34.1078 30.7947C34.0052 30.9047 33.8695 30.9597 33.7008 30.9597ZM38.0849 38.0657C37.5423 38.0657 37.1243 37.9191 36.8309 37.6257C36.5376 37.3324 36.3909 36.9181 36.3909 36.3827V30.9597H37.1719V36.3387C37.1719 36.6761 37.2563 36.9364 37.4249 37.1197C37.6009 37.3031 37.8503 37.3947 38.1729 37.3947C38.5176 37.3947 38.8036 37.2957 39.0309 37.0977L39.3059 37.6587C39.1519 37.7981 38.9649 37.9007 38.7449 37.9667C38.5323 38.0327 38.3123 38.0657 38.0849 38.0657ZM35.3569 32.8847V32.2357H38.9319V32.8847H35.3569ZM42.9766 38.0657C42.3752 38.0657 41.8472 37.9411 41.3926 37.6917C40.9379 37.4351 40.5822 37.0867 40.3256 36.6467C40.0689 36.1994 39.9406 35.6897 39.9406 35.1177C39.9406 34.5457 40.0616 34.0397 40.3036 33.5997C40.5529 33.1597 40.8902 32.8151 41.3156 32.5657C41.7482 32.3091 42.2322 32.1807 42.7676 32.1807C43.3102 32.1807 43.7906 32.3054 44.2086 32.5547C44.6339 32.7967 44.9676 33.1414 45.2096 33.5887C45.4516 34.0287 45.5726 34.5384 45.5726 35.1177C45.5726 35.1544 45.5689 35.1947 45.5616 35.2387C45.5616 35.2754 45.5616 35.3157 45.5616 35.3597H40.5346V34.7767H45.1436L44.8356 35.0077C44.8356 34.5897 44.7439 34.2194 44.5606 33.8967C44.3846 33.5667 44.1426 33.3101 43.8346 33.1267C43.5266 32.9434 43.1709 32.8517 42.7676 32.8517C42.3716 32.8517 42.0159 32.9434 41.7006 33.1267C41.3852 33.3101 41.1396 33.5667 40.9636 33.8967C40.7876 34.2267 40.6996 34.6044 40.6996 35.0297V35.1507C40.6996 35.5907 40.7949 35.9794 40.9856 36.3167C41.1836 36.6467 41.4549 36.9071 41.7996 37.0977C42.1516 37.2811 42.5512 37.3727 42.9986 37.3727C43.3506 37.3727 43.6769 37.3104 43.9776 37.1857C44.2856 37.0611 44.5496 36.8704 44.7696 36.6137L45.2096 37.1197C44.9529 37.4277 44.6302 37.6624 44.2416 37.8237C43.8602 37.9851 43.4386 38.0657 42.9766 38.0657ZM50.2061 38.0107V30.3107H50.8771L54.3971 36.3167H54.0451L57.5321 30.3107H58.2031V38.0107H57.4221V31.5317H57.6091L54.3971 37.0317H54.0121L50.7781 31.5317H50.9871V38.0107H50.2061ZM60.547 38.0107V32.2357H61.328V38.0107H60.547ZM60.943 30.9597C60.7817 30.9597 60.646 30.9047 60.536 30.7947C60.426 30.6847 60.371 30.5527 60.371 30.3987C60.371 30.2447 60.426 30.1164 60.536 30.0137C60.646 29.9037 60.7817 29.8487 60.943 29.8487C61.1043 29.8487 61.24 29.9001 61.35 30.0027C61.46 30.1054 61.515 30.2337 61.515 30.3877C61.515 30.5491 61.46 30.6847 61.35 30.7947C61.2473 30.9047 61.1117 30.9597 60.943 30.9597ZM66.4491 32.1807C66.9184 32.1807 67.3291 32.2724 67.6811 32.4557C68.0404 32.6317 68.3191 32.9031 68.5171 33.2697C68.7224 33.6364 68.8251 34.0984 68.8251 34.6557V38.0107H68.0441V34.7327C68.0441 34.1241 67.8901 33.6657 67.5821 33.3577C67.2814 33.0424 66.8561 32.8847 66.3061 32.8847C65.8954 32.8847 65.5361 32.9691 65.2281 33.1377C64.9274 33.2991 64.6928 33.5374 64.5241 33.8527C64.3628 34.1607 64.2821 34.5347 64.2821 34.9747V38.0107H63.5011V32.2357H64.2491V33.8197L64.1281 33.5227C64.3114 33.1047 64.6048 32.7784 65.0081 32.5437C65.4114 32.3017 65.8918 32.1807 66.4491 32.1807ZM73.3877 38.0657C72.7864 38.0657 72.2584 37.9411 71.8037 37.6917C71.349 37.4351 70.9934 37.0867 70.7367 36.6467C70.48 36.1994 70.3517 35.6897 70.3517 35.1177C70.3517 34.5457 70.4727 34.0397 70.7147 33.5997C70.964 33.1597 71.3014 32.8151 71.7267 32.5657C72.1594 32.3091 72.6434 32.1807 73.1787 32.1807C73.7214 32.1807 74.2017 32.3054 74.6197 32.5547C75.045 32.7967 75.3787 33.1414 75.6207 33.5887C75.8627 34.0287 75.9837 34.5384 75.9837 35.1177C75.9837 35.1544 75.98 35.1947 75.9727 35.2387C75.9727 35.2754 75.9727 35.3157 75.9727 35.3597H70.9457V34.7767H75.5547L75.2467 35.0077C75.2467 34.5897 75.155 34.2194 74.9717 33.8967C74.7957 33.5667 74.5537 33.3101 74.2457 33.1267C73.9377 32.9434 73.582 32.8517 73.1787 32.8517C72.7827 32.8517 72.427 32.9434 72.1117 33.1267C71.7964 33.3101 71.5507 33.5667 71.3747 33.8967C71.1987 34.2267 71.1107 34.6044 71.1107 35.0297V35.1507C71.1107 35.5907 71.206 35.9794 71.3967 36.3167C71.5947 36.6467 71.866 36.9071 72.2107 37.0977C72.5627 37.2811 72.9624 37.3727 73.4097 37.3727C73.7617 37.3727 74.088 37.3104 74.3887 37.1857C74.6967 37.0611 74.9607 36.8704 75.1807 36.6137L75.6207 37.1197C75.364 37.4277 75.0414 37.6624 74.6527 37.8237C74.2714 37.9851 73.8497 38.0657 73.3877 38.0657ZM79.1244 38.0657C78.6477 38.0657 78.1967 37.9997 77.7714 37.8677C77.346 37.7284 77.0124 37.5561 76.7704 37.3507L77.1224 36.7347C77.357 36.9107 77.6577 37.0647 78.0244 37.1967C78.391 37.3214 78.776 37.3837 79.1794 37.3837C79.7294 37.3837 80.1254 37.2994 80.3674 37.1307C80.6094 36.9547 80.7304 36.7237 80.7304 36.4377C80.7304 36.2251 80.6607 36.0601 80.5214 35.9427C80.3894 35.8181 80.2134 35.7264 79.9934 35.6677C79.7734 35.6017 79.5277 35.5467 79.2564 35.5027C78.985 35.4587 78.7137 35.4074 78.4424 35.3487C78.1784 35.2901 77.9364 35.2057 77.7164 35.0957C77.4964 34.9784 77.3167 34.8207 77.1774 34.6227C77.0454 34.4247 76.9794 34.1607 76.9794 33.8307C76.9794 33.5154 77.0674 33.2331 77.2434 32.9837C77.4194 32.7344 77.676 32.5401 78.0134 32.4007C78.358 32.2541 78.776 32.1807 79.2674 32.1807C79.6414 32.1807 80.0154 32.2321 80.3894 32.3347C80.7634 32.4301 81.0714 32.5584 81.3134 32.7197L80.9724 33.3467C80.7157 33.1707 80.4407 33.0461 80.1474 32.9727C79.854 32.8921 79.5607 32.8517 79.2674 32.8517C78.7467 32.8517 78.3617 32.9434 78.1124 33.1267C77.8704 33.3027 77.7494 33.5301 77.7494 33.8087C77.7494 34.0287 77.8154 34.2011 77.9474 34.3257C78.0867 34.4504 78.2664 34.5494 78.4864 34.6227C78.7137 34.6887 78.9594 34.7437 79.2234 34.7877C79.4947 34.8317 79.7624 34.8867 80.0264 34.9527C80.2977 35.0114 80.5434 35.0957 80.7634 35.2057C80.9907 35.3084 81.1704 35.4587 81.3024 35.6567C81.4417 35.8474 81.5114 36.1004 81.5114 36.4157C81.5114 36.7531 81.416 37.0464 81.2254 37.2957C81.042 37.5377 80.7707 37.7284 80.4114 37.8677C80.0594 37.9997 79.6304 38.0657 79.1244 38.0657Z" fill="white"/>
<rect x="115.296" y="0.420129" width="90.1812" height="45.1812" stroke="white" stroke-width="0.818774"/>
<path d="M125.377 17.7857C127.267 18.0857 128.227 19.2557 128.227 20.8007C128.227 22.5707 126.862 24.1907 123.877 24.1907C122.407 24.1907 120.892 23.7857 119.872 23.0657L120.817 21.2057C121.612 21.8057 122.722 22.1507 123.817 22.1507C125.032 22.1507 125.782 21.6557 125.782 20.8007C125.782 20.0057 125.197 19.5107 123.817 19.5107H122.707V17.9057L124.867 15.4607H120.397V13.5107H127.747V15.0857L125.377 17.7857Z" fill="#91CB00"/>
<path d="M124.507 38.0767C123.927 38.0767 123.388 37.9814 122.89 37.7907C122.398 37.5927 121.969 37.3177 121.603 36.9657C121.243 36.6064 120.961 36.1921 120.756 35.7227C120.558 35.2461 120.459 34.7254 120.459 34.1607C120.459 33.5961 120.558 33.0791 120.756 32.6097C120.961 32.1331 121.243 31.7187 121.603 31.3667C121.969 31.0074 122.398 30.7324 122.89 30.5417C123.381 30.3437 123.92 30.2447 124.507 30.2447C125.086 30.2447 125.621 30.3437 126.113 30.5417C126.604 30.7324 127.029 31.0037 127.389 31.3557C127.755 31.7077 128.038 32.1221 128.236 32.5987C128.441 33.0754 128.544 33.5961 128.544 34.1607C128.544 34.7254 128.441 35.2461 128.236 35.7227C128.038 36.1994 127.755 36.6137 127.389 36.9657C127.029 37.3177 126.604 37.5927 126.113 37.7907C125.621 37.9814 125.086 38.0767 124.507 38.0767ZM127.026 39.5397C126.791 39.5397 126.564 39.5104 126.344 39.4517C126.124 39.3931 125.9 39.2977 125.673 39.1657C125.453 39.0411 125.225 38.8761 124.991 38.6707C124.756 38.4654 124.499 38.2161 124.221 37.9227L125.112 37.7027C125.339 37.9741 125.559 38.1977 125.772 38.3737C125.992 38.5497 126.204 38.6781 126.41 38.7587C126.622 38.8467 126.831 38.8907 127.037 38.8907C127.609 38.8907 128.096 38.6561 128.5 38.1867L128.896 38.6597C128.412 39.2464 127.788 39.5397 127.026 39.5397ZM124.507 37.3507C124.969 37.3507 125.394 37.2737 125.783 37.1197C126.179 36.9584 126.52 36.7311 126.806 36.4377C127.099 36.1444 127.326 35.8071 127.488 35.4257C127.649 35.0371 127.73 34.6154 127.73 34.1607C127.73 33.6987 127.649 33.2771 127.488 32.8957C127.326 32.5071 127.099 32.1697 126.806 31.8837C126.52 31.5904 126.179 31.3667 125.783 31.2127C125.394 31.0514 124.969 30.9707 124.507 30.9707C124.045 30.9707 123.616 31.0514 123.22 31.2127C122.824 31.3667 122.479 31.5904 122.186 31.8837C121.9 32.1697 121.672 32.5071 121.504 32.8957C121.342 33.2771 121.262 33.6987 121.262 34.1607C121.262 34.6154 121.342 35.0371 121.504 35.4257C121.672 35.8071 121.9 36.1444 122.186 36.4377C122.479 36.7311 122.824 36.9584 123.22 37.1197C123.616 37.2737 124.045 37.3507 124.507 37.3507ZM132.59 38.0657C132.099 38.0657 131.67 37.9741 131.303 37.7907C130.937 37.6074 130.651 37.3324 130.445 36.9657C130.247 36.5991 130.148 36.1407 130.148 35.5907V32.2357H130.929V35.5027C130.929 36.1187 131.08 36.5844 131.38 36.8997C131.688 37.2077 132.117 37.3617 132.667 37.3617C133.071 37.3617 133.419 37.2811 133.712 37.1197C134.013 36.9511 134.24 36.7091 134.394 36.3937C134.556 36.0784 134.636 35.7007 134.636 35.2607V32.2357H135.417V38.0107H134.669V36.4267L134.79 36.7127C134.607 37.1381 134.321 37.4717 133.932 37.7137C133.551 37.9484 133.104 38.0657 132.59 38.0657ZM141.213 38.0107V36.7347L141.18 36.5257V34.3917C141.18 33.9004 141.041 33.5227 140.762 33.2587C140.491 32.9947 140.084 32.8627 139.541 32.8627C139.167 32.8627 138.811 32.9251 138.474 33.0497C138.137 33.1744 137.851 33.3394 137.616 33.5447L137.264 32.9617C137.557 32.7124 137.909 32.5217 138.32 32.3897C138.731 32.2504 139.163 32.1807 139.618 32.1807C140.366 32.1807 140.942 32.3677 141.345 32.7417C141.756 33.1084 141.961 33.6694 141.961 34.4247V38.0107H141.213ZM139.222 38.0657C138.789 38.0657 138.412 37.9961 138.089 37.8567C137.774 37.7101 137.532 37.5121 137.363 37.2627C137.194 37.0061 137.11 36.7127 137.11 36.3827C137.11 36.0821 137.18 35.8107 137.319 35.5687C137.466 35.3194 137.7 35.1214 138.023 34.9747C138.353 34.8207 138.793 34.7437 139.343 34.7437H141.334V35.3267H139.365C138.808 35.3267 138.419 35.4257 138.199 35.6237C137.986 35.8217 137.88 36.0674 137.88 36.3607C137.88 36.6907 138.008 36.9547 138.265 37.1527C138.522 37.3507 138.881 37.4497 139.343 37.4497C139.783 37.4497 140.161 37.3507 140.476 37.1527C140.799 36.9474 141.033 36.6541 141.18 36.2727L141.356 36.8117C141.209 37.1931 140.953 37.4974 140.586 37.7247C140.227 37.9521 139.772 38.0657 139.222 38.0657ZM144.082 38.0107V32.2357H144.83V33.8087L144.753 33.5337C144.914 33.0937 145.186 32.7601 145.567 32.5327C145.948 32.2981 146.421 32.1807 146.986 32.1807V32.9397C146.957 32.9397 146.927 32.9397 146.898 32.9397C146.869 32.9324 146.839 32.9287 146.81 32.9287C146.201 32.9287 145.725 33.1157 145.38 33.4897C145.035 33.8564 144.863 34.3807 144.863 35.0627V38.0107H144.082ZM150.484 38.0657C149.942 38.0657 149.524 37.9191 149.23 37.6257C148.937 37.3324 148.79 36.9181 148.79 36.3827V30.9597H149.571V36.3387C149.571 36.6761 149.656 36.9364 149.824 37.1197C150 37.3031 150.25 37.3947 150.572 37.3947C150.917 37.3947 151.203 37.2957 151.43 37.0977L151.705 37.6587C151.551 37.7981 151.364 37.9007 151.144 37.9667C150.932 38.0327 150.712 38.0657 150.484 38.0657ZM147.756 32.8847V32.2357H151.331V32.8847H147.756ZM152.5 38.0107V37.4937L156.35 32.6207L156.515 32.8847H152.566V32.2357H157.131V32.7417L153.292 37.6257L153.094 37.3617H157.208V38.0107H152.5ZM161.789 38.0107V30.3107H162.46L165.98 36.3167H165.628L169.115 30.3107H169.786V38.0107H169.005V31.5317H169.192L165.98 37.0317H165.595L162.361 31.5317H162.57V38.0107H161.789ZM172.13 38.0107V32.2357H172.911V38.0107H172.13ZM172.526 30.9597C172.365 30.9597 172.229 30.9047 172.119 30.7947C172.009 30.6847 171.954 30.5527 171.954 30.3987C171.954 30.2447 172.009 30.1164 172.119 30.0137C172.229 29.9037 172.365 29.8487 172.526 29.8487C172.687 29.8487 172.823 29.9001 172.933 30.0027C173.043 30.1054 173.098 30.2337 173.098 30.3877C173.098 30.5491 173.043 30.6847 172.933 30.7947C172.83 30.9047 172.695 30.9597 172.526 30.9597ZM178.032 32.1807C178.501 32.1807 178.912 32.2724 179.264 32.4557C179.623 32.6317 179.902 32.9031 180.1 33.2697C180.305 33.6364 180.408 34.0984 180.408 34.6557V38.0107H179.627V34.7327C179.627 34.1241 179.473 33.6657 179.165 33.3577C178.864 33.0424 178.439 32.8847 177.889 32.8847C177.478 32.8847 177.119 32.9691 176.811 33.1377C176.51 33.2991 176.276 33.5374 176.107 33.8527C175.946 34.1607 175.865 34.5347 175.865 34.9747V38.0107H175.084V32.2357H175.832V33.8197L175.711 33.5227C175.894 33.1047 176.188 32.7784 176.591 32.5437C176.994 32.3017 177.475 32.1807 178.032 32.1807ZM184.971 38.0657C184.369 38.0657 183.841 37.9411 183.387 37.6917C182.932 37.4351 182.576 37.0867 182.32 36.6467C182.063 36.1994 181.935 35.6897 181.935 35.1177C181.935 34.5457 182.056 34.0397 182.298 33.5997C182.547 33.1597 182.884 32.8151 183.31 32.5657C183.742 32.3091 184.226 32.1807 184.762 32.1807C185.304 32.1807 185.785 32.3054 186.203 32.5547C186.628 32.7967 186.962 33.1414 187.204 33.5887C187.446 34.0287 187.567 34.5384 187.567 35.1177C187.567 35.1544 187.563 35.1947 187.556 35.2387C187.556 35.2754 187.556 35.3157 187.556 35.3597H182.529V34.7767H187.138L186.83 35.0077C186.83 34.5897 186.738 34.2194 186.555 33.8967C186.379 33.5667 186.137 33.3101 185.829 33.1267C185.521 32.9434 185.165 32.8517 184.762 32.8517C184.366 32.8517 184.01 32.9434 183.695 33.1267C183.379 33.3101 183.134 33.5667 182.958 33.8967C182.782 34.2267 182.694 34.6044 182.694 35.0297V35.1507C182.694 35.5907 182.789 35.9794 182.98 36.3167C183.178 36.6467 183.449 36.9071 183.794 37.0977C184.146 37.2811 184.545 37.3727 184.993 37.3727C185.345 37.3727 185.671 37.3104 185.972 37.1857C186.28 37.0611 186.544 36.8704 186.764 36.6137L187.204 37.1197C186.947 37.4277 186.624 37.6624 186.236 37.8237C185.854 37.9851 185.433 38.0657 184.971 38.0657ZM190.707 38.0657C190.231 38.0657 189.78 37.9997 189.354 37.8677C188.929 37.7284 188.595 37.5561 188.353 37.3507L188.705 36.7347C188.94 36.9107 189.241 37.0647 189.607 37.1967C189.974 37.3214 190.359 37.3837 190.762 37.3837C191.312 37.3837 191.708 37.2994 191.95 37.1307C192.192 36.9547 192.313 36.7237 192.313 36.4377C192.313 36.2251 192.244 36.0601 192.104 35.9427C191.972 35.8181 191.796 35.7264 191.576 35.6677C191.356 35.6017 191.111 35.5467 190.839 35.5027C190.568 35.4587 190.297 35.4074 190.025 35.3487C189.761 35.2901 189.519 35.2057 189.299 35.0957C189.079 34.9784 188.9 34.8207 188.76 34.6227C188.628 34.4247 188.562 34.1607 188.562 33.8307C188.562 33.5154 188.65 33.2331 188.826 32.9837C189.002 32.7344 189.259 32.5401 189.596 32.4007C189.941 32.2541 190.359 32.1807 190.85 32.1807C191.224 32.1807 191.598 32.2321 191.972 32.3347C192.346 32.4301 192.654 32.5584 192.896 32.7197L192.555 33.3467C192.299 33.1707 192.024 33.0461 191.73 32.9727C191.437 32.8921 191.144 32.8517 190.85 32.8517C190.33 32.8517 189.945 32.9434 189.695 33.1267C189.453 33.3027 189.332 33.5301 189.332 33.8087C189.332 34.0287 189.398 34.2011 189.53 34.3257C189.67 34.4504 189.849 34.5494 190.069 34.6227C190.297 34.6887 190.542 34.7437 190.806 34.7877C191.078 34.8317 191.345 34.8867 191.609 34.9527C191.881 35.0114 192.126 35.0957 192.346 35.2057C192.574 35.3084 192.753 35.4587 192.885 35.6567C193.025 35.8474 193.094 36.1004 193.094 36.4157C193.094 36.7531 192.999 37.0464 192.808 37.2957C192.625 37.5377 192.354 37.7284 191.994 37.8677C191.642 37.9997 191.213 38.0657 190.707 38.0657Z" fill="white"/>
<rect x="230.296" y="0.420129" width="90.1812" height="45.1812" stroke="white" stroke-width="0.818774"/>
<path d="M238.679 12.5107H243.209V23.0107H240.779V14.4607H238.679V12.5107Z" fill="#91CB00"/>
<path d="M239.828 37.0107V29.3107H240.499L244.019 35.3167H243.667L247.154 29.3107H247.825V37.0107H247.044V30.5317H247.231L244.019 36.0317H243.634L240.4 30.5317H240.609V37.0107H239.828ZM253.788 37.0107V35.7347L253.755 35.5257V33.3917C253.755 32.9004 253.616 32.5227 253.337 32.2587C253.066 31.9947 252.659 31.8627 252.116 31.8627C251.742 31.8627 251.386 31.9251 251.049 32.0497C250.712 32.1744 250.426 32.3394 250.191 32.5447L249.839 31.9617C250.132 31.7124 250.484 31.5217 250.895 31.3897C251.306 31.2504 251.738 31.1807 252.193 31.1807C252.941 31.1807 253.517 31.3677 253.92 31.7417C254.331 32.1084 254.536 32.6694 254.536 33.4247V37.0107H253.788ZM251.797 37.0657C251.364 37.0657 250.987 36.9961 250.664 36.8567C250.349 36.7101 250.107 36.5121 249.938 36.2627C249.769 36.0061 249.685 35.7127 249.685 35.3827C249.685 35.0821 249.755 34.8107 249.894 34.5687C250.041 34.3194 250.275 34.1214 250.598 33.9747C250.928 33.8207 251.368 33.7437 251.918 33.7437H253.909V34.3267H251.94C251.383 34.3267 250.994 34.4257 250.774 34.6237C250.561 34.8217 250.455 35.0674 250.455 35.3607C250.455 35.6907 250.583 35.9547 250.84 36.1527C251.097 36.3507 251.456 36.4497 251.918 36.4497C252.358 36.4497 252.736 36.3507 253.051 36.1527C253.374 35.9474 253.608 35.6541 253.755 35.2727L253.931 35.8117C253.784 36.1931 253.528 36.4974 253.161 36.7247C252.802 36.9521 252.347 37.0657 251.797 37.0657ZM256.657 37.0107V31.2357H257.405V32.8087L257.328 32.5337C257.49 32.0937 257.761 31.7601 258.142 31.5327C258.524 31.2981 258.997 31.1807 259.561 31.1807V31.9397C259.532 31.9397 259.503 31.9397 259.473 31.9397C259.444 31.9324 259.415 31.9287 259.385 31.9287C258.777 31.9287 258.3 32.1157 257.955 32.4897C257.611 32.8564 257.438 33.3807 257.438 34.0627V37.0107H256.657ZM263.967 37.0657C263.461 37.0657 263.007 36.9521 262.603 36.7247C262.2 36.4901 261.881 36.1527 261.646 35.7127C261.412 35.2727 261.294 34.7411 261.294 34.1177C261.294 33.4871 261.412 32.9554 261.646 32.5227C261.888 32.0827 262.211 31.7491 262.614 31.5217C263.018 31.2944 263.469 31.1807 263.967 31.1807C264.517 31.1807 265.009 31.3054 265.441 31.5547C265.881 31.7967 266.226 32.1377 266.475 32.5777C266.725 33.0177 266.849 33.5311 266.849 34.1177C266.849 34.6971 266.725 35.2104 266.475 35.6577C266.226 36.0977 265.881 36.4424 265.441 36.6917C265.009 36.9411 264.517 37.0657 263.967 37.0657ZM260.986 37.0107V28.8487H261.767V32.9407L261.657 34.1067L261.734 35.2727V37.0107H260.986ZM263.912 36.3727C264.323 36.3727 264.69 36.2811 265.012 36.0977C265.335 35.9071 265.592 35.6431 265.782 35.3057C265.973 34.9611 266.068 34.5651 266.068 34.1177C266.068 33.6631 265.973 33.2671 265.782 32.9297C265.592 32.5924 265.335 32.3321 265.012 32.1487C264.69 31.9581 264.323 31.8627 263.912 31.8627C263.502 31.8627 263.131 31.9581 262.801 32.1487C262.479 32.3321 262.222 32.5924 262.031 32.9297C261.848 33.2671 261.756 33.6631 261.756 34.1177C261.756 34.5651 261.848 34.9611 262.031 35.3057C262.222 35.6431 262.479 35.9071 262.801 36.0977C263.131 36.2811 263.502 36.3727 263.912 36.3727ZM268.442 37.0107V28.8487H269.223V37.0107H268.442ZM273.849 37.0657C273.247 37.0657 272.719 36.9411 272.265 36.6917C271.81 36.4351 271.454 36.0867 271.198 35.6467C270.941 35.1994 270.813 34.6897 270.813 34.1177C270.813 33.5457 270.934 33.0397 271.176 32.5997C271.425 32.1597 271.762 31.8151 272.188 31.5657C272.62 31.3091 273.104 31.1807 273.64 31.1807C274.182 31.1807 274.663 31.3054 275.081 31.5547C275.506 31.7967 275.84 32.1414 276.082 32.5887C276.324 33.0287 276.445 33.5384 276.445 34.1177C276.445 34.1544 276.441 34.1947 276.434 34.2387C276.434 34.2754 276.434 34.3157 276.434 34.3597H271.407V33.7767H276.016L275.708 34.0077C275.708 33.5897 275.616 33.2194 275.433 32.8967C275.257 32.5667 275.015 32.3101 274.707 32.1267C274.399 31.9434 274.043 31.8517 273.64 31.8517C273.244 31.8517 272.888 31.9434 272.573 32.1267C272.257 32.3101 272.012 32.5667 271.836 32.8967C271.66 33.2267 271.572 33.6044 271.572 34.0297V34.1507C271.572 34.5907 271.667 34.9794 271.858 35.3167C272.056 35.6467 272.327 35.9071 272.672 36.0977C273.024 36.2811 273.423 36.3727 273.871 36.3727C274.223 36.3727 274.549 36.3104 274.85 36.1857C275.158 36.0611 275.422 35.8704 275.642 35.6137L276.082 36.1197C275.825 36.4277 275.502 36.6624 275.114 36.8237C274.732 36.9851 274.311 37.0657 273.849 37.0657ZM281.078 37.0107V29.3107H281.749L285.269 35.3167H284.917L288.404 29.3107H289.075V37.0107H288.294V30.5317H288.481L285.269 36.0317H284.884L281.65 30.5317H281.859V37.0107H281.078ZM291.419 37.0107V31.2357H292.2V37.0107H291.419ZM291.815 29.9597C291.654 29.9597 291.518 29.9047 291.408 29.7947C291.298 29.6847 291.243 29.5527 291.243 29.3987C291.243 29.2447 291.298 29.1164 291.408 29.0137C291.518 28.9037 291.654 28.8487 291.815 28.8487C291.976 28.8487 292.112 28.9001 292.222 29.0027C292.332 29.1054 292.387 29.2337 292.387 29.3877C292.387 29.5491 292.332 29.6847 292.222 29.7947C292.119 29.9047 291.984 29.9597 291.815 29.9597ZM297.321 31.1807C297.791 31.1807 298.201 31.2724 298.553 31.4557C298.913 31.6317 299.191 31.9031 299.389 32.2697C299.595 32.6364 299.697 33.0984 299.697 33.6557V37.0107H298.916V33.7327C298.916 33.1241 298.762 32.6657 298.454 32.3577C298.154 32.0424 297.728 31.8847 297.178 31.8847C296.768 31.8847 296.408 31.9691 296.1 32.1377C295.8 32.2991 295.565 32.5374 295.396 32.8527C295.235 33.1607 295.154 33.5347 295.154 33.9747V37.0107H294.373V31.2357H295.121V32.8197L295 32.5227C295.184 32.1047 295.477 31.7784 295.88 31.5437C296.284 31.3017 296.764 31.1807 297.321 31.1807ZM304.26 37.0657C303.658 37.0657 303.13 36.9411 302.676 36.6917C302.221 36.4351 301.865 36.0867 301.609 35.6467C301.352 35.1994 301.224 34.6897 301.224 34.1177C301.224 33.5457 301.345 33.0397 301.587 32.5997C301.836 32.1597 302.173 31.8151 302.599 31.5657C303.031 31.3091 303.515 31.1807 304.051 31.1807C304.593 31.1807 305.074 31.3054 305.492 31.5547C305.917 31.7967 306.251 32.1414 306.493 32.5887C306.735 33.0287 306.856 33.5384 306.856 34.1177C306.856 34.1544 306.852 34.1947 306.845 34.2387C306.845 34.2754 306.845 34.3157 306.845 34.3597H301.818V33.7767H306.427L306.119 34.0077C306.119 33.5897 306.027 33.2194 305.844 32.8967C305.668 32.5667 305.426 32.3101 305.118 32.1267C304.81 31.9434 304.454 31.8517 304.051 31.8517C303.655 31.8517 303.299 31.9434 302.984 32.1267C302.668 32.3101 302.423 32.5667 302.247 32.8967C302.071 33.2267 301.983 33.6044 301.983 34.0297V34.1507C301.983 34.5907 302.078 34.9794 302.269 35.3167C302.467 35.6467 302.738 35.9071 303.083 36.0977C303.435 36.2811 303.834 36.3727 304.282 36.3727C304.634 36.3727 304.96 36.3104 305.261 36.1857C305.569 36.0611 305.833 35.8704 306.053 35.6137L306.493 36.1197C306.236 36.4277 305.913 36.6624 305.525 36.8237C305.143 36.9851 304.722 37.0657 304.26 37.0657Z" fill="white"/>
<path d="M102.412 26.2257V19.2957H104.347V26.2257H102.412ZM99.8167 23.6757V21.8457H106.957V23.6757H99.8167Z" fill="white"/>
<path d="M216.412 26.2257V19.2957H218.347V26.2257H216.412ZM213.817 23.6757V21.8457H220.957V23.6757H213.817Z" fill="white"/>
<g clipPath="url(#clip0_256_609)">
<path d="M197.141 8.77539C197.431 9.69242 197.72 10.6068 198.01 11.5239C198.862 11.7623 199.716 11.9981 200.568 12.2365C200.434 11.157 200.303 10.0776 200.169 9.00072C199.161 8.92474 198.149 8.85137 197.141 8.77539Z" fill="white"/>
<path d="M189.997 18.3178C189.331 16.7405 188.666 15.1632 188 13.5859C188.744 13.599 189.486 13.6148 190.23 13.6279C190.568 15.1973 190.906 16.7667 191.244 18.3335L189.997 18.3152V18.3178Z" fill="white"/>
<path d="M191.664 18.2596L190.59 13.4805C191.339 13.0115 192.089 12.5452 192.838 12.0762C192.838 14.1356 192.835 16.1976 192.833 18.2569H191.664V18.2596Z" fill="white"/>
<path d="M189.559 10.6699C189.056 11.5005 188.55 12.3311 188.047 13.1642C188.788 13.1852 189.53 13.2088 190.271 13.2297C190.94 12.8105 191.608 12.3913 192.276 11.9721C191.369 11.5372 190.465 11.1049 189.559 10.6699Z" fill="white"/>
<path d="M193.149 15.5904C193.159 16.476 193.17 17.359 193.18 18.2446L197.537 11.6027C197.27 10.7197 197.003 9.83676 196.738 8.95117C195.541 11.1651 194.346 13.3765 193.149 15.5904Z" fill="white"/>
<path d="M193.675 18.2646C194.4 18.2593 195.124 18.2541 195.849 18.2462C197.358 16.3964 198.87 14.544 200.379 12.6943C199.562 12.4296 198.744 12.165 197.927 11.9004C196.51 14.0227 195.092 16.1423 193.672 18.2646H193.675Z" fill="white"/>
<path d="M194.84 6.33845C194.261 6.86771 193.684 7.39697 193.105 7.92622L191.035 7.05636L192.607 5.0127C193.352 5.45549 194.096 5.89566 194.84 6.33845Z" fill="white"/>
<path d="M193.152 14.728L193.336 8.32188C193.889 7.79 194.444 7.25813 194.997 6.72363C194.963 8.34022 194.926 9.95681 194.892 11.5734C194.313 12.624 193.734 13.6773 193.155 14.728H193.152Z" fill="white"/>
<path d="M192.823 11.9404C192.197 11.6155 191.568 11.2906 190.942 10.9657C190.955 9.80767 190.968 8.65221 190.984 7.49414L192.844 8.34829C192.836 9.54566 192.831 10.7457 192.823 11.943V11.9404Z" fill="white"/>
<path d="M200.144 18.8994H186.629V21.0322H200.144V18.8994Z" fill="white"/>
</g>
<g clipPath="url(#clip1_256_609)">
<path d="M302.556 7.64536C301.894 7.92033 301.293 7.97204 300.887 7.96969V6.84863C300.887 5.83332 301.722 5.01074 302.754 5.01074H305.036C304.828 5.57715 304.368 6.48434 303.413 7.16826C303.019 7.45029 302.653 7.60775 302.556 7.64536Z" fill="white"/>
<path d="M303.508 9.21087C303.472 9.18502 303.465 9.14977 303.465 9.12391C303.465 9.10746 303.472 9.04871 303.532 9.01815C303.792 8.88419 304.04 8.72437 304.272 8.54576C304.429 8.41884 304.582 8.28253 304.723 8.13682C304.745 8.11331 304.776 8.10156 304.804 8.10156C304.814 8.10156 304.828 8.10156 304.838 8.10626C304.94 8.13917 305.014 8.18852 305.057 8.24963C305.177 8.4306 305.115 8.85129 304.702 9.13567C304.291 9.38244 303.823 9.41064 303.505 9.21087H303.508Z" fill="white"/>
<path d="M313.758 5.01114H311.585L313.037 5.80787C313.485 6.05464 313.705 6.6281 313.559 7.17336C313.426 7.65985 313.039 7.97479 312.604 7.97479C312.557 7.97479 312.509 7.97244 312.459 7.96538L308.443 7.29792C308.333 7.27912 308.219 7.30497 308.126 7.37313L307.875 7.54469C307.596 7.73741 307.249 7.76326 306.951 7.6105L306.662 7.46478C306.282 7.27442 306.048 6.84432 306.068 6.37428L306.118 5.01114H305.592C305.397 5.6128 304.895 6.74561 303.725 7.58465C302.637 8.36022 301.527 8.49419 300.891 8.49419H300.887V10.6329L304.165 10.2334C304.688 10.1699 305.179 10.0077 305.633 9.74686L307.163 8.87023C307.639 8.5976 308.204 8.48479 308.756 8.54589L309.014 8.57645C309.665 8.654 310.303 8.87728 310.852 9.22981L310.986 9.31442C311.253 9.48364 311.559 9.57295 311.874 9.57765C312.662 9.5847 313.409 9.26506 313.913 8.69396L315.46 6.94773L315.627 7.0864V6.84667C315.627 5.83137 314.791 5.00879 313.76 5.00879L313.758 5.01114ZM304.988 9.56589C304.664 9.76096 304.32 9.85967 303.995 9.85967C303.716 9.85967 303.451 9.78682 303.226 9.64345C303.035 9.52124 302.93 9.31677 302.942 9.0982C302.954 8.87258 303.088 8.66811 303.293 8.56234C303.522 8.44483 303.742 8.30382 303.945 8.144C304.084 8.03354 304.22 7.90898 304.344 7.78207C304.511 7.60815 304.766 7.54234 304.996 7.61755C305.213 7.68336 305.385 7.80557 305.492 7.96774C305.769 8.37903 305.655 9.10995 304.986 9.56589H304.988ZM312.81 6.34372L310.551 5.1028L310.589 5.01114H306.633L306.583 6.40013C306.574 6.62575 306.686 6.83022 306.867 6.92188L307.156 7.0676C307.299 7.14045 307.464 7.12635 307.6 7.03469L307.851 6.86312C308.047 6.72681 308.286 6.67276 308.515 6.71036L312.53 7.37548C312.762 7.41073 312.986 7.25561 313.058 6.99474C313.13 6.73621 313.025 6.45888 312.807 6.34137L312.81 6.34372ZM308.099 11.5636C308.099 11.5636 308.092 11.5448 308.08 11.5448L306.688 11.5753C306.13 11.5894 305.576 11.7422 305.093 12.0172L304.093 12.5883C303.895 12.7011 303.699 12.8257 303.508 12.9549L303.152 13.2017L303.408 13.3028C303.893 13.4955 304.418 13.5331 304.924 13.4156L305.898 13.1923C306.139 13.1359 306.387 13.1147 306.638 13.1312C307.054 13.1547 307.464 12.9949 307.748 12.6894C308.032 12.3838 308.161 11.9749 308.099 11.5636ZM312.382 11.6271C312.366 11.5965 312.325 11.5236 312.222 11.5166L311.692 11.4837C311.389 11.4625 311.108 11.6059 310.945 11.8668C310.785 12.1253 310.785 12.4355 310.945 12.6941L311.084 12.9197C311.115 12.9714 311.17 13.0019 311.229 13.0066C311.289 13.0137 311.346 12.9878 311.387 12.9432L312.351 11.8174C312.418 11.7399 312.397 11.6576 312.382 11.6271ZM308.099 11.5636C308.099 11.5636 308.092 11.5448 308.08 11.5448L306.688 11.5753C306.13 11.5894 305.576 11.7422 305.093 12.0172L304.093 12.5883C303.895 12.7011 303.699 12.8257 303.508 12.9549L303.152 13.2017L303.408 13.3028C303.893 13.4955 304.418 13.5331 304.924 13.4156L305.898 13.1923C306.139 13.1359 306.387 13.1147 306.638 13.1312C307.054 13.1547 307.464 12.9949 307.748 12.6894C308.032 12.3838 308.161 11.9749 308.099 11.5636ZM312.382 11.6271C312.366 11.5965 312.325 11.5236 312.222 11.5166L311.692 11.4837C311.389 11.4625 311.108 11.6059 310.945 11.8668C310.785 12.1253 310.785 12.4355 310.945 12.6941L311.084 12.9197C311.115 12.9714 311.17 13.0019 311.229 13.0066C311.289 13.0137 311.346 12.9878 311.387 12.9432L312.351 11.8174C312.418 11.7399 312.397 11.6576 312.382 11.6271ZM308.099 11.5636C308.099 11.5636 308.092 11.5448 308.08 11.5448L306.688 11.5753C306.13 11.5894 305.576 11.7422 305.093 12.0172L304.093 12.5883C303.895 12.7011 303.699 12.8257 303.508 12.9549L303.152 13.2017L303.408 13.3028C303.893 13.4955 304.418 13.5331 304.924 13.4156L305.898 13.1923C306.139 13.1359 306.387 13.1147 306.638 13.1312C307.054 13.1547 307.464 12.9949 307.748 12.6894C308.032 12.3838 308.161 11.9749 308.099 11.5636ZM312.382 11.6271C312.366 11.5965 312.325 11.5236 312.222 11.5166L311.692 11.4837C311.389 11.4625 311.108 11.6059 310.945 11.8668C310.785 12.1253 310.785 12.4355 310.945 12.6941L311.084 12.9197C311.115 12.9714 311.17 13.0019 311.229 13.0066C311.289 13.0137 311.346 12.9878 311.387 12.9432L312.351 11.8174C312.418 11.7399 312.397 11.6576 312.382 11.6271ZM308.099 11.5636C308.099 11.5636 308.092 11.5448 308.08 11.5448L306.688 11.5753C306.13 11.5894 305.576 11.7422 305.093 12.0172L304.093 12.5883C303.895 12.7011 303.699 12.8257 303.508 12.9549L303.152 13.2017L303.408 13.3028C303.893 13.4955 304.418 13.5331 304.924 13.4156L305.898 13.1923C306.139 13.1359 306.387 13.1147 306.638 13.1312C307.054 13.1547 307.464 12.9949 307.748 12.6894C308.032 12.3838 308.161 11.9749 308.099 11.5636ZM312.382 11.6271C312.366 11.5965 312.325 11.5236 312.222 11.5166L311.692 11.4837C311.389 11.4625 311.108 11.6059 310.945 11.8668C310.785 12.1253 310.785 12.4355 310.945 12.6941L311.084 12.9197C311.115 12.9714 311.17 13.0019 311.229 13.0066C311.289 13.0137 311.346 12.9878 311.387 12.9432L312.351 11.8174C312.418 11.7399 312.397 11.6576 312.382 11.6271ZM308.099 11.5636C308.099 11.5636 308.092 11.5448 308.08 11.5448L306.688 11.5753C306.13 11.5894 305.576 11.7422 305.093 12.0172L304.093 12.5883C303.895 12.7011 303.699 12.8257 303.508 12.9549L303.152 13.2017L303.408 13.3028C303.893 13.4955 304.418 13.5331 304.924 13.4156L305.898 13.1923C306.139 13.1359 306.387 13.1147 306.638 13.1312C307.054 13.1547 307.464 12.9949 307.748 12.6894C308.032 12.3838 308.161 11.9749 308.099 11.5636ZM312.382 11.6271C312.366 11.5965 312.325 11.5236 312.222 11.5166L311.692 11.4837C311.389 11.4625 311.108 11.6059 310.945 11.8668C310.785 12.1253 310.785 12.4355 310.945 12.6941L311.084 12.9197C311.115 12.9714 311.17 13.0019 311.229 13.0066C311.289 13.0137 311.346 12.9878 311.387 12.9432L312.351 11.8174C312.418 11.7399 312.397 11.6576 312.382 11.6271ZM308.099 11.5636C308.099 11.5636 308.092 11.5448 308.08 11.5448L306.688 11.5753C306.13 11.5894 305.576 11.7422 305.093 12.0172L304.093 12.5883C303.895 12.7011 303.699 12.8257 303.508 12.9549L303.152 13.2017L303.408 13.3028C303.893 13.4955 304.418 13.5331 304.924 13.4156L305.898 13.1923C306.139 13.1359 306.387 13.1147 306.638 13.1312C307.054 13.1547 307.464 12.9949 307.748 12.6894C308.032 12.3838 308.161 11.9749 308.099 11.5636ZM312.382 11.6271C312.366 11.5965 312.325 11.5236 312.222 11.5166L311.692 11.4837C311.389 11.4625 311.108 11.6059 310.945 11.8668C310.785 12.1253 310.785 12.4355 310.945 12.6941L311.084 12.9197C311.115 12.9714 311.17 13.0019 311.229 13.0066C311.289 13.0137 311.346 12.9878 311.387 12.9432L312.351 11.8174C312.418 11.7399 312.397 11.6576 312.382 11.6271ZM308.099 11.5636C308.099 11.5636 308.092 11.5448 308.08 11.5448L306.688 11.5753C306.13 11.5894 305.576 11.7422 305.093 12.0172L304.093 12.5883C303.895 12.7011 303.699 12.8257 303.508 12.9549L303.152 13.2017L303.408 13.3028C303.893 13.4955 304.418 13.5331 304.924 13.4156L305.898 13.1923C306.139 13.1359 306.387 13.1147 306.638 13.1312C307.054 13.1547 307.464 12.9949 307.748 12.6894C308.032 12.3838 308.161 11.9749 308.099 11.5636ZM312.382 11.6271C312.366 11.5965 312.325 11.5236 312.222 11.5166L311.692 11.4837C311.389 11.4625 311.108 11.6059 310.945 11.8668C310.785 12.1253 310.785 12.4355 310.945 12.6941L311.084 12.9197C311.115 12.9714 311.17 13.0019 311.229 13.0066C311.289 13.0137 311.346 12.9878 311.387 12.9432L312.351 11.8174C312.418 11.7399 312.397 11.6576 312.382 11.6271ZM312.382 11.6271C312.366 11.5965 312.325 11.5236 312.222 11.5166L311.692 11.4837C311.389 11.4625 311.108 11.6059 310.945 11.8668C310.785 12.1253 310.785 12.4355 310.945 12.6941L311.084 12.9197C311.115 12.9714 311.17 13.0019 311.229 13.0066C311.289 13.0137 311.346 12.9878 311.387 12.9432L312.351 11.8174C312.418 11.7399 312.397 11.6576 312.382 11.6271ZM308.099 11.5636C308.099 11.5636 308.092 11.5448 308.08 11.5448L306.688 11.5753C306.13 11.5894 305.576 11.7422 305.093 12.0172L304.093 12.5883C303.895 12.7011 303.699 12.8257 303.508 12.9549L303.152 13.2017L303.408 13.3028C303.893 13.4955 304.418 13.5331 304.924 13.4156L305.898 13.1923C306.139 13.1359 306.387 13.1147 306.638 13.1312C307.054 13.1547 307.464 12.9949 307.748 12.6894C308.032 12.3838 308.161 11.9749 308.099 11.5636ZM308.099 11.5636C308.099 11.5636 308.092 11.5448 308.08 11.5448L306.688 11.5753C306.13 11.5894 305.576 11.7422 305.093 12.0172L304.093 12.5883C303.895 12.7011 303.699 12.8257 303.508 12.9549L303.152 13.2017L303.408 13.3028C303.893 13.4955 304.418 13.5331 304.924 13.4156L305.898 13.1923C306.139 13.1359 306.387 13.1147 306.638 13.1312C307.054 13.1547 307.464 12.9949 307.748 12.6894C308.032 12.3838 308.161 11.9749 308.099 11.5636ZM312.382 11.6271C312.366 11.5965 312.325 11.5236 312.222 11.5166L311.692 11.4837C311.389 11.4625 311.108 11.6059 310.945 11.8668C310.785 12.1253 310.785 12.4355 310.945 12.6941L311.084 12.9197C311.115 12.9714 311.17 13.0019 311.229 13.0066C311.289 13.0137 311.346 12.9878 311.387 12.9432L312.351 11.8174C312.418 11.7399 312.397 11.6576 312.382 11.6271ZM312.382 11.6271C312.366 11.5965 312.325 11.5236 312.222 11.5166L311.692 11.4837C311.389 11.4625 311.108 11.6059 310.945 11.8668C310.785 12.1253 310.785 12.4355 310.945 12.6941L311.084 12.9197C311.115 12.9714 311.17 13.0019 311.229 13.0066C311.289 13.0137 311.346 12.9878 311.387 12.9432L312.351 11.8174C312.418 11.7399 312.397 11.6576 312.382 11.6271ZM308.099 11.5636C308.099 11.5636 308.092 11.5448 308.08 11.5448L306.688 11.5753C306.13 11.5894 305.576 11.7422 305.093 12.0172L304.093 12.5883C303.895 12.7011 303.699 12.8257 303.508 12.9549L303.152 13.2017L303.408 13.3028C303.893 13.4955 304.418 13.5331 304.924 13.4156L305.898 13.1923C306.139 13.1359 306.387 13.1147 306.638 13.1312C307.054 13.1547 307.464 12.9949 307.748 12.6894C308.032 12.3838 308.161 11.9749 308.099 11.5636ZM308.099 11.5636C308.099 11.5636 308.092 11.5448 308.08 11.5448L306.688 11.5753C306.13 11.5894 305.576 11.7422 305.093 12.0172L304.093 12.5883C303.895 12.7011 303.699 12.8257 303.508 12.9549L303.152 13.2017L303.408 13.3028C303.893 13.4955 304.418 13.5331 304.924 13.4156L305.898 13.1923C306.139 13.1359 306.387 13.1147 306.638 13.1312C307.054 13.1547 307.464 12.9949 307.748 12.6894C308.032 12.3838 308.161 11.9749 308.099 11.5636ZM312.382 11.6271C312.366 11.5965 312.325 11.5236 312.222 11.5166L311.692 11.4837C311.389 11.4625 311.108 11.6059 310.945 11.8668C310.785 12.1253 310.785 12.4355 310.945 12.6941L311.084 12.9197C311.115 12.9714 311.17 13.0019 311.229 13.0066C311.289 13.0137 311.346 12.9878 311.387 12.9432L312.351 11.8174C312.418 11.7399 312.397 11.6576 312.382 11.6271ZM312.382 11.6271C312.366 11.5965 312.325 11.5236 312.222 11.5166L311.692 11.4837C311.389 11.4625 311.108 11.6059 310.945 11.8668C310.785 12.1253 310.785 12.4355 310.945 12.6941L311.084 12.9197C311.115 12.9714 311.17 13.0019 311.229 13.0066C311.289 13.0137 311.346 12.9878 311.387 12.9432L312.351 11.8174C312.418 11.7399 312.397 11.6576 312.382 11.6271ZM308.099 11.5636C308.099 11.5636 308.092 11.5448 308.08 11.5448L306.688 11.5753C306.13 11.5894 305.576 11.7422 305.093 12.0172L304.093 12.5883C303.895 12.7011 303.699 12.8257 303.508 12.9549L303.152 13.2017L303.408 13.3028C303.893 13.4955 304.418 13.5331 304.924 13.4156L305.898 13.1923C306.139 13.1359 306.387 13.1147 306.638 13.1312C307.054 13.1547 307.464 12.9949 307.748 12.6894C308.032 12.3838 308.161 11.9749 308.099 11.5636ZM308.099 11.5636C308.099 11.5636 308.092 11.5448 308.08 11.5448L306.688 11.5753C306.13 11.5894 305.576 11.7422 305.093 12.0172L304.093 12.5883C303.895 12.7011 303.699 12.8257 303.508 12.9549L303.152 13.2017L303.408 13.3028C303.893 13.4955 304.418 13.5331 304.924 13.4156L305.898 13.1923C306.139 13.1359 306.387 13.1147 306.638 13.1312C307.054 13.1547 307.464 12.9949 307.748 12.6894C308.032 12.3838 308.161 11.9749 308.099 11.5636ZM310.938 17.928L310.63 17.4721C310.601 17.4274 310.554 17.3992 310.501 17.3922C310.492 17.3898 310.48 17.3898 310.47 17.3898C310.432 17.3898 310.391 17.4016 310.358 17.4274L309.071 18.3957C308.968 18.4733 308.947 18.6167 309.021 18.7201C309.083 18.807 309.186 18.8564 309.291 18.8564C309.329 18.8564 309.374 18.8493 309.412 18.8329L310.835 18.2571C310.921 18.2218 310.955 18.1513 310.967 18.1137C310.979 18.0784 310.991 18.0032 310.938 17.9257V17.928ZM312.382 11.6271C312.366 11.5965 312.325 11.5236 312.222 11.5166L311.692 11.4837C311.389 11.4625 311.108 11.6059 310.945 11.8668C310.785 12.1253 310.785 12.4355 310.945 12.6941L311.084 12.9197C311.115 12.9714 311.17 13.0019 311.229 13.0066C311.289 13.0137 311.346 12.9878 311.387 12.9432L312.351 11.8174C312.418 11.7399 312.397 11.6576 312.382 11.6271ZM312.382 11.6271C312.366 11.5965 312.325 11.5236 312.222 11.5166L311.692 11.4837C311.389 11.4625 311.108 11.6059 310.945 11.8668C310.785 12.1253 310.785 12.4355 310.945 12.6941L311.084 12.9197C311.115 12.9714 311.17 13.0019 311.229 13.0066C311.289 13.0137 311.346 12.9878 311.387 12.9432L312.351 11.8174C312.418 11.7399 312.397 11.6576 312.382 11.6271ZM310.938 17.928L310.63 17.4721C310.601 17.4274 310.554 17.3992 310.501 17.3922C310.492 17.3898 310.48 17.3898 310.47 17.3898C310.432 17.3898 310.391 17.4016 310.358 17.4274L309.071 18.3957C308.968 18.4733 308.947 18.6167 309.021 18.7201C309.083 18.807 309.186 18.8564 309.291 18.8564C309.329 18.8564 309.374 18.8493 309.412 18.8329L310.835 18.2571C310.921 18.2218 310.955 18.1513 310.967 18.1137C310.979 18.0784 310.991 18.0032 310.938 17.9257V17.928ZM308.099 11.5636C308.099 11.5636 308.092 11.5448 308.08 11.5448L306.688 11.5753C306.13 11.5894 305.576 11.7422 305.093 12.0172L304.093 12.5883C303.895 12.7011 303.699 12.8257 303.508 12.9549L303.152 13.2017L303.408 13.3028C303.893 13.4955 304.418 13.5331 304.924 13.4156L305.898 13.1923C306.139 13.1359 306.387 13.1147 306.638 13.1312C307.054 13.1547 307.464 12.9949 307.748 12.6894C308.032 12.3838 308.161 11.9749 308.099 11.5636ZM308.099 11.5636C308.099 11.5636 308.092 11.5448 308.08 11.5448L306.688 11.5753C306.13 11.5894 305.576 11.7422 305.093 12.0172L304.093 12.5883C303.895 12.7011 303.699 12.8257 303.508 12.9549L303.152 13.2017L303.408 13.3028C303.893 13.4955 304.418 13.5331 304.924 13.4156L305.898 13.1923C306.139 13.1359 306.387 13.1147 306.638 13.1312C307.054 13.1547 307.464 12.9949 307.748 12.6894C308.032 12.3838 308.161 11.9749 308.099 11.5636ZM310.938 17.928L310.63 17.4721C310.601 17.4274 310.554 17.3992 310.501 17.3922C310.492 17.3898 310.48 17.3898 310.47 17.3898C310.432 17.3898 310.391 17.4016 310.358 17.4274L309.071 18.3957C308.968 18.4733 308.947 18.6167 309.021 18.7201C309.083 18.807 309.186 18.8564 309.291 18.8564C309.329 18.8564 309.374 18.8493 309.412 18.8329L310.835 18.2571C310.921 18.2218 310.955 18.1513 310.967 18.1137C310.979 18.0784 310.991 18.0032 310.938 17.9257V17.928ZM312.382 11.6271C312.366 11.5965 312.325 11.5236 312.222 11.5166L311.692 11.4837C311.389 11.4625 311.108 11.6059 310.945 11.8668C310.785 12.1253 310.785 12.4355 310.945 12.6941L311.084 12.9197C311.115 12.9714 311.17 13.0019 311.229 13.0066C311.289 13.0137 311.346 12.9878 311.387 12.9432L312.351 11.8174C312.418 11.7399 312.397 11.6576 312.382 11.6271ZM312.382 11.6271C312.366 11.5965 312.325 11.5236 312.222 11.5166L311.692 11.4837C311.389 11.4625 311.108 11.6059 310.945 11.8668C310.785 12.1253 310.785 12.4355 310.945 12.6941L311.084 12.9197C311.115 12.9714 311.17 13.0019 311.229 13.0066C311.289 13.0137 311.346 12.9878 311.387 12.9432L312.351 11.8174C312.418 11.7399 312.397 11.6576 312.382 11.6271ZM310.938 17.928L310.63 17.4721C310.601 17.4274 310.554 17.3992 310.501 17.3922C310.492 17.3898 310.48 17.3898 310.47 17.3898C310.432 17.3898 310.391 17.4016 310.358 17.4274L309.071 18.3957C308.968 18.4733 308.947 18.6167 309.021 18.7201C309.083 18.807 309.186 18.8564 309.291 18.8564C309.329 18.8564 309.374 18.8493 309.412 18.8329L310.835 18.2571C310.921 18.2218 310.955 18.1513 310.967 18.1137C310.979 18.0784 310.991 18.0032 310.938 17.9257V17.928ZM308.099 11.5636C308.099 11.5636 308.092 11.5448 308.08 11.5448L306.688 11.5753C306.13 11.5894 305.576 11.7422 305.093 12.0172L304.093 12.5883C303.895 12.7011 303.699 12.8257 303.508 12.9549L303.152 13.2017L303.408 13.3028C303.893 13.4955 304.418 13.5331 304.924 13.4156L305.898 13.1923C306.139 13.1359 306.387 13.1147 306.638 13.1312C307.054 13.1547 307.464 12.9949 307.748 12.6894C308.032 12.3838 308.161 11.9749 308.099 11.5636ZM315.625 11.3615V7.55409L314.319 9.03004C313.715 9.70926 312.843 10.097 311.922 10.097H311.888C311.449 10.0923 311.043 9.97014 310.692 9.74686L310.556 9.66225C310.076 9.35437 309.52 9.15695 308.949 9.09115L308.691 9.06059C308.254 9.00889 307.808 9.0982 307.433 9.31442L305.905 10.1911C305.387 10.4872 304.826 10.6705 304.232 10.7434L300.887 11.1523V14.358L303.138 15.0231C303.768 15.2088 304.439 15.2394 305.082 15.1124L308.097 14.5155C308.708 14.3956 309.331 14.6448 309.682 15.1524C309.928 15.5073 310.012 15.9468 309.909 16.3628C309.809 16.7811 309.534 17.1384 309.15 17.3475C308.042 17.9515 306.989 18.6684 306.025 19.4745C304.883 20.4287 303.857 21.5074 302.969 22.6967H306.392C306.452 22.6074 306.514 22.5204 306.581 22.4311C306.703 22.2666 309.613 18.4592 315.627 18.337V16.5179L314.939 16.8164C314.708 16.9174 314.46 16.9691 314.214 16.9691C313.753 16.9691 313.304 16.7952 312.96 16.4662C312.581 16.1042 312.375 15.6177 312.382 15.0983C312.39 14.5789 312.607 14.0995 312.996 13.747L315.625 11.3638V11.3615ZM308.133 13.0372C307.741 13.4579 307.185 13.6765 306.607 13.6436C306.409 13.6318 306.211 13.6483 306.02 13.6929L305.046 13.9185C304.817 13.9726 304.58 13.9984 304.349 13.9984C303.962 13.9984 303.577 13.9256 303.215 13.7822L302.79 13.613C302.646 13.5566 302.546 13.425 302.529 13.2746C302.51 13.1218 302.579 12.9737 302.706 12.8868L303.21 12.5366C303.41 12.3979 303.62 12.2663 303.83 12.1465L304.828 11.5753C305.39 11.2557 306.029 11.0794 306.676 11.063L308.066 11.0324C308.338 11.0277 308.574 11.2228 308.615 11.4907C308.701 12.0548 308.524 12.6189 308.133 13.0372ZM311.468 18.2688C311.404 18.4803 311.244 18.6519 311.034 18.7365L309.611 19.3123C309.506 19.357 309.393 19.3758 309.283 19.3758C309.014 19.3758 308.756 19.2489 308.591 19.0185C308.357 18.6872 308.426 18.2336 308.753 17.9891L310.038 17.0208C310.196 16.9057 310.396 16.8563 310.587 16.8869C310.78 16.9174 310.952 17.0279 311.062 17.1877L311.37 17.6437C311.494 17.827 311.533 18.0549 311.466 18.2688H311.468ZM312.75 12.1488L311.783 13.2746C311.649 13.432 311.451 13.5213 311.244 13.5213H311.189C310.962 13.5025 310.759 13.378 310.637 13.1876L310.499 12.962C310.241 12.5436 310.241 12.0219 310.499 11.5988C310.757 11.1805 311.225 10.9431 311.726 10.969L312.256 11.0019C312.526 11.0207 312.755 11.1829 312.862 11.4249C312.967 11.6694 312.924 11.9443 312.75 12.1465V12.1488ZM312.222 11.5166L311.692 11.4837C311.389 11.4625 311.108 11.6059 310.945 11.8668C310.785 12.1253 310.785 12.4355 310.945 12.6941L311.084 12.9197C311.115 12.9714 311.17 13.0019 311.229 13.0066C311.289 13.0137 311.346 12.9878 311.387 12.9432L312.351 11.8174C312.418 11.7399 312.397 11.6576 312.382 11.6271C312.366 11.5965 312.325 11.5236 312.222 11.5166ZM310.63 17.4744C310.601 17.4298 310.554 17.4016 310.501 17.3945C310.492 17.3922 310.48 17.3922 310.47 17.3922C310.432 17.3922 310.391 17.4039 310.358 17.4298L309.071 18.3981C308.968 18.4756 308.947 18.619 309.021 18.7224C309.083 18.8094 309.186 18.8587 309.291 18.8587C309.329 18.8587 309.374 18.8517 309.412 18.8352L310.835 18.2594C310.921 18.2242 310.955 18.1537 310.967 18.116C310.979 18.0808 310.991 18.0056 310.938 17.928L310.63 17.4721V17.4744ZM308.08 11.5448L306.688 11.5753C306.13 11.5894 305.576 11.7422 305.093 12.0172L304.093 12.5883C303.895 12.7011 303.699 12.8257 303.508 12.9549L303.152 13.2017L303.408 13.3028C303.893 13.4955 304.418 13.5331 304.924 13.4156L305.898 13.1923C306.139 13.1359 306.387 13.1147 306.638 13.1312C307.054 13.1547 307.464 12.9949 307.748 12.6894C308.032 12.3838 308.161 11.9749 308.099 11.5636C308.099 11.5542 308.092 11.5448 308.08 11.5448ZM308.099 11.5636C308.099 11.5636 308.092 11.5448 308.08 11.5448L306.688 11.5753C306.13 11.5894 305.576 11.7422 305.093 12.0172L304.093 12.5883C303.895 12.7011 303.699 12.8257 303.508 12.9549L303.152 13.2017L303.408 13.3028C303.893 13.4955 304.418 13.5331 304.924 13.4156L305.898 13.1923C306.139 13.1359 306.387 13.1147 306.638 13.1312C307.054 13.1547 307.464 12.9949 307.748 12.6894C308.032 12.3838 308.161 11.9749 308.099 11.5636ZM310.938 17.928L310.63 17.4721C310.601 17.4274 310.554 17.3992 310.501 17.3922C310.492 17.3898 310.48 17.3898 310.47 17.3898C310.432 17.3898 310.391 17.4016 310.358 17.4274L309.071 18.3957C308.968 18.4733 308.947 18.6167 309.021 18.7201C309.083 18.807 309.186 18.8564 309.291 18.8564C309.329 18.8564 309.374 18.8493 309.412 18.8329L310.835 18.2571C310.921 18.2218 310.955 18.1513 310.967 18.1137C310.979 18.0784 310.991 18.0032 310.938 17.9257V17.928ZM312.382 11.6271C312.366 11.5965 312.325 11.5236 312.222 11.5166L311.692 11.4837C311.389 11.4625 311.108 11.6059 310.945 11.8668C310.785 12.1253 310.785 12.4355 310.945 12.6941L311.084 12.9197C311.115 12.9714 311.17 13.0019 311.229 13.0066C311.289 13.0137 311.346 12.9878 311.387 12.9432L312.351 11.8174C312.418 11.7399 312.397 11.6576 312.382 11.6271ZM312.382 11.6271C312.366 11.5965 312.325 11.5236 312.222 11.5166L311.692 11.4837C311.389 11.4625 311.108 11.6059 310.945 11.8668C310.785 12.1253 310.785 12.4355 310.945 12.6941L311.084 12.9197C311.115 12.9714 311.17 13.0019 311.229 13.0066C311.289 13.0137 311.346 12.9878 311.387 12.9432L312.351 11.8174C312.418 11.7399 312.397 11.6576 312.382 11.6271ZM310.938 17.928L310.63 17.4721C310.601 17.4274 310.554 17.3992 310.501 17.3922C310.492 17.3898 310.48 17.3898 310.47 17.3898C310.432 17.3898 310.391 17.4016 310.358 17.4274L309.071 18.3957C308.968 18.4733 308.947 18.6167 309.021 18.7201C309.083 18.807 309.186 18.8564 309.291 18.8564C309.329 18.8564 309.374 18.8493 309.412 18.8329L310.835 18.2571C310.921 18.2218 310.955 18.1513 310.967 18.1137C310.979 18.0784 310.991 18.0032 310.938 17.9257V17.928ZM308.099 11.5636C308.099 11.5636 308.092 11.5448 308.08 11.5448L306.688 11.5753C306.13 11.5894 305.576 11.7422 305.093 12.0172L304.093 12.5883C303.895 12.7011 303.699 12.8257 303.508 12.9549L303.152 13.2017L303.408 13.3028C303.893 13.4955 304.418 13.5331 304.924 13.4156L305.898 13.1923C306.139 13.1359 306.387 13.1147 306.638 13.1312C307.054 13.1547 307.464 12.9949 307.748 12.6894C308.032 12.3838 308.161 11.9749 308.099 11.5636ZM313.555 21.2348C312.838 21.6743 312.476 22.3018 312.308 22.6967H313.758C314.789 22.6967 315.625 21.8741 315.625 20.8588V20.7883C315.147 20.7366 314.34 20.753 313.555 21.2325V21.2348ZM307.123 22.6967H311.664C311.836 22.2008 312.258 21.3312 313.235 20.7319C314.13 20.1819 315.047 20.1443 315.625 20.1937V18.9175C310.382 19.0279 307.572 22.1514 307.123 22.6943V22.6967ZM308.099 11.5636C308.099 11.5636 308.092 11.5448 308.08 11.5448L306.688 11.5753C306.13 11.5894 305.576 11.7422 305.093 12.0172L304.093 12.5883C303.895 12.7011 303.699 12.8257 303.508 12.9549L303.152 13.2017L303.408 13.3028C303.893 13.4955 304.418 13.5331 304.924 13.4156L305.898 13.1923C306.139 13.1359 306.387 13.1147 306.638 13.1312C307.054 13.1547 307.464 12.9949 307.748 12.6894C308.032 12.3838 308.161 11.9749 308.099 11.5636ZM310.938 17.928L310.63 17.4721C310.601 17.4274 310.554 17.3992 310.501 17.3922C310.492 17.3898 310.48 17.3898 310.47 17.3898C310.432 17.3898 310.391 17.4016 310.358 17.4274L309.071 18.3957C308.968 18.4733 308.947 18.6167 309.021 18.7201C309.083 18.807 309.186 18.8564 309.291 18.8564C309.329 18.8564 309.374 18.8493 309.412 18.8329L310.835 18.2571C310.921 18.2218 310.955 18.1513 310.967 18.1137C310.979 18.0784 310.991 18.0032 310.938 17.9257V17.928ZM312.382 11.6271C312.366 11.5965 312.325 11.5236 312.222 11.5166L311.692 11.4837C311.389 11.4625 311.108 11.6059 310.945 11.8668C310.785 12.1253 310.785 12.4355 310.945 12.6941L311.084 12.9197C311.115 12.9714 311.17 13.0019 311.229 13.0066C311.289 13.0137 311.346 12.9878 311.387 12.9432L312.351 11.8174C312.418 11.7399 312.397 11.6576 312.382 11.6271ZM312.382 11.6271C312.366 11.5965 312.325 11.5236 312.222 11.5166L311.692 11.4837C311.389 11.4625 311.108 11.6059 310.945 11.8668C310.785 12.1253 310.785 12.4355 310.945 12.6941L311.084 12.9197C311.115 12.9714 311.17 13.0019 311.229 13.0066C311.289 13.0137 311.346 12.9878 311.387 12.9432L312.351 11.8174C312.418 11.7399 312.397 11.6576 312.382 11.6271ZM310.938 17.928L310.63 17.4721C310.601 17.4274 310.554 17.3992 310.501 17.3922C310.492 17.3898 310.48 17.3898 310.47 17.3898C310.432 17.3898 310.391 17.4016 310.358 17.4274L309.071 18.3957C308.968 18.4733 308.947 18.6167 309.021 18.7201C309.083 18.807 309.186 18.8564 309.291 18.8564C309.329 18.8564 309.374 18.8493 309.412 18.8329L310.835 18.2571C310.921 18.2218 310.955 18.1513 310.967 18.1137C310.979 18.0784 310.991 18.0032 310.938 17.9257V17.928ZM308.099 11.5636C308.099 11.5636 308.092 11.5448 308.08 11.5448L306.688 11.5753C306.13 11.5894 305.576 11.7422 305.093 12.0172L304.093 12.5883C303.895 12.7011 303.699 12.8257 303.508 12.9549L303.152 13.2017L303.408 13.3028C303.893 13.4955 304.418 13.5331 304.924 13.4156L305.898 13.1923C306.139 13.1359 306.387 13.1147 306.638 13.1312C307.054 13.1547 307.464 12.9949 307.748 12.6894C308.032 12.3838 308.161 11.9749 308.099 11.5636ZM308.099 11.5636C308.099 11.5636 308.092 11.5448 308.08 11.5448L306.688 11.5753C306.13 11.5894 305.576 11.7422 305.093 12.0172L304.093 12.5883C303.895 12.7011 303.699 12.8257 303.508 12.9549L303.152 13.2017L303.408 13.3028C303.893 13.4955 304.418 13.5331 304.924 13.4156L305.898 13.1923C306.139 13.1359 306.387 13.1147 306.638 13.1312C307.054 13.1547 307.464 12.9949 307.748 12.6894C308.032 12.3838 308.161 11.9749 308.099 11.5636ZM312.382 11.6271C312.366 11.5965 312.325 11.5236 312.222 11.5166L311.692 11.4837C311.389 11.4625 311.108 11.6059 310.945 11.8668C310.785 12.1253 310.785 12.4355 310.945 12.6941L311.084 12.9197C311.115 12.9714 311.17 13.0019 311.229 13.0066C311.289 13.0137 311.346 12.9878 311.387 12.9432L312.351 11.8174C312.418 11.7399 312.397 11.6576 312.382 11.6271ZM312.382 11.6271C312.366 11.5965 312.325 11.5236 312.222 11.5166L311.692 11.4837C311.389 11.4625 311.108 11.6059 310.945 11.8668C310.785 12.1253 310.785 12.4355 310.945 12.6941L311.084 12.9197C311.115 12.9714 311.17 13.0019 311.229 13.0066C311.289 13.0137 311.346 12.9878 311.387 12.9432L312.351 11.8174C312.418 11.7399 312.397 11.6576 312.382 11.6271ZM305.676 17.1078C305.647 17.0232 305.588 16.955 305.506 16.9174C305.425 16.8798 305.335 16.8728 305.251 16.9033L304.637 17.1243C304.492 17.176 304.339 17.2159 304.189 17.2418L300.887 17.8011V20.84L303.659 18.6566C304.115 18.297 304.606 17.975 305.117 17.7024L305.518 17.4885C305.659 17.4133 305.724 17.2512 305.676 17.1031V17.1078ZM309.243 15.4509C309.011 15.1171 308.603 14.9526 308.202 15.0325L305.189 15.6295C304.461 15.7705 303.697 15.7376 302.988 15.5284L300.889 14.908V17.27L304.1 16.7247C304.22 16.7059 304.339 16.673 304.456 16.6331L305.07 16.4121C305.289 16.3322 305.53 16.3416 305.74 16.445C305.953 16.5461 306.111 16.7224 306.185 16.9433C306.316 17.3334 306.144 17.7588 305.774 17.9539L305.375 18.1678C304.891 18.4263 304.425 18.7318 303.99 19.0702L301.042 21.3946L300.934 21.263C301.092 21.954 301.646 22.4992 302.348 22.652C303.3 21.3288 304.425 20.1255 305.681 19.0773C306.676 18.25 307.753 17.5144 308.892 16.8939C309.147 16.7553 309.326 16.5249 309.393 16.2453C309.458 15.9679 309.405 15.6859 309.245 15.4509H309.243ZM308.099 11.5636C308.099 11.5636 308.092 11.5448 308.08 11.5448L306.688 11.5753C306.13 11.5894 305.576 11.7422 305.093 12.0172L304.093 12.5883C303.895 12.7011 303.699 12.8257 303.508 12.9549L303.152 13.2017L303.408 13.3028C303.893 13.4955 304.418 13.5331 304.924 13.4156L305.898 13.1923C306.139 13.1359 306.387 13.1147 306.638 13.1312C307.054 13.1547 307.464 12.9949 307.748 12.6894C308.032 12.3838 308.161 11.9749 308.099 11.5636ZM308.099 11.5636C308.099 11.5636 308.092 11.5448 308.08 11.5448L306.688 11.5753C306.13 11.5894 305.576 11.7422 305.093 12.0172L304.093 12.5883C303.895 12.7011 303.699 12.8257 303.508 12.9549L303.152 13.2017L303.408 13.3028C303.893 13.4955 304.418 13.5331 304.924 13.4156L305.898 13.1923C306.139 13.1359 306.387 13.1147 306.638 13.1312C307.054 13.1547 307.464 12.9949 307.748 12.6894C308.032 12.3838 308.161 11.9749 308.099 11.5636ZM312.382 11.6271C312.366 11.5965 312.325 11.5236 312.222 11.5166L311.692 11.4837C311.389 11.4625 311.108 11.6059 310.945 11.8668C310.785 12.1253 310.785 12.4355 310.945 12.6941L311.084 12.9197C311.115 12.9714 311.17 13.0019 311.229 13.0066C311.289 13.0137 311.346 12.9878 311.387 12.9432L312.351 11.8174C312.418 11.7399 312.397 11.6576 312.382 11.6271ZM312.382 11.6271C312.366 11.5965 312.325 11.5236 312.222 11.5166L311.692 11.4837C311.389 11.4625 311.108 11.6059 310.945 11.8668C310.785 12.1253 310.785 12.4355 310.945 12.6941L311.084 12.9197C311.115 12.9714 311.17 13.0019 311.229 13.0066C311.289 13.0137 311.346 12.9878 311.387 12.9432L312.351 11.8174C312.418 11.7399 312.397 11.6576 312.382 11.6271ZM308.099 11.5636C308.099 11.5636 308.092 11.5448 308.08 11.5448L306.688 11.5753C306.13 11.5894 305.576 11.7422 305.093 12.0172L304.093 12.5883C303.895 12.7011 303.699 12.8257 303.508 12.9549L303.152 13.2017L303.408 13.3028C303.893 13.4955 304.418 13.5331 304.924 13.4156L305.898 13.1923C306.139 13.1359 306.387 13.1147 306.638 13.1312C307.054 13.1547 307.464 12.9949 307.748 12.6894C308.032 12.3838 308.161 11.9749 308.099 11.5636ZM308.099 11.5636C308.099 11.5636 308.092 11.5448 308.08 11.5448L306.688 11.5753C306.13 11.5894 305.576 11.7422 305.093 12.0172L304.093 12.5883C303.895 12.7011 303.699 12.8257 303.508 12.9549L303.152 13.2017L303.408 13.3028C303.893 13.4955 304.418 13.5331 304.924 13.4156L305.898 13.1923C306.139 13.1359 306.387 13.1147 306.638 13.1312C307.054 13.1547 307.464 12.9949 307.748 12.6894C308.032 12.3838 308.161 11.9749 308.099 11.5636ZM312.382 11.6271C312.366 11.5965 312.325 11.5236 312.222 11.5166L311.692 11.4837C311.389 11.4625 311.108 11.6059 310.945 11.8668C310.785 12.1253 310.785 12.4355 310.945 12.6941L311.084 12.9197C311.115 12.9714 311.17 13.0019 311.229 13.0066C311.289 13.0137 311.346 12.9878 311.387 12.9432L312.351 11.8174C312.418 11.7399 312.397 11.6576 312.382 11.6271ZM314.529 14.4403C314.333 14.5719 314.426 14.7576 314.448 14.7928C314.469 14.8281 314.581 15.002 314.799 14.9033L315.627 14.5249V13.6953L314.531 14.4403H314.529ZM314.23 14.0172L315.625 13.0748V12.0595L313.347 14.123C313.065 14.3768 312.908 14.727 312.903 15.1054C312.898 15.4814 313.046 15.834 313.321 16.0948C313.696 16.4544 314.249 16.5531 314.729 16.3463L315.625 15.9585V15.0913L315.013 15.3686C314.896 15.4227 314.782 15.4462 314.672 15.4462C314.376 15.4462 314.123 15.2746 313.994 15.0466C313.815 14.7364 313.839 14.2828 314.233 14.0149L314.23 14.0172ZM312.382 11.6271C312.366 11.5965 312.325 11.5236 312.222 11.5166L311.692 11.4837C311.389 11.4625 311.108 11.6059 310.945 11.8668C310.785 12.1253 310.785 12.4355 310.945 12.6941L311.084 12.9197C311.115 12.9714 311.17 13.0019 311.229 13.0066C311.289 13.0137 311.346 12.9878 311.387 12.9432L312.351 11.8174C312.418 11.7399 312.397 11.6576 312.382 11.6271ZM308.099 11.5636C308.099 11.5636 308.092 11.5448 308.08 11.5448L306.688 11.5753C306.13 11.5894 305.576 11.7422 305.093 12.0172L304.093 12.5883C303.895 12.7011 303.699 12.8257 303.508 12.9549L303.152 13.2017L303.408 13.3028C303.893 13.4955 304.418 13.5331 304.924 13.4156L305.898 13.1923C306.139 13.1359 306.387 13.1147 306.638 13.1312C307.054 13.1547 307.464 12.9949 307.748 12.6894C308.032 12.3838 308.161 11.9749 308.099 11.5636ZM312.382 11.6271C312.366 11.5965 312.325 11.5236 312.222 11.5166L311.692 11.4837C311.389 11.4625 311.108 11.6059 310.945 11.8668C310.785 12.1253 310.785 12.4355 310.945 12.6941L311.084 12.9197C311.115 12.9714 311.17 13.0019 311.229 13.0066C311.289 13.0137 311.346 12.9878 311.387 12.9432L312.351 11.8174C312.418 11.7399 312.397 11.6576 312.382 11.6271ZM308.099 11.5636C308.099 11.5636 308.092 11.5448 308.08 11.5448L306.688 11.5753C306.13 11.5894 305.576 11.7422 305.093 12.0172L304.093 12.5883C303.895 12.7011 303.699 12.8257 303.508 12.9549L303.152 13.2017L303.408 13.3028C303.893 13.4955 304.418 13.5331 304.924 13.4156L305.898 13.1923C306.139 13.1359 306.387 13.1147 306.638 13.1312C307.054 13.1547 307.464 12.9949 307.748 12.6894C308.032 12.3838 308.161 11.9749 308.099 11.5636ZM312.382 11.6271C312.366 11.5965 312.325 11.5236 312.222 11.5166L311.692 11.4837C311.389 11.4625 311.108 11.6059 310.945 11.8668C310.785 12.1253 310.785 12.4355 310.945 12.6941L311.084 12.9197C311.115 12.9714 311.17 13.0019 311.229 13.0066C311.289 13.0137 311.346 12.9878 311.387 12.9432L312.351 11.8174C312.418 11.7399 312.397 11.6576 312.382 11.6271ZM308.099 11.5636C308.099 11.5636 308.092 11.5448 308.08 11.5448L306.688 11.5753C306.13 11.5894 305.576 11.7422 305.093 12.0172L304.093 12.5883C303.895 12.7011 303.699 12.8257 303.508 12.9549L303.152 13.2017L303.408 13.3028C303.893 13.4955 304.418 13.5331 304.924 13.4156L305.898 13.1923C306.139 13.1359 306.387 13.1147 306.638 13.1312C307.054 13.1547 307.464 12.9949 307.748 12.6894C308.032 12.3838 308.161 11.9749 308.099 11.5636ZM312.382 11.6271C312.366 11.5965 312.325 11.5236 312.222 11.5166L311.692 11.4837C311.389 11.4625 311.108 11.6059 310.945 11.8668C310.785 12.1253 310.785 12.4355 310.945 12.6941L311.084 12.9197C311.115 12.9714 311.17 13.0019 311.229 13.0066C311.289 13.0137 311.346 12.9878 311.387 12.9432L312.351 11.8174C312.418 11.7399 312.397 11.6576 312.382 11.6271ZM308.099 11.5636C308.099 11.5636 308.092 11.5448 308.08 11.5448L306.688 11.5753C306.13 11.5894 305.576 11.7422 305.093 12.0172L304.093 12.5883C303.895 12.7011 303.699 12.8257 303.508 12.9549L303.152 13.2017L303.408 13.3028C303.893 13.4955 304.418 13.5331 304.924 13.4156L305.898 13.1923C306.139 13.1359 306.387 13.1147 306.638 13.1312C307.054 13.1547 307.464 12.9949 307.748 12.6894C308.032 12.3838 308.161 11.9749 308.099 11.5636ZM312.382 11.6271C312.366 11.5965 312.325 11.5236 312.222 11.5166L311.692 11.4837C311.389 11.4625 311.108 11.6059 310.945 11.8668C310.785 12.1253 310.785 12.4355 310.945 12.6941L311.084 12.9197C311.115 12.9714 311.17 13.0019 311.229 13.0066C311.289 13.0137 311.346 12.9878 311.387 12.9432L312.351 11.8174C312.418 11.7399 312.397 11.6576 312.382 11.6271ZM308.099 11.5636C308.099 11.5636 308.092 11.5448 308.08 11.5448L306.688 11.5753C306.13 11.5894 305.576 11.7422 305.093 12.0172L304.093 12.5883C303.895 12.7011 303.699 12.8257 303.508 12.9549L303.152 13.2017L303.408 13.3028C303.893 13.4955 304.418 13.5331 304.924 13.4156L305.898 13.1923C306.139 13.1359 306.387 13.1147 306.638 13.1312C307.054 13.1547 307.464 12.9949 307.748 12.6894C308.032 12.3838 308.161 11.9749 308.099 11.5636ZM308.099 11.5636C308.099 11.5636 308.092 11.5448 308.08 11.5448L306.688 11.5753C306.13 11.5894 305.576 11.7422 305.093 12.0172L304.093 12.5883C303.895 12.7011 303.699 12.8257 303.508 12.9549L303.152 13.2017L303.408 13.3028C303.893 13.4955 304.418 13.5331 304.924 13.4156L305.898 13.1923C306.139 13.1359 306.387 13.1147 306.638 13.1312C307.054 13.1547 307.464 12.9949 307.748 12.6894C308.032 12.3838 308.161 11.9749 308.099 11.5636ZM308.099 11.5636C308.099 11.5636 308.092 11.5448 308.08 11.5448L306.688 11.5753C306.13 11.5894 305.576 11.7422 305.093 12.0172L304.093 12.5883C303.895 12.7011 303.699 12.8257 303.508 12.9549L303.152 13.2017L303.408 13.3028C303.893 13.4955 304.418 13.5331 304.924 13.4156L305.898 13.1923C306.139 13.1359 306.387 13.1147 306.638 13.1312C307.054 13.1547 307.464 12.9949 307.748 12.6894C308.032 12.3838 308.161 11.9749 308.099 11.5636Z" fill="white"/>
</g>
<defs>
<clipPath id="clip0_256_609">
<rect width="13.9388" height="16.0191" fill="white" transform="translate(186.629 5.0127)"/>
</clipPath>
<clipPath id="clip1_256_609">
<rect width="14.7379" height="17.6855" fill="white" transform="translate(300.887 5.01074)"/>
</clipPath>
</defs>
</svg>
