<svg xmlns="http://www.w3.org/2000/svg" width="158" height="40" viewBox="0 0 158 40" fill="none">
  <g clipPath="url(#clip0_1385_155)">
    <path d="M34.8906 12.026L27.5113 2.26234C26.6151 0.926144 25.1927 0.101765 23.6139 0.0079962C22.0389 -0.0857721 20.5325 0.558885 19.4914 1.77787L17.0774 4.60655L19.1367 7.05625L21.8444 3.88375C22.2448 3.41491 22.8092 3.16096 23.4346 3.20003C24.0448 3.23519 24.5901 3.55166 24.9372 4.06738L32.3164 13.831C32.652 14.335 32.7474 14.9562 32.5796 15.5423C32.4079 16.1244 31.9961 16.5933 31.4431 16.8238L28.4266 18.0897C27.6143 18.4296 26.6723 18.1717 26.1346 17.4606L14.4575 3.26645C13.4011 1.86773 11.7384 1.11368 10.0223 1.26215C8.30237 1.40671 6.78457 2.42253 5.96466 3.97752L1.9871 10.2795C0.953625 12.2409 1.2282 14.5772 2.67736 16.2338C4.13033 17.8904 6.36889 18.4218 8.38246 17.5778C9.11085 17.2731 9.7706 16.7886 10.2854 16.183L15.2583 11.3071L13.1723 8.87301L7.93246 14.0772C7.73415 14.3116 7.47864 14.4952 7.20025 14.6124C6.01804 15.1047 5.2172 14.3428 4.99982 14.0967C4.78245 13.8505 4.1227 12.9558 4.73287 11.8033L8.71043 5.50516C9.03077 4.89567 9.6028 4.51669 10.274 4.45808C10.3312 4.45418 10.3884 4.45027 10.4418 4.45027C11.0481 4.45027 11.6049 4.72767 11.9825 5.22777L23.652 19.4259C24.6359 20.7269 26.1423 21.4458 27.6829 21.4458C28.3274 21.4458 28.9757 21.3208 29.6012 21.059L32.6177 19.7931C34.0478 19.1953 35.1194 17.9803 35.5656 16.4643C36.008 14.9484 35.7601 13.3309 34.8868 12.026H34.8906Z" fill="#91C83E"/>
    <path d="M0.892562 27.9745L8.27182 37.7381C9.16801 39.0743 10.5867 39.8948 12.1693 39.9925C13.7443 40.0862 15.2507 39.4416 16.2918 38.2226L18.7057 35.3939L16.6464 32.9442L13.9388 36.1167C13.5384 36.5856 12.974 36.8395 12.3485 36.8004C11.7384 36.7653 11.193 36.4488 10.846 35.9331L3.46672 26.1695C3.13113 25.6655 3.03579 25.0442 3.20359 24.4582C3.3752 23.876 3.78706 23.4072 4.34003 23.1767L7.35656 21.9108C8.16885 21.5709 9.1108 21.8288 9.64852 22.5398L21.318 36.7418C22.3744 38.1405 24.0371 38.8946 25.7532 38.7461C27.4731 38.6016 28.9909 37.5857 29.8109 36.0308L33.7884 29.7326C34.8219 27.7713 34.5473 25.4349 33.0982 23.7784C31.6452 22.1218 29.4066 21.5904 27.3931 22.4343C26.6647 22.7391 26.0049 23.2236 25.4901 23.8292L20.5172 28.7051L22.6032 31.1392L27.8431 25.935C28.0414 25.7006 28.2969 25.517 28.5753 25.3998C29.7575 24.9075 30.5583 25.6694 30.7757 25.9155C30.9931 26.1616 31.6528 27.0563 31.0426 28.2089L27.0651 34.507C26.7448 35.1165 26.1727 35.4955 25.5015 35.5541C25.4443 35.558 25.3871 35.5619 25.3337 35.5619C24.7274 35.5619 24.1706 35.2845 23.793 34.7844L12.1235 20.5863C11.1396 19.2853 9.63326 18.5664 8.09258 18.5664C7.44809 18.5664 6.79978 18.6914 6.17436 18.9532L3.15782 20.2191C1.72773 20.8168 0.656121 22.0319 0.209933 23.5478C-0.232441 25.0638 0.0154408 26.6813 0.888748 27.9862L0.892562 27.9745Z" fill="#91C83E"/>
    <path d="M44.9735 18.5583V2.34424H47.3913L54.3092 14.1786H53.0431L59.8465 2.34424H62.2643L62.31 18.5544H59.4842V6.81386H60.0486L54.3053 16.726H52.9706L47.0939 6.81386H47.7727V18.5544H44.9697L44.9735 18.5583Z" fill="#231F20"/>
    <path d="M66.5625 18.5583V2.34424H69.5028V18.5544H66.5625V18.5583Z" fill="#231F20"/>
    <path d="M73.7695 18.5583V2.34424H80.7102C82.3996 2.34424 83.8946 2.68024 85.1988 3.35225C86.503 4.02425 87.5175 4.96975 88.2382 6.18874C88.9628 7.40773 89.3213 8.82988 89.3213 10.4513C89.3213 12.0727 88.959 13.4949 88.2382 14.7138C87.5136 15.9328 86.4992 16.8783 85.1988 17.5503C83.8946 18.2223 82.3996 18.5583 80.7102 18.5583H73.7695ZM76.7098 16.011H80.531C81.7208 16.011 82.7505 15.7805 83.6162 15.3155C84.4818 14.8506 85.1607 14.202 85.6488 13.3698C86.1369 12.5376 86.3848 11.5648 86.3848 10.4513C86.3848 9.33779 86.1407 8.32978 85.6488 7.50931C85.1607 6.69274 84.4818 6.05199 83.6162 5.58706C82.7505 5.12212 81.7208 4.89161 80.531 4.89161H76.7098V16.0071V16.011Z" fill="#231F20"/>
    <path d="M95.6753 18.5583L90.4316 2.34814H93.4825L98.1617 17.0073H96.6478L101.51 2.34814H104.222L108.947 17.0073H107.478L112.272 2.34814H115.075L109.831 18.5583H106.712L102.395 5.3331H103.207L98.8444 18.5583H95.6791H95.6753Z" fill="#231F20"/>
    <path d="M120.406 16.011H129.334V18.5583H117.466V2.34424H129.017V4.89161H120.406V16.0071V16.011ZM120.181 9.08384H128.048V11.5609H120.181V9.08384Z" fill="#231F20"/>
    <path d="M137.521 18.7889C136.286 18.7889 135.107 18.6092 133.982 18.2458C132.861 17.8825 131.957 17.4175 131.282 16.8432L132.3 14.5029C132.934 15.0108 133.715 15.4367 134.653 15.7766C135.588 16.1165 136.545 16.2845 137.525 16.2845C138.353 16.2845 139.024 16.1907 139.539 16.0071C140.05 15.8235 140.427 15.5695 140.667 15.2531C140.908 14.9366 141.03 14.5771 141.03 14.1747C141.03 13.6824 140.854 13.2839 140.511 12.9831C140.164 12.6822 139.718 12.4439 139.165 12.2642C138.616 12.0884 138.006 11.9243 137.334 11.7797C136.663 11.6313 135.992 11.4515 135.321 11.2366C134.65 11.0218 134.036 10.7483 133.479 10.4162C132.922 10.0841 132.472 9.63868 132.133 9.08388C131.793 8.52908 131.625 7.81801 131.625 6.95456C131.625 6.09111 131.854 5.26673 132.316 4.53612C132.777 3.8016 133.475 3.21555 134.417 2.77796C135.359 2.34038 136.553 2.11768 138.002 2.11768C138.951 2.11768 139.893 2.2427 140.828 2.48884C141.762 2.73498 142.574 3.09052 143.268 3.55546L142.342 5.89576C141.632 5.46208 140.904 5.1417 140.149 4.93463C139.394 4.72756 138.673 4.62207 137.979 4.62207C137.178 4.62207 136.526 4.72365 136.011 4.92291C135.5 5.12217 135.126 5.39175 134.894 5.72385C134.661 6.05594 134.543 6.4232 134.543 6.82563C134.543 7.32182 134.714 7.71643 135.05 8.01727C135.389 8.31811 135.832 8.55253 136.385 8.72444C136.934 8.89634 137.548 9.05653 138.227 9.2089C138.906 9.36519 139.577 9.54491 140.24 9.75198C140.904 9.95905 141.514 10.2325 142.071 10.5607C142.628 10.8928 143.078 11.3343 143.417 11.8813C143.756 12.4283 143.924 13.1276 143.924 13.9755C143.924 14.8233 143.695 15.6398 143.234 16.3744C142.773 17.1089 142.071 17.6949 141.121 18.1325C140.172 18.574 138.974 18.7928 137.529 18.7928L137.521 18.7889Z" fill="#231F20"/>
    <path d="M149.816 18.5583V4.89161H144.572V2.34424H158V4.89161H152.756V18.5544H149.816V18.5583Z" fill="#231F20"/>
    <path d="M44.9736 37.6169V21.4067H47.9139V35.0696H56.1893V37.6169H44.9774H44.9736Z" fill="#231F20"/>
    <path d="M58.5117 37.6169V21.4067H61.452V37.6169H58.5117Z" fill="#231F20"/>
    <path d="M65.7235 37.6169V21.4067H68.1413L75.0592 33.2411H73.7931L80.5965 21.4067H83.0143L83.06 37.6169H80.2342V25.8764H80.7986L75.0553 35.7885H73.7206L67.8439 25.8764H68.5227V37.6169H65.7197H65.7235Z" fill="#231F20"/>
    <path d="M87.3115 37.6169V21.4067H90.2518V37.6169H87.3115Z" fill="#231F20"/>
    <path d="M97.7349 37.6169V23.9541H92.4912V21.4067H105.919V23.9541H100.675V37.6169H97.7349Z" fill="#231F20"/>
    <path d="M111.07 35.0696H119.998V37.6169H108.13V21.4067H119.681V23.9541H111.07V35.0696ZM110.845 28.1463H118.713V30.6234H110.845V28.1463Z" fill="#231F20"/>
    <path d="M123.277 37.6169V21.4067H130.218C131.904 21.4067 133.402 21.7427 134.707 22.4147C136.011 23.0868 137.025 24.0322 137.746 25.2512C138.471 26.4702 138.829 27.8924 138.829 29.5138C138.829 31.1352 138.467 32.5574 137.746 33.7763C137.021 34.9953 136.007 35.9408 134.707 36.6128C133.402 37.2848 131.907 37.6208 130.218 37.6208H123.277V37.6169ZM126.218 35.0696H130.039C131.229 35.0696 132.258 34.8391 133.124 34.3741C133.99 33.9092 134.668 33.2606 135.157 32.4284C135.645 31.5962 135.893 30.6234 135.893 29.5099C135.893 28.3964 135.649 27.3884 135.157 26.5679C134.665 25.7513 133.99 25.1106 133.124 24.6457C132.258 24.1807 131.229 23.9502 130.039 23.9502H126.218V35.0657V35.0696Z" fill="#231F20"/>
  </g>
  <defs>
    <clipPath id="clip0_1385_155">
      <rect width="158" height="40" fill="white"/>
    </clipPath>
  </defs>
</svg>
