<svg width="40" height="40" viewBox="0 0 40 40" fill="none" xmlns="http://www.w3.org/2000/svg">
<path d="M20.1051 27.2314L27.0507 20.2858L20.1051 13.3401L19.0322 14.413L24.1143 19.4952H12.5383V21.0763H24.1143L19.0322 26.1585L20.1051 27.2314ZM20.1149 39.9369C17.3979 39.9369 14.843 39.4213 12.4503 38.3902C10.0576 37.359 7.9763 35.9595 6.20636 34.1918C4.43645 32.4241 3.03527 30.3454 2.0028 27.9557C0.970334 25.566 0.454102 23.0126 0.454102 20.2956C0.454102 17.5785 0.969676 15.0237 2.00082 12.631C3.03201 10.2382 4.43144 8.15692 6.19913 6.387C7.96685 4.61704 10.0455 3.21583 12.4352 2.18336C14.8249 1.15088 17.3782 0.634644 20.0952 0.634644C22.8123 0.634644 25.3671 1.15022 27.7598 2.18138C30.1525 3.21257 32.2338 4.61202 34.0037 6.37972C35.7737 8.14745 37.1749 10.2262 38.2073 12.6158C39.2398 15.0055 39.756 17.5589 39.756 20.2759C39.756 22.993 39.2404 25.5479 38.2093 27.9406C37.1781 30.3333 35.7787 32.4146 34.011 34.1846C32.2433 35.9545 30.1646 37.3557 27.7749 38.3882C25.3853 39.4207 22.8319 39.9369 20.1149 39.9369ZM20.1051 38.3558C25.1496 38.3558 29.4223 36.6052 32.9234 33.1042C36.4244 29.6031 38.1749 25.3303 38.1749 20.2858C38.1749 15.2412 36.4244 10.9684 32.9234 7.46736C29.4223 3.9663 25.1496 2.21577 20.1051 2.21577C15.0606 2.21577 10.7878 3.9663 7.28676 7.46736C3.78573 10.9684 2.03521 15.2412 2.03521 20.2858C2.03521 25.3303 3.78573 29.6031 7.28676 33.1042C10.7878 36.6052 15.0606 38.3558 20.1051 38.3558Z" fill="#F1EFE9"/>
</svg>
