<svg width="45" height="45" viewBox="0 0 45 45" fill="none" xmlns="http://www.w3.org/2000/svg">
<g clipPath="url(#clip0_222_346)">
<path d="M22.3838 18.7497C22.3868 24.6006 22.3868 30.4507 22.3868 36.3015C22.3853 39.114 22.3853 41.9258 22.3853 44.7383C22.3853 44.782 22.3729 44.8265 22.3466 45C16.127 39.233 8.68374 36.5725 0.334229 36.0778V8.21094C1.20252 8.29912 2.01026 8.36723 2.81362 8.46616C5.23609 8.76297 7.59654 9.32289 9.89424 10.1323C12.0073 10.8758 14.054 11.7776 15.9169 13.0158C17.2529 13.904 18.5677 14.8382 19.7957 15.8648C20.7078 16.6255 21.4659 17.564 22.2832 18.4329C22.3539 18.5067 22.3831 18.6429 22.3831 18.7512L22.3838 18.7497Z" fill="#2590BE"/>
<path d="M44.3332 8.24574V36.0947C40.2486 36.2797 36.3084 37.0762 32.5317 38.5624C28.7746 40.0407 25.3883 42.109 22.4281 44.9359C22.4105 44.7824 22.3865 44.6727 22.3865 44.5638C22.3865 41.8093 22.385 39.0549 22.385 36.3005C22.385 30.4525 22.3879 24.6046 22.3996 18.7566C22.4011 18.4885 22.5558 18.1572 22.7498 17.963C23.729 16.9829 24.6798 15.9591 25.7648 15.101C26.9848 14.1367 28.3157 13.2979 29.6371 12.4663C31.273 11.4375 33.0614 10.7041 34.887 10.0682C37.8363 9.03794 40.8819 8.46082 44.0005 8.24646C44.1048 8.24 44.2092 8.24502 44.3332 8.24502V8.24574Z" fill="#2590BE"/>
<path d="M22.4825 0C25.2771 2.66553 28.0717 5.33106 30.8663 7.99659C29.7703 8.25683 27.2734 9.00746 25.1034 11.2256C23.5711 12.7921 22.8349 14.4425 22.4825 15.4383C22.1366 14.4582 21.1603 12.1239 18.7211 10.2427C16.6634 8.65688 14.5708 8.16794 13.5295 7.99659C16.5131 5.33106 19.4974 2.66553 22.4825 0Z" fill="#2590BE"/>
</g>
<defs>
<clipPath id="clip0_222_346">
<rect width="44" height="45" fill="white" transform="translate(0.334229)"/>
</clipPath>
</defs>
</svg>
