<svg xmlns="http://www.w3.org/2000/svg" width="45" height="44" viewBox="0 0 45 44" fill="none">
  <g clipPath="url(#clip0_1401_823)">
    <path d="M13.6237 0H2.08853C0.935067 0 0 0.931532 0 2.08063V13.5722C0 14.7213 0.935067 15.6529 2.08853 15.6529H13.6237C14.7772 15.6529 15.7123 14.7213 15.7123 13.5722V2.08063C15.7123 0.931532 14.7772 0 13.6237 0Z" fill="#2590BE"/>
    <path d="M28.2136 14.1738H16.6784C15.5249 14.1738 14.5898 15.1054 14.5898 16.2545V27.7461C14.5898 28.8952 15.5249 29.8267 16.6784 29.8267H28.2136C29.3671 29.8267 30.3021 28.8952 30.3021 27.7461V16.2545C30.3021 15.1054 29.3671 14.1738 28.2136 14.1738Z" fill="#2590BE"/>
    <path d="M42.9118 0H31.3766C30.2232 0 29.2881 0.931532 29.2881 2.08063V13.5722C29.2881 14.7213 30.2232 15.6529 31.3766 15.6529H42.9118C44.0653 15.6529 45.0004 14.7213 45.0004 13.5722V2.08063C45.0004 0.931532 44.0653 0 42.9118 0Z" fill="#2590BE"/>
    <path d="M42.9118 28.3408H31.3766C30.2232 28.3408 29.2881 29.2724 29.2881 30.4215V41.913C29.2881 43.0622 30.2232 43.9937 31.3766 43.9937H42.9118C44.0653 43.9937 45.0004 43.0622 45.0004 41.913V30.4215C45.0004 29.2724 44.0653 28.3408 42.9118 28.3408Z" fill="#2590BE"/>
    <path d="M13.6237 28.3408H2.08853C0.935067 28.3408 0 29.2724 0 30.4215V41.913C0 43.0622 0.935067 43.9937 2.08853 43.9937H13.6237C14.7772 43.9937 15.7123 43.0622 15.7123 41.913V30.4215C15.7123 29.2724 14.7772 28.3408 13.6237 28.3408Z" fill="#2590BE"/>
  </g>
  <defs>
    <clipPath id="clip0_1401_823">
      <rect width="45" height="44" fill="white"/>
    </clipPath>
  </defs>
</svg>
