<svg width="46" height="46" viewBox="0 0 46 46" fill="none" xmlns="http://www.w3.org/2000/svg">
<g clipPath="url(#clip0_177_8)">
<path d="M21.21 24.04C21.17 27.8 21.3 31.37 21.04 34.91C20.6 40.91 15.78 45.23 10.1 44.97C4.35 44.7 -0.169996 39.83 3.66988e-06 34.06C0.170004 28.21 4.6 24 10.77 23.92C14.12 23.88 17.48 23.99 21.21 24.03V24.04Z" fill="#91CB00"/>
<path d="M21.41 21.4301C17.33 21.3001 13.65 21.3101 9.98 21.0401C4.31 20.6401 0.220002 16.0601 0.240002 10.3901C0.260002 4.9801 4.54 0.430104 9.99 0.0301043C15.51 -0.369896 20.31 3.2501 21 8.8701C21.49 12.8001 21.28 16.8101 21.41 21.4301Z" fill="#91CB00"/>
<path d="M23.36 23.9399C28.07 24.0299 31.85 23.8999 35.6 24.2099C40.98 24.6599 45.15 29.5799 44.99 34.8799C44.82 40.3199 40.53 44.8399 35.18 45.1899C29.71 45.5499 24.91 41.7899 24.01 36.3899C23.86 35.4899 23.92 34.5599 23.88 33.6399C23.72 30.4899 23.55 27.3499 23.37 23.9299L23.36 23.9399Z" fill="#91CB00"/>
<path d="M23.88 21.1899C23.99 17.0699 23.88 13.1799 24.25 9.34989C24.79 3.78989 29.76 -0.100113 35.4 0.259887C40.88 0.609887 45.16 5.23989 45.22 10.8899C45.28 16.0799 40.83 20.9699 35.48 21.2599C31.82 21.4599 28.14 21.2399 23.87 21.1999L23.88 21.1899Z" fill="#91CB00"/>
</g>
<defs>
<clipPath id="clip0_177_8">
<rect width="45.22" height="45.22" fill="white"/>
</clipPath>
</defs>
</svg>
