<svg width="52" height="45" viewBox="0 0 52 45" fill="none" xmlns="http://www.w3.org/2000/svg">
<g clipPath="url(#clip0_177_20)">
<path d="M13.1727 0C15.2896 3.44298 17.4064 6.88596 19.5233 10.3289H31.9173L37.5878 0.230263C29.4495 0.153509 21.3111 0.0767544 13.1727 0Z" fill="#2590BE"/>
<path d="M37.9937 45C35.8878 41.557 33.771 38.1031 31.6651 34.6601L19.2711 34.6272L13.5896 44.7149C21.728 44.8136 29.8663 44.9013 37.9937 45Z" fill="#2590BE"/>
<path d="M0 22.1601C4.03628 22.0066 8.08353 21.8531 12.1198 21.6996C14.3244 18.0812 16.54 14.4628 18.7446 10.8443C16.6387 7.33556 14.5328 3.83775 12.4269 0.328979C8.28095 7.60968 4.13499 14.8904 0 22.1601Z" fill="#2590BE"/>
<path d="M51.9999 22.7522C47.9198 22.6644 43.8287 22.5658 39.7485 22.478C37.4342 18.5855 35.1309 14.682 32.8167 10.7894C34.7251 7.35742 36.6226 3.91444 38.5311 0.482422C43.017 7.90567 47.514 15.3289 51.9999 22.7631V22.7522Z" fill="#2590BE"/>
<path d="M0.208374 23.0153C4.21175 22.8508 8.21512 22.6973 12.2185 22.5328C14.2586 26.3596 16.2986 30.1754 18.3387 34.0021L12.723 44.1228C8.54417 37.0833 4.37627 30.0438 0.208374 23.0153Z" fill="#2590BE"/>
<path d="M51.9013 23.9254C47.865 23.7719 43.8178 23.6293 39.7815 23.4758C37.3465 27.1381 34.9116 30.7894 32.4767 34.4517C34.7142 37.8289 36.9517 41.2061 39.1892 44.5833C43.4229 37.6973 47.6676 30.8114 51.9013 23.9254Z" fill="#2590BE"/>
</g>
<defs>
<clipPath id="clip0_177_20">
<rect width="52" height="45" fill="white"/>
</clipPath>
</defs>
</svg>
