<svg width="69" height="47" viewBox="0 0 69 47" fill="none" xmlns="http://www.w3.org/2000/svg">
<path d="M0.00314863 0.140988C9.91505 -0.658295 18.5297 1.8918 25.4819 9.04729C31.0991 14.8199 33.9202 21.8104 33.9832 29.9048C34.021 35.5505 33.9832 41.2089 33.9832 46.8673C31.225 46.8673 28.492 47.1972 25.8597 46.8166C10.6455 44.6091 0.116499 32.3153 0.0157432 16.8244C-0.0094459 11.3056 0.00314863 5.79941 0.00314863 0.140988Z" fill="#91CB00"/>
<path d="M68.8241 25.1316C69.9129 33.2176 65.8557 40.6193 59.1932 44.4089C56.2897 46.0692 53.1528 46.9817 49.7697 46.9944C45.9199 47.007 42.0831 46.9944 38.1167 46.9944C37.7537 43.0401 38.1945 39.3012 40.0481 35.8412C43.6775 29.0352 49.4456 25.347 57.3266 25.0682C60.8523 24.9415 64.391 25.0302 67.9167 25.0302C68.2278 25.0302 68.5389 25.0936 68.8241 25.1189V25.1316Z" fill="#91CB00"/>
</svg>
