<svg width="57" height="41" viewBox="0 0 57 41" fill="none" xmlns="http://www.w3.org/2000/svg">
<g clipPath="url(#clip0_177_14)">
<path d="M0 0.407227C0.00885781 0.478069 0.0177156 0.540056 0.0265734 0.610898C1.93986 13.4422 10.9394 20.6416 24.8462 20.4556L28.5044 20.4113L27.7869 18.3215C23.8718 6.83617 14.1105 0.495779 0.221445 0.407227H0Z" fill="#91CB00"/>
<path d="M28.5664 20.2786C28.6373 20.2874 28.6993 20.3051 28.7702 20.314C41.5166 22.7581 51.2867 16.6568 55.7156 3.48008L56.876 0.0176653L54.6615 -4.53062e-05C42.5352 -0.106309 33.3231 6.99564 28.6373 20.0749L28.5664 20.2786Z" fill="#91CB00"/>
<path d="M0.124023 20.562C0.132881 20.6329 0.141739 20.6948 0.150597 20.7657C2.06388 33.597 11.0634 40.7964 24.9702 40.6104L28.6285 40.5661L27.911 38.4763C23.9958 26.991 14.2345 20.6506 0.345469 20.562H0.124023Z" fill="#91CB00"/>
<path d="M28.6904 40.4334C28.7613 40.4422 28.8233 40.4599 28.8942 40.4688C41.6405 42.9128 51.4107 36.8115 55.8396 23.6349L57.0088 20.1725L54.7944 20.1547C42.6681 20.0485 33.4559 27.1504 28.7702 40.2297L28.6993 40.4334H28.6904Z" fill="#91CB00"/>
</g>
<defs>
<clipPath id="clip0_177_14">
<rect width="57" height="41" fill="white"/>
</clipPath>
</defs>
</svg>
