<svg xmlns="http://www.w3.org/2000/svg" width="33" height="44" viewBox="0 0 33 44" fill="none">
  <g clipPath="url(#clip0_1076_657)">
    <path d="M15.2133 0C16.0734 0 16.9335 0 17.7936 0C17.89 0.0274914 17.9794 0.0687285 18.0757 0.0756014C20.2432 0.268041 22.273 0.893471 24.1927 1.89691C30.7569 5.32646 34.2386 12.8591 32.5941 20.0344C31.9404 22.9072 30.7638 25.5601 29.3257 28.1031C26.0299 33.9107 21.7913 38.9828 17.0849 43.6907C16.6652 44.1031 16.3211 44.1031 15.9014 43.6701C14.7179 42.4399 13.5207 41.2302 12.3785 39.9656C9.08949 36.3093 6.09638 32.4261 3.68124 28.1237C2.23628 25.5464 1.02527 22.8729 0.392247 19.9725C0.227109 19.2234 0.123898 18.4605 -0.00683594 17.6976C-0.00683594 16.866 -0.00683594 16.0344 -0.00683594 15.2096C0.137659 14.3849 0.220228 13.5395 0.440412 12.7354C2.17436 6.2543 6.28904 2.14433 12.7776 0.439863C13.5757 0.226804 14.4014 0.14433 15.2133 0ZM24.0689 16.488C24.0344 12.3024 20.6285 8.91409 16.4863 8.94158C12.289 8.96907 8.91748 12.3849 8.945 16.5704C8.97252 20.7079 12.4404 24.1031 16.5895 24.055C20.7042 24.0137 24.1033 20.5773 24.0689 16.488Z" fill="#91CB00"/>
  </g>
  <defs>
    <clipPath id="clip0_1076_657">
      <rect width="33" height="44" fill="white"/>
    </clipPath>
  </defs>
</svg>
