<svg xmlns="http://www.w3.org/2000/svg" width="43" height="43" viewBox="0 0 43 43" fill="none">
  <g clipPath="url(#clip0_1140_89)">
    <path d="M28.78 15.2201C28.78 16.9701 28.47 18.6301 27.91 20.1701C26.01 14.4401 20.61 10.3201 14.25 10.3201C7.89 10.3201 2.76 14.2501 0.74 19.7601C0.25 18.3301 0 16.8101 0 15.2301C0 7.27008 6.45 0.830078 14.39 0.830078C22.33 0.830078 28.79 7.28008 28.79 15.2301L28.78 15.2201Z" fill="#2590BE"/>
    <path d="M26.8704 28.78C25.1204 28.81 23.4604 28.53 21.9004 27.99C27.6004 25.99 31.6304 20.53 31.5204 14.17C31.4204 7.97001 27.4004 2.75001 21.8604 0.820014C23.2804 0.310014 24.8004 0.0300139 26.3804 1.39179e-05C34.3303 -0.129986 40.8804 6.20001 41.0204 14.14C41.1504 22.09 34.8204 28.64 26.8704 28.78Z" fill="#2590BE"/>
    <path d="M13.5697 28.5696C13.4597 26.8296 13.6697 25.1496 14.1397 23.5696C16.3797 29.1696 22.0197 32.9596 28.3697 32.5796C34.5597 32.2096 39.5997 27.9696 41.2897 22.3496C41.8597 23.7396 42.2097 25.2496 42.2997 26.8296C42.7797 34.7696 36.7297 41.5896 28.8097 42.0696C20.8697 42.5496 14.0497 36.4996 13.5697 28.5696Z" fill="#2590BE"/>
    <path d="M15.1498 12.9897C16.8998 13.0397 18.5398 13.4097 20.0698 14.0197C14.2898 15.7397 9.99976 21.0097 9.79976 27.3597C9.60976 33.5597 13.3698 38.9697 18.8098 41.1597C17.3698 41.5997 15.8398 41.8097 14.2598 41.7597C6.30976 41.5097 0.0697572 34.8697 0.319757 26.9297C0.569757 18.9797 7.20976 12.7397 15.1598 12.9897H15.1498Z" fill="#2590BE"/>
  </g>
  <defs>
    <clipPath id="clip0_1140_89">
      <rect width="42.33" height="42.1" fill="white"/>
    </clipPath>
  </defs>
</svg>
