<svg xmlns="http://www.w3.org/2000/svg" width="57" height="57" viewBox="0 0 57 57" fill="none">
  <g clipPath="url(#clip0_1154_25)">
    <path d="M30.3501 0L28.2701 28.24C26.8801 27.91 23.4201 26.91 20.5601 23.86C16.5101 19.55 16.7201 14.4 16.7801 13.34C16.9001 12.16 17.5301 7.29 21.9401 3.58C25.2401 0.81 28.8801 0.18 30.3501 0Z" fill="#F68F6C"/>
    <path d="M56.5498 29.8199L28.2998 27.9399C28.6198 26.5499 29.5998 23.0799 32.6298 20.1999C36.9098 16.1199 42.0598 16.2899 43.1198 16.3499C44.3098 16.4599 49.1798 17.0599 52.9098 21.4399C55.6998 24.7199 56.3598 28.3599 56.5498 29.8199Z" fill="#F68F6C"/>
    <path d="M27.0898 56.2201L28.2998 27.9301C29.6998 28.2201 33.1898 29.1101 36.1398 32.0701C40.3198 36.2601 40.2698 41.4101 40.2398 42.4701C40.1598 43.6601 39.6798 48.5401 35.3798 52.3801C32.1698 55.2501 28.5498 56.0001 27.0898 56.2201Z" fill="#F68F6C"/>
    <path d="M0 26.92L28.3 27.94C28.02 29.34 27.15 32.84 24.21 35.81C20.05 40.02 14.9 40.01 13.84 39.98C12.65 39.91 7.76 39.46 3.9 35.19C1 31.99 0.23 28.37 0 26.92Z" fill="#F68F6C"/>
  </g>
  <defs>
    <clipPath id="clip0_1154_25">
      <rect width="56.55" height="56.22" fill="white"/>
    </clipPath>
  </defs>
</svg>
