<svg xmlns="http://www.w3.org/2000/svg" width="57" height="57" viewBox="0 0 57 57" fill="none">
  <g clipPath="url(#clip0_1311_1489)">
    <path d="M30.3501 0L28.2701 28.24C26.8801 27.91 23.4201 26.91 20.5601 23.86C16.5101 19.55 16.7201 14.4 16.7801 13.34C16.9001 12.16 17.5301 7.29 21.9401 3.58C25.2401 0.81 28.8801 0.18 30.3501 0Z" fill="#2590BE"/>
    <path d="M56.5498 29.8198L28.2998 27.9398C28.6198 26.5498 29.5998 23.0798 32.6298 20.1998C36.9098 16.1198 42.0598 16.2898 43.1198 16.3498C44.3098 16.4598 49.1798 17.0598 52.9098 21.4398C55.6998 24.7198 56.3598 28.3598 56.5498 29.8198Z" fill="#2590BE"/>
    <path d="M27.0898 56.2197L28.2998 27.9297C29.6998 28.2197 33.1898 29.1097 36.1398 32.0697C40.3198 36.2597 40.2698 41.4097 40.2398 42.4697C40.1598 43.6597 39.6798 48.5397 35.3798 52.3797C32.1698 55.2497 28.5498 55.9997 27.0898 56.2197Z" fill="#2590BE"/>
    <path d="M0 26.9199L28.3 27.9399C28.02 29.3399 27.15 32.8399 24.21 35.8099C20.05 40.0199 14.9 40.0099 13.84 39.9799C12.65 39.9099 7.76 39.4599 3.9 35.1899C1 31.9899 0.23 28.3699 0 26.9199Z" fill="#2590BE"/>
  </g>
  <defs>
    <clipPath id="clip0_1311_1489">
      <rect width="56.55" height="56.22" fill="white"/>
    </clipPath>
  </defs>
</svg>
