<svg width="50" height="51" viewBox="0 0 50 51" fill="none" xmlns="http://www.w3.org/2000/svg">
<path d="M21.8026 50.5751C20.5362 44.6401 19.2614 38.7133 18.0032 32.7948C16.9768 27.9772 15.9338 23.1513 14.957 18.3255C16.7616 12.5311 18.6571 6.76987 20.4451 0.975516C20.7431 -0.00124521 21.248 -0.100577 22.0758 0.0649759C28.3668 1.3149 34.6661 2.56482 40.9654 3.77336C41.9504 3.96375 41.8097 4.6094 41.8014 5.26334C41.6855 14.1618 41.5779 23.0603 41.462 31.9587C41.4207 35.1622 41.4124 38.3656 41.3296 41.5608C41.3213 41.9498 40.9902 42.5293 40.6508 42.6783C34.5585 45.3106 28.4496 47.8849 22.3407 50.4675C22.1917 50.5338 22.0179 50.5338 21.7944 50.5834L21.8026 50.5751Z" fill="#91CB00"/>
<path d="M19.8829 49.2011C13.2028 40.7496 6.67178 32.4885 0 24.0536C1.15059 23.648 2.16874 23.2755 3.19517 22.9278C6.3324 21.8517 9.46962 20.8005 12.5986 19.6995C13.3022 19.4512 13.5919 19.4678 13.774 20.3204C15.8103 29.7569 17.888 39.1851 19.9491 48.6133C19.9657 48.6878 19.9326 48.7706 19.8829 49.2011Z" fill="#91CB00"/>
<path d="M19.0634 0.942383C17.4741 5.94208 15.8434 10.6769 14.4776 15.4862C13.9313 17.4149 12.9462 18.3834 11.0672 18.9545C7.43332 20.0637 3.87394 21.4213 0 22.7788C0.769821 20.7591 1.44859 18.9628 2.14391 17.1666C3.31106 14.1452 4.46165 11.1156 5.66191 8.1191C5.84402 7.66383 6.20823 7.15061 6.62211 6.9354C10.5126 4.97359 14.4279 3.06974 18.3433 1.1576C18.484 1.09138 18.6495 1.06655 19.0551 0.95066L19.0634 0.942383Z" fill="#91CB00"/>
<path d="M42 40.867C42.2814 28.9555 42.5712 17.0522 42.8526 5C43.134 5.15728 43.3741 5.21522 43.5148 5.36422C45.5014 7.54951 47.4964 9.71826 49.4333 11.9532C49.7148 12.276 49.8555 12.93 49.7479 13.3439C47.3474 22.3665 44.8972 31.3726 42.4635 40.3786C42.4139 40.5608 42.3145 40.7346 42.2318 40.9084C42.1573 40.8919 42.0828 40.8753 42.0083 40.867H42Z" fill="#91CB00"/>
</svg>
