<svg xmlns="http://www.w3.org/2000/svg" width="50" height="50" viewBox="0 0 50 50" fill="none">
  <g clipPath="url(#clip0_1240_222)">
    <path d="M49.7397 24.8701C49.7297 38.5801 38.4997 49.7801 24.8297 49.7301C11.0997 49.6701 -0.100312 38.4301 -0.000312084 24.8001C0.109688 11.0701 11.1697 0.0300601 24.8497 6.00742e-05C38.5397 -0.0299399 49.7497 11.1801 49.7397 24.8701ZM24.8297 4.91006C13.9197 4.91006 4.91969 13.8901 4.90969 24.8201C4.88969 35.7501 13.8797 44.8201 24.7397 44.8301C35.7897 44.8301 44.8297 35.9001 44.8297 24.9701C44.8297 13.8801 35.8897 4.91006 24.8297 4.91006Z" fill="#F68F6C"/>
    <path d="M41.2203 24.9497C41.3403 33.8097 33.7203 41.5697 24.2503 41.2297C15.6603 40.9197 8.20031 33.5797 8.51031 24.2697C8.79031 15.6897 16.1303 8.13968 25.5603 8.49968C34.2303 8.83968 41.4003 16.1697 41.2303 24.9397L41.2203 24.9497ZM36.3303 24.8897C36.3303 18.5597 31.2403 13.4297 24.9203 13.3997C18.6003 13.3697 13.4303 18.4797 13.4003 24.7797C13.3703 31.1597 18.5003 36.3297 24.8603 36.3297C31.1803 36.3297 36.3103 31.2097 36.3203 24.8897H36.3303Z" fill="#F68F6C"/>
    <path d="M32.7903 24.8902C32.7803 29.2402 29.1903 32.7902 24.8203 32.7802C20.4803 32.7602 16.9203 29.1502 16.9603 24.7802C16.9903 20.4802 20.5603 16.9502 24.8703 16.9502C29.2303 16.9502 32.8003 20.5302 32.7903 24.8902Z" fill="#F68F6C"/>
  </g>
  <defs>
    <clipPath id="clip0_1240_222">
      <rect width="49.74" height="49.73" fill="white"/>
    </clipPath>
  </defs>
</svg>
